<svg class='letter-border' width="106.07993" height="180.00002" version="1.1" viewBox="0 0 28.066975 47.625005" xmlns="http://www.w3.org/2000/svg">
  <defs>
    <clipPath id="clipPath-A1">
      <path class='letter-border__clip-path' d="m0 0v16.183594h45.541016v16.980468h-3.621094l-41.919922 113.60156h4.0761719v16.88868h-4.0761719v16.18359h106.08008v-16.18359h-3.98438v-16.88868h3.98438l-41.759768-113.60156h-3.833984v-16.980468h45.593752v-16.183594zm53.119141 56.044922 15.68164 46.878908h-32zm-20 62.400388h39.68164l10.558594 28.32031h3.789063v16.88868h-68.126954v-16.88868h3.699219z" fill="#fff"/>
    </clipPath>
  </defs>
  <g transform="translate(1.5239989)">
    <path class='letter-border__path' transform="matrix(.2645833 0 0 .2645833 -1.5239989 0)" d="m0 16.183594h45.541016v16.980468h-3.621094l-41.919922 113.60156h4.0761719v16.88868h-4.0761719m0 16.18359h106.08008m0-16.18359h-3.98438v-16.88868h3.98438l-41.759768-113.60156h-3.833984v-16.980468h45.593752m0-16.183594h-106.08008m53.119141 56.044922 15.68164 46.878908h-32zm-20 62.400388h39.68164l10.558594 28.32031h3.789063v16.88868h-68.126954v-16.88868h3.699219z" clip-path="url(#clipPath-A1)" fill="none" stroke="#000" stroke-width="6"/>
  </g>
</svg>
