<svg class='letter-mask' width="98.279999" height="180.00002" version="1.1" viewBox="0 0 26.003243 47.625005" xmlns="http://www.w3.org/2000/svg">
  <g transform="translate(1.5239989)">
    <path class='letter-mask__path' transform="matrix(.2645833 0 0 .2645833 -1.5239989 0)" d="m0 16.183594v147.47071h11v-16.88868h-10v-113.60156h40.828125v-16.980468h-41.828125zm64.199219 0v20.359375c3.269122 1.144712 6.313529 2.575002 9.121093 4.302734 8.319994 5.013332 14.558754 11.838522 18.71875 20.478516 4.159998 8.533327 6.240235 18.027141 6.240235 28.480469v-73.621094h-34.080078zm34.080078 73.621094c0 11.519992-2.292243 21.546752-6.878906 30.080082-4.586664 8.53332-11.09287 15.14651-19.519532 19.83984-8.319993 4.69333-18.188235 7.04101-29.601562 7.04101h-12.445313v16.88868h68.445313v-73.849612zm-75.199219-37.279297v74.878909h19.199219c7.253329 0 13.387061-1.59883 18.400391-4.79883 5.013328-3.30666 8.799378-7.78808 11.359374-13.44141 2.666667-5.75999 4-12.212712 4-19.359372 0-7.359996-1.333333-13.812712-4-19.359376-2.666662-5.653328-6.506201-10.027761-11.519531-13.121093-5.013332-3.199998-11.093573-4.798828-18.240234-4.798828h-19.199219zm-23.080078 127.3125v0.16211h98.279297v-0.16211h-98.279297z" stroke-width="5.99176"/>
  </g>
</svg>
