<svg class='letter-border' width="80.880005" height="180.00002" version="1.1" viewBox="0 0 21.399496 47.625005" xmlns="http://www.w3.org/2000/svg">
  <defs>
    <clipPath id="clipPath-E1">
      <path class='letter-border__clip-path' d="m0 0v16.183594h29.828125v16.980468h-28.828125v113.60156h28.828125v16.88868h-29.828125v16.18359h80.880859v-16.18359h-28.68164v-16.88868h27.68164v-19.36132h-56.800781v-29.599612h47.839844v-17.919922h-47.839844v-27.359375h55.359375v-19.361329h-26.240234v-16.980468h28.68164v-16.183594z" fill="#fff"/>
    </clipPath>
  </defs>
  <g transform="translate(1.5239989)">
    <path class='letter-border__path' transform="matrix(.2645833 0 0 .2645833 -1.5239989 0)" d="m0 16.183594h29.828125v16.980468h-28.828125v113.60156h28.828125v16.88868h-29.828125m0 16.18359h80.880859m0-16.18359h-28.68164v-16.88868h27.68164v-19.36132h-56.800781v-29.599612h47.839844v-17.919922h-47.839844v-27.359375h55.359375v-19.361329h-26.240234v-16.980468h28.68164m0-16.183594h-80.880859" clip-path="url(#clipPath-E1)" fill="none" stroke="#000" stroke-width="6"/>
  </g>
</svg>
