<svg class='letter-border' width="116.72" height="180" version="1.1" viewBox="0 0 30.8822 47.625" xmlns="http://www.w3.org/2000/svg">
  <defs>
    <clipPath id="clipPath-M1">
      <path class='letter-border__clip-path' d="m0 0v16.1836h3v16.9805h-2v113.602h1.61133v16.8887h-2.61133v16.1836h116.721v-16.1836h-2.7207v-16.8887h1.7207v-113.602h-1.69726v-16.9805h2.69726v-16.1836zm23 16.1836h71.0234v16.9805h-1.82422l-33.9199 64.6406-33.5996-64.6406h-1.67969zm0.08008 56.0215 29.1191 55.5195h12.3203l29.1211-55.5195v74.5605h1.85938v16.8887h-74.3887v-16.8887h1.96875z" fill="#fff" stroke-width="2.73361"/>
    </clipPath>
  </defs>
  <g transform="translate(1.524)">
    <path class='letter-border__path' transform="matrix(.264583 0 0 .264583 -1.524 0)" d="m0 16.1836h3v16.9805h-2v113.602h1.61133v16.8887h-2.61133m0 16.1836h116.721m0-16.1836h-2.7207v-16.8887h1.7207v-113.602h-1.69726v-16.9805h2.69726m0-16.1836h-116.721m23 16.1836h71.0234v16.9805h-1.82422l-33.9199 64.6406-33.5996-64.6406h-1.67969zm0.08008 56.0215 29.1191 55.5195h12.3203l29.1211-55.5195v74.5605h1.85938v16.8887h-74.3887v-16.8887h1.96875z" clip-path="url(#clipPath-M1)" fill="#fff" stroke="#000" stroke-miterlimit="8.8" stroke-width="6"/>
  </g>
</svg>
