<svg class='letter-border' width="110.87993" height="180.00002" version="1.1" viewBox="0 0 29.336974 47.625005" xmlns="http://www.w3.org/2000/svg">
  <defs>
    <clipPath id="clipPath-O1">
      <path class='letter-border__clip-path' d="m0 0v16.183594h44.255859v17.363281c-3.767608 0.799942-7.374228 2.003667-10.816406 3.617187-6.719996 3.093331-12.586279 7.360784-17.599609 12.800782-4.906664 5.333329-8.7996896 11.467063-11.679688 18.40039-2.7733316 6.826664-4.1601562 14.026282-4.1601562 21.59961 0 7.253327 1.333335 14.345966 4 21.279296 2.666665 6.82666 6.399222 13.01388 11.199219 18.56055 4.906663 5.43999 10.72141 9.76094 17.441406 12.96093 3.65561 1.71357 7.531411 2.95208 11.615234 3.74805v17.14063h-44.255859v16.18359h110.88086v-16.18359h-44.25586v-17.20313c3.771858-0.77292 7.377433-1.94522 10.814453-3.52734 6.826662-3.09333 12.692946-7.30534 17.599609-12.63867 5.013328-5.44 8.908308-11.57373 11.681638-18.40039 2.77334-6.93333 4.16016-14.132952 4.16016-21.599614 0-7.25333-1.33334-14.294432-4-21.121094-2.66667-6.826664-6.40118-13.011932-11.201172-18.558593-4.799999-5.546664-10.612792-9.974586-17.439454-13.28125-3.648916-1.795499-7.526019-3.085696-11.615234-3.90625v-17.234375h44.25586v-16.183594zm55.519531 52.044922c5.119996 0 9.706434 1.065884 13.759766 3.199219 4.159998 2.026663 7.627061 4.853802 10.400391 8.480468 2.88 3.519996 5.067215 7.573493 6.560546 12.160157 1.599998 4.479998 2.400391 9.173414 2.400391 14.080078 0 4.586664-0.746903 9.173102-2.240234 13.759766-1.386666 4.48-3.466903 8.58698-6.240235 12.32031-2.773332 3.62667-6.240395 6.56078-10.40039 8.80078-4.159998 2.13334-8.906905 3.19922-14.240235 3.19922-5.226664 0-9.920081-1.01435-14.080078-3.04101-4.05333-2.13334-7.520392-4.95852-10.400391-8.47852-2.773331-3.62666-4.905105-7.73365-6.398437-12.32031-1.493333-4.586666-2.240234-9.333572-2.240234-14.240236 0-4.69333 0.693412-9.279768 2.080078-13.759766 1.493332-4.479998 3.627059-8.533492 6.40039-12.160156 2.773332-3.626664 6.184951-6.507293 10.238282-8.640625 4.159996-2.24 8.960392-3.359375 14.40039-3.359375z" fill="#fff"/>
    </clipPath>
  </defs>
  <g transform="translate(1.5239989)">
    <path class='letter-border__path' transform="matrix(.2645833 0 0 .2645833 -1.5239989 0)" d="m0 16.183594h44.255859v17.363281c-3.767608 0.799942-7.374228 2.003667-10.816406 3.617187-6.719996 3.093331-12.586279 7.360784-17.599609 12.800782-4.906664 5.333329-8.7996896 11.467063-11.679688 18.40039-2.7733316 6.826664-4.1601562 14.026282-4.1601562 21.59961 0 7.253327 1.333335 14.345966 4 21.279296 2.666665 6.82666 6.399222 13.01388 11.199219 18.56055 4.906663 5.43999 10.72141 9.76094 17.441406 12.96093 3.65561 1.71357 7.531411 2.95208 11.615234 3.74805v17.14063h-44.255859m0 16.18359h110.88086m0-16.18359h-44.25586v-17.20313c3.771858-0.77292 7.377433-1.94522 10.814453-3.52734 6.826662-3.09333 12.692946-7.30534 17.599609-12.63867 5.013328-5.44 8.908308-11.57373 11.681638-18.40039 2.77334-6.93333 4.16016-14.132952 4.16016-21.599614 0-7.25333-1.33334-14.294432-4-21.121094-2.66667-6.826664-6.40118-13.011932-11.201172-18.558593-4.799999-5.546664-10.612792-9.974586-17.439454-13.28125-3.648916-1.795499-7.526019-3.085696-11.615234-3.90625v-17.234375h44.25586m0-16.183594h-110.88086m55.519531 52.044922c5.119996 0 9.706434 1.065884 13.759766 3.199219 4.159998 2.026663 7.627061 4.853802 10.400391 8.480468 2.88 3.519996 5.067215 7.573493 6.560546 12.160157 1.599998 4.479998 2.400391 9.173414 2.400391 14.080078 0 4.586664-0.746903 9.173102-2.240234 13.759766-1.386666 4.48-3.466903 8.58698-6.240235 12.32031-2.773332 3.62667-6.240395 6.56078-10.40039 8.80078-4.159998 2.13334-8.906905 3.19922-14.240235 3.19922-5.226664 0-9.920081-1.01435-14.080078-3.04101-4.05333-2.13334-7.520392-4.95852-10.400391-8.47852-2.773331-3.62666-4.905105-7.73365-6.398437-12.32031-1.493333-4.586666-2.240234-9.333572-2.240234-14.240236 0-4.69333 0.693412-9.279768 2.080078-13.759766 1.493332-4.479998 3.627059-8.533492 6.40039-12.160156 2.773332-3.626664 6.184951-6.507293 10.238282-8.640625 4.159996-2.24 8.960392-3.359375 14.40039-3.359375z" clip-path="url(#clipPath-O1)" fill="none" stroke="#000" stroke-width="6"/>
  </g>
</svg>
