<svg class='letter-border' width="111.51993" height="180.00002" version="1.1" viewBox="0 0 29.506307 47.625005" xmlns="http://www.w3.org/2000/svg">
  <defs>
    <clipPath id="clipPath-Q1">
      <path class='letter-border__clip-path' d="m0 0v16.183594h41.828125v17.949218c-2.894308 0.764554-5.693825 1.768041-8.388672 3.03125-6.719996 3.093331-12.586279 7.360784-17.599609 12.800782-4.906664 5.333329-8.7996896 11.467063-11.679688 18.40039-2.7733316 6.826664-4.1601562 14.026282-4.1601562 21.59961 0 7.253327 1.333335 14.345966 4 21.279296 2.666665 6.82666 6.399222 12.96039 11.199219 18.40039 4.906663 5.44 10.72141 9.81443 17.441406 13.12109 6.826662 3.20001 14.398754 4.79883 22.71875 4.79883 7.999993 0 15.360082-1.54729 22.080078-4.64062 2.339944-1.06029 4.559461-2.26053 6.673828-3.58399l6.607422 7.42578h1.779297v16.88868h-92.5v16.18359h111.51953v-16.18359h-2.34961v-16.88868h2.34961l-2.34961-2.64062v-0.38086h-0.33789l-12.888671-14.48437c4.573331-5.18403 8.175531-10.97052 10.777341-17.375 2.77334-6.93333 4.16016-14.132952 4.16016-21.599614 0-7.25333-1.33334-14.294432-4-21.121094-2.66667-6.826664-6.40118-13.011932-11.201172-18.558593-4.799999-5.546664-10.612792-9.974586-17.439454-13.28125-4.363737-2.147236-9.047574-3.584997-14.041015-4.337891v-16.802734h47.320311v-16.183594zm55.519531 51.884766c5.119996 0 9.706434 1.065886 13.759766 3.199218 4.159998 2.133332 7.627061 4.960471 10.400391 8.480469 2.88 3.519998 5.067215 7.573493 6.560546 12.160156 1.599998 4.586664 2.400391 9.333571 2.400391 14.240235 0 4.586664-0.746903 9.173102-2.240234 13.759766-1.077042 3.47967-2.578594 6.73054-4.492188 9.75977l-7.828125-8.79883h-20.800781l17.447265 19.60742c-0.320488 0.18593-0.637626 0.37549-0.966796 0.55273-4.159998 2.13334-8.906905 3.19922-14.240235 3.19922-5.226664 0-9.920081-1.06588-14.080078-3.19922-4.05333-2.13333-7.520392-4.96047-10.400391-8.48047-2.773331-3.51999-4.905105-7.57349-6.398437-12.16015-1.493333-4.586666-2.240234-9.333572-2.240234-14.240236 0-4.69333 0.693412-9.279768 2.080078-13.759766 1.493332-4.479998 3.627059-8.533492 6.40039-12.160156 2.773332-3.73333 6.184951-6.667449 10.238282-8.800781 4.159996-2.240001 8.960392-3.359375 14.40039-3.359375z" fill="#fff"/>
    </clipPath>
  </defs>
  <g transform="translate(1.5239989)">
    <path class='letter-border__path' transform="matrix(.2645833 0 0 .2645833 -1.5239989 0)" d="m111.51953 163.6543h-2.34961v-16.88868h2.34961l-2.34961-2.64062v-0.38086h-0.33789l-12.888671-14.48437c4.573331-5.18403 8.175531-10.97052 10.777341-17.375 2.77334-6.93333 4.16016-14.132952 4.16016-21.599614 0-7.25333-1.33334-14.294432-4-21.121094-2.66667-6.826664-6.40118-13.011932-11.201172-18.558593-4.799999-5.546664-10.612792-9.974586-17.439454-13.28125-4.363737-2.147236-9.047574-3.584997-14.041015-4.337891v-16.802734h47.320311m0-16.183594h-111.51953m0 16.183594h41.828125v17.949218c-2.894308 0.764554-5.693825 1.768041-8.388672 3.03125-6.719996 3.093331-12.586279 7.360784-17.599609 12.800782-4.906664 5.333329-8.7996896 11.467063-11.679688 18.40039-2.7733316 6.826664-4.1601562 14.026282-4.1601562 21.59961 0 7.253327 1.333335 14.345966 4 21.279296 2.666665 6.82666 6.399222 12.96039 11.199219 18.40039 4.906663 5.44 10.72141 9.81443 17.441406 13.12109 6.826662 3.20001 14.398754 4.79883 22.71875 4.79883 7.999993 0 15.360082-1.54729 22.080078-4.64062 2.339944-1.06029 4.559461-2.26053 6.673828-3.58399l6.607422 7.42578h1.779297v16.88868h-92.5m0 16.18359h111.51953m-55.999999-127.95312c5.119996 0 9.706434 1.065886 13.759766 3.199218 4.159998 2.133332 7.627061 4.960471 10.400391 8.480469 2.88 3.519998 5.067215 7.573493 6.560546 12.160156 1.599998 4.586664 2.400391 9.333571 2.400391 14.240235 0 4.586664-0.746903 9.173102-2.240234 13.759766-1.077042 3.47967-2.578594 6.73054-4.492188 9.75977l-7.828125-8.79883h-20.800781l17.447265 19.60742c-0.320488 0.18593-0.637626 0.37549-0.966796 0.55273-4.159998 2.13334-8.906905 3.19922-14.240235 3.19922-5.226664 0-9.920081-1.06588-14.080078-3.19922-4.05333-2.13333-7.520392-4.96047-10.400391-8.48047-2.773331-3.51999-4.905105-7.57349-6.398437-12.16015-1.493333-4.586666-2.240234-9.333572-2.240234-14.240236 0-4.69333 0.693412-9.279768 2.080078-13.759766 1.493332-4.479998 3.627059-8.533492 6.40039-12.160156 2.773332-3.73333 6.184951-6.667449 10.238282-8.800781 4.159996-2.240001 8.960392-3.359375 14.40039-3.359375z" clip-path="url(#clipPath-Q1)" fill="none" stroke="#000" stroke-width="6"/>
  </g>
</svg>
