<svg class='letter-mask' width="111.51993" height="180.00002" version="1.1" viewBox="0 0 29.506307 47.625005" xmlns="http://www.w3.org/2000/svg">
  <g transform="translate(1.5239989)">
    <path class='letter-mask__path' transform="matrix(.2645833 0 0 .2645833 -1.5239989 0)" d="m0 16.183594v73.78125c0-7.573328 1.3868247-14.772946 4.1601562-21.59961 2.8799982-6.933327 6.7730238-13.067061 11.679688-18.40039 5.01333-5.439998 10.879613-9.707451 17.599609-12.800782 2.694847-1.263208 5.494364-2.266696 8.388672-3.03125v-17.949218h-41.828125zm0 73.78125v73.689456h92.5v-16.88868h-1.779297l-6.607422-7.42578c-2.114367 1.32346-4.333884 2.5237-6.673828 3.58399-6.719996 3.09333-14.080085 4.64062-22.080078 4.64062-8.319996 0-15.892088-1.59882-22.71875-4.79883-6.719996-3.30665-12.534743-7.68109-17.441406-13.12109-4.799997-5.44-8.532554-11.57373-11.199219-18.40039-2.666665-6.93333-4-14.025969-4-21.279296zm64.199219-73.78125v16.802734c4.993441 0.752894 9.677278 2.190655 14.041015 4.337891 6.826662 3.306664 12.639455 7.734586 17.439454 13.28125 4.799992 5.546661 8.534502 11.73193 11.201172 18.558593 2.66666 6.826662 4 13.867764 4 21.121094 0 7.466662-1.38682 14.666284-4.16016 21.599614-2.60181 6.40448-6.20401 12.19097-10.777341 17.375l12.888671 14.48437h0.33789v0.38086l2.34961 2.64062v-130.58203h-47.320311zm47.320311 130.58203h-2.34961v16.88868h2.34961v-16.88868zm-55.999999-94.880854c-5.439998 0-10.240394 1.119374-14.40039 3.359375-4.053331 2.133332-7.46495 5.067451-10.238282 8.800781-2.773331 3.626664-4.907058 7.680158-6.40039 12.160156-1.386666 4.479998-2.080078 9.066436-2.080078 13.759766 0 4.906664 0.746901 9.653568 2.240234 14.240236 1.493332 4.58666 3.625107 8.64016 6.398437 12.16015 2.879999 3.52 6.347061 6.34714 10.400391 8.48047 4.159997 2.13334 8.853414 3.19922 14.080078 3.19922 5.33333 0 10.080237-1.06588 14.240235-3.19922 0.32917-0.17724 0.646309-0.3668 0.966796-0.55273l-17.447265-19.60742h20.800781l7.828125 8.79883c1.913594-3.02923 3.415146-6.2801 4.492188-9.75977 1.493331-4.586665 2.240234-9.173102 2.240234-13.759766 0-4.906664-0.800393-9.653571-2.400391-14.240235-1.493331-4.586663-3.680547-8.640158-6.560546-12.160156-2.77333-3.519998-6.240393-6.347137-10.400391-8.480469-4.053332-2.133332-8.63977-3.199218-13.759766-3.199218zm-55.519531 127.95312v0.16211h111.51953v-0.16211h-111.51953z" stroke-width="6.3826"/>
  </g>
</svg>
