<svg class='letter-border' width="92.8399" height="180" version="1.1" viewBox="0 0 24.5639 47.625" xmlns="http://www.w3.org/2000/svg">
  <defs>
    <clipPath id="clipPath-R1">
      <path class='letter-border__clip-path' d="m0 0v16.1836h24.8164v16.9805h-23.8164v113.602h2v16.8887h-3v16.1836h92.8398v-16.1836h-3.43164v-16.8887h3.43164l-25.9199-42.7207c4.16-1.81333 7.78753-4.37302 10.8809-7.67969 3.09333-3.30666 5.43906-7.1462 7.03906-11.5195 1.70666-4.48 2.56055-9.12188 2.56055-13.9219 0-4.69333-0.907371-9.27977-2.7207-13.7598-1.70667-4.48-4.21287-8.53349-7.51953-12.1602-3.2-3.62666-7.03953-6.50534-11.5195-8.63867-3.81713-1.86201-7.96052-2.91162-12.4277-3.14844v-17.0332h39.627v-16.1836zm23.0801 52.5254h26.7207c2.66666 0 5.11938 0.798438 7.35938 2.39844 2.34666 1.6 4.26643 3.78722 5.75977 6.56055 1.49333 2.66666 2.24023 5.81279 2.24023 9.43945 0 3.41333-0.639922 6.50792-1.91992 9.28125-1.28 2.77333-2.98776 5.01208-5.12109 6.71875-2.13333 1.6-4.58604 2.40039-7.35938 2.40039h-27.6797zm0 56.1602h22.0801l23.3594 38.0801h2.88867v16.8887h-50.4082v-16.8887h2.08008z" fill="#fff"/>
    </clipPath>
  </defs>
  <g transform="translate(1.524)">
    <path class='letter-border__path' transform="matrix(.264583 0 0 .264583 -1.524 0)" d="m0 16.1836h24.8164v16.9805h-23.8164v113.602h2v16.8887h-3m0 16.1836h92.8398m0-16.1836h-3.43164v-16.8887h3.43164l-25.9199-42.7207c4.16-1.81333 7.78753-4.37302 10.8809-7.67969 3.09333-3.30666 5.43906-7.1462 7.03906-11.5195 1.70666-4.48 2.56055-9.12188 2.56055-13.9219 0-4.69333-0.907371-9.27977-2.7207-13.7598-1.70667-4.48-4.21287-8.53349-7.51953-12.1602-3.2-3.62666-7.03953-6.50534-11.5195-8.63867-3.81713-1.86201-7.96052-2.91162-12.4277-3.14844v-17.0332h39.627m0-16.1836h-92.8398m23.0801 52.5254h26.7207c2.66666 0 5.11938 0.798438 7.35938 2.39844 2.34666 1.6 4.26643 3.78722 5.75977 6.56055 1.49333 2.66666 2.24023 5.81279 2.24023 9.43945 0 3.41333-0.639922 6.50792-1.91992 9.28125-1.28 2.77333-2.98776 5.01208-5.12109 6.71875-2.13333 1.6-4.58604 2.40039-7.35938 2.40039h-27.6797zm0 56.1602h22.0801l23.3594 38.0801h2.88867v16.8887h-50.4082v-16.8887h2.08008z" clip-path="url(#clipPath-R1)" fill="#fff" stroke="#000" stroke-width="6"/>
  </g>
</svg>
