<svg class='letter-mask' width="92.8399" height="180" version="1.1" viewBox="0 0 24.5639 47.625" xmlns="http://www.w3.org/2000/svg">
  <g transform="translate(1.524)">
    <path class='letter-mask__path' transform="matrix(.264583 0 0 .264583 -1.524 0)" d="m0 16.1836v147.471h3v-16.8887h-2v-113.602h23.8164v-16.9805h-24.8164zm53.2129 0v17.0332c4.46721 0.236812 8.61061 1.28642 12.4277 3.14844 4.48 2.13333 8.31953 5.01201 11.5195 8.63867 3.30666 3.62666 5.81287 7.68016 7.51953 12.1602 1.81333 4.48 2.7207 9.06644 2.7207 13.7598 0 4.8-0.853882 9.44188-2.56055 13.9219-1.6 4.37333-3.94573 8.21287-7.03906 11.5195-3.09333 3.30666-6.72086 5.86636-10.8809 7.67969l25.9199 42.7207v-130.582h-39.627zm39.627 130.582h-3.43164v16.8887h3.43164v-16.8887zm-69.7598-94.2402v36.7988h27.6797c2.77333 0 5.22604-0.800392 7.35938-2.40039 2.13333-1.70666 3.84109-3.94542 5.12109-6.71875 1.28-2.77333 1.91992-5.86792 1.91992-9.28125 0-3.62666-0.746902-6.77279-2.24023-9.43945-1.49333-2.77333-3.4131-4.96055-5.75977-6.56055-2.24-1.6-4.69271-2.39844-7.35938-2.39844h-26.7207zm0 56.1602v38.0801h-2.08008v16.8887h50.4082v-16.8887h-2.88867l-23.3594-38.0801h-22.0801zm-23.0801 71.1523v0.16211h92.8398v-0.16211h-92.8398z" stroke-width="5.82357"/>
  </g>
</svg>
