<svg class='letter-border' width="89.919922" height="180" version="1.1" viewBox="0 0 23.79131 47.625002" xmlns="http://www.w3.org/2000/svg">
  <defs>
    <clipPath id="clipPath-S1">
      <path class='letter-border__clip-path' d="m0 0v16.183594h34.236328v17.447265c-3.124242 0.686814-6.115486 1.642325-8.957031 2.894532-6.293329 2.666665-11.305732 6.66667-15.039063 12-3.6266636 5.226663-5.4394528 11.73287-5.4394528 19.519531 0 5.759995 1.1728663 10.560393 3.5195313 14.40039 2.3466645 3.839998 5.9187535 7.039612 10.71875 9.59961 4.799997 2.453332 10.775214 4.694037 17.921876 6.720703 5.973329 1.706665 11.146201 3.305495 15.519531 4.798825 4.373329 1.38667 7.786902 3.04094 10.240234 4.96094s3.679688 4.58667 3.679688 8c0 3.73333-1.547296 6.61201-4.640625 8.63867-3.093332 2.02667-7.62628 3.04102-13.59961 3.04102-4.266664 0-8.480628-0.53295-12.640625-1.59961-4.159997-1.06667-7.999534-2.34651-11.519531-3.83985-3.519998-1.6-6.507606-3.14729-8.960938-4.64062-2.453331-1.6-4.159141-2.87984-5.1191401-3.83984l-9.7597656 19.03906c4.3733302 3.09333 9.1737276 5.76 14.400391 8 5.226663 2.13333 10.666983 3.7876 16.320312 4.96094 1.118968 0.23223 2.236502 0.43482 3.355469 0.62109v16.74805h-34.236328v16.18359h89.759766v-16.18359h-34.076172v-16.01172c2.806038-0.29263 5.526332-0.74191 8.15625-1.35742 5.013332-1.28 9.492789-3.25326 13.439453-5.91993 3.946663-2.66666 7.041252-6.13372 9.28125-10.40039 2.24-4.37333 3.359375-9.59969 3.359375-15.67968 0-6.93333-1.493803-12.48063-4.480469-16.640629-2.879997-4.266663-7.092008-7.680237-12.638672-10.240234-5.439995-2.666664-11.894667-4.905416-19.361328-6.71875-5.759995-1.493332-10.560392-2.880159-14.400391-4.160156-3.839997-1.28-6.718673-2.827294-8.638671-4.640625-1.919999-1.813332-2.88086-4.266044-2.88086-7.359375 0-4.05333 1.493805-7.201407 4.480469-9.441407 3.093331-2.239997 7.626281-3.359375 13.599609-3.359375 3.413332 0 6.773415 0.479453 10.080079 1.439453 3.306663 0.853332 6.347761 1.867684 9.121093 3.041016 2.879998 1.173334 5.279219 2.39969 7.199219 3.679688 2.026666 1.28 3.41349 2.292396 4.160156 3.039062l9.759766-17.919922c-3.306664-2.239997-7.039221-4.318281-11.199219-6.238281-4.159998-1.919998-8.641411-3.467293-13.441406-4.640625-1.817101-0.454275-3.682668-0.817308-5.595703-1.095703v-16.845703h34.076172v-16.183594z" fill="#fff"/>
    </clipPath>
  </defs>
  <g transform="translate(1.5239989)">
    <path class='letter-border__path' transform="matrix(.26458332 0 0 .26458332 -1.5239989 0)" d="m0 16.183594h34.236328v17.447265c-3.124242 0.686814-6.115486 1.642325-8.957031 2.894532-6.293329 2.666665-11.305732 6.66667-15.039063 12-3.6266636 5.226663-5.4394528 11.73287-5.4394528 19.519531 0 5.759995 1.1728663 10.560393 3.5195313 14.40039 2.3466645 3.839998 5.9187535 7.039612 10.71875 9.59961 4.799997 2.453332 10.775214 4.694037 17.921876 6.720703 5.973329 1.706665 11.146201 3.305495 15.519531 4.798825 4.373329 1.38667 7.786902 3.04094 10.240234 4.96094s3.679688 4.58667 3.679688 8c0 3.73333-1.547296 6.61201-4.640625 8.63867-3.093332 2.02667-7.62628 3.04102-13.59961 3.04102-4.266664 0-8.480628-0.53295-12.640625-1.59961-4.159997-1.06667-7.999534-2.34651-11.519531-3.83985-3.519998-1.6-6.507606-3.14729-8.960938-4.64062-2.453331-1.6-4.159141-2.87984-5.1191401-3.83984l-9.7597656 19.03906c4.3733302 3.09333 9.1737276 5.76 14.400391 8 5.226663 2.13333 10.666983 3.7876 16.320312 4.96094 1.118968 0.23223 2.236502 0.43482 3.355469 0.62109v16.74805h-34.236328m0 16.18359h89.759766m0-16.18359h-34.076172v-16.01172c2.806038-0.29263 5.526332-0.74191 8.15625-1.35742 5.013332-1.28 9.492789-3.25326 13.439453-5.91993 3.946663-2.66666 7.041252-6.13372 9.28125-10.40039 2.24-4.37333 3.359375-9.59969 3.359375-15.67968 0-6.93333-1.493803-12.48063-4.480469-16.640629-2.879997-4.266663-7.092008-7.680237-12.638672-10.240234-5.439995-2.666664-11.894667-4.905416-19.361328-6.71875-5.759995-1.493332-10.560392-2.880159-14.400391-4.160156-3.839997-1.28-6.718673-2.827294-8.638671-4.640625-1.919999-1.813332-2.88086-4.266044-2.88086-7.359375 0-4.05333 1.493805-7.201407 4.480469-9.441407 3.093331-2.239997 7.626281-3.359375 13.599609-3.359375 3.413332 0 6.773415 0.479453 10.080079 1.439453 3.306663 0.853332 6.347761 1.867684 9.121093 3.041016 2.879998 1.173334 5.279219 2.39969 7.199219 3.679688 2.026666 1.28 3.41349 2.292396 4.160156 3.039062l9.759766-17.919922c-3.306664-2.239997-7.039221-4.318281-11.199219-6.238281-4.159998-1.919998-8.641411-3.467293-13.441406-4.640625-1.817101-0.454275-3.682668-0.817308-5.595703-1.095703v-16.845703h34.076172m0-16.183594h-89.759766" clip-path="url(#clipPath-S1)" fill="none" stroke="#000" stroke-width="6"/>
  </g>
</svg>
