<svg class='letter-mask' width="89.919937" height="180" version="1.1" viewBox="0 0 23.791314 47.625002" xmlns="http://www.w3.org/2000/svg">
  <g transform="translate(1.5239989)">
    <path class='letter-mask__path' transform="matrix(.26458332 0 0 .26458332 -1.5239989 0)" d="m0 16.183594v147.47071h34.236328v-16.74805c-1.118967-0.18627-2.236501-0.38886-3.355469-0.62109-5.653329-1.17334-11.093649-2.82761-16.320312-4.96094-5.2266631-2.24-10.027061-4.90667-14.400391-8l9.7597656-19.03906c0.9599991 0.96 2.6658101 2.23984 5.1191401 3.83984 2.453332 1.49333 5.44094 3.04063 8.960938 4.64062 3.519997 1.49334 7.359534 2.77318 11.519531 3.83985 4.159997 1.06666 8.373961 1.59961 12.640625 1.59961 5.97333 0 10.506278-1.01435 13.59961-3.04102 3.093329-2.02666 4.640625-4.90534 4.640625-8.63867 0-3.41333-1.226356-6.08-3.679688-8s-5.866905-3.57427-10.240234-4.96094c-4.37333-1.49333-9.546203-3.09216-15.519531-4.798825-7.146662-2.026666-13.121879-4.267371-17.921876-6.720703-4.799995-2.559998-8.372085-5.759612-10.71875-9.59961-2.346665-3.839996-3.5195313-8.640395-3.5195313-14.40039 0-7.786661 1.8127896-14.292868 5.4394528-19.519531 3.733331-5.33333 8.745734-9.333335 15.039063-12 2.841545-1.252207 5.832789-2.207718 8.957031-2.894532v-17.447265h-34.236328zm55.683594 0v16.845703c1.913035 0.278395 3.778602 0.641428 5.595703 1.095703 4.799995 1.173332 9.281408 2.720627 13.441406 4.640625 4.159998 1.92 7.892555 3.998284 11.199219 6.238281l-9.759766 17.919922c-0.746666-0.746666-2.13349-1.759062-4.160156-3.039062-1.92-1.279998-4.319221-2.506354-7.199219-3.679688-2.773332-1.173332-5.814431-2.187684-9.121093-3.041016-3.306664-0.959999-6.666747-1.439453-10.080079-1.439453-5.973328 0-10.506278 1.119378-13.599609 3.359375-2.986664 2.24-4.480469 5.388077-4.480469 9.441407 0 3.093331 0.960861 5.546043 2.88086 7.359375 1.919998 1.813331 4.798675 3.360625 8.638671 4.640625 3.839999 1.279997 8.640396 2.666824 14.400391 4.160156 7.466661 1.813334 13.921333 4.052086 19.361328 6.71875 5.546664 2.559997 9.758675 5.973571 12.638672 10.240234 2.452899 3.416539 3.881825 7.784949 4.320313 13.072269v-94.533206h-34.076172zm34.076172 101.82618c-0.372614 4.51365-1.431625 8.50406-3.199219 11.95507-2.239998 4.26667-5.334587 7.73373-9.28125 10.40039-3.946664 2.66667-8.426121 4.63993-13.439453 5.91993-2.629918 0.61551-5.350212 1.06479-8.15625 1.35742v16.01172h34.076172v-45.64453zm-89.759766 61.82812v0.16211h89.759766v-0.16211h-89.759766z" stroke-width="5.72617"/>
  </g>
</svg>
