<svg class='letter-border' width="101.36" height="180" version="1.1" viewBox="0 0 26.818167 47.625001" xmlns="http://www.w3.org/2000/svg">
  <defs>
    <clipPath id="clipPath-U1">
      <path class='letter-border__clip-path' d="m0 0v16.183594h4.3554688v16.980468h-3.3554688v57.919922c0 7.359995 0.90737121 14.454586 2.7207031 21.281246 1.8133319 6.72 4.6385185 12.74675 8.4785159 18.08008 3.946663 5.33333 9.067999 9.54534 15.361328 12.63867 4.499441 2.09974 9.67276 3.44677 15.490234 4.07032v16.5h-43.050781v16.18359h101.35938v-16.18359h-43.048833v-16.49805c5.597744-0.60595 10.610724-1.89899 15.009765-3.91211 6.293327-2.98666 11.41271-7.04016 15.359376-12.16016 4.053329-5.22666 6.987449-11.25341 8.800781-18.08007 1.92-6.82666 2.878911-14.133265 2.878911-21.919926v-57.919922h-3.099614v-16.980468h4.099614v-16.183594zm19.615234 16.183594h62.384766v16.980468h-3.560547v57.919922c0 4.586664-0.479456 9.121566-1.439453 13.601566-0.96 4.37333-2.507293 8.31984-4.640625 11.83984-2.026666 3.52-4.851852 6.34518-8.478516 8.47852-3.519997 2.02666-7.947921 3.04101-13.28125 3.04101-5.226663 0-9.599143-1.01435-13.11914-3.04101-3.519997-2.02667-6.347137-4.79837-8.480469-8.31836-2.133332-3.52-3.680626-7.46652-4.640625-11.83985-0.853333-4.47999-1.279297-9.068387-1.279297-13.761716v-57.919922h-3.464844z" fill="#fff"/>
    </clipPath>
  </defs>
  <path class='letter-border__path' transform="scale(.26458334)" d="m0 16.183594h4.3554688v16.980468h-3.3554688v57.919922c0 7.359995 0.9073712 14.454586 2.7207031 21.281246 1.8133319 6.72 4.6385185 12.74675 8.4785159 18.08008 3.946663 5.33333 9.067999 9.54534 15.361328 12.63867 4.499441 2.09974 9.67276 3.44677 15.490234 4.07032v16.5h-43.050781m0 16.18359h101.35938m0-16.18359h-43.048833v-16.49805c5.597744-0.60595 10.610724-1.89899 15.009765-3.91211 6.293327-2.98666 11.41271-7.04016 15.359376-12.16016 4.053329-5.22666 6.987449-11.25341 8.800781-18.08007 1.92-6.82666 2.878911-14.133265 2.878911-21.919926v-57.919922h-3.099614v-16.980468h4.099614m0-16.183594h-101.35938m19.615234 16.183594h62.384766v16.980468h-3.560547v57.919922c0 4.586664-0.479456 9.121566-1.439453 13.601566-0.96 4.37333-2.507293 8.31984-4.640625 11.83984-2.026666 3.52-4.851852 6.34518-8.478516 8.47852-3.519997 2.02666-7.947921 3.04101-13.28125 3.04101-5.226663 0-9.599143-1.01435-13.11914-3.04101-3.519997-2.02667-6.347137-4.79837-8.480469-8.31836-2.133332-3.52-3.680626-7.46652-4.640625-11.83985-0.853333-4.47999-1.279297-9.068387-1.279297-13.761716v-57.919922h-3.464844z" clip-path="url(#clipPath-U1)" fill="none" stroke="#000" stroke-width="6"/>
</svg>
