<svg class='letter-mask' width="101.36" height="180" version="1.1" viewBox="0 0 26.818167 47.625001" xmlns="http://www.w3.org/2000/svg">
  <path class='letter-mask__path' transform="scale(.26458334)" d="m0 16.183594v147.47071h43.050781v-16.5c-5.817474-0.62355-10.990793-1.97058-15.490234-4.07032-6.293329-3.09333-11.414665-7.30534-15.361328-12.63867-3.8399977-5.33333-6.665184-11.36008-8.4785159-18.08008-1.8133319-6.82666-2.7207031-13.921251-2.7207031-21.281246v-57.919922h3.3554688v-16.980468h-4.3554688zm19.615234 0v16.980468h3.464844v57.919922c0 4.693329 0.425964 9.281726 1.279297 13.761716 0.959999 4.37333 2.507293 8.31985 4.640625 11.83985 2.133332 3.51999 4.960472 6.29169 8.480469 8.31836 3.519997 2.02666 7.892477 3.04101 13.11914 3.04101 5.333329 0 9.761253-1.01435 13.28125-3.04101 3.626664-2.13334 6.45185-4.95852 8.478516-8.47852 2.133332-3.52 3.680625-7.46651 4.640625-11.83984 0.959997-4.48 1.439453-9.014902 1.439453-13.601566v-57.919922h3.560547v-16.980468h-62.384766zm77.644532 0v16.980468h3.099614v57.919922c0 7.786661-0.958911 15.093266-2.878911 21.919926-1.813332 6.82666-4.747452 12.85341-8.800781 18.08007-3.946667 5.12-9.066048 9.1735-15.359376 12.16016-4.399041 2.01312-9.412021 3.30616-15.009765 3.91211v16.49805h43.048833v-147.47071h-4.099614zm-97.259766 163.6543v0.16211h101.35938v-0.16211h-101.35938z" stroke-width="6.08496"/>
</svg>
