<svg class='letter-border' width="82.720001" height="180" version="1.1" viewBox="0 0 21.886332 47.625002" xmlns="http://www.w3.org/2000/svg">
 <defs>
  <clipPath id="clipPath-a1">
   <path class='letter-border__clip-path' d="m0 0v16.183594h36.837891v45.36914c-5.378276 0.230022-10.566492 1.109331-15.558594 2.652344-5.759996 1.813334-11.412322 4.533493-16.958984 8.160156l6.8789065 14.080078c4.586663-3.093329 8.961096-5.441015 13.121093-7.041015 4.159998-1.599998 8.532478-2.400391 13.119141-2.400391 6.186661 0 10.82659 1.440315 13.919922 4.320313 3.199998 2.879997 4.800781 6.986983 4.800781 12.320312v4.480469c-2.666663-1.173332-5.812787-2.027215-9.439453-2.560547-3.626663-0.533334-7.200705-0.798828-10.720703-0.798828-7.039995 0-13.280707 1.119377-18.720703 3.359375-5.439996 2.24-9.7054972 5.43961-12.798828 9.59961-2.9866644 4.05333-4.4804688 8.80024-4.4804688 14.24023 0 5.01333 1.2263561 9.54628 3.6796875 13.59961 2.5599981 3.94667 6.0270605 7.09278 10.40039 9.43946 2.331268 1.16563 4.80958 2.02296 7.429688 2.58203v16.06836h-21.509766v16.18359h82.720703v-16.18359h-4.326172v-16.23438c1.358053-0.19055 2.753397-0.39217 4.326172-0.6543v-17.4414c-1.813332-0.21333-3.146668-0.79977-4-1.75977-0.746666-0.96-1.121094-2.55883-1.121094-4.79883v-26.720698c0-11.093324-3.360083-19.62628-10.080078-25.59961-3.150362-2.845488-6.912814-5.006098-11.273437-6.496093v-47.765625h26.474609v-16.183594zm39.359375 107.08398c2.666665 0 5.493803 0.32094 8.480469 0.96094 2.986663 0.53334 5.760315 1.33373 8.320312 2.40039v8.47852c0 1.06666-0.374428 2.24148-1.121094 3.52148-0.746665 1.28-1.705574 2.55985-2.878906 3.83985-1.92 1.81333-4.426199 3.35867-7.519531 4.63867-3.09333 1.17333-6.241409 1.76172-9.441406 1.76172-3.093331 0-5.760002-0.58839-8-1.76172-2.239999-1.17333-3.945808-2.71867-5.119141-4.63867-1.173332-1.92-1.759766-3.94675-1.759766-6.08008 1e-6 -3.94667 1.7593-7.09279 5.279297-9.43946 3.626664-2.45333 8.213104-3.68164 13.759766-3.68164zm20 26.56055 0.480469 4.32031c0.4492 2.33584 1.47438 4.36521 3.058594 6.09571v19.59375h-20.935547v-17.56446c1.271236-0.45555 2.537079-0.9716 3.796875-1.56445 5.439995-2.56 9.972946-6.18753 13.599609-10.88086z" fill="#fff"/>
  </clipPath>
 </defs>
 <g transform="translate(1.5239989)">
  <path class='letter-border__path' transform="matrix(.26458333 0 0 .26458333 -1.5239989 0)" d="m82.720703 0h-82.720703m0 16.183594h36.837891v45.36914c-5.378276 0.230022-10.566492 1.109331-15.558594 2.652344-5.759996 1.813334-11.412322 4.533493-16.958984 8.160156l6.8789065 14.080078c4.586663-3.093329 8.961096-5.441015 13.121093-7.041015 4.159998-1.599998 8.532478-2.400391 13.119141-2.400391 6.186661 0 10.82659 1.440315 13.919922 4.320313 3.199998 2.879997 4.800781 6.986983 4.800781 12.320312v4.480469c-2.666663-1.173332-5.812787-2.027215-9.439453-2.560547-3.626663-0.533334-7.200705-0.798828-10.720703-0.798828-7.039995 0-13.280707 1.119377-18.720703 3.359375-5.439996 2.24-9.7054972 5.43961-12.798828 9.59961-2.9866644 4.05333-4.4804688 8.80024-4.4804688 14.24023 0 5.01333 1.2263561 9.54628 3.6796875 13.59961 2.5599981 3.94667 6.0270605 7.09278 10.40039 9.43946 2.331268 1.16563 4.80958 2.02296 7.429688 2.58203v16.06836h-21.509766m0 16.18359h82.720703m0-16.18359h-4.326172v-16.23438c1.358053-0.19055 2.753397-0.39217 4.326172-0.6543v-17.4414c-1.813332-0.21333-3.146668-0.79977-4-1.75977-0.746666-0.96-1.121094-2.55883-1.121094-4.79883v-26.720698c0-11.093324-3.360083-19.62628-10.080078-25.59961-3.150362-2.845488-6.912814-5.006098-11.273437-6.496093v-47.765625h26.474609m-43.361328 90.900386c2.666665 0 5.493803 0.32094 8.480469 0.96094 2.986663 0.53334 5.760315 1.33373 8.320312 2.40039v8.47852c0 1.06666-0.374428 2.24148-1.121094 3.52148-0.746665 1.28-1.705574 2.55985-2.878906 3.83985-1.92 1.81333-4.426199 3.35867-7.519531 4.63867-3.09333 1.17333-6.241409 1.76172-9.441406 1.76172-3.093331 0-5.760002-0.58839-8-1.76172-2.239999-1.17333-3.945808-2.71867-5.119141-4.63867-1.173332-1.92-1.759766-3.94675-1.759766-6.08008 1e-6 -3.94667 1.7593-7.09279 5.279297-9.43946 3.626664-2.45333 8.213104-3.68164 13.759766-3.68164zm20 26.56055 0.480469 4.32031c0.4492 2.33584 1.47438 4.36521 3.058594 6.09571v19.59375h-20.935547v-17.56446c1.271236-0.45555 2.537079-0.9716 3.796875-1.56445 5.439995-2.56 9.972946-6.18753 13.599609-10.88086z" clip-path="url(#clipPath-a1)" fill="none" stroke="#000" stroke-width="6"/>
 </g>
</svg>
