<svg class='letter-border' width="88.879997" height="180" version="1.1" viewBox="0 0 23.516165 47.625002" xmlns="http://www.w3.org/2000/svg">
  <defs>
    <clipPath id="clipPath-b1">
      <path class='letter-border__clip-path' d="m0 0v16.183594h3.5v13.78125h-2.5v116.80078h1.5v16.88868h-2.5v16.18359h88.880859v-16.18359h-28.595703v-17c1.338946-0.42081 2.645277-0.91352 3.914063-1.49024 4.799997-2.23999 8.960471-5.33263 12.480469-9.27929 3.519997-4.05334 6.240158-8.69326 8.160156-13.91993 2.026666-5.22666 3.041015-10.82745 3.041015-16.80078 0-5.973327-0.907371-11.572162-2.720703-16.798826-1.706666-5.226663-4.212868-9.866592-7.519531-13.919922-3.199997-4.053331-7.041487-7.201408-11.521484-9.441406-4.479998-2.346666-9.438912-3.519531-14.878907-3.519531-6.50666 0-12.214429 1.440315-17.121093 4.320313-4.799997 2.879999-8.693023 6.826514-11.679688 11.839843v-47.679687h-2.939453v-13.78125h69.380859v-16.183594zm44.039062 79.724609c4.373332 0 8.161331 1.172868 11.361329 3.519532 3.306663 2.346665 5.866355 5.494743 7.679687 9.441406 1.92 3.839997 2.878906 8.052013 2.878906 12.638673 0 3.30666-0.586431 6.50628-1.759765 9.59961-1.066666 2.98666-2.665497 5.6018-4.798828 7.84179-2.026664 2.24-4.481331 4.05279-7.361329 5.43946-2.773331 1.28-5.865965 1.91992-9.279296 1.91992-2.026666 0-4.106904-0.32094-6.240235-0.96094-2.026665-0.74666-3.999923-1.70557-5.919922-2.8789-1.919998-1.28-3.625808-2.77381-5.11914-4.48047-1.386666-1.70667-2.401016-3.62644-3.041016-5.75977v-19.999998c1.279999-3.093329 2.987762-5.866981 5.121094-8.320313 2.239998-2.453331 4.7462-4.373099 7.519531-5.759765 2.879999-1.493332 5.865655-2.240235 8.958984-2.240235zm-24.318359 52.480471c2.879998 5.01333 6.826514 8.95984 11.839844 11.83984 3.834927 2.20304 8.078285 3.55639 12.724609 4.07422v15.53516h-25.785156v-16.88868h1.220703z" fill="#fff"/>
    </clipPath>
  </defs>
  <path class='letter-border__path' transform="scale(.26458333)" d="m0 16.183594h3.5v13.78125h-2.5v116.80078h1.5v16.88868h-2.5m0 16.18359h88.880859m0-16.18359h-28.595703v-17c1.338946-0.42081 2.645277-0.91352 3.914063-1.49024 4.799997-2.23999 8.960471-5.33263 12.480469-9.27929 3.519997-4.05334 6.240158-8.69326 8.160156-13.91993 2.026666-5.22666 3.041015-10.82745 3.041015-16.80078 0-5.973327-0.907371-11.572162-2.720703-16.798826-1.706666-5.226663-4.212868-9.866592-7.519531-13.919922-3.199997-4.053331-7.041487-7.201408-11.521484-9.441406-4.479998-2.346666-9.438912-3.519531-14.878907-3.519531-6.50666 0-12.214429 1.440315-17.121093 4.320313-4.799997 2.879999-8.693023 6.826514-11.679688 11.839843v-47.679687h-2.939453v-13.78125h69.380859m0-16.183594h-88.880859m44.039062 79.724609c4.373332 0 8.161331 1.172868 11.361329 3.519532 3.306663 2.346665 5.866355 5.494743 7.679687 9.441406 1.92 3.839997 2.878906 8.052013 2.878906 12.638673 0 3.30666-0.586431 6.50628-1.759765 9.59961-1.066666 2.98666-2.665497 5.6018-4.798828 7.84179-2.026664 2.24-4.481331 4.05279-7.361329 5.43946-2.773331 1.28-5.865965 1.91992-9.279296 1.91992-2.026666 0-4.106904-0.32094-6.240235-0.96094-2.026665-0.74666-3.999923-1.70557-5.919922-2.8789-1.919998-1.28-3.625808-2.77381-5.11914-4.48047-1.386666-1.70667-2.401016-3.62644-3.041016-5.75977v-19.999998c1.279999-3.093329 2.987762-5.866981 5.121094-8.320313 2.239998-2.453331 4.7462-4.373099 7.519531-5.759765 2.879999-1.493332 5.865655-2.240235 8.958984-2.240235zm-24.318359 52.480471c2.879998 5.01333 6.826514 8.95984 11.839844 11.83984 3.834927 2.20304 8.078285 3.55639 12.724609 4.07422v15.53516h-25.785156v-16.88868h1.220703z" clip-path="url(#clipPath-b1)" fill="none" stroke="#000" stroke-width="6"/>
</svg>
