<svg class='letter-mask' width="88.879997" height="180" version="1.1" viewBox="0 0 23.516165 47.625002" xmlns="http://www.w3.org/2000/svg">
  <path class='letter-mask__path' transform="scale(.26458333)" d="m0 16.183594v147.47071h2.5v-16.88868h-1.5v-116.80078h2.5v-13.78125h-3.5zm19.5 0v13.78125h2.939453v47.679687c2.986665-5.013329 6.879691-8.959845 11.679688-11.839843 4.906664-2.879998 10.614433-4.320313 17.121093-4.320313 5.439995 0 10.398909 1.172865 14.878907 3.519531 4.479997 2.239998 8.321487 5.388076 11.521484 9.441406 3.306663 4.05333 5.812865 8.693259 7.519531 13.919922 1.813332 5.226664 2.720703 10.825502 2.720703 16.798826 0 5.97333-1.014349 11.57412-3.041015 16.80078-1.919998 5.22667-4.64016 9.86659-8.160156 13.91993-3.519998 3.94666-7.680472 7.0393-12.480469 9.27929-1.268786 0.57672-2.575117 1.06943-3.914063 1.49024v17h28.595703v-147.47071h-69.380859zm24.539062 63.541015c-3.093328 0-6.078985 0.746903-8.958984 2.240235-2.773331 1.386666-5.279533 3.306434-7.519531 5.759765-2.133332 2.453332-3.841095 5.226984-5.121094 8.320313v19.999998c0.64 2.13333 1.65435 4.0531 3.041016 5.75977 1.493332 1.70666 3.199142 3.20047 5.11914 4.48047 1.919999 1.17333 3.893257 2.13224 5.919922 2.8789 2.133331 0.64 4.213569 0.96094 6.240235 0.96094 3.413331 0 6.505966-0.63992 9.279296-1.91992 2.879998-1.38667 5.334665-3.19946 7.361329-5.43946 2.133331-2.23998 3.732162-4.85513 4.798828-7.84179 1.173334-3.09333 1.759765-6.29295 1.759765-9.59961 0-4.58666-0.958906-8.798676-2.878906-12.638673-1.813332-3.946663-4.373024-7.094741-7.679687-9.441406-3.199998-2.346664-6.987997-3.519532-11.361329-3.519532zm-24.318359 52.480471v14.56054h-1.220703v16.88868h25.785156v-15.53516c-4.646324-0.51783-8.889682-1.87118-12.724609-4.07422-5.01333-2.88-8.959846-6.82651-11.839844-11.83984zm-19.720703 47.63281v0.16211h88.880859v-0.16211h-88.880859z" stroke-width="5.69805"/>
</svg>
