<svg class='letter-border' width="82.400002" height="180" version="1.1" viewBox="0 0 21.801665 47.625002" xmlns="http://www.w3.org/2000/svg">
  <defs>
    <clipPath id="clipPath-c1">
      <path class='letter-border__clip-path' d="m0 0v16.183594h32.732422v46.488281c-4.40473 0.9757-8.436535 2.551056-12.091797 4.732422-6.613329 3.946666-11.734664 9.226517-15.361328 15.839844-3.5199974 6.506663-5.2792969 13.708235-5.2792969 21.601559 0 5.76 1.0123974 11.25186 3.0390625 16.47852 2.1333318 5.22666 5.1209402 9.92008 8.9609375 14.08008 3.839997 4.05333 8.479926 7.25294 13.919922 9.59961 2.160099 0.88945 4.433765 1.59654 6.8125 2.13281v16.51758h-32.732422v16.18359h82.400391v-16.18359h-26.289063v-16.57422c1.677523-0.39185 3.297836-0.86279 4.847656-1.43555 5.01333-1.92 9.334274-4.53318 12.960938-7.83984 3.733332-3.30667 6.560471-7.03922 8.480469-11.19922l-20.960938-6.40039c-0.853332 1.92-2.186666 3.6258-4 5.11914-1.813332 1.49333-3.893571 2.66815-6.240234 3.52148-2.24 0.85334-4.639221 1.2793-7.199219 1.2793-4.05333 0-7.732398-1.06784-11.039062-3.20117-3.306665-2.24-5.973335-5.22566-8-8.95899-1.919999-3.83999-2.88086-8.21247-2.88086-13.11914 0-5.013326 0.960861-9.387759 2.88086-13.121091 1.919998-3.839997 4.533179-6.774118 7.839843-8.800781 3.413331-2.133332 7.145889-3.199219 11.199219-3.199219 3.626663 0 6.933256 0.853884 9.919922 2.560547 2.986663 1.6 5.385887 3.945731 7.199219 7.039063l20.960937-6.400391c-3.199997-6.399995-8.053883-11.572865-14.560547-15.519531-3.443202-2.0885-7.248117-3.618258-11.408203-4.601563v-46.61914h26.289063v-16.183594z" fill="#fff"/>
    </clipPath>
  </defs>
  <g transform="translate(1.5239989)">
    <path class='letter-border__path' transform="matrix(.26458333 0 0 .26458333 -1.5239989 0)" d="m0 16.183594h32.732422v46.488281c-4.40473 0.9757-8.436535 2.551056-12.091797 4.732422-6.613329 3.946666-11.734664 9.226517-15.361328 15.839844-3.5199974 6.506663-5.2792969 13.708235-5.2792969 21.601559 0 5.76 1.0123974 11.25186 3.0390625 16.47852 2.1333318 5.22666 5.1209402 9.92008 8.9609375 14.08008 3.839997 4.05333 8.479926 7.25294 13.919922 9.59961 2.160099 0.88945 4.433765 1.59654 6.8125 2.13281v16.51758h-32.732422m0 16.18359h82.400391m0-16.18359h-26.289063v-16.57422c1.677523-0.39185 3.297836-0.86279 4.847656-1.43555 5.01333-1.92 9.334274-4.53318 12.960938-7.83984 3.733332-3.30667 6.560471-7.03922 8.480469-11.19922l-20.960938-6.40039c-0.853332 1.92-2.186666 3.6258-4 5.11914-1.813332 1.49333-3.893571 2.66815-6.240234 3.52148-2.24 0.85334-4.639221 1.2793-7.199219 1.2793-4.05333 0-7.732398-1.06784-11.039062-3.20117-3.306665-2.24-5.973335-5.22566-8-8.95899-1.919999-3.83999-2.88086-8.21247-2.88086-13.11914 0-5.013326 0.960861-9.387759 2.88086-13.121091 1.919998-3.839997 4.533179-6.774118 7.839843-8.800781 3.413331-2.133332 7.145889-3.199219 11.199219-3.199219 3.626663 0 6.933256 0.853884 9.919922 2.560547 2.986663 1.6 5.385887 3.945731 7.199219 7.039063l20.960937-6.400391c-3.199997-6.399995-8.053883-11.572865-14.560547-15.519531-3.443202-2.0885-7.248117-3.618258-11.408203-4.601563v-46.61914h26.289063m0-16.183594h-82.400391" clip-path="url(#clipPath-c1)" fill="none" stroke="#000" stroke-width="6"/>
  </g>
</svg>
