<svg class='letter-mask' width="82.400002" height="180" version="1.1" viewBox="0 0 21.801665 47.625002" xmlns="http://www.w3.org/2000/svg">
  <g transform="translate(1.5239989)">
    <path class='letter-mask__path' transform="matrix(.26458333 0 0 .26458333 -1.5239989 0)" d="m0 16.183594v88.662106c0-7.893321 1.7592994-15.094896 5.2792969-21.601559 3.6266641-6.613327 8.7479991-11.893178 15.361328-15.839844 3.655262-2.181366 7.687067-3.756722 12.091797-4.732422v-46.488281h-32.732422zm0 88.662106v58.8086h32.732422v-16.51758c-2.378735-0.53627-4.652401-1.24336-6.8125-2.13281-5.439996-2.34667-10.079925-5.54628-13.919922-9.59961-3.8399974-4.16-6.8276057-8.85342-8.9609375-14.08008-2.0266651-5.22666-3.0390625-10.71852-3.0390625-16.47852zm56.111328-88.662106v46.61914c4.160086 0.983305 7.965001 2.513063 11.408203 4.601563 6.506664 3.946666 11.36055 9.119536 14.560547 15.519531l-20.960937 6.400391c-1.813332-3.093332-4.212556-5.439063-7.199219-7.039063-2.986666-1.706663-6.293259-2.560547-9.919922-2.560547-4.05333 0-7.785888 1.065887-11.199219 3.199219-3.306664 2.026663-5.919845 4.960784-7.839843 8.800781-1.92 3.733332-2.88086 8.107768-2.88086 13.121091 0 4.90667 0.96086 9.27915 2.88086 13.11914 2.026665 3.73333 4.693334 6.71899 8 8.95899 3.306664 2.13333 6.985732 3.20117 11.039062 3.20117 2.559998 0 4.959219-0.42596 7.199219-1.2793 2.346663-0.85333 4.426902-2.02815 6.240234-3.52148 1.813334-1.49334 3.146668-3.19914 4-5.11914l20.960938 6.40039v-110.42188h-26.289063zm26.289063 110.42188c-1.919998 4.16-4.747137 7.89255-8.480469 11.19922-3.626664 3.30666-7.947608 5.91984-12.960938 7.83984-1.54982 0.57276-3.170133 1.0437-4.847656 1.43555v16.57422h26.289063v-37.04883zm-82.400391 53.23242v0.16211h82.400391v-0.16211h-82.400391z" stroke-width="5.4864"/>
  </g>
</svg>
