<svg class='letter-border' width="93.160004" height="180" version="1.1" viewBox="0 0 24.648584 47.625002" xmlns="http://www.w3.org/2000/svg">
  <defs>
    <clipPath id="clipPath-d1">
      <path class='letter-border__clip-path' d="m0 0v16.183594h68.589844v13.78125h-2.830078v47.679687c-2.773332-4.693331-6.666359-8.532868-11.679688-11.519531-4.906663-3.093332-10.453963-4.640625-16.640625-4.640625-7.253328 0-13.706046 1.919768-19.359375 5.759766-5.653329 3.839997-10.079299 9.066358-13.279297 15.679687-3.1999975 6.506661-4.8007812 13.815214-4.8007812 21.921872 0 6.08 0.96086085 11.78581 2.8808594 17.11914 2.026665 5.22667 4.7983695 9.81311 8.3183596 13.75977 3.626664 3.94666 7.840628 7.0393 12.640625 9.2793 0.939896 0.42908 1.899886 0.80545 2.871094 1.15234v17.49805h-26.710938v16.18359h93.160156v-16.18359h-3.755859v-16.38868c0.873618-0.14326 1.789292-0.30668 2.755859-0.5v-17.4414c-1.813331-0.21333-3.093175-0.79977-3.839844-1.75977-0.746665-0.96-1.121093-2.55883-1.121093-4.79883v-92.800776h-2.609375v-13.78125h8.570312v-16.183594zm44.160156 79.724609c2.879998 0 5.760628 0.746903 8.640625 2.240235 2.88 1.386666 5.493181 3.306434 7.839844 5.759765 2.346666 2.453332 4.052475 5.226984 5.119141 8.320313v19.999998c-0.746666 2.02667-1.866044 3.94644-3.359375 5.75977-1.386666 1.70666-3.040938 3.20047-4.960938 4.48047-1.813332 1.17333-3.78659 2.13224-5.919922 2.8789-2.026666 0.64-4.053415 0.96094-6.080078 0.96094-3.306666 0-6.3993-0.63992-9.279297-1.91992-2.773331-1.28-5.226043-3.04125-7.359375-5.28125-2.133331-2.24-3.787605-4.85318-4.960937-7.83985-1.066666-3.09332-1.59961-6.34643-1.59961-9.75976s0.479454-6.666438 1.439454-9.759767c1.066665-3.093331 2.56047-5.81349 4.480468-8.160156 2.026666-2.346663 4.372398-4.212944 7.039063-5.599609 2.666665-1.386666 5.654274-2.080079 8.960937-2.080079zm24.798828 52.480471 0.320313 5.2793c0.318399 3.07788 1.694518 5.57399 4.125 7.49023v18.67969h-30.693359v-15.42188c4.720273-0.38689 9.258649-1.71879 13.609374-4.02734 5.33333-2.77333 9.545341-6.77334 12.638672-12z" fill="#fff"/>
    </clipPath>
  </defs>
  <path class='letter-border__path' transform="scale(.26458334)" d="m0 16.183594h68.589844v13.78125h-2.830078v47.679687c-2.773332-4.693331-6.666359-8.532868-11.679688-11.519531-4.906663-3.093332-10.453963-4.640625-16.640625-4.640625-7.253328 0-13.706046 1.919768-19.359375 5.759766-5.653329 3.839997-10.079299 9.066358-13.279297 15.679687-3.1999975 6.506661-4.8007812 13.815214-4.8007812 21.921872 0 6.08 0.96086085 11.78581 2.8808594 17.11914 2.026665 5.22667 4.7983695 9.81311 8.3183596 13.75977 3.626664 3.94666 7.840628 7.0393 12.640625 9.2793 0.939896 0.42908 1.899886 0.80545 2.871094 1.15234v17.49805h-26.710938m0 16.18359h93.160156m0-16.18359h-3.755859v-16.38868c0.873618-0.14326 1.789292-0.30668 2.755859-0.5v-17.4414c-1.813331-0.21333-3.093175-0.79977-3.839844-1.75977-0.746665-0.96-1.121093-2.55883-1.121093-4.79883v-92.800776h-2.609375v-13.78125h8.570312m0-16.183594h-93.160156m44.160156 79.724609c2.879998 0 5.760628 0.746903 8.640625 2.240235 2.88 1.386666 5.493181 3.306434 7.839844 5.759765 2.346666 2.453332 4.052475 5.226984 5.119141 8.320313v19.999998c-0.746666 2.02667-1.866044 3.94644-3.359375 5.75977-1.386666 1.70666-3.040938 3.20047-4.960938 4.48047-1.813332 1.17333-3.78659 2.13224-5.919922 2.8789-2.026666 0.64-4.053415 0.96094-6.080078 0.96094-3.306666 0-6.3993-0.63992-9.279297-1.91992-2.773331-1.28-5.226043-3.04125-7.359375-5.28125-2.133331-2.24-3.787605-4.85318-4.960937-7.83985-1.066666-3.09332-1.59961-6.34643-1.59961-9.75976s0.479454-6.666438 1.439454-9.759767c1.066665-3.093331 2.56047-5.81349 4.480468-8.160156 2.026666-2.346663 4.372398-4.212944 7.039063-5.599609 2.666665-1.386666 5.654274-2.080079 8.960937-2.080079zm24.798828 52.480471 0.320313 5.2793c0.318399 3.07788 1.694518 5.57399 4.125 7.49023v18.67969h-30.693359v-15.42188c4.720273-0.38689 9.258649-1.71879 13.609374-4.02734 5.33333-2.77333 9.545341-6.77334 12.638672-12z" clip-path="url(#clipPath-d1)" fill="none" stroke="#000" stroke-width="6"/>
</svg>
