<svg class='letter-mask' width="93.160004" height="180" version="1.1" viewBox="0 0 24.648584 47.625002" xmlns="http://www.w3.org/2000/svg">
  <path class='letter-mask__path' transform="scale(.26458334)" d="m0 16.183594v88.662106c-5.9211895e-16 -8.106655 1.6007837-15.415211 4.8007812-21.921872 3.1999978-6.613329 7.6259678-11.83969 13.279297-15.679687 5.653329-3.839998 12.106047-5.759766 19.359375-5.759766 6.186662 0 11.733962 1.547293 16.640625 4.640625 5.013329 2.986663 8.906356 6.8262 11.679688 11.519531v-47.679687h2.830078v-13.78125h-68.589844zm0 88.662106v58.8086h26.710938v-17.49805c-0.971209-0.34689-1.931198-0.72326-2.871094-1.15234-4.799997-2.24-9.013961-5.33264-12.640625-9.2793-3.5199904-3.94666-6.2916946-8.5331-8.3183596-13.75977-1.9199986-5.33333-2.8808594-11.03914-2.8808594-17.11914zm84.589844-88.662106v13.78125h2.609375v92.800776c0 2.24001 0.374428 3.83883 1.121093 4.79883 0.74667 0.96 2.026513 1.54644 3.839844 1.75977v17.4414c-0.966567 0.19333-1.882241 0.35674-2.755859 0.5v16.38868h3.755859v-147.47071h-8.570312zm-40.429688 63.541015c-3.306663 0-6.294272 0.693412-8.960937 2.080079-2.666665 1.386665-5.012397 3.252946-7.039063 5.599609-1.919998 2.346666-3.413803 5.066825-4.480468 8.160156-0.960001 3.093329-1.439454 6.346437-1.439454 9.759767s0.532944 6.66644 1.59961 9.75976c1.173332 2.98667 2.827606 5.59985 4.960937 7.83985 2.133332 2.24 4.586044 4.00125 7.359375 5.28125 2.879997 1.28 5.972631 1.91992 9.279297 1.91992 2.026663 0 4.053412-0.32094 6.080078-0.96094 2.133332-0.74666 4.10659-1.70557 5.919922-2.8789 1.92-1.28 3.574272-2.77381 4.960938-4.48047 1.493331-1.81333 2.612709-3.7331 3.359375-5.75977v-19.999998c-1.066666-3.093329-2.772475-5.866981-5.119141-8.320313-2.346663-2.453331-4.959844-4.373099-7.839844-5.759765-2.879997-1.493332-5.760627-2.240235-8.640625-2.240235zm24.798828 52.480471c-3.093331 5.22666-7.305341 9.22667-12.638672 12-4.350725 2.30855-8.889101 3.64045-13.609374 4.02734v15.42188h30.693359v-18.67969c-2.430482-1.91624-3.806601-4.41235-4.125-7.49023l-0.320313-5.2793zm-68.958984 47.63281v0.16211h93.160156v-0.16211h-93.160156z" stroke-width="5.83363"/>
</svg>
