<svg class='letter-border' width="88" height="180" version="1.1" viewBox="0 0 23.283331 47.625002" xmlns="http://www.w3.org/2000/svg">
  <defs>
    <clipPath id="clipPath-e1">
      <path class='letter-border__clip-path' d="m0 0v16.183594h32.732422v46.550781c-4.381565 1.004232-8.413367 2.611342-12.091797 4.830078-6.613329 3.946664-11.734664 9.226515-15.361328 15.839844-3.5199974 6.613327-5.2792969 13.919927-5.2792969 21.919923 0 5.75999 1.0123974 11.2538 3.0390625 16.48047 2.1333318 5.11999 5.1209402 9.70643 8.9609375 13.75976 3.839997 3.94667 8.479926 7.09279 13.919922 9.43946 2.167454 0.89248 4.441851 1.59982 6.8125 2.13671v16.51368h-32.732422v16.18359h88v-16.18359h-31.888672v-16.57618c1.720351-0.39146 3.393501-0.86185 5.007813-1.43359 5.119997-1.92 9.54792-4.53318 13.28125-7.83984 3.839997-3.30667 6.772162-7.09271 8.798828-11.35938l-18.398438-5.12109c-1.386666 3.41333-3.999848 6.18698-7.839843 8.32031-3.733332 2.02666-7.733337 3.04102-12 3.04102-3.733332 0-7.253883-0.8004-10.560547-2.40039-3.199998-1.70667-5.866668-4.16133-8-7.36133-2.026666-3.2-3.253022-6.93256-3.679688-11.19922h64.798828c0.106684-0.85333 0.213654-1.91922 0.320313-3.19922 0.106658-1.38667 0.160156-2.72 0.160156-4 0-7.573326-1.759299-14.614432-5.279297-21.121093-3.413332-6.613329-8.374198-11.89318-14.880859-15.839844-3.518431-2.19181-7.430345-3.786364-11.728516-4.792969v-46.58789h31.888672v-16.183594zm44 77.003906c3.946663 0 7.520706 0.907372 10.720703 2.720703 3.199998 1.706664 5.759688 4.159375 7.679688 7.359375 2.026666 3.09333 3.253021 6.774353 3.679687 11.041016h-43.839844c0.426667-4.266663 1.599533-7.947686 3.519532-11.041016 2.026665-3.2 4.586356-5.652711 7.679687-7.359375 3.199998-1.813331 6.72055-2.720703 10.560547-2.720703z" fill="#fff"/>
    </clipPath>
  </defs>
  <g transform="translate(1.5239989)">
    <path class='letter-border__path' transform="matrix(.26458333 0 0 .26458333 -1.5239989 0)" d="m0 16.183594h32.732422v46.550781c-4.381565 1.004232-8.413367 2.611342-12.091797 4.830078-6.613329 3.946664-11.734664 9.226515-15.361328 15.839844-3.5199974 6.613327-5.2792969 13.919927-5.2792969 21.919923 0 5.75999 1.0123974 11.2538 3.0390625 16.48047 2.1333318 5.11999 5.1209402 9.70643 8.9609375 13.75976 3.839997 3.94667 8.479926 7.09279 13.919922 9.43946 2.167454 0.89248 4.441851 1.59982 6.8125 2.13671v16.51368h-32.732422m0 16.18359h88m0-16.18359h-31.888672v-16.57618c1.720351-0.39146 3.393501-0.86185 5.007813-1.43359 5.119997-1.92 9.54792-4.53318 13.28125-7.83984 3.839997-3.30667 6.772162-7.09271 8.798828-11.35938l-18.398438-5.12109c-1.386666 3.41333-3.999848 6.18698-7.839843 8.32031-3.733332 2.02666-7.733337 3.04102-12 3.04102-3.733332 0-7.253883-0.8004-10.560547-2.40039-3.199998-1.70667-5.866668-4.16133-8-7.36133-2.026666-3.2-3.253022-6.93256-3.679688-11.19922h64.798828c0.106684-0.85333 0.213654-1.91922 0.320313-3.19922 0.106658-1.38667 0.160156-2.72 0.160156-4 0-7.573326-1.759299-14.614432-5.279297-21.121093-3.413332-6.613329-8.374198-11.89318-14.880859-15.839844-3.518431-2.19181-7.430345-3.786364-11.728516-4.792969v-46.58789h31.888672m0-16.183594h-88m44 77.003906c3.946663 0 7.520706 0.907372 10.720703 2.720703 3.199998 1.706664 5.759688 4.159375 7.679688 7.359375 2.026666 3.09333 3.253021 6.774353 3.679687 11.041016h-43.839844c0.426667-4.266663 1.599533-7.947686 3.519532-11.041016 2.026665-3.2 4.586356-5.652711 7.679687-7.359375 3.199998-1.813331 6.72055-2.720703 10.560547-2.720703z" clip-path="url(#clipPath-e1)" fill="none" stroke="#000" stroke-width="6"/>
  </g>
</svg>
