<svg class='letter-border' width="88.040001" height="180" version="1.1" viewBox="0 0 23.293916 47.625002" xmlns="http://www.w3.org/2000/svg">
  <defs>
    <clipPath id="clipPath-g1">
      <path class='letter-border__clip-path' d="m0 0v16.183594h21v49.765625c-3.786008 2.050243-7.161505 4.770019-10.119141 8.175781-3.4133304 3.946664-6.0800011 8.533103-7.9999996 13.759766-1.9199986 5.226662-2.8808594 10.880942-2.8808594 16.960934 0 5.76 0.90737116 11.19837 2.7207031 16.31836 1.813332 5.12 4.3730233 9.6549 7.6796879 13.60156 3.41333 3.94667 7.413336 7.0393 12 9.2793 4.693329 2.13333 9.812712 3.19922 15.359375 3.19922 5.653329 0 10.98667-1.27985 16-3.83984 5.119996-2.66667 9.066512-6.39923 11.839843-11.19922v10.56054c0 5.44-1.172866 9.86597-3.519531 13.2793-2.209593 3.47222-5.202299 6.00539-8.96875 7.60938h-26.435547c-0.575152-0.22929-1.146838-0.47117-1.714843-0.73047-4.799997-2.24-8.800003-5.33264-12-9.2793l-10.292969 10.00977h-2.6679688v16.18359h22.433594c5.236882 1.73706 11.252631 2.60742 18.046875 2.60742 6.593233 0 12.661249-0.87469 18.214843-2.60742h29.34375v-16.18359h-6.822265c3.877826-5.79078 5.822265-12.7508 5.822265-20.88868v-79.841792h-1.738281v-46.740234h2.738281v-16.183594zm36.199219 16.183594h33.90039v46.740234h-1.779297v14.720703c-3.199997-4.906663-7.253493-8.799689-12.160156-11.679687-4.906663-2.986665-10.614432-4.480469-17.121094-4.480469-0.962004 0-1.904617 0.04299-2.839843 0.105469zm7.480469 63.541015c3.093331 0 6.02745 0.693413 8.800781 2.080079 2.879998 1.279999 5.439689 3.146277 7.679687 5.599609 2.346665 2.453331 4.159454 5.333961 5.439453 8.640625v19.999998c-0.746666 1.81333-1.812553 3.62612-3.199218 5.43946-1.386666 1.70666-2.98745 3.20046-4.800782 4.48046s-3.78659 2.2924-5.919921 3.03907c-2.133332 0.74666-4.372086 1.12109-6.71875 1.12109-3.199998 0-6.241096-0.63992-9.121094-1.91992-2.773331-1.28-5.226044-3.04125-7.359375-5.28125-2.026665-2.24-3.627449-4.85318-4.800781-7.83985-1.173333-2.98666-1.759766-6.18627-1.759766-9.5996 0-3.30667 0.479454-6.452794 1.439453-9.439458 1.066666-3.093331 2.56047-5.866981 4.480469-8.320313 1.919998-2.559998 4.214194-4.533256 6.880859-5.919921 2.666665-1.386666 5.65232-2.080079 8.958985-2.080079z" fill="#fff"/>
    </clipPath>
  </defs>
  <path class='letter-border__path' transform="scale(.26458333)" d="m88.039062 163.6543h-6.822265c3.877826-5.79078 5.822265-12.7508 5.822265-20.88868v-79.841792h-1.738281v-46.740234h2.738281m0-16.183594h-88.039062m0 16.183594h21v49.765625c-3.786008 2.050243-7.161505 4.770019-10.119141 8.175781-3.4133304 3.946664-6.0800011 8.533103-7.9999996 13.759766-1.9199986 5.226662-2.8808594 10.880942-2.8808594 16.960934 0 5.76 0.90737116 11.19837 2.7207031 16.31836 1.813332 5.12 4.3730233 9.6549 7.6796879 13.60156 3.41333 3.94667 7.413336 7.0393 12 9.2793 4.693329 2.13333 9.812712 3.19922 15.359375 3.19922 5.653329 0 10.98667-1.27985 16-3.83984 5.119996-2.66667 9.066512-6.39923 11.839843-11.19922v10.56054c0 5.44-1.172866 9.86597-3.519531 13.2793-2.209593 3.47222-5.202299 6.00539-8.96875 7.60938h-26.435547c-0.575152-0.22929-1.146838-0.47117-1.714843-0.73047-4.799997-2.24-8.800003-5.33264-12-9.2793l-10.292969 10.00977h-2.6679688m0 16.18359h22.433594c21.567353 0.21762 21.554052 1.1e-4 36.261718 1.1e-4l29.34375-1.1e-4m-51.839843-163.6543h33.90039v46.740234h-1.779297v14.720703c-3.199997-4.906663-7.253493-8.799689-12.160156-11.679687-4.906663-2.986665-10.614432-4.480469-17.121094-4.480469-0.962004 0-1.904617 0.04299-2.839843 0.105469zm7.480469 63.541015c3.093331 0 6.02745 0.693413 8.800781 2.080079 2.879998 1.279999 5.439689 3.146277 7.679687 5.599609 2.346665 2.453331 4.159454 5.333961 5.439453 8.640625v19.999998c-0.746666 1.81333-1.812553 3.62612-3.199218 5.43946-1.386666 1.70666-2.98745 3.20046-4.800782 4.48046s-3.78659 2.2924-5.919921 3.03907c-2.133332 0.74666-4.372086 1.12109-6.71875 1.12109-3.199998 0-6.241096-0.63992-9.121094-1.91992-2.773331-1.28-5.226044-3.04125-7.359375-5.28125-2.026665-2.24-3.627449-4.85318-4.800781-7.83985-1.173333-2.98666-1.759766-6.18627-1.759766-9.5996 0-3.30667 0.479454-6.452794 1.439453-9.439458 1.066666-3.093331 2.56047-5.866981 4.480469-8.320313 1.919998-2.559998 4.214194-4.533256 6.880859-5.919921 2.666665-1.386666 5.65232-2.080079 8.958985-2.080079z" clip-path="url(#clipPath-g1)" fill="none" stroke="#000" stroke-width="6"/>
</svg>
