<svg class='letter-mask' width="88.040001" height="180" version="1.1" viewBox="0 0 23.293916 47.625002" xmlns="http://www.w3.org/2000/svg">
  <path class='letter-mask__path' transform="scale(.26458333)" d="m0 16.183594v88.662106c-2.9605947e-16 -6.079989 0.96086082-11.734272 2.8808594-16.960934 1.9199984-5.226663 4.5866696-9.813102 7.9999996-13.759766 2.957636-3.405762 6.333133-6.125538 10.119141-8.175781v-49.765625h-21zm0 88.662106v58.8086h2.6679688l10.292969-10.00977c3.199996 3.94666 7.200003 7.0393 12 9.2793 0.568004 0.2593 1.139691 0.50118 1.714843 0.73047h26.435547c3.766451-1.60399 6.759157-4.13716 8.96875-7.60938 2.346665-3.41333 3.519531-7.8393 3.519531-13.2793v-10.56054c-2.773331 4.79999-6.719847 8.53255-11.839843 11.19922-5.01333 2.55999-10.346671 3.83984-16 3.83984-5.546663 0-10.666046-1.06589-15.359375-3.19922-4.586664-2.24-8.58667-5.33263-12-9.2793-3.3066649-3.94665-5.8663559-8.48156-7.6796879-13.60156-1.8133319-5.11999-2.7207031-10.55836-2.7207031-16.31836zm36.199219-88.662106v45.40625c0.935226-0.062483 1.87784-0.105469 2.839843-0.105469 6.506662 0 12.214431 1.493804 17.121094 4.480469 4.906663 2.879998 8.96016 6.773024 12.160156 11.679687v-14.720703h1.779297v-46.740234h-33.90039zm49.101562 0v46.740234h1.738281v79.841792c0 8.13788-1.944439 15.0979-5.822265 20.88868h6.822265v-147.47071h-2.738281zm-41.621093 63.541015c-3.306665 0-6.29232 0.693413-8.958985 2.080079-2.666665 1.386664-4.960861 3.359923-6.880859 5.919921-1.919999 2.453332-3.413803 5.226982-4.480469 8.320313-0.959999 2.986664-1.439453 6.132788-1.439453 9.439458 0 3.41332 0.586433 6.61294 1.759766 9.5996 1.173331 2.98667 2.774116 5.59985 4.800781 7.83985 2.133331 2.24 4.586044 4.00125 7.359375 5.28125 2.879998 1.28 5.921096 1.91992 9.121094 1.91992 2.346663 0 4.585418-0.37443 6.71875-1.12109 2.13333-0.74667 4.106589-1.75907 5.919921-3.03907s3.414116-2.77381 4.800782-4.48046c1.386665-1.81334 2.452552-3.62613 3.199218-5.43946v-19.999998c-1.279999-3.306664-3.092788-6.187294-5.439453-8.640625-2.239998-2.453332-4.799689-4.319611-7.679687-5.599609-2.773331-1.386666-5.707451-2.080079-8.800781-2.080079zm-43.679688 100.11328v0.16211h22.964844c-0.175573-0.05576-0.357395-0.10444-0.53125-0.16211h-22.433594zm58.695312 0c-0.18465 0.05761-0.374759 0.1064-0.560546 0.16211h29.904296v-0.16211h-29.34375z" stroke-width="5.67103"/>
</svg>
