<svg class='letter-mask' width="79.919998" height="180" version="1.1" viewBox="0 0 21.145499 47.625002" xmlns="http://www.w3.org/2000/svg">
  <path class='letter-mask__path' transform="scale(.26458334)" d="m0 16.183594v147.47071h3.5v-16.88868h-2.5v-116.80078h2.5v-13.78125h-3.5zm19.5 0v13.78125h2.939453v48.480468c3.093331-5.333329 7.307296-9.493805 12.640625-12.480468 5.33333-2.986666 11.146127-4.480469 17.439453-4.480469 5.439998 0 9.867921 0.960859 13.28125 2.880859 3.413332 1.813332 6.08 4.319534 8 7.519532 1.919998 3.093331 3.253334 6.613883 4 10.560546 0.746666 3.839999 1.119141 7.840006 1.119141 12v52.320308h-2.634766v16.88868h3.634766v-147.47071h-60.419922zm23.900391 64.18164c-2.559998 0-5.280159 0.746903-8.160157 2.240235-2.879998 1.493331-5.493179 3.573568-7.839843 6.240234-2.239999 2.559998-3.894272 5.545652-4.960938 8.958985v48.960932h-2.939453v16.88868h40.785156v-16.88868h-2.804687v-47.041011c0-6.50666-1.279847-11.360548-3.839844-14.560547-2.453332-3.199997-5.866903-4.798828-10.240234-4.798828zm-43.400391 99.472656v0.16211h79.919922v-0.16211h-79.919922z" stroke-width="5.40321"/>
</svg>
