<svg class='letter-border' width="42.599998" height="180" version="1.1" viewBox="0 0 11.271249 47.625002" xmlns="http://www.w3.org/2000/svg">
  <defs>
    <clipPath id="clipPath-l1">
      <path class='letter-border__clip-path' d="m0 0v16.183594h3.8007812v13.78125h-2.8007812v97.439456c0 6.61332 1.8127892 11.73466 5.4394531 15.36132 1.9932854 1.87939 4.4268009 3.23929 7.2714849 4.11524v16.77344h-13.710938v16.18359h42.599609v-16.18359h-13.378906v-16.17578c1.070775-0.15556 2.162691-0.33378 3.298828-0.55469 3.839997-0.74667 7.20008-1.81255 10.080078-3.19922l-2.878906-16.32031c-1.386665 0.63999-2.987449 1.17294-4.800781 1.59961-1.813332 0.42666-3.572631 0.64062-5.279297 0.64062-2.239998 0-4.001251-0.63992-5.28125-1.91992-1.279999-1.38667-1.919922-3.99985-1.919922-7.83984v-89.919926h-3.128906v-13.78125h23.289062v-16.183594z" fill="#fff"/>
    </clipPath>
  </defs>
  <g transform="translate(.32808301)">
    <path class='letter-border__path' transform="matrix(.26458333 0 0 .26458333 -.32808301 0)" d="m0 16.183594h3.8007812v13.78125h-2.8007812v97.439456c0 6.61332 1.8127892 11.73466 5.4394531 15.36132 1.9932854 1.87939 4.4268009 3.23929 7.2714849 4.11524v16.77344h-13.710938m0 16.18359h42.599609m0-16.18359h-13.378906v-16.17578c1.070775-0.15556 2.162691-0.33378 3.298828-0.55469 3.839997-0.74667 7.20008-1.81255 10.080078-3.19922l-2.878906-16.32031c-1.386665 0.63999-2.987449 1.17294-4.800781 1.59961-1.813332 0.42666-3.572631 0.64062-5.279297 0.64062-2.239998 0-4.001251-0.63992-5.28125-1.91992-1.279999-1.38667-1.919922-3.99985-1.919922-7.83984v-89.919926h-3.128906v-13.78125h23.289062m0-16.183594h-42.599609" clip-path="url(#clipPath-l1)" fill="none" stroke="#000" stroke-width="6"/>
  </g>
</svg>
