<svg class='letter-border' width="132.23999" height="180" version="1.1" viewBox="0 0 34.988497 47.625002" xmlns="http://www.w3.org/2000/svg">
  <defs>
    <clipPath id="clipPath-m1">
      <path class='letter-border__clip-path' d="m0 0v16.183594h3v46.740234h-2v83.841792h3v16.88868h-4v16.18359h132.24023v-16.18359h-4.24023v-16.88868h3.24023v-52.320308c0-4.05333-0.37442-8.053336-1.12109-12-0.64-3.946663-1.86635-7.467215-3.67969-10.560546-1.34329-2.37051-3.09894-4.357237-5.26172-5.966797v-49.734375h11.0625v-16.183594zm18.199219 16.183594h87.779301v45.304687c-6.556751 0.02204-12.484248 1.565588-17.779301 4.636719-5.226663 2.986664-9.545654 7.359145-12.958985 13.119141-1.066665-5.01333-3.572867-9.225342-7.519531-12.638672-3.839997-3.413331-9.226828-5.121094-16.160156-5.121094s-13.067062 1.493804-18.400391 4.480469c-5.333329 2.879998-9.600783 7.040473-12.800781 12.480468v-15.521484h-2.160156zm24.240234 64.18164c4.05333 0 7.201408 1.545341 9.441406 4.638672 2.346665 3.093331 3.519532 8.000709 3.519532 14.720703v47.041011h2.599609v16.88868h-39v-16.88868h3.439453v-48.960932c1.599999-5.226663 4.26667-9.440628 8-12.640626 3.839997-3.199997 7.840003-4.798828 12-4.798828zm54.400391 0c4.053326 0 7.199456 1.598831 9.439456 4.798828 2.34666 3.093331 3.52148 7.947219 3.52148 14.560547v47.041011h3.19922v16.88868h-38.736328v-16.88868h2.576172v-48.800776c1.599999-5.226663 4.266669-9.440628 8-12.640625 3.839997-3.306664 7.840003-4.958985 12-4.958985z" fill="#fff"/>
    </clipPath>
  </defs>
  <path class='letter-border__path' transform="scale(.26458334)" d="m0 16.183594h3v46.740234h-2v83.841792h3v16.88868h-4m0 16.18359h132.24023m0-16.18359h-4.24023v-16.88868h3.24023v-52.320308c0-4.05333-0.37442-8.053336-1.12109-12-0.64-3.946663-1.86635-7.467215-3.67969-10.560546-1.34329-2.37051-3.09894-4.357237-5.26172-5.966797v-49.734375h11.0625m0-16.183594h-132.24023m18.199219 16.183594h87.779301v45.304687c-6.556751 0.02204-12.484248 1.565588-17.779301 4.636719-5.226663 2.986664-9.545654 7.359145-12.958985 13.119141-1.066665-5.01333-3.572867-9.225342-7.519531-12.638672-3.839997-3.413331-9.226828-5.121094-16.160156-5.121094s-13.067062 1.493804-18.400391 4.480469c-5.333329 2.879998-9.600783 7.040473-12.800781 12.480468v-15.521484h-2.160156zm24.240234 64.18164c4.05333 0 7.201408 1.545341 9.441406 4.638672 2.346665 3.093331 3.519532 8.000709 3.519532 14.720703v47.041011h2.599609v16.88868h-39v-16.88868h3.439453v-48.960932c1.599999-5.226663 4.26667-9.440628 8-12.640626 3.839997-3.199997 7.840003-4.798828 12-4.798828zm54.400391 0c4.053326 0 7.199456 1.598831 9.439456 4.798828 2.34666 3.093331 3.52148 7.947219 3.52148 14.560547v47.041011h3.19922v16.88868h-38.736328v-16.88868h2.576172v-48.800776c1.599999-5.226663 4.266669-9.440628 8-12.640625 3.839997-3.306664 7.840003-4.958985 12-4.958985z" clip-path="url(#clipPath-m1)" fill="none" stroke="#000" stroke-width="6"/>
</svg>
