<svg class='letter-mask' width="132.23999" height="180" version="1.1" viewBox="0 0 34.988497 47.625002" xmlns="http://www.w3.org/2000/svg">
  <path class='letter-mask__path' transform="scale(.26458334)" d="m0 16.183594v147.47071h4v-16.88868h-3v-83.841792h2v-46.740234h-3zm18.199219 0v46.740234h2.160156v15.521484c3.199998-5.439995 7.467452-9.60047 12.800781-12.480468 5.333329-2.986665 11.467063-4.480469 18.400391-4.480469s12.320159 1.707763 16.160156 5.121094c3.946664 3.41333 6.452866 7.625342 7.519531 12.638672 3.413331-5.759996 7.732322-10.132477 12.958985-13.119141 5.295053-3.071131 11.222546-4.614678 17.779301-4.636719v-45.304687h-87.779301zm102.97851 0v49.734375c2.16278 1.60956 3.91843 3.596287 5.26172 5.966797 1.81334 3.093331 3.03969 6.613883 3.67969 10.560546 0.74667 3.946665 1.12109 7.94667 1.12109 12v52.320308h-3.24023v16.88868h4.24023v-147.47071h-11.0625zm-78.738277 64.18164c-4.159997 0-8.160003 1.598831-12 4.798828-3.73333 3.199999-6.400001 7.413962-8 12.640626v48.960932h-3.439453v16.88868h39v-16.88868h-2.599609v-47.041011c0-6.719994-1.172867-11.627372-3.519532-14.720703-2.239998-3.093331-5.388076-4.638672-9.441406-4.638672zm54.400391 0c-4.159997 0-8.160003 1.652321-12 4.958985-3.733331 3.199997-6.400001 7.413962-8 12.640625v48.800776h-2.576172v16.88868h38.736328v-16.88868h-3.19922v-47.041011c0-6.613328-1.17482-11.467215-3.52148-14.560547-2.24-3.199997-5.38613-4.798828-9.439456-4.798828zm-96.839844 99.472656v0.16211h132.24023v-0.16211h-132.24023z" stroke-width="6.95032"/>
</svg>
