<svg class='letter-border' width="79.919998" height="180" version="1.1" viewBox="0 0 21.145499 47.625002" xmlns="http://www.w3.org/2000/svg">
  <defs>
    <clipPath id="clipPath-n1">
      <path class='letter-border__clip-path' d="m0 0v16.183594h3v46.740234h-2v83.841792h2v16.88868h-3v16.18359h79.919922v-16.18359h-3.65625v-16.88868h2.65625v-52.320308c0-4.053329-0.372475-8.053336-1.119141-12-0.64-3.946663-1.868309-7.467215-3.68164-10.560546-1.706666-3.199998-4.266359-5.7062-7.679688-7.519532-3.306666-1.92-7.572167-2.880859-12.798828-2.880859-4.799997 0-9.386437 0.693412-13.759766 2.080078-4.266664 1.28-8.054664 3.199768-11.361328 5.759766-3.306664 2.453331-6.026824 5.49443-8.160156 9.121093v-15.521484h-2.160156v-46.740234h61.720703v-16.183594zm44.199219 80.365234c4.159997 0 7.413102 1.545341 9.759765 4.638672 2.346666 3.093329 3.521485 8.000708 3.521485 14.720703v47.041011h2.519531v16.88868h-39.5v-16.88868h1.939453v-48.960932c1.066666-3.413332 2.774429-6.398987 5.121094-8.958985 2.346665-2.666666 4.959846-4.746903 7.839844-6.240234 2.986665-1.493332 5.91883-2.240235 8.798828-2.240235z" fill="#fff"/>
    </clipPath>
  </defs>
  <path class='letter-border__path' transform="scale(.26458334)" d="m0 16.183594h3v46.740234h-2v83.841792h2v16.88868h-3m0 16.18359h79.919922m0-16.18359h-3.65625v-16.88868h2.65625v-52.320308c0-4.053329-0.372475-8.053336-1.119141-12-0.64-3.946663-1.868309-7.467215-3.68164-10.560546-1.706666-3.199998-4.266359-5.7062-7.679688-7.519532-3.306666-1.92-7.572167-2.880859-12.798828-2.880859-4.799997 0-9.386437 0.693412-13.759766 2.080078-4.266664 1.28-8.054664 3.199768-11.361328 5.759766-3.306664 2.453331-6.026824 5.49443-8.160156 9.121093v-15.521484h-2.160156v-46.740234h61.720703m0-16.183594h-79.919922m44.199219 80.365234c4.159997 0 7.413102 1.545341 9.759765 4.638672 2.346666 3.093329 3.521485 8.000708 3.521485 14.720703v47.041011h2.519531v16.88868h-39.5v-16.88868h1.939453v-48.960932c1.066666-3.413332 2.774429-6.398987 5.121094-8.958985 2.346665-2.666666 4.959846-4.746903 7.839844-6.240234 2.986665-1.493332 5.91883-2.240235 8.798828-2.240235z" clip-path="url(#clipPath-n1)" fill="none" stroke="#000" stroke-width="6"/>
</svg>
