<svg class='letter-mask' width="79.919998" height="180" version="1.1" viewBox="0 0 21.145499 47.625002" xmlns="http://www.w3.org/2000/svg">
  <path class='letter-mask__path' transform="scale(.26458334)" d="m0 16.183594v147.47071h3v-16.88868h-2v-83.841792h2v-46.740234h-3zm18.199219 0v46.740234h2.160156v15.521484c2.133332-3.626663 4.853492-6.667762 8.160156-9.121093 3.306664-2.559998 7.094664-4.479766 11.361328-5.759766 4.373329-1.386666 8.959769-2.080078 13.759766-2.080078 5.226661 0 9.492162 0.960859 12.798828 2.880859 3.413329 1.813332 5.973022 4.319534 7.679688 7.519532 1.813331 3.093331 3.04164 6.613883 3.68164 10.560546 0.746666 3.946665 1.119141 7.946671 1.119141 12v52.320308h-2.65625v16.88868h3.65625v-147.47071h-61.720703zm26 64.18164c-2.879998 0-5.812163 0.746903-8.798828 2.240235-2.879998 1.493331-5.493179 3.573568-7.839844 6.240234-2.346665 2.559998-4.054428 5.545652-5.121094 8.958985v48.960932h-1.939453v16.88868h39.5v-16.88868h-2.519531v-47.041011c0-6.719995-1.174819-11.627374-3.521485-14.720703-2.346663-3.093331-5.599768-4.638672-9.759765-4.638672zm-44.199219 99.472656v0.16211h79.919922v-0.16211h-79.919922z" stroke-width="5.40321"/>
</svg>
