<svg class='letter-border' width="87.839935" height="180" version="1.1" viewBox="0 0 23.240981 47.625002" xmlns="http://www.w3.org/2000/svg">
  <defs>
    <clipPath id="clipPath-o1">
      <path class='letter-border__clip-path' d="m0 0v16.183594h31.966797v46.6875c-2.218537 0.548493-4.341016 1.258777-6.367188 2.132812-5.439996 2.239998-10.079924 5.388075-13.919921 9.441406-3.7333311 4.05333-6.6139603 8.693259-8.6406255 13.919922-2.0266651 5.226664-3.0390625 10.772011-3.0390625 16.638676 0 5.75999 1.0123974 11.2538 3.0390625 16.48047 2.0266652 5.22666 4.9072944 9.86659 8.6406255 13.91992 3.839997 4.05333 8.479925 7.25294 13.919921 9.59961 2.026127 0.83428 4.148704 1.51355 6.367188 2.03711v16.61328h-31.966797v16.18359h87.839844v-16.18359h-31.964844v-16.57813c2.275505-0.52841 4.451431-1.21828 6.525391-2.07226 5.439995-2.34667 10.026434-5.54628 13.759765-9.59961 3.839998-4.05333 6.720628-8.69326 8.640625-13.91992 2.026666-5.22667 3.039063-10.72048 3.039063-16.48047 0-5.866665-1.012397-11.412012-3.039063-16.638676-1.919997-5.226663-4.800627-9.866592-8.640625-13.919922-3.839997-4.053331-8.479924-7.201408-13.919922-9.441406-2.015105-0.886646-4.136945-1.604607-6.365234-2.15625v-46.664062h31.964844v-16.183594zm44 79.724609c4.053332 0 7.732399 1.065887 11.039062 3.199219 3.306664 2.133332 5.921797 5.12094 7.841797 8.960938 2.026664 3.839995 3.039063 8.160944 3.039063 12.960934 0 4.90667-1.012399 9.27915-3.039063 13.11914-1.92 3.73333-4.535133 6.71899-7.841797 8.95899-3.306663 2.13333-6.98573 3.20117-11.039062 3.20117-4.159997 0-7.892555-1.06784-11.199219-3.20117s-5.919845-5.0655-7.839843-8.79883c-1.919999-3.84-2.88086-8.21443-2.88086-13.12109 0-4.90667 0.960861-9.225659 2.88086-12.958988 1.919998-3.839998 4.533179-6.827606 7.839843-8.960938 3.306664-2.239997 7.039222-3.359375 11.199219-3.359375z" fill="#fff"/>
    </clipPath>
  </defs>
  <g transform="translate(1.5239989)">
    <path class='letter-border__path' transform="matrix(.26458333 0 0 .26458333 -1.5239989 0)" d="m87.839844 0h-87.839844m0 16.183594h31.966797v46.6875c-2.218537 0.548493-4.341016 1.258777-6.367188 2.132812-5.439996 2.239998-10.079924 5.388075-13.919921 9.441406-3.7333311 4.05333-6.6139603 8.693259-8.6406255 13.919922-2.0266651 5.226664-3.0390625 10.772011-3.0390625 16.638676 0 5.75999 1.0123974 11.2538 3.0390625 16.48047 2.0266652 5.22666 4.9072944 9.86659 8.6406255 13.91992 3.839997 4.05333 8.479925 7.25294 13.919921 9.59961 2.026127 0.83428 4.148704 1.51355 6.367188 2.03711v16.61328h-31.966797m0 16.18359h87.839844m0-16.18359h-31.964844v-16.57813c2.275505-0.52841 4.451431-1.21828 6.525391-2.07226 5.439995-2.34667 10.026434-5.54628 13.759765-9.59961 3.839998-4.05333 6.720628-8.69326 8.640625-13.91992 2.026666-5.22667 3.039063-10.72048 3.039063-16.48047 0-5.866665-1.012397-11.412012-3.039063-16.638676-1.919997-5.226663-4.800627-9.866592-8.640625-13.919922-3.839997-4.053331-8.479924-7.201408-13.919922-9.441406-2.015105-0.886646-4.136945-1.604607-6.365234-2.15625v-46.664062h31.964844m-43.839844 63.541015c4.053332 0 7.732399 1.065887 11.039062 3.199219 3.306664 2.133332 5.921797 5.12094 7.841797 8.960938 2.026664 3.839995 3.039063 8.160944 3.039063 12.960934 0 4.90667-1.012399 9.27915-3.039063 13.11914-1.92 3.73333-4.535133 6.71899-7.841797 8.95899-3.306663 2.13333-6.98573 3.20117-11.039062 3.20117-4.159997 0-7.892555-1.06784-11.199219-3.20117s-5.919845-5.0655-7.839843-8.79883c-1.919999-3.84-2.88086-8.21443-2.88086-13.12109 0-4.90667 0.960861-9.225659 2.88086-12.958988 1.919998-3.839998 4.533179-6.827606 7.839843-8.960938 3.306664-2.239997 7.039222-3.359375 11.199219-3.359375z" clip-path="url(#clipPath-o1)" fill="none" stroke="#000" stroke-width="6"/>
  </g>
</svg>
