<svg class='letter-border' width="87.879997" height="180" version="1.1" viewBox="0 0 23.251582 47.625002" xmlns="http://www.w3.org/2000/svg">
  <defs>
    <clipPath id="clipPath-p1">
      <path class='letter-border__clip-path' d="m0 0v16.183594h3v46.740234h-2v100.73047h-0.99999998v16.18359h0.99999998v1.00586h21.439453v-1.00586h65.441406v-16.18359h-65.441406v-31.60938c2.773332 5.01333 6.614822 9.01334 11.521485 12 5.01333 2.88 10.772636 4.32031 17.279296 4.32031 7.146661 0 13.438909-1.91976 18.878907-5.75976 5.54666-3.94666 9.867605-9.22652 12.960937-15.83985 3.199998-6.61332 4.800781-13.97341 4.800781-22.08007 0-5.973332-1.014349-11.520631-3.041015-16.640628-1.919998-5.226661-4.640159-9.8131-8.160156-13.759766-3.519998-4.053329-7.680472-7.199455-12.480469-9.439453-4.693329-2.24-9.866202-3.361328-15.519531-3.361328-6.29333 0-11.892167 1.440315-16.798829 4.320313-4.906662 2.773331-8.960158 6.612867-12.160156 11.519531v-14.400391h-1.521484v-46.740234h69.68164v-16.183594zm42.759766 79.724609c3.306663 0 6.347762 0.639925 9.121093 1.919922 2.879998 1.28 5.3862 3.092788 7.519532 5.439453 2.133331 2.239998 3.732162 4.853181 4.798828 7.839844 1.173334 2.986666 1.759765 6.241722 1.759765 9.761722 0 3.30666-0.532943 6.50627-1.599609 9.59961-0.96 2.98666-2.45185 5.70682-4.478516 8.16015-1.919997 2.34667-4.214193 4.21295-6.880859 5.59961-2.666663 1.38667-5.654272 2.08008-8.960938 2.08008-2.986663 0-5.91883-0.69341-8.798828-2.08008-2.879998-1.49333-5.439689-3.52008-7.679687-6.08008-2.133332-2.55999-3.841095-5.38713-5.121094-8.48046v-19.679692c0.64-2.026666 1.65435-3.892947 3.041016-5.59961 1.493332-1.706666 3.199142-3.200469 5.11914-4.480469 1.919999-1.279997 3.893257-2.238906 5.919922-2.878906 2.133331-0.746666 4.213569-1.121094 6.240235-1.121094z" fill="#fff"/>
    </clipPath>
  </defs>
  <path class='letter-border__path' transform="scale(.26458334)" d="m0 16.183594h3v46.740234h-2v100.73047h-1m0 16.18359h1v1.00586h21.439453v-1.00586h65.441406m0-16.18359h-65.441406v-31.60938c2.773332 5.01333 6.614822 9.01334 11.521485 12 5.01333 2.88 10.772636 4.32031 17.279296 4.32031 7.146661 0 13.438909-1.91976 18.878907-5.75976 5.54666-3.94666 9.867605-9.22652 12.960937-15.83985 3.199998-6.61332 4.800781-13.97341 4.800781-22.08007 0-5.973332-1.014349-11.520631-3.041015-16.640628-1.919998-5.226661-4.640159-9.8131-8.160156-13.759766-3.519998-4.053329-7.680472-7.199455-12.480469-9.439453-4.693329-2.24-9.866202-3.361328-15.519531-3.361328-6.29333 0-11.892167 1.440315-16.798829 4.320313-4.906662 2.773331-8.960158 6.612867-12.160156 11.519531v-14.400391h-1.521484v-46.740234h69.68164m0-16.183594h-87.880859m42.759766 79.724609c3.306663 0 6.347762 0.639925 9.121093 1.919922 2.879998 1.28 5.3862 3.092788 7.519532 5.439453 2.133331 2.239998 3.732162 4.853181 4.798828 7.839844 1.173334 2.986666 1.759765 6.241722 1.759765 9.761722 0 3.30666-0.532943 6.50627-1.599609 9.59961-0.96 2.98666-2.45185 5.70682-4.478516 8.16015-1.919997 2.34667-4.214193 4.21295-6.880859 5.59961-2.666663 1.38667-5.654272 2.08008-8.960938 2.08008-2.986663 0-5.91883-0.69341-8.798828-2.08008-2.879998-1.49333-5.439689-3.52008-7.679687-6.08008-2.133332-2.55999-3.841095-5.38713-5.121094-8.48046v-19.679692c0.64-2.026666 1.65435-3.892947 3.041016-5.59961 1.493332-1.706666 3.199142-3.200469 5.11914-4.480469 1.919999-1.279997 3.893257-2.238906 5.919922-2.878906 2.133331-0.746666 4.213569-1.121094 6.240235-1.121094z" clip-path="url(#clipPath-p1)" fill="none" stroke="#000" stroke-width="6"/>
</svg>
