<svg class='letter-mask' width="87.879997" height="180" version="1.1" viewBox="0 0 23.251582 47.625002" xmlns="http://www.w3.org/2000/svg">
  <path class='letter-mask__path' transform="scale(.26458334)" d="m0 16.183594v147.47071h1v-100.73047h2v-46.740234h-3zm18.199219 0v46.740234h1.521484v14.400391c3.199998-4.906664 7.253494-8.7462 12.160156-11.519531 4.906662-2.879999 10.505498-4.320313 16.798829-4.320313 5.653329 0 10.826202 1.121328 15.519531 3.361328 4.799997 2.239998 8.96047 5.386124 12.480469 9.439453 3.519997 3.946666 6.240158 8.533105 8.160156 13.759766 2.026666 5.119997 3.041015 10.667293 3.041015 16.640628v-88.501956h-69.68164zm69.68164 88.501956c0 8.10666-1.600783 15.46675-4.800781 22.08007-3.093332 6.61334-7.414277 11.89319-12.960937 15.83985-5.439998 3.84-11.732246 5.75976-18.878907 5.75976-6.50666 0-12.265966-1.44031-17.279296-4.32031-4.906664-2.98666-8.748153-6.98667-11.521485-12v31.60938h65.441406v-58.96875zm-45.121093-24.960941c-2.026666 0-4.106904 0.374428-6.240235 1.121094-2.026665 0.64-3.999923 1.598909-5.919922 2.878906-1.919998 1.28-3.625808 2.773803-5.11914 4.480469-1.386666 1.706663-2.401016 3.572943-3.041016 5.59961v19.679692c1.279999 3.09333 2.987762 5.92047 5.121094 8.48046 2.239998 2.56 4.799689 4.58675 7.679687 6.08008 2.879998 1.38667 5.812165 2.08008 8.798828 2.08008 3.306667 0 6.294275-0.69341 8.960938-2.08008 2.666666-1.38666 4.960862-3.25294 6.880859-5.59961 2.026666-2.45333 3.518516-5.17349 4.478516-8.16015 1.066666-3.09334 1.599609-6.29295 1.599609-9.59961 0-3.52-0.586431-6.775056-1.759765-9.761722-1.066666-2.986663-2.665497-5.599846-4.798828-7.839844-2.133332-2.346665-4.639534-4.159453-7.519532-5.439453-2.773331-1.279997-5.81443-1.919922-9.121093-1.919922zm-42.759766 100.11328v0.16211h1v-0.16211h-1zm22.439453 0v0.16211h65.441406v-0.16211h-65.441406z" stroke-width="5.66589"/>
</svg>
