<svg class='letter-border' width="51.919998" height="180" version="1.1" viewBox="0 0 13.737166 47.625002" xmlns="http://www.w3.org/2000/svg">
  <defs>
    <clipPath id="clipPath845">
      <path class='letter-border__clip-path' d="m0 0v16.183594h3v46.740234h-2v83.841792h2v16.88868h-3v16.18359h51.919922v-16.18359h-33.720703v-16.88868h4.240234v-50.720698c2.239999-4.693329 5.92102-8.267372 11.041016-10.720703 5.119996-2.559998 10.932792-3.839844 17.439453-3.839844v-19.519531c-0.426666-0.106659-0.95961-0.160157-1.59961-0.160156h-2.720703c-5.119995 0.319999-9.973883 2.132789-14.560547 5.439453-4.586662 3.306663-8.37271 7.841565-11.359374 13.601562v-17.921875h-2.480469v-46.740234h33.720703v-16.183594z" fill="#fff"/>
    </clipPath>
  </defs>
  <path class='letter-border__path' transform="scale(.26458334)" d="m0 16.183594h3v46.740234h-2v83.841792h2v16.88868h-3m0 16.18359h51.919922m0-16.18359h-33.720703v-16.88868h4.240234v-50.720698c2.239999-4.693329 5.92102-8.267372 11.041016-10.720703 5.119996-2.559998 10.932792-3.839844 17.439453-3.839844v-19.519531c-0.426666-0.106659-0.95961-0.160157-1.59961-0.160156h-2.720703c-5.119995 0.319999-9.973883 2.132789-14.560547 5.439453-4.586662 3.306663-8.37271 7.841565-11.359374 13.601562v-17.921875h-2.480469v-46.740234h33.720703m0-16.183594h-51.919922" clip-path="url(#clipPath845)" fill="none" stroke="#000" stroke-width="6"/>
</svg>
