<svg class='letter-border' width="70.879997" height="180" version="1.1" viewBox="0 0 18.753664 47.625002" xmlns="http://www.w3.org/2000/svg">
  <defs>
    <clipPath id="clipPath-s1">
      <path class='letter-border__clip-path' d="m0 0v16.183594h25.455078v46.808594c-1.677615 0.468642-3.288446 1.025731-4.814453 1.693359-5.01333 2.24-8.959846 5.386124-11.839844 9.439453-2.7733313 3.946663-4.1601562 8.693571-4.1601562 14.240234 0 4.586664 1.0123973 8.372712 3.0390625 11.359375 2.1333317 2.880001 5.2794565 5.279221 9.4394535 7.199221s9.334822 3.89521 15.521484 5.92187c3.733331 1.06667 6.879455 2.02558 9.439453 2.87891 2.666665 0.85333 4.693412 1.86768 6.080078 3.04101 1.386666 1.06667 2.080078 2.61201 2.080078 4.63868 0 2.98666-1.279846 5.22737-3.839843 6.7207-2.453333 1.49333-5.759925 2.24023-9.919922 2.24023-4.479997 0-9.173415-0.96085-14.080078-2.88085-4.799997-1.92-9.707374-4.90566-14.720704-8.95899l-7.6796875 13.91992c4.69333 4.58667 10.294119 8.05373 16.800781 10.40039 2.823232 1.01822 5.710574 1.80054 8.654297 2.37696v16.43164h-25.455078v16.18359h70.880859v-16.18359h-23.976562v-16.0918c5.86592-1.04781 10.82114-3.12406 14.855469-6.23828 6.079995-4.69333 9.121093-11.19954 9.121093-19.51953 0-5.12-1.174818-9.12-3.521484-12-2.346666-2.98667-5.865264-5.49287-10.558594-7.51953-4.586663-2.02667-10.240943-3.999928-16.960937-5.919926-3.306664-1.066665-6.133804-2.027527-8.480469-2.880859-2.239998-0.853334-3.945808-1.81224-5.119141-2.878906-1.066665-1.173332-1.599609-2.774116-1.599609-4.800781 0-2.239998 0.586433-3.945807 1.759766-5.119141 1.279999-1.279998 2.878829-2.187369 4.798828-2.720703 2.026665-0.533332 4.160392-0.800782 6.40039-0.800782 3.946664 0 7.839691 0.800394 11.679688 2.400391 3.839997 1.493334 7.893493 3.894509 12.160156 7.201172l8.640625-13.601563c-4.373329-4.159995-9.227217-7.14565-14.560547-8.958984-2.783748-1.002149-5.657127-1.73577-8.615234-2.214844v-45.80664h23.976562v-16.183594z" fill="#fff"/>
    </clipPath>
  </defs>
  <g transform="translate(1.5239989)">
    <path class='letter-border__path' transform="matrix(.26458333 0 0 .26458333 -1.5239989 0)" d="m0 16.183594h25.455078v46.808594c-1.677615 0.468642-3.288446 1.025731-4.814453 1.693359-5.01333 2.24-8.959846 5.386124-11.839844 9.439453-2.7733313 3.946663-4.1601562 8.693571-4.1601562 14.240234 0 4.586664 1.0123973 8.372712 3.0390625 11.359375 2.1333317 2.880001 5.2794565 5.279221 9.4394535 7.199221s9.334822 3.89521 15.521484 5.92187c3.733331 1.06667 6.879455 2.02558 9.439453 2.87891 2.666665 0.85333 4.693412 1.86768 6.080078 3.04101 1.386666 1.06667 2.080078 2.61201 2.080078 4.63868 0 2.98666-1.279846 5.22737-3.839843 6.7207-2.453333 1.49333-5.759925 2.24023-9.919922 2.24023-4.479997 0-9.173415-0.96085-14.080078-2.88085-4.799997-1.92-9.707374-4.90566-14.720704-8.95899l-7.6796875 13.91992c4.69333 4.58667 10.294119 8.05373 16.800781 10.40039 2.823232 1.01822 5.710574 1.80054 8.654297 2.37696v16.43164h-25.455078m0 16.18359h70.880859m0-16.18359h-23.976562v-16.0918c5.86592-1.04781 10.82114-3.12406 14.855469-6.23828 6.079995-4.69333 9.121093-11.19954 9.121093-19.51953 0-5.12-1.174818-9.12-3.521484-12-2.346666-2.98667-5.865264-5.49287-10.558594-7.51953-4.586663-2.02667-10.240943-3.999928-16.960937-5.919926-3.306664-1.066665-6.133804-2.027527-8.480469-2.880859-2.239998-0.853334-3.945808-1.81224-5.119141-2.878906-1.066665-1.173332-1.599609-2.774116-1.599609-4.800781 0-2.239998 0.586433-3.945807 1.759766-5.119141 1.279999-1.279998 2.878829-2.187369 4.798828-2.720703 2.026665-0.533332 4.160392-0.800782 6.40039-0.800782 3.946664 0 7.839691 0.800394 11.679688 2.400391 3.839997 1.493334 7.893493 3.894509 12.160156 7.201172l8.640625-13.601563c-4.373329-4.159995-9.227217-7.14565-14.560547-8.958984-2.783748-1.002149-5.657127-1.73577-8.615234-2.214844v-45.80664h23.976562m0-16.183594h-70.880859" clip-path="url(#clipPath-s1)" fill="none" stroke="#000" stroke-width="6"/>
  </g>
</svg>
