<svg class='letter-border' width="85.519997" height="180" version="1.1" viewBox="0 0 22.627165 47.625002" xmlns="http://www.w3.org/2000/svg">
  <defs>
    <clipPath id="clipPath-u1">
      <path class='letter-border__clip-path' d="m0 0v16.183594h3v46.740234h-2v52.480472c0 8.30649 1.3367399 15.08489 4 20.34765v27.90235h-5v16.18359h85.519531v-16.18359h-3.523437v-16.54883c0.793296-0.0977 1.613776-0.2034 2.523437-0.33985v-17.4414c-1.813331-0.21333-3.146666-0.79977-4-1.75977-0.746666-0.96-1.11914-2.55883-1.11914-4.79883v-59.841792h-1.900391v-46.740234h8.019531v-16.183594zm20 16.183594h40v46.740234h-2.041016v52.000002c-1.6 3.41333-3.573258 6.24047-5.919922 8.48047-2.239999 2.23999-4.746199 3.94776-7.519531 5.12109-2.666663 1.06667-5.386824 1.59961-8.160156 1.59961-4.586663 0-8.051772-1.60078-10.398437-4.80078-2.346665-3.30667-3.521485-8.1586-3.521485-14.5586v-47.841792h-2.439453zm41.160156 114.90039 0.480469 6.72071c0.426666 3.09333 1.81349 5.54604 4.160156 7.35937 0.406779 0.28298 0.838302 0.53543 1.283203 0.77149v17.71875h-44.583984v-15.62305c1.552561 0.219 3.183576 0.33398 4.900391 0.33398 7.039994 0 13.492711-1.44031 19.359375-4.32031 5.86666-2.98666 10.667059-7.30761 14.40039-12.96094z" fill="#fff"/>
    </clipPath>
  </defs>
  <path class='letter-border__path' transform="scale(.26458333)" d="m0 16.183594h3v46.740234h-2v52.480472c0 8.30649 1.3367399 15.08489 4 20.34765v27.90235h-5m0 16.18359h85.519531m0-16.18359h-3.523437v-16.54883c0.793296-0.0977 1.613776-0.2034 2.523437-0.33985v-17.4414c-1.813331-0.21333-3.146666-0.79977-4-1.75977-0.746666-0.96-1.11914-2.55883-1.11914-4.79883v-59.841792h-1.900391v-46.740234h8.019531m0-16.183594h-85.519531m20 16.183594h40v46.740234h-2.041016v52.000002c-1.6 3.41333-3.573258 6.24047-5.919922 8.48047-2.239999 2.23999-4.746199 3.94776-7.519531 5.12109-2.666663 1.06667-5.386824 1.59961-8.160156 1.59961-4.586663 0-8.051772-1.60078-10.398437-4.80078-2.346665-3.30667-3.521485-8.1586-3.521485-14.5586v-47.841792h-2.439453zm41.160156 114.90039 0.480469 6.72071c0.426666 3.09333 1.81349 5.54604 4.160156 7.35937 0.406779 0.28298 0.838302 0.53543 1.283203 0.77149v17.71875h-44.583984v-15.62305c1.552561 0.219 3.183576 0.33398 4.900391 0.33398 7.039994 0 13.492711-1.44031 19.359375-4.32031 5.86666-2.98666 10.667059-7.30761 14.40039-12.96094z" clip-path="url(#clipPath-u1)" fill="none" stroke="#000" stroke-width="6"/>
</svg>
