<svg class='letter-mask' width="85.519997" height="180" version="1.1" viewBox="0 0 22.627165 47.625002" xmlns="http://www.w3.org/2000/svg">
  <path class='letter-mask__path' transform="scale(.26458333)" d="m0 16.183594v147.47071h5v-27.90235c-2.6632601-5.26276-4-12.04116-4-20.34765v-52.480472h2v-46.740234h-3zm20 0v46.740234h2.439453v47.841792c0 6.4 1.17482 11.25193 3.521485 14.5586 2.346664 3.2 5.811774 4.80078 10.398437 4.80078 2.773332 0 5.493493-0.53294 8.160156-1.59961 2.773332-1.17333 5.279533-2.8811 7.519531-5.12109 2.346664-2.24 4.319922-5.06714 5.919922-8.48047v-52.000002h2.041016v-46.740234h-40zm57.5 0v46.740234h1.900391v59.841792c0 2.24 0.372474 3.83883 1.11914 4.79883 0.853334 0.96 2.186669 1.54644 4 1.75977v17.4414c-0.909661 0.13645-1.730141 0.24219-2.523437 0.33985v16.54883h3.523437v-147.47071h-8.019531zm-16.339844 114.90039c-3.733331 5.65333-8.53373 9.97428-14.40039 12.96094-5.866664 2.88-12.319381 4.32031-19.359375 4.32031-1.716815 0-3.34783-0.11498-4.900391-0.33398v15.62305h44.583984v-17.71875c-0.444901-0.23606-0.876424-0.48851-1.283203-0.77149-2.346666-1.81333-3.73349-4.26604-4.160156-7.35937l-0.480469-6.72071zm-61.160156 48.75391v0.16211h85.519531v-0.16211h-85.519531z" stroke-width="5.58932"/>
</svg>
