<svg class='letter-border' width="85.12" height="180" version="1.1" viewBox="0 0 22.5213 47.625" xmlns="http://www.w3.org/2000/svg">
  <defs>
    <clipPath id="clipPath-y1">
      <path class='letter-border__clip-path' d="m0 0v16.1836h3.5v46.7402h-3.5l33.1191 83.8418c-1.38667 4.69333-2.72 8.31891-4 10.8789-1.28 2.66667-2.61334 4.47946-4 5.43945-0.255607 0.21301-0.529072 0.39985-0.814453 0.57032h-11.0586c-0.893887-0.18944-1.70885-0.35327-2.68555-0.57032v0.57032h-10.5605v16.1836h10.5605v1.80664c2.02666 0.64 3.89294 1.06596 5.59961 1.2793 1.70667 0.32 3.41248 0.48047 5.11914 0.48047 4.8 0 9.12094-0.90542 12.9609-2.71875 0.60972-0.26367 1.19681-0.5509 1.77344-0.84766h49.1055v-16.1836h-35.291c0.02961-0.0839 0.0629-0.16571 0.0918-0.25l35.1992-100.48h-2.91992v-46.7402h2.91992v-16.1836zm19.5 16.1836h47.5v46.7402h-2.35938l-19.8398 61.9219-22.5605-61.9219h-2.74023z" fill="#fff"/>
    </clipPath>
  </defs>
  <path class='letter-border__path' transform="scale(.264583)" d="m0 16.1836h3.5v46.7402h-3.5l33.1191 83.8418c-1.38667 4.69333-2.72 8.31891-4 10.8789-1.28 2.66667-2.61334 4.47946-4 5.43945-0.255607 0.21301-0.529072 0.39985-0.814453 0.57032h-11.0586c-0.893887-0.18944-1.70885-0.35327-2.68555-0.57032v0.57032h-10.5605m0 16.1836h85.1191m0-16.1836h-35.291c0.02961-0.0839 0.0629-0.16571 0.0918-0.25l35.1992-100.48h-2.91992v-46.7402h2.91992m0-16.1836h-85.1191m19.5 16.1836h47.5v46.7402h-2.35938l-19.8398 61.9219-22.5605-61.9219h-2.74023z" clip-path="url(#clipPath-y1)" fill="#fff" stroke="#000" stroke-width="6"/>
</svg>
