<svg class='letter-mask' width="85.12" height="180" version="1.1" viewBox="0 0 22.5213 47.625" xmlns="http://www.w3.org/2000/svg">
  <path class='letter-mask__path' d="m0 4.28202v12.3667h0.926042v-12.3667zm0 12.3667v26.6516h2.79414v-0.150897c0.258417 0.05743 0.474043 0.100775 0.710551 0.150897h2.92592c0.075507-0.0451 0.147861-0.09454 0.215491-0.150897 0.366888-0.253997 0.719667-0.733631 1.05833-1.43919 0.338666-0.677333 0.691445-1.6366 1.05833-2.87838zm5.15937-12.3667v12.3667h0.72502l5.96914 16.3835 5.24929-16.3835h0.624251v-12.3667zm16.5892 0v12.3667h0.772563v-12.3667zm0.772563 12.3667-9.31313 26.5855c-0.0076 0.0223-0.01646 0.04395-0.02429 0.06615h9.33742z" stroke-width="1.47537"/>
</svg>
