<svg class='letter-mask' width="106.07993" height="180.00002" version="1.1" viewBox="0 0 28.066975 47.625005" xmlns="http://www.w3.org/2000/svg">
  <g transform="translate(1.5239989)">
    <path class='letter-mask__path' transform="matrix(.2645833 0 0 .2645833 -1.5239989 0)" d="m0 16.183594v130.58203l41.919922-113.60156h3.621094v-16.980468h-45.541016zm0 130.58203v16.88868h4.0761719v-16.88868h-4.0761719zm60.486328-130.58203v16.980468h3.833984l41.759768 113.60156v-130.58203h-45.593752zm45.593752 130.58203h-3.98438v16.88868h3.98438v-16.88868zm-52.960939-90.720698-16.31836 46.878908h32l-15.68164-46.878908zm-20 62.400388-10.398438 28.32031h-3.699219v16.88868h68.126954v-16.88868h-3.789063l-10.558594-28.32031h-39.68164zm-33.119141 61.39258v0.16211h106.08008v-0.16211h-106.08008z" stroke-width="6.225"/>
  </g>
</svg>
