<svg class='letter-border' width="101.76" height="180.00002" version="1.1" viewBox="0 0 26.923995 47.625006" xmlns="http://www.w3.org/2000/svg">
  <defs>
    <clipPath id="clipPath-C1">
      <path class='letter-border__clip-path' d="m0 0v16.183594h48.236328v16.814453c-5.768765 0.697865-11.080974 2.180385-15.916016 4.486328-6.933328 3.199997-12.799612 7.57443-17.599609 13.121094-4.7999968 5.439995-8.4810172 11.520239-11.041016 18.240234-2.4533317 6.61333-3.6796875 13.385032-3.6796875 20.318359 0 7.146664 1.3333351 14.241258 4 21.281248 2.7733315 6.93333 6.559378 13.22558 11.359375 18.87891 4.906663 5.54666 10.721411 10.02808 17.441406 13.4414 3.004209 1.47827 6.154201 2.60644 9.435547 3.42383v17.46485h-42.236328v16.18359h101.75977v-16.18359h-38.076176v-16.59375c3.343382-0.50402 6.702129-1.28845 10.076172-2.375 6.293329-2.02667 11.947608-5.01428 16.960937-8.96094 5.119998-3.94666 8.799065-8.74706 11.039067-14.40039l-18.080082-10.40039c-1.706666 4.05333-4.105887 7.36188-7.199219 9.92187-3.09333 2.56-6.453412 4.42628-10.080078 5.59961-3.626664 1.17333-7.200706 1.75977-10.720703 1.75977-4.906664 0-9.439613-1.01435-13.59961-3.04102-4.05333-2.13333-7.573882-4.95852-10.560547-8.47851-2.879998-3.62667-5.118751-7.73365-6.71875-12.32032-1.599999-4.693325-2.40039-9.547213-2.40039-14.560542 0-4.479998 0.639922-8.959456 1.919921-13.439454 1.386666-4.479995 3.466903-8.53349 6.240235-12.160156 2.773332-3.626663 6.186904-6.560783 10.240234-8.800781 4.159998-2.24 9.01193-3.359375 14.558594-3.359375 3.413329 0 6.880393 0.532941 10.400391 1.599609 3.519997 0.959998 6.82659 2.719299 9.919922 5.279297 3.093331 2.453332 5.599533 5.813415 7.519531 10.080078l16.960941-11.679687c-3.733336-7.359993-9.441104-13.333258-17.121098-17.919922-4.040717-2.447195-8.4949-4.235449-13.355468-5.376953v-17.84375h32.076176v-16.183594z" fill="#fff"/>
    </clipPath>
  </defs>
  <g transform="translate(1.5239989)">
    <path class='letter-border__path' transform="matrix(.26458331 0 0 .26458331 -1.5239989 0)" d="m0 16.183594h48.236328v16.814453c-5.768765 0.697865-11.080974 2.180385-15.916016 4.486328-6.933328 3.199997-12.799612 7.57443-17.599609 13.121094-4.7999968 5.439995-8.4810172 11.520239-11.041016 18.240234-2.4533317 6.61333-3.6796875 13.385032-3.6796875 20.318359 0 7.146664 1.3333351 14.241258 4 21.281248 2.7733315 6.93333 6.559378 13.22558 11.359375 18.87891 4.906663 5.54666 10.721411 10.02808 17.441406 13.4414 3.004209 1.47827 6.154201 2.60644 9.435547 3.42383v17.46485h-42.236328m0 16.18359h101.75977m0-16.18359h-38.076176v-16.59375c3.343382-0.50402 6.702129-1.28845 10.076172-2.375 6.293329-2.02667 11.947608-5.01428 16.960937-8.96094 5.119998-3.94666 8.799065-8.74706 11.039067-14.40039l-18.080082-10.40039c-1.706666 4.05333-4.105887 7.36188-7.199219 9.92187-3.09333 2.56-6.453412 4.42628-10.080078 5.59961-3.626664 1.17333-7.200706 1.75977-10.720703 1.75977-4.906664 0-9.439613-1.01435-13.59961-3.04102-4.05333-2.13333-7.573882-4.95852-10.560547-8.47851-2.879998-3.62667-5.118751-7.73365-6.71875-12.32032-1.599999-4.693325-2.40039-9.547213-2.40039-14.560542 0-4.479998 0.639922-8.959456 1.919921-13.439454 1.386666-4.479995 3.466903-8.53349 6.240235-12.160156 2.773332-3.626663 6.186904-6.560783 10.240234-8.800781 4.159998-2.24 9.01193-3.359375 14.558594-3.359375 3.413329 0 6.880393 0.532941 10.400391 1.599609 3.519997 0.959998 6.82659 2.719299 9.919922 5.279297 3.093331 2.453332 5.599533 5.813415 7.519531 10.080078l16.960941-11.679687c-3.733336-7.359993-9.441104-13.333258-17.121098-17.919922-4.040717-2.447195-8.4949-4.235449-13.355468-5.376953v-17.84375h32.076176m0-16.183594h-101.75977" clip-path="url(#clipPath-C1)" fill="none" stroke="#000" stroke-width="6"/>
  </g>
</svg>
