<svg class='letter-mask' width="101.76" height="180.00002" version="1.1" viewBox="0 0 26.923995 47.625006" xmlns="http://www.w3.org/2000/svg">
  <g transform="translate(1.5239989)">
    <path class='letter-mask__path' transform="matrix(.26458331 0 0 .26458331 -1.5239989 0)" d="m0 16.183594v72.980468c-2.9605947e-16 -6.933326 1.2263558-13.705029 3.6796875-20.318359 2.5599983-6.719995 6.2410189-12.800239 11.041016-18.240234 4.799997-5.546664 10.666282-9.921097 17.599609-13.121094 4.835042-2.305943 10.147251-3.788463 15.916016-4.486328v-16.814453h-48.236328zm0 72.980468v74.490238h42.236328v-17.46485c-3.281346-0.81739-6.431338-1.94556-9.435547-3.42383-6.719995-3.41331-12.534743-7.89474-17.441406-13.4414-4.799997-5.65333-8.5860435-11.94558-11.359375-18.87891-2.6666649-7.03999-4-14.134584-4-21.281248zm69.683594-72.980468v17.84375c4.860568 1.141504 9.314752 2.929758 13.355468 5.376953 7.679994 4.586664 13.387758 10.559929 17.121098 17.919922l-16.960941 11.679687c-1.919998-4.266663-4.426201-7.626746-7.519531-10.080078-3.093332-2.559998-6.399925-4.319299-9.919922-5.279297-3.519998-1.066668-6.987062-1.599609-10.400391-1.599609-5.546664 0-10.398596 1.119375-14.558594 3.359375-4.05333 2.239998-7.466902 5.174118-10.240234 8.800781-2.773332 3.626666-4.853569 7.680161-6.240235 12.160156-1.279998 4.479998-1.919921 8.959456-1.919921 13.439454 0 5.013328 0.800391 9.867221 2.40039 14.560542 1.599999 4.58667 3.838752 8.69365 6.71875 12.32032 2.986665 3.51999 6.507217 6.34518 10.560547 8.47851 4.159997 2.02667 8.692946 3.04102 13.59961 3.04102 3.519996 0 7.094039-0.58644 10.720703-1.75977 3.626666-1.17333 6.986748-3.03961 10.080078-5.59961 3.093332-2.55999 5.492553-5.86854 7.199219-9.92187l18.080082 10.40039v-105.14063h-32.076176zm32.076176 105.14063c-2.240006 5.65333-5.919069 10.45373-11.039067 14.40039-5.013329 3.94666-10.667608 6.93427-16.960937 8.96094-3.374043 1.08655-6.73279 1.87098-10.076172 2.375v16.59375h38.076176v-42.33008zm-101.75977 58.51367v0.16211h101.75977v-0.16211h-101.75977z" stroke-width="6.09695"/>
  </g>
</svg>
