<svg class='letter-border' width="98.279999" height="180.00002" version="1.1" viewBox="0 0 26.003243 47.625005" xmlns="http://www.w3.org/2000/svg">
  <defs>
    <clipPath id="clipPath-D1">
      <path class='letter-border__clip-path' d="m0 0v16.183594h41.828125v16.980468h-40.828125v113.60156h10v16.88868h-11v16.18359h98.279297v-16.18359h-68.445313v-16.88868h12.445313c11.413327 0 21.281569-2.34768 29.601562-7.04101 8.426662-4.69333 14.932868-11.30652 19.519532-19.83984 4.586663-8.53333 6.878906-18.56009 6.878906-30.080082 0-10.453328-2.080237-19.947142-6.240235-28.480469-4.159997-8.639994-10.398756-15.465184-18.71875-20.478516-2.807565-1.727732-5.851971-3.158022-9.121093-4.302734v-20.359375h34.080078v-16.183594zm23.080078 52.525391h19.199219c7.146661 0 13.226902 1.59883 18.240234 4.798828 5.01333 3.093332 8.852868 7.467764 11.519531 13.121093 2.666667 5.546664 4 11.99938 4 19.359376 0 7.146661-1.333333 13.599382-4 19.359372-2.559997 5.65333-6.346045 10.13475-11.359374 13.44141-5.01333 3.2-11.147062 4.79883-18.400391 4.79883h-19.199219z" fill="#fff"/>
    </clipPath>
  </defs>
  <g transform="translate(1.5239989)">
    <path class='letter-border__path' transform="matrix(.2645833 0 0 .2645833 -1.5239989 0)" d="m0 16.183594h41.828125v16.980468h-40.828125v113.60156h10v16.88868h-11m0 16.18359h98.279297m0-16.18359h-68.445313v-16.88868h12.445313c11.413327 0 21.281569-2.34768 29.601562-7.04101 8.426662-4.69333 14.932868-11.30652 19.519532-19.83984 4.586663-8.53333 6.878906-18.56009 6.878906-30.080082 0-10.453328-2.080237-19.947142-6.240235-28.480469-4.159997-8.639994-10.398756-15.465184-18.71875-20.478516-2.807565-1.727732-5.851971-3.158022-9.121093-4.302734v-20.359375h34.080078m0-16.183594h-98.279297m23.080078 52.525391h19.199219c7.146661 0 13.226902 1.59883 18.240234 4.798828 5.01333 3.093332 8.852868 7.467764 11.519531 13.121093 2.666667 5.546664 4 11.99938 4 19.359376 0 7.146661-1.333333 13.599382-4 19.359372-2.559997 5.65333-6.346045 10.13475-11.359374 13.44141-5.01333 3.2-11.147062 4.79883-18.400391 4.79883h-19.199219z" clip-path="url(#clipPath-D1)" fill="none" stroke="#000" stroke-width="6"/>
  </g>
</svg>
