<svg class='letter-border' width="104.84" height="180" version="1.1" viewBox="0 0 27.7389 47.625" xmlns="http://www.w3.org/2000/svg">
  <defs>
    <clipPath id="clipPath-G1">
      <path class='letter-border__clip-path' d="m0 0v16.1836h42.2559v17.7227c-2.98518 0.72471-5.87243 1.7022-8.65625 2.93945-6.72 2.98666-12.5863 7.0917-17.5996 12.3184-5.01333 5.22666-8.90636 11.3069-11.6797 18.2402-2.77333 6.82666-4.16016 14.1333-4.16016 21.9199 0 8.21333 1.38682 15.8409 4.16016 22.8809 2.77333 7.03999 6.61287 13.2272 11.5195 18.5605 5.01333 5.22667 10.7726 9.3317 17.2793 12.3184 2.9699 1.34125 6.01624 2.37827 9.13672 3.11719v17.4531h-42.2559v16.1836h104.84v-16.1836h-4.83984v-16.8887h4v-58.4004h-41.1191v16.1602h22.8789v7.85156c-4.13442 4.81384-8.56032 8.54488-13.2793 11.1875-5.22666 2.98667-10.7205 4.48047-16.4805 4.48047-4.90666 0-9.38612-0.96086-13.4395-2.88086-4.05333-2.02666-7.62737-4.74682-10.7207-8.16015-2.98666-3.41334-5.3324-7.41334-7.03906-12-1.6-4.58667-2.40039-9.59907-2.40039-15.0391 0-5.12 0.746901-9.97389 2.24023-14.5605 1.6-4.58666 3.83875-8.64016 6.71875-12.1602 2.88-3.52 6.29357-6.29365 10.2402-8.32031 3.94666-2.02667 8.3211-3.03906 13.1211-3.03906 6.08 0 11.6788 1.4938 16.7988 4.48047 5.22666 2.98666 9.28016 7.30566 12.1602 12.959l16.4805-12.1602c-3.84-7.46666-9.5993-13.4399-17.2793-17.9199-5.32048-3.22226-11.4087-5.30709-18.2559-6.26562v-16.7949h40.2148v-16.1836zm85.7598 133.863v12.9023h4.24023v16.8887h-25.375v-17.3594c7.73592-1.93324 14.7803-6.07774 21.1348-12.4316z" fill="#fff" stroke-width="2.59076"/>
    </clipPath>
  </defs>
  <g transform="translate(1.524)">
    <path class='letter-border__path' transform="matrix(.264583 0 0 .264583 -1.524 0)" d="m0 16.1836h42.2559v17.7227c-2.98518 0.72471-5.87243 1.7022-8.65625 2.93945-6.72 2.98666-12.5863 7.0917-17.5996 12.3184-5.01333 5.22666-8.90636 11.3069-11.6797 18.2402-2.77333 6.82666-4.16016 14.1333-4.16016 21.9199 0 8.21333 1.38682 15.8409 4.16016 22.8809 2.77333 7.03999 6.61287 13.2272 11.5195 18.5605 5.01333 5.22667 10.7726 9.3317 17.2793 12.3184 2.9699 1.34125 6.01624 2.37827 9.13672 3.11719v17.4531h-42.2559m0 16.1836h104.84m0-16.1836h-4.83984v-16.8887h4v-58.4004h-41.1191v16.1602h22.8789v7.85156c-4.13442 4.81384-8.56032 8.54488-13.2793 11.1875-5.22666 2.98667-10.7205 4.48047-16.4805 4.48047-4.90666 0-9.38612-0.96086-13.4395-2.88086-4.05333-2.02666-7.62737-4.74682-10.7207-8.16015-2.98666-3.41334-5.3324-7.41334-7.03906-12-1.6-4.58667-2.40039-9.59907-2.40039-15.0391 0-5.12 0.746901-9.97389 2.24023-14.5605 1.6-4.58666 3.83875-8.64016 6.71875-12.1602 2.88-3.52 6.29357-6.29365 10.2402-8.32031 3.94666-2.02667 8.3211-3.03906 13.1211-3.03906 6.08 0 11.6788 1.4938 16.7988 4.48047 5.22666 2.98666 9.28016 7.30566 12.1602 12.959l16.4805-12.1602c-3.84-7.46666-9.5993-13.4399-17.2793-17.9199-5.32048-3.22226-11.4087-5.30709-18.2559-6.26562v-16.7949h40.2148m0-16.1836h-104.84m85.7598 133.863v12.9023h4.24023v16.8887h-25.375v-17.3594c7.73592-1.93324 14.7803-6.07774 21.1348-12.4316z" clip-path="url(#clipPath-G1)" fill="none" stroke="#000" stroke-width="6"/>
  </g>
</svg>
