<svg class='letter-mask' width="104.84" height="180" version="1.1" viewBox="0 0 27.7389 47.625" xmlns="http://www.w3.org/2000/svg">
  <g transform="translate(1.524)">
    <path class='letter-mask__path' transform="matrix(.264583 0 0 .264583 -1.524 0)" d="m0 16.1836v147.471h42.2559v-17.4531c-3.12048-0.73892-6.16682-1.77594-9.13672-3.11719-6.50666-2.98666-12.266-7.09169-17.2793-12.3184-4.90666-5.33331-8.7462-11.5206-11.5195-18.5605-2.77333-7.04-4.16016-14.6675-4.16016-22.8809 0-7.78666 1.38682-15.0933 4.16016-21.9199 2.77333-6.93333 6.66636-13.0136 11.6797-18.2402 5.01333-5.22666 10.8796-9.3317 17.5996-12.3184 2.78382-1.23725 5.67107-2.21474 8.65625-2.93945v-17.7227h-42.2559zm64.625 0v16.7949c6.84718 0.958531 12.9354 3.04336 18.2559 6.26562 7.68 4.48 13.4393 10.4533 17.2793 17.9199l-16.4805 12.1602c-2.88-5.65333-6.93349-9.97232-12.1602-12.959-5.12-2.98667-10.7188-4.48047-16.7988-4.48047-4.8 0-9.17443 1.0124-13.1211 3.03906-3.94666 2.02667-7.36024 4.80032-10.2402 8.32031-2.88 3.52-5.11875 7.57349-6.71875 12.1602-1.49333 4.58666-2.24023 9.44055-2.24023 14.5605 0 5.44 0.800391 10.4524 2.40039 15.0391 1.70667 4.58666 4.0524 8.58666 7.03906 12 3.09333 3.41333 6.66737 6.13349 10.7207 8.16015 4.05333 1.92 8.53279 2.88086 13.4395 2.88086 5.76 0 11.2538-1.4938 16.4805-4.48047 4.71898-2.64262 9.14487-6.37366 13.2793-11.1875v-7.85156h-22.8789v-16.1602h41.1191v58.4004h-4v16.8887h4.83984v-147.471h-40.2148zm21.1348 117.68c-6.35446 6.3539-13.3988 10.4984-21.1348 12.4316v17.3594h25.375v-16.8887h-4.24023v-12.9023zm-85.7598 45.9746v0.16211h104.84v-0.16211h-104.84z" stroke-width="6.18849"/>
  </g>
</svg>
