<svg class='letter-mask' width="116.72" height="180" version="1.1" viewBox="0 0 30.8822 47.625" xmlns="http://www.w3.org/2000/svg">
  <g transform="translate(1.524)">
    <path class='letter-mask__path' transform="matrix(.264583 0 0 .264583 -1.524 0)" d="m0 16.1836v147.471h2.61133v-16.8887h-1.61133v-113.602h2v-16.9805h-3zm23 0v16.9805h1.67969l33.5996 64.6406 33.9199-64.6406h1.82422v-16.9805h-71.0234zm91.0234 0v16.9805h1.69726v113.602h-1.7207v16.8887h2.7207v-147.471h-2.69726zm-90.9434 56.0215v74.5605h-1.96875v16.8887h74.3887v-16.8887h-1.85938v-74.5605l-29.1211 55.5195h-12.3203l-29.1191-55.5195zm-23.0801 107.633v0.16211h116.721v-0.16211h-116.721z" stroke-width="6.5297"/>
  </g>
</svg>
