<svg class='letter-mask' width="110.87993" height="180.00002" version="1.1" viewBox="0 0 29.336974 47.625005" xmlns="http://www.w3.org/2000/svg">
  <g transform="translate(1.5239989)">
    <path class='letter-mask__path' transform="matrix(.2645833 0 0 .2645833 -1.5239989 0)" d="m0 16.183594v73.78125c-5.9211895e-16 -7.573328 1.3868247-14.772946 4.1601562-21.59961 2.8799982-6.933327 6.7730238-13.067061 11.679688-18.40039 5.01333-5.439998 10.879613-9.707451 17.599609-12.800782 3.442178-1.613519 7.048798-2.817245 10.816406-3.617187v-17.363281h-44.255859zm0 73.78125v73.689456h44.255859v-17.14063c-4.083823-0.79597-7.959624-2.03448-11.615234-3.74805-6.719996-3.19998-12.534743-7.52094-17.441406-12.96093-4.799997-5.54667-8.532554-11.73389-11.199219-18.56055-2.666665-6.93333-4-14.025969-4-21.279296zm66.625-73.78125v17.234375c4.089215 0.820554 7.966318 2.110751 11.615234 3.90625 6.826662 3.306664 12.639455 7.734586 17.439454 13.28125 4.799992 5.546661 8.534502 11.73193 11.201172 18.558593 2.66666 6.826662 4 13.867764 4 21.121094v-74.101562h-44.25586zm44.25586 74.101562c0 7.466662-1.38682 14.666284-4.16016 21.599614-2.77333 6.82666-6.66831 12.96039-11.681638 18.40039-4.906662 5.33333-10.772947 9.54534-17.599609 12.63867-3.43702 1.58212-7.042595 2.75442-10.814453 3.52734v17.20313h44.25586v-73.369144zm-55.361329-38.240234c-5.439998 0-10.240394 1.119375-14.40039 3.359375-4.053331 2.133332-7.46495 5.013961-10.238282 8.640625-2.773331 3.626664-4.907058 7.680158-6.40039 12.160156-1.386666 4.479998-2.080078 9.066436-2.080078 13.759766 0 4.906664 0.746901 9.653568 2.240234 14.240236 1.493332 4.58666 3.625107 8.69365 6.398437 12.32031 2.879999 3.52 6.347061 6.34518 10.400391 8.47852 4.159997 2.02666 8.853414 3.04101 14.080078 3.04101 5.33333 0 10.080237-1.06588 14.240235-3.19922 4.159995-2.24 7.627058-5.17411 10.40039-8.80078 2.773332-3.73333 4.853569-7.84031 6.240235-12.32031 1.493331-4.586665 2.240234-9.173102 2.240234-13.759766 0-4.906664-0.800393-9.60008-2.400391-14.080078-1.493331-4.586664-3.680547-8.640161-6.560546-12.160157-2.77333-3.626666-6.240393-6.453805-10.400391-8.480468-4.053332-2.133335-8.63977-3.199219-13.759766-3.199219zm-55.519531 127.79297v0.16211h110.88086v-0.16211h-110.88086z" stroke-width="6.36427"/>
  </g>
</svg>
