<svg class='letter-border' width="85.32" height="180" version="1.1" viewBox="0 0 22.57425 47.625001" xmlns="http://www.w3.org/2000/svg">
  <defs>
    <clipPath id="clipPath-P1">
      <path class='letter-border__clip-path' d="m0 0v16.183594h3.5v16.980468h-2.5v113.60156h2.5v16.88868h-3.5v16.18359h85.320312v-16.18359h-64.820312v-16.88868h2.580078v-38.08007h26.88086c7.146661 0 13.331931-1.81475 18.558593-5.44141 5.226663-3.626663 9.333648-8.320082 12.320313-14.080078 2.986664-5.759995 4.480468-11.840239 4.480468-18.240234 1e-6 -4.69333-0.907371-9.279769-2.720703-13.759766-1.813332-4.479996-4.373023-8.533492-7.679687-12.160156-3.199998-3.626664-6.986045-6.50534-11.359375-8.638672-4.37333-2.133331-9.173728-3.201172-14.400391-3.201172h-28.660156v-16.980468h64.820312v-16.183594zm23.080078 52.525391h24.640625c2.666665 0 5.119377 0.693412 7.359375 2.080078 2.346665 1.386665 4.212944 3.466903 5.59961 6.240234 1.493332 2.773331 2.240234 6.131461 2.240234 10.078125 0 3.626664-0.639923 6.881721-1.919922 9.761719-1.279999 2.773331-2.985809 4.905105-5.119141 6.398437-2.133331 1.493333-4.534507 2.240235-7.201171 2.240235h-25.59961z" fill="#fff"/>
    </clipPath>
  </defs>
  <path class='letter-border__path' transform="scale(.26458334)" d="m0 16.183594h3.5v16.980468h-2.5v113.60156h2.5v16.88868h-3.5m0 16.18359h85.320312m0-16.18359h-64.820312v-16.88868h2.580078v-38.08007h26.88086c7.146661 0 13.331931-1.81475 18.558593-5.44141 5.226663-3.626663 9.333648-8.320082 12.320313-14.080078 2.986664-5.759995 4.480468-11.840239 4.480468-18.240234 1e-6 -4.69333-0.907371-9.279769-2.720703-13.759766-1.813332-4.479996-4.373023-8.533492-7.679687-12.160156-3.199998-3.626664-6.986045-6.50534-11.359375-8.638672-4.37333-2.133331-9.173728-3.201172-14.400391-3.201172h-28.660156v-16.980468h64.820312m0-16.183594h-85.320312m23.080078 52.525391h24.640625c2.666665 0 5.119377 0.693412 7.359375 2.080078 2.346665 1.386665 4.212944 3.466903 5.59961 6.240234 1.493332 2.773331 2.240234 6.131461 2.240234 10.078125 0 3.626664-0.639923 6.881721-1.919922 9.761719-1.279999 2.773331-2.985809 4.905105-5.119141 6.398437-2.133331 1.493333-4.534507 2.240235-7.201171 2.240235h-25.59961z" clip-path="url(#clipPath-P1)" fill="none" stroke="#000" stroke-width="6"/>
</svg>
