<svg class='letter-mask' width="85.32" height="180" version="1.1" viewBox="0 0 22.57425 47.625001" xmlns="http://www.w3.org/2000/svg">
  <path class='letter-mask__path' transform="scale(.26458334)" d="m0 16.183594v147.47071h3.5v-16.88868h-2.5v-113.60156h2.5v-16.980468h-3.5zm20.5 0v16.980468h28.660156c5.226663 0 10.027061 1.067841 14.400391 3.201172 4.37333 2.133332 8.159377 5.012008 11.359375 8.638672 3.306664 3.626664 5.866355 7.68016 7.679687 12.160156 1.813332 4.479998 2.720705 9.066436 2.720703 13.759766v-54.740234h-64.820312zm64.820312 54.740234c1e-6 6.399995-1.493804 12.480239-4.480468 18.240234-2.986665 5.759997-7.09365 10.453416-12.320313 14.080078-5.226662 3.62666-11.411932 5.44141-18.558593 5.44141h-26.88086v38.08007h-2.580078v16.88868h64.820312v-92.730472zm-62.240234-18.398437v36.798828h25.59961c2.666664 0 5.06784-0.746902 7.201171-2.240235 2.133332-1.493332 3.839142-3.625106 5.119141-6.398437 1.279999-2.879998 1.919922-6.135055 1.919922-9.761719 0-3.946664-0.746902-7.304794-2.240234-10.078125-1.386667-2.773331-3.252945-4.853569-5.59961-6.240234-2.239998-1.386666-4.69271-2.080078-7.359375-2.080078h-24.640625zm-23.080078 127.3125v0.16211h85.320312v-0.16211h-85.320312z" stroke-width="5.58278"/>
</svg>
