<svg class='letter-border' width="107.52" height="180" version="1.1" viewBox="0 0 28.448 47.625001" xmlns="http://www.w3.org/2000/svg">
  <defs>
    <clipPath class='letter-border__clip-path' id="clipPath-V1">
      <path d="m0 0v16.183594h3.2714844v16.980468h-2.9511719l43.199218 113.60156h2.480469v16.88868h-46v16.18359h107.51953v-16.18359h-45.51953v-16.88868h2.800781l43.039059-113.60156h-3.21484v-16.980468h2.89453v-16.183594zm20.357422 16.183594h67.18164v16.980468h-2.898437l-30.400391 87.361328-30.720703-87.361328h-3.162109z" fill="#fff"/>
    </clipPath>
  </defs>
  <path class='letter-border__path' transform="scale(.26458334)" d="m0 16.183594h3.2714844v16.980468h-2.9511719l43.199218 113.60156h2.480469v16.88868h-46m0 16.18359h107.51953m0-16.18359h-45.51953v-16.88868h2.800781l43.039059-113.60156h-3.21484v-16.980468h2.89453m0-16.183594h-107.51953m20.357422 16.183594h67.18164v16.980468h-2.898437l-30.400391 87.361328-30.720703-87.361328h-3.162109z" clip-path="url(#clipPath-V1)" fill="none" stroke="#000" stroke-width="6"/>
</svg>
