<svg class='letter-border' width="168.64" height="180" version="1.1" viewBox="0 0 44.619331 47.625001" xmlns="http://www.w3.org/2000/svg">
  <defs>
    <clipPath id="clipPath-W1">
      <path class='letter-border__clip-path' d="m0 0v16.183594h3.2714844v16.980468h-3.2714844l45.279297 113.60156h1.564453v16.88868h-46.84375v16.18359h168.64062v-16.18359h-46.98437v-16.88868h1.54297l45.4414-113.60156h-3.41015v-16.980468h3.41015v-16.183594zm20.357422 16.183594h33.408203v17.300781h-3.044922l19.359375 51.679687-14.080078 36.160158-32.320312-88.160158h-3.322266zm48.408203 0h31.007813v17.300781h-2.494141l-13.119141 37.599609-12.960937-37.599609h-2.433594zm46.007815 0h33.37304v16.980468h-3.50586l-32.16015 88.160158-14.400392-36.160158 19.519532-51.679687h-2.82617zm-30.613284 82.90039 20.000004 47.681636h1.49609v16.88868h-42.8125v-16.88868h1.476562z" fill="none"/>
    </clipPath>
  </defs>
  <path class='letter-border__path' transform="scale(.26458333)" d="m0 16.183594h3.2714844v16.980468h-3.2714844l45.279297 113.60156h1.564453v16.88868h-46.84375m0 16.18359h168.64062m0-16.18359h-46.98437v-16.88868h1.54297l45.4414-113.60156h-3.41015v-16.980468h3.41015m0-16.183594h-168.64062m20.357422 16.183594h33.408203v17.300781h-3.044922l19.359375 51.679687-14.080078 36.160158-32.320312-88.160158h-3.322266zm48.408203 0h31.007813v17.300781h-2.494141l-13.119141 37.599609-12.960937-37.599609h-2.433594zm46.007815 0h33.37304v16.980468h-3.50586l-32.16015 88.160158-14.400392-36.160158 19.519532-51.679687h-2.82617zm-30.613284 82.90039 20.000004 47.681636h1.49609v16.88868h-42.8125v-16.88868h1.476562z" clip-path="url(#clipPath-W1)" fill="none" stroke="#000" stroke-width="6"/>
</svg>
