<svg class='letter-mask' width="168.64" height="180" version="1.1" viewBox="0 0 44.619331 47.625001" xmlns="http://www.w3.org/2000/svg">
  <path class='letter-mask__path' transform="scale(.26458333)" d="m0 16.183594v16.980468h3.2714844v-16.980468h-3.2714844zm0 16.980468v130.49024h46.84375v-16.88868h-1.564453l-45.279297-113.60156zm20.357422-16.980468v16.980468h3.322266l32.320312 88.160158 14.080078-36.160158-19.359375-51.679687h3.044922v-17.300781h-33.408203zm48.408203 0v17.300781h2.433594l12.960937 37.599609 13.119141-37.599609h2.494141v-17.300781h-31.007813zm46.007815 0v17.300781h2.82617l-19.519532 51.679687 14.400392 36.160158 32.16015-88.160158h3.50586v-16.980468h-33.37304zm50.45703 0v16.980468h3.41015v-16.980468h-3.41015zm3.41015 16.980468-45.4414 113.60156h-1.54297v16.88868h46.98437v-130.49024zm-84.480464 65.919922-19.839844 47.681636h-1.476562v16.88868h42.8125v-16.88868h-1.49609l-20.000004-47.681636zm-84.160156 80.753906v0.16211h168.64062v-0.16211h-168.64062z" stroke-width="7.84883"/>
</svg>
