<svg class='letter-mask' width="82.720001" height="180" version="1.1" viewBox="0 0 21.886332 47.625002" xmlns="http://www.w3.org/2000/svg">
  <g transform="translate(1.5239989)">
    <path class='letter-mask__path' transform="matrix(.26458333 0 0 .26458333 -1.5239989 0)" d="m0 16.183594v105.78125c0-5.43999 1.4938043-10.1869 4.4804688-14.24023 3.093331-4.16 7.3588322-7.35961 12.798828-9.59961 5.439996-2.239998 11.680708-3.359375 18.720703-3.359375 3.519998 0 7.09404 0.265494 10.720703 0.798828 3.626666 0.533332 6.77279 1.387215 9.439453 2.560547v-4.480469c0-5.333329-1.600783-9.440315-4.800781-12.320312-3.093332-2.879998-7.733261-4.320313-13.919922-4.320313-4.586663 0-8.959142 0.800393-13.119141 2.400391-4.159997 1.6-8.53443 3.947686-13.121093 7.041015l-6.8789065-14.080078c5.5466626-3.626663 11.198988-6.346822 16.958984-8.160156 4.992102-1.543013 10.180318-2.422322 15.558594-2.652344v-45.36914h-36.837891zm0 105.78125v41.68946h21.509766v-16.06836c-2.620108-0.55907-5.09842-1.4164-7.429688-2.58203-4.3733299-2.34668-7.8403924-5.49279-10.40039-9.43946-2.4533314-4.05333-3.6796875-8.58628-3.6796875-13.59961zm56.246094-105.78125v47.765625c4.360623 1.489995 8.123075 3.650605 11.273437 6.496093 6.719995 5.973331 10.080078 14.506286 10.080078 25.59961v26.720698c0 2.24001 0.374428 3.83883 1.121094 4.79883 0.853332 0.96 2.186668 1.54644 4 1.75977v-113.14063h-26.474609zm-16.886719 90.900386c-5.546662 0-10.133102 1.22831-13.759766 3.68164-3.519997 2.34668-5.279295 5.49279-5.279297 9.43946 0 2.13333 0.586434 4.16008 1.759766 6.08008 1.173333 1.92 2.879142 3.46534 5.119141 4.63867 2.239998 1.17333 4.906669 1.76172 8 1.76172 3.199997 0 6.348076-0.58839 9.441406-1.76172 3.093332-1.28 5.599531-2.82534 7.519531-4.63867 1.173332-1.28 2.132241-2.55985 2.878906-3.83985 0.746667-1.28 1.121094-2.45482 1.121094-3.52148v-8.47852c-2.559997-1.06666-5.333649-1.86705-8.320312-2.40039-2.986666-0.64-5.813804-0.96094-8.480469-0.96094zm20 26.56055c-3.626663 4.69333-8.159614 8.32086-13.599609 10.88086-1.259796 0.59285-2.525639 1.1089-3.796875 1.56445v17.56446h20.935547v-19.59375c-1.584215-1.7305-2.609394-3.75987-3.058594-6.09571l-0.480469-4.32031zm23.361328 13.12109c-1.572775 0.26214-2.968119 0.46375-4.326172 0.6543v16.23438h4.326172v-16.88868zm-82.720703 33.07227v0.16211h82.720703v-0.16211h-82.720703z"/>
  </g>
</svg>
