<svg class='letter-mask' width="88" height="180" version="1.1" viewBox="0 0 23.283331 47.625002" xmlns="http://www.w3.org/2000/svg">
  <g transform="translate(1.5239989)">
    <path class='letter-mask__path' transform="matrix(.26458333 0 0 .26458333 -1.5239989 0)" d="m0 16.183594v89.140626c-5.9211895e-16 -7.999997 1.7592994-15.306596 5.2792969-21.919923 3.6266641-6.613329 8.7479991-11.89318 15.361328-15.839844 3.67843-2.218736 7.710232-3.825846 12.091797-4.830078v-46.550781h-32.732422zm0 89.140626v58.33008h32.732422v-16.51368c-2.370649-0.53689-4.645046-1.24423-6.8125-2.13671-5.439996-2.34667-10.079925-5.49279-13.919922-9.43946-3.8399974-4.05333-6.8276057-8.63977-8.9609375-13.75976-2.0266651-5.22667-3.0390625-10.72048-3.0390625-16.48047zm56.111328-89.140626v46.58789c4.298171 1.006605 8.210085 2.601159 11.728516 4.792969 6.506661 3.946664 11.467527 9.226515 14.880859 15.839844 3.519998 6.506661 5.279297 13.547767 5.279297 21.121093v-88.341796h-31.888672zm31.888672 88.341796c0 1.28-0.053498 2.61333-0.160156 4-0.106659 1.28-0.213629 2.34589-0.320313 3.19922h-64.798828c0.426666 4.26666 1.653022 7.99922 3.679688 11.19922 2.133332 3.2 4.800002 5.65466 8 7.36133 3.306664 1.59999 6.827214 2.40039 10.560547 2.40039 4.266663 0 8.266667-1.01436 12-3.04102 3.839995-2.13333 6.453177-4.90698 7.839843-8.32031l18.398438 5.12109c-2.026666 4.26667-4.958831 8.05271-8.798828 11.35938-3.73333 3.30666-8.161253 5.91984-13.28125 7.83984-1.614312 0.57174-3.287462 1.04213-5.007813 1.43359v16.57618h31.888672v-59.12891zm-44-27.521484c-3.839997 0-7.360549 0.907372-10.560547 2.720703-3.093331 1.706664-5.653022 4.159375-7.679687 7.359375-1.919999 3.09333-3.092865 6.774353-3.519532 11.041016h43.839844c-0.426666-4.266663-1.653021-7.947686-3.679687-11.041016-1.92-3.2-4.47969-5.652711-7.679688-7.359375-3.199997-1.813331-6.77404-2.720703-10.720703-2.720703zm-44 102.83398v0.16211h88v-0.16211h-88z" stroke-width="5.66978"/>
  </g>
</svg>
