<svg class='letter-border' width="60.68" height="180" version="1.1" viewBox="0 0 16.0549 47.625" xmlns="http://www.w3.org/2000/svg">
  <defs>
    <clipPath id="clipPath-f1">
      <path class='letter-border__clip-path' d="m0 0v16.1836h22.2461v18.6094c-2.79593 2.525-5.07833 5.71618-6.8457 9.57226-2.24 5.01333-3.36133 10.9866-3.36133 17.9199v5.11914h-11.0391v16.3203h11.0391v63.041h2.66797v16.8887h-14.707v16.1836h60.6797v-16.1836h-29.9727v-16.8887h2.77344v-63.041h20.4805v-16.3203h-20.4805v-5.91992c0-4.90666 0.958907-8.63922 2.87891-11.1992 1.92-2.56 4.69365-3.83984 8.32031-3.83984 1.92 0 3.94675 0.318985 6.08008 0.958985 2.13333 0.533332 3.99961 1.22674 5.59961 2.08008l4.32031-16.1602c-3.41333-1.6-6.88039-2.82636-10.4004-3.67969-2.14566-0.536416-4.28988-0.902344-6.43555-1.10156v-12.3594h16.8359v-16.1836z" fill="#fff" stroke-width="1.971"/>
    </clipPath>
  </defs>
  <g transform="translate(1.524)">
    <path class='letter-border__path' transform="matrix(.264583 0 0 .264583 -1.524 0)" d="m0 16.1836h22.2461v18.6094c-2.79593 2.525-5.07833 5.71618-6.8457 9.57226-2.24 5.01333-3.36133 10.9866-3.36133 17.9199v5.11914h-11.0391v16.3203h11.0391v63.041h2.66797v16.8887h-14.707m0 16.1836h60.6797m0-16.1836h-29.9727v-16.8887h2.77344v-63.041h20.4805v-16.3203h-20.4805v-5.91992c0-4.90666 0.958907-8.63922 2.87891-11.1992 1.92-2.56 4.69365-3.83984 8.32031-3.83984 1.92 0 3.94675 0.318985 6.08008 0.958985 2.13333 0.533332 3.99961 1.22674 5.59961 2.08008l4.32031-16.1602c-3.41333-1.6-6.88039-2.82636-10.4004-3.67969-2.14566-0.536416-4.28988-0.902344-6.43555-1.10156v-12.3594h16.8359m0-16.1836h-60.6797" clip-path="url(#clipPath-f1)" fill="none" stroke="#000" stroke-width="6"/>
  </g>
</svg>
