<svg class='letter-mask' width="60.68" height="180" version="1.1" viewBox="0 0 16.0549 47.625" xmlns="http://www.w3.org/2000/svg">
  <g transform="translate(1.524)">
    <path class='letter-mask__path' transform="matrix(.264583 0 0 .264583 -1.524 0)" d="m0 16.1836v147.471h14.707v-16.8887h-2.66797v-63.041h-11.0391v-16.3203h11.0391v-5.11914c0-6.93333 1.12133-12.9066 3.36133-17.9199 1.76737-3.85608 4.04977-7.04726 6.8457-9.57226v-18.6094h-22.2461zm43.8438 0v12.3594c2.14566 0.199218 4.28988 0.565146 6.43555 1.10156 3.52 0.853333 6.98706 2.07969 10.4004 3.67969v-17.1406h-16.8359zm16.8359 17.1406-4.32031 16.1602c-1.6-0.853334-3.46628-1.54675-5.59961-2.08008-2.13333-0.64-4.16008-0.958985-6.08008-0.958985-3.62667 0-6.40031 1.27985-8.32031 3.83984-1.92 2.56-2.87891 6.29256-2.87891 11.1992v5.91992h20.4805v16.3203h-20.4805v63.041h-2.77344v16.8887h29.9727v-130.33zm-60.6797 146.514v0.16211h60.6797v-0.16211h-60.6797z" stroke-width="4.70812"/>
  </g>
</svg>
