<svg class='letter-border' width="79.919998" height="180" version="1.1" viewBox="0 0 21.145499 47.625002" xmlns="http://www.w3.org/2000/svg">
  <defs>
    <clipPath id="clipPath-h1">
      <path class='letter-border__clip-path' d="m0 0v16.183594h3.5v13.78125h-2.5v116.80078h2.5v16.88868h-3.5v16.18359h79.919922v-16.18359h-3.634766v-16.88868h2.634766v-52.320308c0-4.159994-0.372475-8.160002-1.119141-12-0.746666-3.946663-2.080002-7.467215-4-10.560546-1.92-3.199998-4.586668-5.7062-8-7.519532-3.413329-1.92-7.841252-2.880859-13.28125-2.880859-6.293326 0-12.106123 1.493803-17.439453 4.480469-5.333329 2.986663-9.547294 7.147139-12.640625 12.480468v-48.480468h-2.939453v-13.78125h60.419922v-16.183594zm43.400391 80.365234c4.373331 0 7.786902 1.598831 10.240234 4.798828 2.559997 3.199998 3.839844 8.053887 3.839844 14.560547v47.041011h2.804687v16.88868h-40.785156v-16.88868h2.939453v-48.960932c1.066666-3.413332 2.720939-6.398987 4.960938-8.958985 2.346664-2.666666 4.959845-4.746903 7.839843-6.240234 2.879998-1.493332 5.600159-2.240235 8.160157-2.240235z" fill="#fff"/>
    </clipPath>
  </defs>
  <path class='letter-border__path' transform="scale(.26458334)" d="m0 16.183594h3.5v13.78125h-2.5v116.80078h2.5v16.88868h-3.5m0 16.18359h79.919922m0-16.18359h-3.634766v-16.88868h2.634766v-52.320308c0-4.159994-0.372475-8.160002-1.119141-12-0.746666-3.946663-2.080002-7.467215-4-10.560546-1.92-3.199998-4.586668-5.7062-8-7.519532-3.413329-1.92-7.841252-2.880859-13.28125-2.880859-6.293326 0-12.106123 1.493803-17.439453 4.480469-5.333329 2.986663-9.547294 7.147139-12.640625 12.480468v-48.480468h-2.939453v-13.78125h60.419922m0-16.183594h-79.919922m43.400391 80.365234c4.373331 0 7.786902 1.598831 10.240234 4.798828 2.559997 3.199998 3.839844 8.053887 3.839844 14.560547v47.041011h2.804687v16.88868h-40.785156v-16.88868h2.939453v-48.960932c1.066666-3.413332 2.720939-6.398987 4.960938-8.958985 2.346664-2.666666 4.959845-4.746903 7.839843-6.240234 2.879998-1.493332 5.600159-2.240235 8.160157-2.240235z" clip-path="url(#clipPath-h1)" fill="none" stroke="#000" stroke-width="6"/>
</svg>
