<svg class='letter-border' width="81.159943" height="180" version="1.1" viewBox="0 0 21.473568 47.625002" xmlns="http://www.w3.org/2000/svg">
  <defs>
    <clipPath id="clipPath-k1">
      <path class='letter-border__clip-path' d="m0 0v16.183594h3.5v13.78125h-2.5v116.80078h2.5v16.88868h-3.5v16.18359h82.160156v-16.18359h-5.160156v-16.88868h4.160156l-33.439453-48.160151 31.199219-35.521485h-3.279297v-46.90039h6.519531v-16.183594zm19.5 16.183594h39.699219v46.90039h-3l-33.759766 37.601566v-70.720706h-2.939453zm14.300781 94.421876 24.478516 36.16015h2.720703v16.88868h-41.5v-16.88868h2.939453v-24.96093z" fill="#fff"/>
    </clipPath>
  </defs>
  <path class='letter-border__path' transform="scale(.26458334)" d="m0 16.183594h3.5v13.78125h-2.5v116.80078h2.5v16.88868h-3.5m0 16.18359h82.160156m0-16.18359h-5.160156v-16.88868h4.160156l-33.439453-48.160151 31.199219-35.521485h-3.279297v-46.90039h6.519531m0-16.183594h-82.160156m19.5 16.183594h39.699219v46.90039h-3l-33.759766 37.601566v-70.720706h-2.939453zm14.300781 94.421876 24.478516 36.16015h2.720703v16.88868h-41.5v-16.88868h2.939453v-24.96093z" clip-path="url(#clipPath-k1)" fill="none" stroke="#000" stroke-width="6"/>
</svg>
