<svg class='letter-mask' width="42.599998" height="180" version="1.1" viewBox="0 0 11.271249 47.625002" xmlns="http://www.w3.org/2000/svg">
  <g transform="translate(.32808301)">
    <path class='letter-mask__path' transform="matrix(.26458333 0 0 .26458333 -.32808301 0)" d="m0 16.183594v147.47071h13.710938v-16.77344c-2.844684-0.87595-5.2781995-2.23585-7.2714849-4.11524-3.6266638-3.62665-5.4394531-8.748-5.4394531-15.36132v-97.439456h2.8007812v-13.78125h-3.8007812zm19.310547 0v13.78125h3.128906v89.919926c0 3.83999 0.639923 6.45317 1.919922 7.83984 1.279999 1.28 3.041252 1.91992 5.28125 1.91992 1.706666 0 3.465965-0.21396 5.279297-0.64062 1.813332-0.42667 3.414116-0.95962 4.800781-1.59961l2.878906 16.32031v-127.54102h-23.289062zm23.289062 127.54102c-2.879998 1.38667-6.240081 2.45255-10.080078 3.19922-1.136137 0.22091-2.228053 0.39913-3.298828 0.55469v16.17578h13.378906v-19.92969zm-42.599609 36.11328v0.16211h42.599609v-0.16211h-42.599609z" stroke-width="3.94484"/>
  </g>
</svg>
