<svg class='letter-mask' width="87.839935" height="180" version="1.1" viewBox="0 0 23.240981 47.625002" xmlns="http://www.w3.org/2000/svg">
  <g transform="translate(1.5239989)">
    <path class='letter-mask__path' transform="matrix(.26458333 0 0 .26458333 -1.5239989 0)" d="m0 16.183594v88.820316c5.9211895e-16 -5.866669 1.0123974-11.412012 3.0390625-16.638676 2.0266652-5.226663 4.9072939-9.866591 8.6406255-13.919922 3.839997-4.053331 8.479925-7.201408 13.919921-9.441406 2.026172-0.874035 4.148651-1.584319 6.367188-2.132812v-46.6875h-31.966797zm0 88.820316v58.65039h31.966797v-16.61328c-2.218484-0.52356-4.341061-1.20283-6.367188-2.03711-5.439996-2.34667-10.079924-5.54628-13.919921-9.59961-3.7333316-4.05333-6.6139603-8.69326-8.6406255-13.91992-2.0266651-5.22668-3.0390625-10.72048-3.0390625-16.48047zm55.875-88.820316v46.664062c2.228289 0.551643 4.350129 1.269604 6.365234 2.15625 5.439998 2.239998 10.079925 5.388075 13.919922 9.441406 3.839998 4.053331 6.720628 8.693259 8.640625 13.919922 2.026666 5.226664 3.039063 10.772007 3.039063 16.638676v-88.820316h-31.964844zm31.964844 88.820316c0 5.75999-1.012397 11.25379-3.039063 16.48047-1.919997 5.22666-4.800627 9.86659-8.640625 13.91992-3.733331 4.05333-8.31977 7.25294-13.759765 9.59961-2.07396 0.85398-4.249886 1.54385-6.525391 2.07226v16.57813h31.964844v-58.65039zm-43.839844-25.279301c-4.159997 0-7.892555 1.119378-11.199219 3.359375-3.306664 2.133332-5.919845 5.12094-7.839843 8.960938-1.92 3.733329-2.88086 8.052318-2.88086 12.958988 0 4.90666 0.96086 9.28109 2.88086 13.12109 1.919998 3.73333 4.533179 6.6655 7.839843 8.79883s7.039222 3.20117 11.199219 3.20117c4.053332 0 7.732399-1.06784 11.039062-3.20117 3.306665-2.24 5.921797-5.22566 7.841797-8.95899 2.026664-3.83999 3.039063-8.21247 3.039063-13.11914 0-4.79999-1.012399-9.120939-3.039063-12.960934-1.92-3.839998-4.535132-6.827606-7.841797-8.960938-3.306663-2.133332-6.98573-3.199219-11.039062-3.199219zm-44 100.11328v0.16211h87.839844v-0.16211h-87.839844z" stroke-width="5.6646"/>
  </g>
</svg>
