<svg class='letter-mask' width="51.919998" height="180" version="1.1" viewBox="0 0 13.737166 47.625002" xmlns="http://www.w3.org/2000/svg">
  <path class='letter-mask__path' transform="scale(.26458334)" d="m0 16.183594v147.47071h3v-16.88868h-2v-83.841792h2v-46.740234h-3zm18.199219 0v46.740234h2.480469v17.921875c2.986664-5.759997 6.772712-10.294899 11.359374-13.601562 4.586665-3.306664 9.440552-5.119454 14.560547-5.439453h2.720703c0.640001-2e-6 1.172944 0.053497 1.59961 0.160156v19.519531c-6.506661 0-12.319457 1.279846-17.439453 3.839844-5.119996 2.453331-8.801017 6.027374-11.041016 10.720703v50.720698h-4.240234v16.88868h33.720703v-147.47071h-33.720703zm-18.199219 163.6543v0.16211h51.919922v-0.16211h-51.919922z" stroke-width="4.35504"/>
</svg>
