<svg class='letter-mask' width="70.879997" height="180" version="1.1" viewBox="0 0 18.753664 47.625002" xmlns="http://www.w3.org/2000/svg">
  <g transform="translate(1.5239989)">
    <path class='letter-mask__path' transform="matrix(.26458333 0 0 .26458333 -1.5239989 0)" d="m0 16.183594v118.26172l7.6796875-13.91992c5.0133295 4.05333 9.9207065 7.03898 14.720704 8.95899 4.906663 1.92 9.600081 2.88085 14.080078 2.88085 4.159997 0 7.466589-0.7469 9.919922-2.24023 2.559997-1.49333 3.839843-3.73404 3.839843-6.7207 0-2.02667-0.693412-3.572-2.080078-4.63868-1.386666-1.17333-3.413413-2.18768-6.080078-3.04101-2.559998-0.85333-5.706122-1.81224-9.439453-2.87891-6.186662-2.02666-11.361487-4.00187-15.521484-5.92187s-7.3061218-4.31922-9.4394535-7.199221c-2.0266652-2.986663-3.0390625-6.772711-3.0390625-11.359375 0-5.546663 1.3868249-10.293571 4.1601562-14.240234 2.8799978-4.053329 6.8265138-7.199453 11.839844-9.439453 1.526007-0.667628 3.136838-1.224717 4.814453-1.693359v-46.808594h-25.455078zm0 118.26172v29.20899h25.455078v-16.43164c-2.943723-0.57642-5.831065-1.35874-8.654297-2.37696-6.506662-2.34666-12.107451-5.81372-16.800781-10.40039zm46.904297-118.26172v45.80664c2.958107 0.479074 5.831486 1.212695 8.615234 2.214844 5.33333 1.813334 10.187218 4.798989 14.560547 8.958984l-8.640625 13.601563c-4.266663-3.306663-8.320159-5.707838-12.160156-7.201172-3.839997-1.599997-7.733024-2.400391-11.679688-2.400391-2.239998 1e-6 -4.373725 0.26745-6.40039 0.800782-1.919999 0.533334-3.518829 1.440705-4.798828 2.720703-1.173333 1.173334-1.759766 2.879142-1.759766 5.119141 0 2.026665 0.532944 3.627449 1.599609 4.800781 1.173333 1.066666 2.879143 2.025572 5.119141 2.878906 2.346665 0.853332 5.173805 1.814194 8.480469 2.880859 6.719994 1.919998 12.374274 3.893256 16.960937 5.919926 4.69333 2.02666 8.211928 4.53286 10.558594 7.51953 2.346666 2.88 3.521484 6.88 3.521484 12v-105.6211h-23.976562zm23.976562 105.6211c0 8.31999-3.041098 14.8262-9.121093 19.51953-4.034329 3.11422-8.989549 5.19047-14.855469 6.23828v16.0918h23.976562v-41.84961zm-70.880859 58.0332v0.16211h70.880859v-0.16211h-70.880859z" stroke-width="5.08845"/>
  </g>
</svg>
