<svg class='letter-border' width="57.48" height="180" version="1.1" viewBox="0 0 15.208248 47.625002" xmlns="http://www.w3.org/2000/svg">
  <defs>
    <clipPath id="clipPath-t1">
      <path class='letter-border__clip-path' d="m0 0v16.183594h15.039062v19.541015h-3v27.199219h-11.039062v16.480469h11.039062v48.160153c0 4.90667 0.960861 8.90667 2.88086 12 2.026665 2.98667 4.693336 5.17388 8 6.56055 0.416539 0.17468 0.83893 0.33756 1.265625 0.49023v17.03907h-24.185547v16.18359h57.480469v-16.18359h-18.294922v-15.81836c1.145573-0.15255 2.284886-0.34087 3.414062-0.5918 2.986664-0.53333 5.760313-1.28024 8.320313-2.24023 2.559997-0.96 4.747215-1.81193 6.560547-2.5586l-4.320313-16.96093c-1.28 0.53333-2.987762 1.17325-5.121094 1.91992-2.133331 0.74666-4.318595 1.12109-6.558593 1.12109-2.239999 0-4.106277-0.63992-5.59961-1.91992s-2.293724-3.36024-2.40039-6.24024v-40.960933h17.599609v-16.480469h-17.599609v-27.199219h-3.441407v-19.541015h27.441407v-16.183594z" fill="#fff"/>
    </clipPath>
  </defs>
  <g transform="translate(1.5239989)">
    <path class='letter-border__path' transform="matrix(.26458332 0 0 .26458332 -1.5239989 0)" d="m0 16.183594h15.039062v19.541015h-3v27.199219h-11.039062v16.480469h11.039062v48.160153c0 4.90667 0.960861 8.90667 2.88086 12 2.026665 2.98667 4.693336 5.17388 8 6.56055 0.416539 0.17468 0.83893 0.33756 1.265625 0.49023v17.03907h-24.185547m0 16.18359h57.480469m0-16.18359h-18.294922v-15.81836c1.145573-0.15255 2.284886-0.34087 3.414062-0.5918 2.986664-0.53333 5.760313-1.28024 8.320313-2.24023 2.559997-0.96 4.747215-1.81193 6.560547-2.5586l-4.320313-16.96093c-1.28 0.53333-2.987762 1.17325-5.121094 1.91992-2.133331 0.74666-4.318595 1.12109-6.558593 1.12109-2.239999 0-4.106277-0.63992-5.59961-1.91992s-2.293724-3.36024-2.40039-6.24024v-40.960933h17.599609v-16.480469h-17.599609v-27.199219h-3.441407v-19.541015h27.441407m0-16.183594h-57.480469" clip-path="url(#clipPath-t1)" fill="none" stroke="#000" stroke-width="6"/>
  </g>
</svg>
