<svg class='letter-mask' width="57.48" height="180" version="1.1" viewBox="0 0 15.208248 47.625002" xmlns="http://www.w3.org/2000/svg">
  <g transform="translate(1.5239989)">
    <path class='letter-mask__path' transform="matrix(.26458332 0 0 .26458332 -1.5239989 0)" d="m0 16.183594v147.47071h24.185547v-17.03907c-0.426695-0.15267-0.849086-0.31555-1.265625-0.49023-3.306664-1.38667-5.973335-3.57388-8-6.56055-1.919999-3.09333-2.88086-7.09333-2.88086-12v-48.160153h-11.039062v-16.480469h11.039062v-27.199219h3v-19.541015h-15.039062zm30.039062 0v19.541015h3.441407v27.199219h17.599609v16.480469h-17.599609v40.960933c0.106666 2.88 0.907057 4.96024 2.40039 6.24024s3.359611 1.91992 5.59961 1.91992c2.239998 0 4.425263-0.37443 6.558593-1.12109 2.133332-0.74667 3.841094-1.3866 5.121094-1.91992l4.320313 16.96093v-126.26172h-27.441407zm27.441407 126.26172c-1.813332 0.74667-4.00055 1.5986-6.560547 2.5586-2.56 0.95999-5.333649 1.7069-8.320313 2.24023-1.129176 0.25093-2.268489 0.43925-3.414062 0.5918v15.81836h18.294922v-21.20899zm-57.480469 37.39258v0.16211h57.480469v-0.16211h-57.480469z" stroke-width="4.5823"/>
  </g>
</svg>
