<svg class='letter-border' width="84.959938" height="180" version="1.1" viewBox="0 0 22.478981 47.625002" xmlns="http://www.w3.org/2000/svg">
  <defs>
    <clipPath class='letter-border__clip-path' id="clipPath-v1">
      <path d="m0 0v16.183594h3.4550781v46.740234h-3.4550781l30.880859 83.841792h2.619141v16.88868h-33.5v16.18359h84.960938v-16.18359h-33.460938v-16.88868h2.740234l30.71875-83.841792h-2.259765v-46.740234h2.261719v-16.183594zm19.455078 16.183594h47.244141v46.740234h-2.058594l-21.28125 64.320312-21.119141-64.320312h-2.785156z" fill="#fff"/>
    </clipPath>
  </defs>
  <g transform="translate(1.5239989)">
    <path class='letter-border__path' transform="matrix(.26458332 0 0 .26458332 -1.5239989 0)" d="m0 16.183594h3.4550781v46.740234h-3.4550781l30.880859 83.841792h2.619141v16.88868h-33.5m0 16.18359h84.960938m0-16.18359h-33.460938v-16.88868h2.740234l30.71875-83.841792h-2.259765v-46.740234h2.261719m0-16.183594h-84.960938m19.455078 16.183594h47.244141v46.740234h-2.058594l-21.28125 64.320312-21.119141-64.320312h-2.785156z" clip-path="url(#clipPath-v1)" fill="none" stroke="#000" stroke-width="6"/>
  </g>
</svg>
