<svg class='letter-border' width="133.76" height="180" version="1.1" viewBox="0 0 35.3907 47.625" xmlns="http://www.w3.org/2000/svg">
  <defs>
    <clipPath id="clipPath-w1">
      <path class='letter-border__clip-path' d="m0 0v16.1836h3.5v46.7402h-3.5l34.8809 83.8418h2.11914v16.8887h-37v16.1836h133.76v-16.1836h-37.2598v-16.8887h2.2207l35.0391-83.8418h-3.67188v-46.7402h3.67188v-16.1836zm17.0879 16.1836h25.9121v46.9004h-2.67969l14.5605 35.8398-9.76172 27.3613-24.959-63.3613h-3.07226zm38.7969 0h21.6152v46.9004h-1.98047l-8.79883 25.6016-8.64062-25.6016h-2.19531zm34.5 0h26.1152v46.7402h-3.06055l-24.7988 63.3613-9.91992-27.3613 14.5586-35.8398h-2.89453zm-23.6641 94.582 14.0801 36h1.69922v16.8887h-31.5v-16.8887h1.96094z" fill="#fff"/>
    </clipPath>
  </defs>
  <path class='letter-border__path' transform="scale(.264583)" d="m0 16.1836h3.5v46.7402h-3.5l34.8809 83.8418h2.11914v16.8887h-37m0 16.1836h133.76m0-16.1836h-37.2598v-16.8887h2.2207l35.0391-83.8418h-3.67188v-46.7402h3.67188m0-16.1836h-133.76m17.0879 16.1836h25.9121v46.9004h-2.67969l14.5605 35.8398-9.76172 27.3613-24.959-63.3613h-3.07226zm38.7969 0h21.6152v46.9004h-1.98047l-8.79883 25.6016-8.64062-25.6016h-2.19531zm34.5 0h26.1152v46.7402h-3.06055l-24.7988 63.3613-9.91992-27.3613 14.5586-35.8398h-2.89453zm-23.6641 94.582 14.0801 36h1.69922v16.8887h-31.5v-16.8887h1.96094z" clip-path="url(#clipPath-w1)" fill="none" stroke="#000" stroke-width="6"/>
</svg>
