<svg class='letter-mask' width="133.76" height="180" version="1.1" viewBox="0 0 35.3907 47.625" xmlns="http://www.w3.org/2000/svg">
  <path class='letter-mask__path' transform="scale(.264583)" d="m0 16.1836v46.7402h3.5v-46.7402h-3.5zm0 46.7402v100.73h37v-16.8887h-2.11914l-34.8809-83.8418zm17.0879-46.7402v46.7402h3.07226l24.959 63.3613 9.76172-27.3613-14.5605-35.8398h2.67969v-46.9004h-25.9121zm38.7969 0v46.9004h2.19531l8.64062 25.6016 8.79883-25.6016h1.98047v-46.9004h-21.6152zm34.5 0v46.9004h2.89453l-14.5586 35.8398 9.91992 27.3613 24.7988-63.3613h3.06055v-46.7402h-26.1152zm39.7031 0v46.7402h3.67188v-46.7402h-3.67188zm3.67188 46.7402-35.0391 83.8418h-2.2207v16.8887h37.2598v-100.73zm-67.0391 47.8418-13.7598 36h-1.96094v16.8887h31.5v-16.8887h-1.69922l-14.0801-36zm-66.7207 69.0723v0.16211h133.76v-0.16211h-133.76z" stroke-width="6.99016"/>
</svg>
