<svg preserveAspectRatio="xMidYMid slice" enable-background="new 0 0 1400 980" version="1.1" viewBox="0 0 1400 980" xml:space="preserve" xmlns="http://www.w3.org/2000/svg" xmlns:xlink="http://www.w3.org/1999/xlink">

<g id="Objects">
	
		<defs>
			<rect id="SVGID_1_" width="1400" height="980"/>
		</defs>
		<clipPath id="SVGID_2_">
			<use overflow="visible" xlink:href="#SVGID_1_"/>
		</clipPath>
		<g clip-path="url(#SVGID_2_)" fill="#fff" opacity=".4">
			<path d="m1456.4 102.1c-2.7 0.7-5.4 1.1-8.3 1.1h-10.7c-9.9 0-17.9 8-17.9 17.9s8 17.9 17.9 17.9v2.3h12.5c11.7 0 21.3 9.5 21.3 21.3 0 11.7-9.5 21.3-21.3 21.3h-730.2c-11.7 0-21.3-9.5-21.3-21.3 0-11.7 9.5-21.3 21.3-21.3h164.7c2-3.7 3.1-7.8 3.1-12.3 0-14-11.1-25.3-24.9-25.7h0.8-44.1c-17.3 0-31.4-14.1-31.4-31.4s14.1-31.4 31.4-31.4h160.1c3.6-1.4 6.1-4.9 6.1-8.9 0-5.3-4.3-9.6-9.6-9.6h2.3c-16.6 0-30-13.5-30-30 0-16.6 13.5-30 30-30h374.2c16.6 0 30 13.5 30 30 0 16.6-13.5 30-30 30h94.6c22.4 0 40.6 18.2 40.6 40.6-0.1 19.1-13.3 35.2-31.2 39.5z"/>
			<path d="m975.7 21.9h0.2-0.2z"/>
		</g><g fill="#fff">
		<path d="m1476.1 826.7h-216.4c-12.7 0-22.9-10.3-22.9-22.9s10.3-22.9 22.9-22.9h80.7c8.6 0 15.6-7 15.6-15.6s-7-15.6-15.6-15.6h-310c-8.6 0-15.6 7-15.6 15.6s7 15.6 15.6 15.6h-119.2c-12.7 0-22.9 10.3-22.9 22.9s10.3 22.9 22.9 22.9h282.4c-13.7 0-24.8 11.1-24.8 24.8s11.1 24.8 24.8 24.8h282.4c13.7 0 24.8-11.1 24.8-24.8 0.1-13.7-11-24.8-24.7-24.8z" clip-path="url(#SVGID_2_)" opacity=".4"/>
		<path d="m451.7 465.6h-178.2c-6.2 0-11.2-5-11.2-11.2s5-11.2 11.2-11.2h72c7.5-1.5 13.1-8.1 13.1-16 0-9-7.3-16.4-16.4-16.4h-156.9c-4.6 0-8.3-3.7-8.3-8.3 0-4.1 2.9-7.4 6.8-8.2 0.4 0 0.7 0.1 1.1 0.1h54.3c12.6 0 22.9-10.2 22.9-22.9v-1c0-12.6-10.2-22.9-22.9-22.9h-114.4c-9 0-16.4 7.3-16.4 16.4s7.3 16.4 16.4 16.4h-223c-13.1 0-23.7 10.6-23.7 23.7s10.6 23.7 23.7 23.7h201.9c10.4 0 18.8 8.4 18.8 18.8s-8.4 18.8-18.8 18.8h-92.6c-16.7 0-30.3 13.6-30.3 30.3s13.6 30.3 30.3 30.3h440.6c16.7 0 30.3-13.6 30.3-30.3 0-16.6-13.6-30.1-30.3-30.1z" clip-path="url(#SVGID_2_)" opacity=".4"/>
		<path d="m599 936.2-48.3-0.2h-1.5l-91.8-0.3c-4.9 0-8.9 4-8.9 8.9s4 8.9 8.9 8.9l57.2 0.2c5.9 1.2 10.4 6.5 10.4 12.8 0 7.2-5.9 13-13 12.9l-80.8-0.3h-5.2l-38.7-0.1c-3.6 0-6.6 2.9-6.6 6.6 0 3.2 2.3 5.9 5.4 6.5h0.8l43.2 0.1c10 0 18.1 8.2 18.1 18.2v0.8c0 10-8.2 18.1-18.2 18.1l-30.3-0.1h-12.9-15.1l-32.6-0.2c-7.2 0-13-5.9-13-13.1s5.9-13 13.1-13l-177.3-0.6c-10.4 0-18.8-8.5-18.8-18.9s8.5-18.8 18.9-18.8l160.4 0.5c8.3 0 15-6.7 15-14.9 0-8.3-6.7-15-14.9-15l-73.5-0.2c-13.3 0-24-10.9-24-24.1 0-13.3 10.9-24 24.1-24l350 1.1c13.3 0 24 10.9 24 24.1 0 13.4-10.8 24.2-24.1 24.1z" clip-path="url(#SVGID_2_)" opacity=".4"/>
		</g><g clip-path="url(#SVGID_2_)">
			<path d="m109.7 283.9c1.3 4.1-2.1 10.2-2.1 10.2-14.8-7.4-10.9-24.3-10.9-24.3s17.1-2.6 23.4 12.7c0 0.1-6.4 3.1-10.4 1.4z" fill="#fff"/>
			<path d="m385.3 593.4c-3.6 2.4-10.4 0.7-10.4 0.7 3.2-16.2 20.4-17.1 20.4-17.1s7.1 15.7-5.9 25.9c0 0.1-4.6-5.2-4.1-9.5z" fill="#E93651"/>
			<path d="m1005.1 674.7c1.3 4.1-2.2 10.2-2.2 10.2-14.7-7.5-10.7-24.3-10.7-24.3s17.1-2.5 23.3 12.9c0-0.1-6.4 2.8-10.4 1.2z" fill="#E93651"/>
			<path d="m645.7 115.8c4.3 0.2 8.9 5.5 8.9 5.5-12.1 11.2-26.5 1.8-26.5 1.8s3.5-16.9 20-17.5c0 0.1 0.5 7-2.4 10.2z" fill="#fff"/>
			
				
					<path d="m484.2 338.7c3.2 5.1 0.5 14.5 0.5 14.5-22.4-5.2-22.7-29.2-22.7-29.2s22.2-9.1 35.8 9.5c-0.1 0-7.6 6.1-13.6 5.2z" fill="#C62C44"/>
					<path d="m456.9 356.4c-2.9 5.3-12.4 7.7-12.4 7.7-6.6-22 14.1-34.2 14.1-34.2s18.9 14.8 9.5 35.8c0.1-0.1-9-3.7-11.2-9.3z" fill="#C62C44"/><g fill="#E93651">
					<path d="m468.2 342.6c-0.4 6-8 12.1-8 12.1-15.2-17.3-1.5-37-1.5-37s23.4 5.5 23.6 28.5c0 0.1-9.7 0.6-14.1-3.6z"/>
					<path d="m436 335.7c-5.8 1.6-14.1-3.6-14.1-3.6 11.3-20 34.4-13.5 34.4-13.5s2.5 23.9-19.2 31.6c0 0-3.7-9-1.1-14.5z"/>
					<path d="m481.9 315.9c5.5 2.4 8.7 11.6 8.7 11.6-21.4 8.5-35.3-11.1-35.3-11.1s13.1-20.1 34.8-12.6c0 0.1-2.8 9.5-8.2 12.1z"/>
				</g>
				<path d="m293.2 129.9c14.1 12.9 47.8 33.3 68.4 40.7s137.3 9.8 137.3 9.8-107.4-7.5-138.5-20.1c-9.9-4-19.3-10.2-29.7-17.3 30.6-2.4 73.4 12.4 100.3-5.6 0.1 0 0.1-0.1 0.2-0.1 8.3-1.3 19.3-2.3 27.3 0.1 14.4 4.4 31.8 10.1 31.8 10.1s-20.7-10.7-32.2-12.7-14.4-5.6-14.4-5.6l-0.7 0.1c33.1-23.1 65.8-49.3 65.8-49.3s-78.7 59.7-102 59.2c-4.9-0.1-9.9-0.5-15-1.1 7.5-5.2 19.1-13.4 21.9-16.2 4.2-4.3 42-61 42-61s-42.7 55.9-46 58.3c-2.2 1.6-18.9 11.2-29.8 17.4-15.9-2.1-32.5-4.1-49.1-0.9-3 0.6-5.8 1.1-8.6 1.7-20.6-14.2-45.7-30.5-84.4-41-7.3-2-14.3-3.9-21.1-5.8 6.6-1 13.2-3 19.7-6.3 31.6-16.3 68.5 4 72.4 5 4 1.1 36.2 8.2 36.2 8.2s-37.7-16.7-70.1-23.5c4.2-3.5 15-11.2 29-12.9 25.7-3.2 44.9-25 44.9-25s-17.6 14.4-34 17.5c-13.8 2.6-38.8 11.9-52.8 18.3-10.2-1.2-19.1-0.8-25 2.2-16.1 8.2-53.2 3.3-78.8-1.5-8.8-2.9-17-5.9-24.7-8.7 7.7-4.7 21.1-13.1 24.2-16 4.4-4.1 45.1-58.8 45.1-58.8s-45.5 53.7-48.9 55.9c-2.2 1.4-18.4 9.7-29.6 15.4-10.7-4.2-20.2-8.3-28.6-12.3-31.3-14.9-102.7-24.1-102.7-24.1l1.3 16.3s55.1 0.6 104.1 23.8c23.3 11 50.2 20.2 73.3 27 26.4 21.8 103.1 85.3 120.3 102 18.9 18.4 23.2 25.5 39.4 34.7 2.1 5.3 4.9 14.5 5.4 25.3 0.7 17.2-7.9 49.9-0.3 63.5 0 0-2.3-18 2.1-39.6 0.2-1 0.4-1.9 0.5-2.9 3.3 4.8 9.9 14.3 11.2 15.6 1.8 1.8 27.5 18.3 27.5 18.3s-24.1-16.9-26.1-20c-1.5-2.5-8.8-14.1-11.8-18.8 2.1-14.6 1.8-27.6 0.2-36.5 18.6 12.1 31 38.7 88 54 0 0-43-17.6-58.3-35.8-15.2-18.2-24.3-25.5-36.6-31.7s-20.1-19.4-25.5-24.1c-4.5-4-70.8-70.8-100.7-94.8 8.2 1.9 14.2 3.1 17 3.5 11.1 1.6 55.1 13.2 69.2 26.1z" fill="#3D2622"/>
				<g fill="#fff">
					<path d="m492.4 105.4c4.7-4.5 15.1-3.7 15.1-3.7-0.5 24.7-25.7 30.3-25.7 30.3s-14.4-21.4 2.1-39.7c0.1-0.1 8.2 6.6 8.5 13.1z"/>
					<path d="m512.3 135.7c5.8 3 8.5 13.1 8.5 13.1-23.5 7.6-37.1-14.3-37.1-14.3s15.4-20.7 38.2-11.1c0 0-3.6 9.8-9.6 12.3z"/>
					<path d="m492.3 165.5c-0.8 6.4-9.3 12.6-9.3 12.6-15.4-19.3 0.4-39.7 0.4-39.7s24.8 7.2 23.7 31.9c0.1-0.1-10.4-0.1-14.8-4.8z"/>
					<path d="m456.1 153.2c-6.4 1.2-14.8-5.1-14.8-5.1 13.8-20.4 38-11.5 38-11.5s0.5 25.8-23.3 32.2c0.1 0-3.1-10 0.1-15.6z"/>
					<path d="m455.1 115.9c-3.3-5.6-0.2-15.6-0.2-15.6 23.9 6.2 23.6 32 23.6 32s-24.1 9.1-38.1-11.2c0 0 8.4-6.4 14.7-5.2z"/>
					</g><path d="m480.6 128.1s-4.6-1.4-6.9 5c-2.3 6.3 3 9.6 7.1 9.8s13.4-9.7-0.2-14.8z" fill="#3D2622"/>
				
				<g fill="#fff">
					<path d="m440 233.3c6.6-6.2 21.1-5.2 21.1-5.2-0.7 34.4-35.8 42.2-35.8 42.2s-20.1-29.7 2.9-55.2c0.1-0.1 11.3 9.2 11.8 18.2z"/>
					<path d="m467.7 275.5c8 4.1 11.8 18.2 11.8 18.2-32.7 10.6-51.6-19.9-51.6-19.9s21.5-28.8 53.1-15.4c0.1 0-4.9 13.7-13.3 17.1z"/>
					<path d="m439.9 316.9c-1.1 9-12.9 17.5-12.9 17.5-21.4-26.9 0.6-55.3 0.6-55.3s34.5 10 33 44.3c0 0.1-14.6 0.2-20.7-6.5z"/>
					<path d="m389.5 299.8c-8.9 1.7-20.5-7.1-20.5-7.1 19.3-28.4 52.9-16 52.9-16s0.7 35.9-32.4 44.8c0 0-4.5-13.8 0-21.7z"/>
					<path d="m388.2 247.9c-4.6-7.8-0.2-21.7-0.2-21.7 33.3 8.6 32.8 44.5 32.8 44.5s-33.6 12.7-53.1-15.5c0-0.1 11.6-8.9 20.5-7.3z"/>
					</g><path d="m423.6 264.9s-6.4-1.9-9.6 6.9 4.1 13.3 9.8 13.7c5.8 0.3 18.7-13.4-0.2-20.6z" fill="#3D2622"/>
				
				<g fill="#fff">
					<path d="m442.6 49.9c-0.4-3.9 3.8-8.6 3.8-8.6 11.5 9.3 4.9 23.4 4.9 23.4s-15.5-1-18.1-15.6c0 0 6.2-1.4 9.4 0.8z"/>
					<path d="m464.3 51.7c3.5-1.6 9.4 0.8 9.4 0.8-5 14-20.5 12.3-20.5 12.3s-4.1-14.9 8.8-22.2c0 0 3.4 5.3 2.3 9.1z"/>
					<path d="m471.1 72.1c2.8 2.7 2.6 9 2.6 9-14.8 0.2-18.7-14.8-18.7-14.8s12.5-9.1 23.9 0.5c-0.1 0-3.9 5-7.8 5.3z"/>
					<path d="m451.9 84.8c-1.8 3.5-7.9 5.1-7.9 5.1-4.6-14.1 8.6-22.3 8.6-22.3s12.4 9.2 6.7 22.9c0 0.1-5.9-2.1-7.4-5.7z"/>
					<path d="m433.8 71.5c-3.9-0.5-7.5-5.7-7.5-5.7 11.7-9.1 23.9 0.6 23.9 0.6s-4.5 14.8-19.4 14c0.1 0 0.1-6.3 3-8.9z"/>
					</g><path d="m449 63.9s-2.3 1.7-0.2 5.1c2.2 3.4 5.6 2.1 7.3 0.3 1.6-1.9 0.4-10-7.1-5.4z" fill="#3D2622"/>
				
				<g fill="#fff">
					<path d="m210.6 128.7c-0.4-3.9 3.8-8.6 3.8-8.6 11.5 9.3 4.9 23.4 4.9 23.4s-15.5-1-18.1-15.6c0.1 0 6.2-1.4 9.4 0.8z"/>
					<path d="m232.4 130.5c3.5-1.6 9.4 0.8 9.4 0.8-5 14-20.5 12.3-20.5 12.3s-4.1-14.9 8.8-22.2c0 0 3.3 5.3 2.3 9.1z"/>
					<path d="m239.2 150.9c2.8 2.7 2.6 9 2.6 9-14.8 0.2-18.7-14.8-18.7-14.8s12.5-9.1 23.9 0.5c-0.1 0-4 5-7.8 5.3z"/>
					<path d="m220 163.6c-1.8 3.5-7.9 5.1-7.9 5.1-4.6-14.1 8.6-22.3 8.6-22.3s12.4 9.2 6.7 22.9c0 0.1-5.9-2.1-7.4-5.7z"/>
					<path d="m201.9 150.3c-3.9-0.5-7.5-5.7-7.5-5.7 11.7-9.1 23.9 0.6 23.9 0.6s-4.5 14.8-19.4 14c0 0 0.1-6.3 3-8.9z"/>
					</g><path d="m217.1 142.7s-2.3 1.7-0.2 5.1 5.6 2.1 7.3 0.3c1.6-1.9 0.3-10-7.1-5.4z" fill="#3D2622"/>
				
				
					<path d="m490.1 159.7c5.2-1.6 12.7 2.9 12.7 2.9-9.7 18.2-30.6 12.9-30.6 12.9s-2.7-21.4 16.5-28.9c0 0.1 3.6 8.2 1.4 13.1z" fill="#C62C44"/>
					<path d="m499.1 187.5c3.9 3.7 3.8 12.5 3.8 12.5-20.7 0.6-26.4-20.2-26.4-20.2s17.2-13 33.3 0.1c-0.1 0-5.3 7.1-10.7 7.6z" fill="#C62C44"/><g fill="#E93651">
					<path d="m489.8 174.5c5.1 1.8 8.7 9.8 8.7 9.8-18.5 9.2-32.4-7.3-32.4-7.3s10.2-19 30.3-13.8c-0.1 0-1.9 8.5-6.6 11.3z"/>
					<path d="m476.3 200.9c0 5.4-6.4 11.4-6.4 11.4-14.7-14.5-3.7-33.1-3.7-33.1s21.3 3.4 23 24c-0.1 0.1-8.8 1.2-12.9-2.3z"/>
					<path d="m469.8 156.4c3.4-4.3 12.1-4.8 12.1-4.8 2.4 20.5-17.8 28.1-17.8 28.1s-14.4-16.1-2.8-33.1c0-0.1 7.5 4.5 8.5 9.8z"/>
				</g>
				
					<path d="m518.2 63.2c3.3-2.6 10-1.5 10-1.5-1.8 15.8-18.3 18-18.3 18s-8-14.6 3.7-25.4c-0.1 0 4.7 4.7 4.6 8.9z" fill="#C62C44"/>
					<path d="m532.5 80.6c3.9 1.6 6.3 7.9 6.3 7.9-14.6 6.3-24.7-7-24.7-7s8.7-14.2 23.8-9.4c0 0-1.7 6.5-5.4 8.5z" fill="#C62C44"/><g fill="#E93651">
					<path d="m522.1 73.9c4.2-0.2 9 4.6 9 4.6-10.7 11.8-25.3 4-25.3 4s1.9-16.5 17.7-18.5c0-0.1 1.2 6.6-1.4 9.9z"/>
					<path d="m520 96.7c1.6 3.9-1.4 10-1.4 10-14.7-6.2-12.1-22.6-12.1-22.6s16.2-3.6 23.3 10.7c0-0.1-5.9 3.2-9.8 1.9z"/>
					<path d="m502.7 66.6c1.2-4 7.3-6.9 7.3-6.9 7.5 14-4.8 25.2-4.8 25.2s-14.9-7.4-11.4-22.9c0-0.1 6.6 1.1 8.9 4.6z"/>
				</g>
				
					<path d="m352.6 89.7c3.8 1.9 5.6 8.4 5.6 8.4-15.1 5.1-24-8.9-24-8.9s9.8-13.5 24.5-7.5c0 0-2.3 6.4-6.1 8z" fill="#C62C44"/>
					<path d="m343 110.1c0.2 4.2-4.5 9-4.5 9-11.9-10.5-4.2-25.3-4.2-25.3s16.5 1.8 18.7 17.6c0 0-6.7 1.2-10-1.3z" fill="#C62C44"/><g fill="#E93651">
					<path d="m344.6 97.8c2 3.7-0.3 10.1-0.3 10.1-15.2-4.6-14.4-21.2-14.4-21.2s15.8-5.3 24.3 8.2c0.1 0-5.5 3.9-9.6 2.9z"/>
					<path d="m323.1 105.6c-2.8 3.1-9.6 3-9.6 3-0.7-15.9 15.3-20.6 15.3-20.6s10.2 13.2 0.3 25.6c0 0.1-5.5-3.9-6-8z"/>
					<path d="m342.9 77.1c4.1-0.6 9.4 3.7 9.4 3.7-9.5 12.8-24.8 6.4-24.8 6.4s0.3-16.6 15.9-20.1c0 0 1.8 6.5-0.5 10z"/>
				</g>
				
					<path d="m329.3 252.7c-1.6 5.5-9.9 9.5-9.9 9.5-10.4-19 6.3-34.2 6.3-34.2s20.3 9.9 15.7 31c0.1-0.1-9-1.6-12.1-6.3z" fill="#EDE6DB"/>
					<path d="m299.9 244.6c-5.5 1.3-13.1-3.9-13.1-3.9 11.3-18.4 32.8-11.5 32.8-11.5s1.4 22.5-19.2 29c0 0-3.1-8.6-0.5-13.6z" fill="#EDE6DB"/><g fill="#fff">
					<path d="m316.6 243.9c-4.5 3.5-13.5 1.9-13.5 1.9 2.6-21.5 25-24.2 25-24.2s10.7 19.9-5.3 34.4c0 0.1-6.5-6.4-6.2-12.1z"/>
					<path d="m301.3 216.9c-4.8-3.1-6.3-12.1-6.3-12.1 21.1-4.6 31 15.7 31 15.7s-15.2 16.7-34.2 6.3c0 0 4-8.3 9.5-9.9z"/>
					<path d="m343.9 236.8c1.8 5.4-2.7 13.4-2.7 13.4-19.3-9.7-14.3-31.7-14.3-31.7s22.3-3.4 30.6 16.6c0 0-8.3 3.9-13.6 1.7z"/>
				</g>
				
					<path d="m188.9-23.9c2.1-5.3 10.7-8.5 10.7-8.5 8.6 19.8-9.4 33.5-9.4 33.5s-19.3-11.7-12.8-32.4c0 0.1 8.9 2.4 11.5 7.4z" fill="#EDE6DB"/>
					<path d="m217.5-13.1c5.6-0.8 12.7 5.1 12.7 5.1-13 17.3-33.8 8.4-33.8 8.4s0.6-22.6 21.8-27.1c0 0 2.4 8.8-0.7 13.6z" fill="#EDE6DB"/><g fill="#fff">
					<path d="m200.8-14c4.8-3.1 13.6-0.7 13.6-0.7-4.6 21.1-27.2 21.7-27.2 21.7s-8.8-20.8 8.4-33.8c0.1 0.1 6 7.2 5.2 12.8z"/>
					<path d="m213.5 14.3c4.5 3.5 5.1 12.7 5.1 12.7-21.5 2.6-29.5-18.5-29.5-18.5s16.7-15.2 34.7-3.1c0.1-0.1-4.7 7.8-10.3 8.9z"/>
					<path d="m172.9-9.5c-1.3-5.5 4-13.1 4-13.1 18.3 11.4 11.3 32.9 11.3 32.9s-22.6 1.4-28.9-19.3c0 0 8.6-3.1 13.6-0.5z"/>
				</g>
				<g fill="#E93651">
					<path d="m409.7 76.9c3.1-8.3 16.3-13.7 16.3-13.7 14.2 30.5-13.2 52.6-13.2 52.6s-30.6-17.4-21.3-49.8c0 0 13.9 3.2 18.2 10.9z"/>
					<path d="m452.3 102.1c8.9 0.2 18.3 10.9 18.3 10.9-24.2 23.5-54 4.8-54 4.8s6.4-34.6 40.1-36.5c0 0 1.5 14.2-4.4 20.8z"/>
					<path d="m445.8 150.6c3 8.4-3.8 21-3.8 21-30.4-14.4-23.4-48.9-23.4-48.9s34.6-6.1 48.2 24.7c0 0-12.7 6.4-21 3.2z"/>
					<path d="m394.1 157.3c-7.1 5.4-21.1 2.7-21.1 2.7 4.6-33.4 39.6-37 39.6-37s16.2 31.2-9.1 53.4c0 0.1-10-10.2-9.4-19.1z"/>
					<path d="m370.4 112.2c-7.4-4.9-9.6-19-9.6-19 33-6.8 48.1 25 48.1 25s-24 25.7-53.4 9.3c0.1 0 6.4-12.8 14.9-15.3z"/>
					</g><path d="m409 111.8s-6.4 1.1-5.4 10.2 9.4 9.9 14.6 7.8c5.1-2.2 10.5-19.8-9.2-18z" fill="#3D2622"/>
				
				<g fill="#fff">
					<path d="m365.5 294.4c-0.4-3.9 3.8-8.6 3.8-8.6 11.5 9.3 4.9 23.4 4.9 23.4s-15.5-1-18.1-15.6c0 0 6.2-1.4 9.4 0.8z"/>
					<path d="m387.2 296.1c3.5-1.6 9.4 0.8 9.4 0.8-5 14-20.5 12.3-20.5 12.3s-4.1-14.9 8.8-22.2c0 0 3.4 5.4 2.3 9.1z"/>
					<path d="m394 316.6c2.8 2.7 2.6 9 2.6 9-14.8 0.2-18.7-14.8-18.7-14.8s12.5-9.1 23.9 0.5c-0.1 0-3.9 5-7.8 5.3z"/>
					<path d="m374.8 329.3c-1.8 3.5-7.9 5.1-7.9 5.1-4.6-14.1 8.6-22.3 8.6-22.3s12.4 9.2 6.7 22.9c0 0-5.9-2.1-7.4-5.7z"/>
					<path d="m356.7 316c-3.9-0.5-7.5-5.7-7.5-5.7 11.7-9.1 23.9 0.6 23.9 0.6s-4.5 14.8-19.4 14c0.1 0 0.1-6.3 3-8.9z"/>
					</g><path d="m371.9 308.4s-2.3 1.7-0.2 5.1c2.2 3.4 5.6 2.1 7.3 0.3 1.6-1.9 0.4-10-7.1-5.4z" fill="#3D2622"/>
				
				<g fill="#E93651">
					<path d="m304.7 285.1c-1.2-7.4 6.2-17 6.2-17 23.3 16.5 12.4 44.3 12.4 44.3s-29.9 0-36.7-27.8c0 0.1 11.6-3.4 18.1 0.5z"/>
					<path d="m346.7 285.7c6.6-3.6 18.1 0.3 18.1 0.3-7.9 27.5-37.8 26.3-37.8 26.3s-9.8-28.2 14.2-43.8c-0.1 0 7 9.8 5.5 17.2z"/>
					<path d="m362.3 324.2c5.7 4.9 6 17 6 17-28.5 2.2-37.9-26.2-37.9-26.2s23-19.1 46-2.1c0 0.1-6.7 10.2-14.1 11.3z"/>
					<path d="m327 351c-3 6.9-14.5 10.9-14.5 10.9-10.6-26.6 13.7-44 13.7-44s25.1 16.2 15.8 43.3c-0.1-0.1-11.7-3.5-15-10.2z"/>
					<path d="m290.5 327.7c-7.5-0.5-15.1-10-15.1-10 21.5-18.9 46-1.9 46-1.9s-6.9 29.1-35.5 29.3c0.1 0.1-0.6-12 4.6-17.4z"/>
					</g><path d="m318.8 311.2s-4.3 3.5 0.3 9.8 11.1 3.4 14-0.4-0.5-19.1-14.3-9.4z" fill="#3D2622"/>
				<g fill="#E93651">
				<path d="m419.1 192.7c-0.5 4.3-6.2 8.4-6.2 8.4-10.3-12.9 0.1-26.6 0.1-26.6s16.6 4.7 16 21.2c0.1 0-6.9 0.1-9.9-3z"/>
				<path d="m145.8 98.1c-1.6 4-8.1 6.5-8.1 6.5-6.7-15.1 7-25.6 7-25.6s14.8 8.9 9.9 24.7c0.1 0-6.7-1.8-8.8-5.6z"/>
				<path d="m377.2 248.9c2.2-1.2 5.9 0.1 5.9 0.1-2.5 9.1-12.4 8.7-12.4 8.7s-3.3-9.3 4.6-14.4c0-0.1 2.4 3.2 1.9 5.6z"/>
				<path d="m295.9 138.5c-0.3 2.5-3.6 4.7-3.6 4.7-5.8-7.4 0.3-15.1 0.3-15.1s9.4 2.9 8.9 12.3c0.1-0.1-3.9-0.1-5.6-1.9z"/>
				<path d="m176.8 28c2.4-0.4 5.5 2.1 5.5 2.1-5.6 7.6-14.7 3.8-14.7 3.8s0.2-9.8 9.3-11.9c0.2 0 1.2 3.9-0.1 6z"/></g><g fill="#fff">
				<path d="m312.7 77.8c2.4-0.6 5.8 1.5 5.8 1.5-4.7 8.2-14.1 5.4-14.1 5.4s-0.9-9.8 8-12.9c-0.1 0.1 1.4 3.8 0.3 6z"/>
				<path d="m302.8 169.1c4.3 0 9.1 5.1 9.1 5.1-11.5 11.8-26.4 3.1-26.4 3.1s2.7-17.1 19.1-18.5c0.1 0.1 1 7-1.8 10.3z"/>
				<path d="m250.7 55.9c3.3-2.8 10.3-2 10.3-2-1.2 16.5-18.2 19.4-18.2 19.4s-9-14.7 2.7-26.5c0 0.1 5.2 4.8 5.2 9.1z"/>
			</g>
			<path d="m796.7 281.6c-2.5 0.1-5.3-2.7-5.3-2.7 6.3-7 15-2.4 15-2.4s-1.1 9.8-10.4 11c-0.1 0-0.8-3.9 0.7-5.9z" fill="#E93651"/>
			<path d="m263 490.4c1.4 2 0.6 5.9 0.6 5.9-9.3-1.6-10-11.4-10-11.4s8.8-4.3 14.9 3c-0.1 0-3 2.7-5.5 2.5z" fill="#fff"/>
			<path d="m1293.1 83.4c0.7 2.4-1.4 5.8-1.4 5.8-8.2-4.6-5.6-14.1-5.6-14.1s9.8-1.1 13 7.8c-0.1 0-3.7 1.5-6 0.5z" fill="#fff"/>
			<path d="m987.2 917.6c0.7 2.4-1.4 5.8-1.4 5.8-8.2-4.6-5.6-14.1-5.6-14.1s9.8-1.1 13 7.8c0 0-3.7 1.6-6 0.5z" fill="#E93651"/>
			
				<path d="m1388.7 391c-13.9-5.8-49.1-18.6-70.5-10.7-27.2 10-55-10.2-58.1-11.5s-28.5-10.4-28.5-10.4 28.9 17.4 54.4 26.2c-3.8 2.4-13.2 7.5-24.8 7.5-21.1 0-38.9 15.6-38.9 15.6s15.7-9.9 29.3-10.7c11.5-0.7 32.6-5.7 44.6-9.4 8.1 2 15.3 2.6 20.4 0.8 10.9-3.9 28.3-0.1 43.1 4.8-11.7 4-22 12.1-36.2 24.5-12.7 11.2-21.3 25.6-29.5 39.4-11.6 4.8-29.4 12-32 12.8-3.9 1.1-74.2 0.4-74.2 0.4s68 5 73.9 4.4c3.9-0.5 17.5-4.6 26.2-7.3-2.7 4.4-5.4 8.6-8.3 12.5-13.9 18.7-109.4 44.1-109.4 44.1s41.4-9.8 80.2-21.9c0.1 1.2-0.2 4.8-3.5 11.1-4.2 8-7.6 25.9-7.6 25.9s4.8-13.5 9-24.4c2.1-5.6 7.2-11.3 11.7-15.7 1.1-0.4 2.2-0.7 3.3-1.1 41.9-13.9 53.8-88.2 92-89.9 21.6-0.9 55.1 2.3 86.7 8.7 0-5.5-0.1-11.1-0.3-16.6-14.2-2.5-36.5-7.3-53-9.1z" fill="#3D2622"/>
				<g fill="#fff">
					<path d="m1184.8 489.1c5.2-5.7 17.7-5.7 17.7-5.7 1.4 29.4-28.1 38.1-28.1 38.1s-18.9-24.2-0.7-47.3c0 0 10.1 7.2 11.1 14.9z"/>
					<path d="m1210.9 523.5c7.1 3.1 11.2 14.9 11.2 14.9-27.3 11-45.2-14-45.2-14s16.7-25.8 44.5-16.3c-0.1 0-3.6 12-10.5 15.4z"/>
					<path d="m1189.6 560.5c-0.4 7.7-10 15.7-10 15.7-19.8-21.7-2.8-47.3-2.8-47.3s30 6.5 30.8 35.9c0 0.1-12.4 1.1-18-4.3z"/>
					<path d="m1145.5 548.9c-7.5 1.9-18-4.8-18-4.8 14.8-25.4 44.3-16.8 44.3-16.8s2.7 30.6-25.1 40.2c0.1-0.1-4.6-11.7-1.2-18.6z"/>
					<path d="m1141.3 504.6c-4.3-6.4-1.5-18.5-1.5-18.5 28.9 5.4 30.6 36.1 30.6 36.1s-27.9 12.8-46.2-10.2c0.1 0 9.4-8.2 17.1-7.4z"/>
					</g><path d="m1172.6 517s-5.6-1.2-7.8 6.5 4.3 11.1 9.2 11.1c4.9-0.1 15.2-12.6-1.4-17.6z" fill="#3D2622"/>
				
				<g fill="#E93651">
					<path d="m1221.2 381.4c1.3-4.3 7.7-7.4 7.7-7.4 8.2 14.8-4.8 26.8-4.8 26.8s-15.9-7.7-12.4-24.3c0 0.1 7.1 1.2 9.5 4.9z"/>
					<path d="m1243.5 392.6c4.5-0.2 9.6 4.8 9.6 4.8-11.3 12.6-26.9 4.3-26.9 4.3s2-17.6 18.9-19.7c-0.1 0 1.1 7.1-1.6 10.6z"/>
					<path d="m1241.9 417.2c1.8 4.1-1.2 10.7-1.2 10.7-15.8-6.2-13.4-23.7-13.4-23.7s17.2-4.3 25.1 10.7c0-0.1-6.2 3.6-10.5 2.3z"/>
					<path d="m1216.2 422.3c-3.4 2.9-10.5 2.1-10.5 2.1 1.2-16.9 18.6-19.9 18.6-19.9s9.2 15.1-2.8 27.1c0 0-5.3-4.8-5.3-9.3z"/>
					<path d="m1202.7 400.5c-3.9-2.2-5.5-9.2-5.5-9.2 16.3-4.6 25 10.9 25 10.9s-11.2 13.7-26.5 6.5c0.1 0 2.8-6.7 7-8.2z"/>
					</g><path d="m1222.1 399s-3.2 0.8-2.4 5.3 5.1 4.7 7.6 3.4 4.6-10.3-5.2-8.7z" fill="#3D2622"/>
				
				
					<path d="m1231.8 447.2c1.4-4.6 8.4-8 8.4-8 8.7 16.1-5.4 29-5.4 29s-17.2-8.4-13.3-26.3c0 0 7.7 1.2 10.3 5.3z" fill="#EDE6DB"/>
					<path d="m1256.7 454.1c4.7-1.1 11.1 3.3 11.1 3.3-9.6 15.6-27.8 9.7-27.8 9.7s-1.2-19.1 16.3-24.6c0 0 2.6 7.3 0.4 11.6z" fill="#EDE6DB"/><g fill="#fff">
					<path d="m1242.5 454.6c3.8-2.9 11.5-1.6 11.5-1.6-2.3 18.2-21.3 20.4-21.3 20.4s-9.1-16.9 4.5-29.1c0.1 0 5.6 5.5 5.3 10.3z"/>
					<path d="m1255.5 477.5c4 2.6 5.3 10.3 5.3 10.3-17.9 3.8-26.3-13.4-26.3-13.4s12.9-14.1 29-5.3c0 0.1-3.4 7-8 8.4z"/>
					<path d="m1219.4 460.6c-1.5-4.6 2.3-11.3 2.3-11.3 16.3 8.3 12.1 26.9 12.1 26.9s-18.9 2.8-25.9-14.1c0-0.1 7-3.4 11.5-1.5z"/>
				</g>
				
					<path d="m1258.5 552.8c0.3 5.2-5.6 11.2-5.6 11.2-14.8-13.2-5.1-31.5-5.1-31.5s20.6 2.3 23.2 22c-0.1 0-8.4 1.5-12.5-1.7z" fill="#C62C44"/>
					<path d="m1230.5 555c-4.4 2.8-12.5 0.7-12.5 0.7 4.1-19.4 24.9-20.1 24.9-20.1s8.2 19-7.6 31c-0.1 0-5.5-6.5-4.8-11.6z" fill="#C62C44"/><g fill="#E93651">
					<path d="m1244.7 549.2c-2.8 4.4-11.1 5.9-11.1 5.9-4.4-19.4 14.2-28.6 14.2-28.6s15.4 13.9 6.1 31.4c0-0.1-7.6-3.7-9.2-8.7z"/>
					<path d="m1223.1 530.6c-5.1-1.2-9.2-8.6-9.2-8.6 16.9-10.5 31.7 4 31.7 4s-8 19.1-27.7 16c0.1 0.1 1-8.3 5.2-11.4z"/>
					<path d="m1266.2 534.6c3.2 4.1 1.8 12.4 1.8 12.4-19.7-2.4-22.2-23-22.2-23s18.3-9.8 31.6 4.9c0 0-6 6-11.2 5.7z"/>
				</g>
				<path d="m1298.4 427.5c-2.6-3.5-1.2-10.4-1.2-10.4 16.3 2.5 17.9 19.7 17.9 19.7s-15.4 7.7-26.2-4.8c0.1-0.1 5.2-4.9 9.5-4.5z" fill="#E93651"/>
				<path d="m1339.6 371.3c2.2-1 5.9 0.5 5.9 0.5-3.2 8.8-13 7.8-13 7.8s-2.6-9.5 5.6-14.1c0.1 0.1 2.2 3.5 1.5 5.8z" fill="#fff"/>
				<path d="m1283.2 493.2c-0.6 2.4-4.1 4.3-4.1 4.3-4.9-8 2-15 2-15s9 3.9 7.5 13.2c0 0-4-0.5-5.4-2.5z" fill="#fff"/>
				<path d="m1252.2 359.2c0.4-2.4 3.7-4.7 3.7-4.7 5.6 7.5-0.6 15.1-0.6 15.1s-9.4-3-8.7-12.4c-0.1 0 3.9 0.1 5.6 2z" fill="#E93651"/>
			
			
				<g fill="#E93651">
					<path d="m1252.4 715.4c2.2-7.4 13.2-12.8 13.2-12.8 14.1 25.5-8.3 46.2-8.3 46.2s-27.3-13.3-21.3-41.8c0 0 12.2 1.9 16.4 8.4z"/>
					<path d="m1290.7 734.6c7.7-0.4 16.4 8.3 16.4 8.3-19.5 21.7-46.3 7.3-46.3 7.3s3.5-30.2 32.4-33.9c0 0 2.1 12.2-2.5 18.3z"/>
					<path d="m1287.9 776.8c3 7-2 18.3-2 18.3-27.1-10.6-23.1-40.8-23.1-40.8s29.5-7.3 43.1 18.5c0-0.1-10.7 6.2-18 4z"/>
					<path d="m1243.7 785.7c-5.8 5-18.1 3.5-18.1 3.5 2-29.1 32-34.3 32-34.3s15.8 26-4.7 46.6c0 0.1-9.2-8.2-9.2-15.8z"/>
					<path d="m1220.6 748.2c-6.7-3.8-9.4-15.8-9.4-15.8 28.1-7.8 43 18.7 43 18.7s-19.2 23.6-45.5 11.2c-0.1-0.1 4.7-11.5 11.9-14.1z"/>
					</g><path d="m1253.8 745.5s-5.5 1.3-4.1 9.1 8.7 8 13 5.8 8-17.7-8.9-14.9z" fill="#3D2622"/>
				
				<path d="m1398.5 934.8c-27.5-30.8-33.6-42.3-57.8-58.5-2.6-8.6-6.1-23.2-5.6-40.1 0.8-27 17.7-77.2 7.3-99.3 0 0 1.7 28.3-7.6 61.6-7.6 27.3-9 52.5-7.2 69.2-27.9-20.9-44.2-63.9-131.7-94 0 0 65.4 32.1 87.2 62.2s35.3 42.5 53.8 53.5c16.3 9.7 26.7 27.5 34.3 37.1-36.7-9.1-78.8-34.6-118.4-29-55.3 7.7-119.9 20.9-119.9 20.9s122-22.4 149.2-14 54.3 24 87.8 28.9c2.9 0.4 5.6 0.8 8.3 1.2 24.3 27.2 140.6 160.9 161.8 169 23 8.9 48.7 16.6 48.7 16.6s-159.8-151.3-190.2-185.3z" fill="#3D2622"/>
				<g fill="#fff">
					<path d="m1215.5 751.2c7.2-7.9 24.5-7.9 24.5-7.9 1.9 40.6-38.8 52.7-38.8 52.7s-26.2-33.5-1-65.4c-0.1 0 14 9.9 15.3 20.6z"/>
					<path d="m1251.6 798.8c9.8 4.2 15.5 20.5 15.5 20.5-37.7 15.1-62.5-19.3-62.5-19.3s23-35.7 61.5-22.5c-0.1 0-4.9 16.5-14.5 21.3z"/>
					<path d="m1222.1 849.9c-0.5 10.7-13.8 21.7-13.8 21.7-27.4-30-3.8-65.3-3.8-65.3s41.5 9 42.6 49.7c0 0-17.2 1.3-25-6.1z"/>
					<path d="m1161.2 833.8c-10.4 2.7-24.8-6.7-24.8-6.7 20.5-35.1 61.2-23.2 61.2-23.2s3.8 42.3-34.7 55.5c0.1 0.1-6.3-16-1.7-25.6z"/>
					<path d="m1155.5 772.6c-6-8.8-2-25.6-2-25.6 40 7.5 42.3 49.9 42.3 49.9s-38.6 17.8-63.9-14.1c0 0 12.9-11.4 23.6-10.2z"/>
					</g><path d="m1198.7 789.8s-7.7-1.7-10.7 8.9c-3 10.7 5.9 15.4 12.7 15.3s20.9-17.3-2-24.2z" fill="#3D2622"/>
				
				
					<path d="m1154 952.4c-5.4 4.9-17 3.9-17 3.9 1.1-27.6 29.3-33.4 29.3-33.4s15.7 24.2-3.1 44.3c0 0-8.9-7.6-9.2-14.8z" fill="#C62C44"/>
					<path d="m1127 924.2c-6.9-2.2-11.8-12.9-11.8-12.9 24.5-12.7 43.5 9 43.5 9s-13.2 25.6-40.1 19.2c0.1 0 2.3-11.5 8.4-15.3z" fill="#C62C44"/><g fill="#E93651">
					<path d="m1145.8 934.4c-7.2 0.9-16.1-6.8-16.1-6.8 16.9-21.8 43.3-10 43.3-10s-1.3 28.8-28.4 34.2c0 0-2.8-11.3 1.2-17.4z"/>
					<path d="m1146.7 894.8c-3.2-6.5 1.1-17.4 1.1-17.4 26.2 8.8 23.7 37.6 23.7 37.6s-27.6 8.3-41.6-15.6c0 0 9.8-6.4 16.8-4.6z"/>
					<path d="m1180.4 944.6c-1.6 7.1-11.8 12.9-11.8 12.9-14.8-23.3 5.2-44.1 5.2-44.1s26.7 10.9 22.6 38.2c0 0-11.7-1.2-16-7z"/>
				</g>
				<path d="m1293.3 816.3c2.5-3.6 9.4-4.5 9.4-4.5 3.1 16.2-12.6 23.4-12.6 23.4s-12.4-12-4.1-26.3c-0.1-0.1 6.2 3.2 7.3 7.4z" fill="#E93651"/>
				<path d="m1201.5 890c-0.9-4.3 3.3-9.9 3.3-9.9 13.8 9.1 8 25.4 8 25.4s-17.3 0.5-21.7-15.4c0 0 6.6-2.3 10.4-0.1z" fill="#fff"/>
				<path d="m1257.6 909.8c-1.8 1.7-5.8 1.3-5.8 1.3 0.4-9.4 10-11.4 10-11.4s5.4 8.2-1.1 15.1c0.1 0.1-3-2.5-3.1-5z" fill="#E93651"/>
			
			
				<path d="m1322.3 172.4c-5.5 0.1-11.6 0.6-18.5 1.2-16.9 1.5-32.3 8.1-47 14.4-12.1-3-30.9-7.6-33.4-8.6-3.8-1.4-60.2-43.4-60.2-43.4s51.9 44.2 57.1 47.1c3.5 2 16.9 6.6 25.5 9.5-4.7 2-9.4 3.7-14.1 5.2-22.2 6.9-114.3-28.9-114.3-28.9s48.6 20.4 90.6 33.9c34 10.9 75.4-21.6 106.8-23.3-6.3 6.1-11.2 10.7-13 12.1-5.1 4.1-54.7 28.4-93.6 47.8-15.6 2-32.3 4.2-47.9 6.1-5.3-4.3-29.1-23.3-52.7-35.9-26.8-14.3-58.5-73.6-58.5-73.6s9.2 19.9 17.6 36.6c-8.4-6.9-21.2-17.4-25.9-20.6-7.3-5-33.5-33.9-33.5-33.9s27.1 32.7 29.9 36.5 39.7 37.3 39.7 37.3c0.7 1.2 1.4 2.1 1.9 2.7 1.9 2.1 6 5.3 11 8.7l-21.9-2.7-54.9 8.2s48.8-1.3 58.2-1.2c6.9 0 23.5 3.2 32 4.9 5 3.4 9.5 6.4 12.1 8.5 4.9 4.1 22 17.5 32.7 26-20 2.4-36.9 4.2-45.1 4.6-26.3 1.3-34.5-0.2-52.2 5.3-5.3-2.1-14-6.2-22.2-13.3-13.1-11.2-31.3-39.7-46.4-43.4 0 0 14.8 10.5 27.6 28.4 0.6 0.8 1.2 1.6 1.7 2.4-5.8-0.8-17.2-2.4-19-2.4-2.5 0.1-32.1 7.7-32.1 7.7s28.8-6.2 32.4-5.5c2.8 0.6 16.3 3.1 21.8 4.2 9.2 11.5 19 20 26.7 24.9-21.5 5.5-49.5-3.6-99.4 27.8 0 0 42.1-19.6 65.8-18.4s35.2-0.5 48.1-5.3 27.9-1.6 35-2.3c3.9-0.4 43.9-1.9 82.2-4.4-1.8 0.9-3.4 1.8-4.9 2.6-27.3 14.7-64 37.8-87.4 39-6.4 0.3-19.7 7.8-35.5 18.5-5.6 2.5-10.3 4.8-11 5.4-1.8 1.6-20.9 6.2-24 7.4-3.1 1.1-47.6-0.5-47.6-0.5 15.6 1.8 39.6 6.6 48.8 5.5 3.2-0.4 7.7-1.4 12.2-2.5-30.2 22.3-62.7 49.2-74.7 59.2-30.4 1.5-71.8-12.3-98.1 5.2-1 0.6-1.9 1.3-2.9 1.9-6.2 0.9-13.9 1.3-19.6-0.4-11.2-3.4-24.8-7.9-24.8-7.9s16.1 8.4 25.1 10c7 1.3 9.9 3.3 10.9 4.1-33.4 23.1-66.7 49.7-66.7 49.7s78.9-59.5 102.1-59c4.9 0.1 9.9 0.6 14.9 1.2-7.6 5.2-19.2 13.3-22 16.1-4.2 4.3-42.1 60.9-42.1 60.9s42.9-55.8 46.1-58.2c2.2-1.6 18.9-11.2 29.8-17.4 13 1.7 26.5 3.4 40.1 2.3-8.7 16.9-39.9 76.7-58.2 96.5-16.7 18.1-57.4 52.8-74.5 67.1-18-4.1-44.1-7.6-67.8-6.6-7.3-5.3-25.7-18.9-29.6-21.7-4.8-3.5-29.4-44.9-29.4-44.9s23.9 43.9 26.5 47c2 2.3 16.6 14.1 24 20.2-1.6 0.2-3.2 0.3-4.8 0.5-35.7 4.6-64.7-1.3-64.7-1.3 21.3 14 75.5 4 103.6 7.2 10.9 1.3 20.7 4 28.5 6.8-1.3 0.5-2.7 1-4.1 1.4l-24.4 5.2c-28 2.6-35.1 1-56.4 9.7-21.7 8.8-50.4-2.1-101.8 33.6 0 0 41.2-21.5 64.9-21.4s35.2-2.1 47.8-7.5c12.7-5.4 27.8-2.9 34.9-3.9 5.5-0.8 30.9-5.4 48.4-11.4 2-0.6 3.8-1.3 5.5-1.9 1-0.4 2-0.9 3.1-1.4 1.7-0.8 3.2-1.6 4.4-2.4 22.5-13 54.3-44.7 71.4-60.7-4.9 10.7-10.5 23.9-14.5 36.8-9 29-61.2 71.4-61.2 71.4s17.8-12.8 32.6-24.2c-5.2 9.6-13 24.1-15.3 29.4-3.5 8.1-27 39.3-27 39.3s27-32.8 30.2-36.3 29.1-46.1 29.1-46.1c1.1-1 1.8-1.8 2.3-2.3 4.9-6.3 14.5-32.5 19-40.9 4.6-8.4 24.7-47.4 24.7-47.4l-0.2-0.1c15.7-23.2 43.1-72.8 51.8-77.9 4.2-2.5 18.8-13.7 36.3-27-5.2 10.4-10.8 26.6-6.8 43.3 6.6 28.2-16.8 53.3-18.4 56.3-1.6 2.9-13.7 27-13.7 27s45.2-57.9 40-80.8c-4.1-17.9 13-49.5 20.7-62.4 21.4-16.2 42.5-31.8 51.5-36.3 14.2-7.2 49.5-19.3 74.4-28.7-4.2 6.3-7.6 13.5-9.4 21.6-7.9 34.7-47.2 49.8-50.5 52.2-3.4 2.4-29.6 22.4-29.6 22.4s37.2-18.2 63.2-38.6c-0.1 5.5-1.1 18.7-8.8 30.5-14.1 21.7-9.9 50.4-9.9 50.4s0.3-22.8 8.5-37.2c6.9-12.3 15.9-37.4 20.1-52.2 7.5-7 12.9-14.1 14.4-20.5 3.5-14.8 20.9-31.2 36.6-43.5 24-10.8 67.3-28.4 76-28.7 10.6-0.4 62.8-26.8 78.6-31.5s96-67.3 96-67.3l-19-73c0.4-0.2-68.8 65.2-88.3 84.2z" fill="#3D2622"/>
				<g fill="#fff">
					<path d="m779.8 425.6c4.4-4.8 14.9-4.8 14.9-4.8 1.2 24.7-23.6 32-23.6 32s-15.9-20.3-0.6-39.7c0 0 8.5 6.1 9.3 12.5z"/>
					<path d="m801.7 454.5c6 2.6 9.4 12.5 9.4 12.5-22.9 9.2-37.9-11.7-37.9-11.7s14-21.7 37.3-13.6c0-0.1-2.9 9.9-8.8 12.8z"/>
					<path d="m783.8 485.6c-0.3 6.5-8.4 13.2-8.4 13.2-16.6-18.2-2.3-39.7-2.3-39.7s25.2 5.5 25.9 30.2c0-0.1-10.4 0.7-15.2-3.7z"/>
					<path d="m746.9 475.8c-6.3 1.6-15.1-4.1-15.1-4.1 12.4-21.3 37.2-14.1 37.2-14.1s2.3 25.7-21 33.7c-0.1 0.1-4-9.7-1.1-15.5z"/>
					<path d="m743.4 438.6c-3.6-5.4-1.2-15.6-1.2-15.6 24.3 4.5 25.7 30.3 25.7 30.3s-23.4 10.8-38.8-8.5c-0.1 0 7.8-6.9 14.3-6.2z"/>
					</g><path d="m769.6 449s-4.7-1-6.5 5.4 3.6 9.4 7.7 9.3c4.1 0 12.7-10.4-1.2-14.7z" fill="#3D2622"/>
				
				<g fill="#fff">
					<path d="m1017.8 425c7.2-7.9 24.5-7.9 24.5-7.9 1.9 40.6-38.8 52.7-38.8 52.7s-26.2-33.5-1-65.4c-0.1 0 14 10 15.3 20.6z"/>
					<path d="m1053.9 472.6c9.8 4.2 15.5 20.5 15.5 20.5-37.7 15.1-62.5-19.4-62.5-19.4s23-35.7 61.5-22.5c-0.1 0.1-4.9 16.7-14.5 21.4z"/>
					<path d="m1024.4 523.7c-0.5 10.7-13.8 21.7-13.8 21.7-27.4-30-3.8-65.3-3.8-65.3s41.5 9 42.6 49.7c0 0-17.2 1.3-25-6.1z"/>
					<path d="m963.5 507.6c-10.4 2.7-24.8-6.7-24.8-6.7 20.5-35.1 61.2-23.2 61.2-23.2s3.8 42.3-34.7 55.5c0.1 0.1-6.3-15.9-1.7-25.6z"/>
					<path d="m957.8 446.4c-6-8.8-2-25.6-2-25.6 40 7.5 42.3 49.9 42.3 49.9s-38.6 17.8-63.9-14.1c0 0 12.9-11.3 23.6-10.2z"/>
					</g><path d="m1001 463.6s-7.7-1.7-10.7 8.9c-3 10.7 5.9 15.4 12.7 15.3s20.9-17.3-2-24.2z" fill="#3D2622"/>
				
				<g fill="#fff">
					<path d="m991.6 170.6c3.4-3.7 11.4-3.7 11.4-3.7 0.9 18.9-18 24.5-18 24.5s-12.2-15.6-0.5-30.4c-0.1 0 6.5 4.6 7.1 9.6z"/>
					<path d="m1008.3 192.7c4.6 2 7.2 9.5 7.2 9.5-17.5 7-29.1-9-29.1-9s10.7-16.6 28.6-10.4c0 0-2.2 7.7-6.7 9.9z"/>
					<path d="m994.6 216.5c-0.2 5-6.4 10.1-6.4 10.1-12.7-14-1.8-30.4-1.8-30.4s19.3 4.2 19.8 23.1c0.1 0-7.9 0.6-11.6-2.8z"/>
					<path d="m966.3 209c-4.8 1.3-11.5-3.1-11.5-3.1 9.5-16.3 28.5-10.8 28.5-10.8s1.8 19.7-16.1 25.8c-0.1 0-3-7.4-0.9-11.9z"/>
					<path d="m963.6 180.6c-2.8-4.1-0.9-11.9-0.9-11.9 18.6 3.5 19.7 23.2 19.7 23.2s-17.9 8.3-29.7-6.5c0-0.1 6-5.4 10.9-4.8z"/>
					</g><path d="m983.7 188.5s-3.6-0.8-5 4.2 2.8 7.2 5.9 7.1c3.2 0 9.8-8-0.9-11.3z" fill="#3D2622"/>
				
				<g fill="#fff">
					<path d="m1071.5 371.7c3.4-3.7 11.4-3.7 11.4-3.7 0.9 18.9-18 24.5-18 24.5s-12.2-15.6-0.5-30.4c0 0 6.5 4.6 7.1 9.6z"/>
					<path d="m1088.3 393.8c4.6 2 7.2 9.5 7.2 9.5-17.5 7-29.1-9-29.1-9s10.7-16.6 28.6-10.4c0 0-2.2 7.7-6.7 9.9z"/>
					<path d="m1074.6 417.6c-0.2 5-6.4 10.1-6.4 10.1-12.7-14-1.8-30.4-1.8-30.4s19.3 4.2 19.8 23.1c0 0-8 0.6-11.6-2.8z"/>
					<path d="m1046.3 410.1c-4.8 1.3-11.5-3.1-11.5-3.1 9.5-16.3 28.5-10.8 28.5-10.8s1.8 19.7-16.1 25.8c-0.1 0-3.1-7.4-0.9-11.9z"/>
					<path d="m1043.6 381.6c-2.8-4.1-0.9-11.9-0.9-11.9 18.6 3.5 19.7 23.2 19.7 23.2s-17.9 8.3-29.7-6.5c-0.1 0 6-5.3 10.9-4.8z"/>
					</g><path d="m1063.7 389.6s-3.6-0.8-5 4.2 2.8 7.2 5.9 7.1c3.2 0 9.8-8.1-0.9-11.3z" fill="#3D2622"/>
				
				<g fill="#fff">
					<path d="m1018.5 83.7c5-5.4 16.8-5.4 16.8-5.4 1.3 27.9-26.7 36.2-26.7 36.2s-18-23-0.7-45c0 0.1 9.7 6.9 10.6 14.2z"/>
					<path d="m1043.3 116.5c6.8 2.9 10.6 14.1 10.6 14.1-25.9 10.4-43-13.3-43-13.3s15.8-24.5 42.2-15.4c0.1-0.1-3.2 11.3-9.8 14.6z"/>
					<path d="m1023 151.6c-0.4 7.3-9.5 14.9-9.5 14.9-18.8-20.6-2.6-44.9-2.6-44.9s28.5 6.2 29.3 34.1c0 0.1-11.8 1-17.2-4.1z"/>
					<path d="m981.2 140.5c-7.1 1.9-17.1-4.6-17.1-4.6 14.1-24.2 42.1-15.9 42.1-15.9s2.6 29.1-23.8 38.1c0 0.1-4.4-10.9-1.2-17.6z"/>
					<path d="m977.2 98.5c-4.1-6.1-1.4-17.6-1.4-17.6 27.5 5.1 29.1 34.3 29.1 34.3s-26.5 12.2-43.9-9.7c0 0 8.9-7.8 16.2-7z"/>
					</g><path d="m1006.9 110.3s-5.3-1.2-7.4 6.1 4.1 10.6 8.7 10.5c4.7 0 14.4-11.9-1.3-16.6z" fill="#3D2622"/>
				
				<g fill="#E93651">
					<path d="m782 575.3c-1.9-8.1 5.6-19.1 5.6-19.1 26.9 16.4 17 47.8 17 47.8s-32.9 2.3-42.5-27.8c0 0.1 12.6-4.6 19.9-0.9z"/>
					<path d="m828.3 572.8c7-4.5 19.9-1 19.9-1-6.7 30.8-39.6 31.8-39.6 31.8s-12.9-30.3 12.3-49.3c0 0 8.6 10.3 7.4 18.5z"/>
					<path d="m848.4 614c6.6 5 7.9 18.3 7.9 18.3-31.2 4.6-43.6-25.9-43.6-25.9s23.8-22.7 50.4-5.8c0 0-6.6 11.6-14.7 13.4z"/>
					<path d="m811.6 646.1c-2.8 7.8-15.1 13-15.1 13-13.7-28.4 11.7-49.4 11.7-49.4s28.8 16 20.6 46.4c0 0.1-13.1-2.8-17.2-10z"/>
					<path d="m769.7 623.3c-8.3 0-17.3-9.8-17.3-9.8 22.2-22.4 50.5-5.5 50.5-5.5s-5.4 32.5-36.8 35c0-0.1-1.7-13.4 3.6-19.7z"/>
					</g><path d="m799.5 602.9s-4.5 4.2 1.1 10.8c5.5 6.6 12.5 2.9 15.4-1.5s-2-21-16.5-9.3z" fill="#3D2622"/>
				
				
					<path d="m636 453.7c-4.1-10.7 4.1-27.3 4.1-27.3 40 17.5 32.2 62.5 32.2 62.5s-44.7 9.2-63.5-30.2c0.1 0 16.4-8.7 27.2-5z" fill="#C62C44"/>
					<path d="m693.1 430.2c7.2-8.9 25.7-10 25.7-10 4.6 43.4-38.3 59-38.3 59s-30.2-34.2-5.3-70.1c0.1 0 15.8 9.8 17.9 21.1z" fill="#C62C44"/><g fill="#E93651">
					<path d="m667.2 452c2.9-11.1 19.2-19.8 19.2-19.8 22.3 37.5-10.2 69.6-10.2 69.6s-41.7-18.5-34.1-61.5c0.1-0.1 18.5 2.3 25.1 11.7z"/>
					<path d="m725 476.2c11.5-0.9 25 11.6 25 11.6-28.1 33.4-69 13.3-69 13.3s3.8-45.5 46.9-52.4c0 0 3.9 18.1-2.9 27.5z"/>
					<path d="m632.3 497.1c-9.5-6.5-12.2-24.8-12.2-24.8 42.9-8.4 62.1 33 62.1 33s-31.5 33-69.4 11.3c0 0 8.4-16.5 19.5-19.5z"/>
				</g>
				
					<path d="m1036 118.8c-0.6-5.2 5-11.4 5-11.4 15.4 12.3 6.8 31 6.8 31s-20.6-1.1-24.2-20.5c0 0 8.1-2 12.4 0.9z" fill="#C62C44"/>
					<path d="m1063.7 115.2c4.2-3.1 12.4-1.4 12.4-1.4-3 19.5-23.5 21.3-23.5 21.3s-9.2-18.4 5.8-31.2c-0.1 0 5.7 6.1 5.3 11.3z" fill="#C62C44"/><g fill="#E93651">
					<path d="m1049.8 121.7c2.5-4.5 10.7-6.4 10.7-6.4 5.4 19-12.5 29.2-12.5 29.2s-16.1-12.9-7.7-30.8c0-0.1 7.7 3.1 9.5 8z"/>
					<path d="m1072.3 138.9c5.1 0.9 9.6 8 9.6 8-16.1 11.3-31.7-2.2-31.7-2.2s6.9-19.4 26.5-17.4c0 0-0.4 8.4-4.4 11.6z"/>
					<path d="m1029.4 137.3c-3.4-3.9-2.4-12.2-2.4-12.2 19.7 1.3 23.3 21.6 23.3 21.6s-17.6 10.8-31.6-3.1c-0.1 0 5.5-6.2 10.7-6.3z"/>
				</g>
				<g fill="#fff">
					<path d="m669 511.9c6.1-6.7 20.7-6.6 20.7-6.6 1.6 34.3-32.8 44.5-32.8 44.5s-22.1-28.3-0.9-55.3c0 0 11.9 8.4 13 17.4z"/>
					<path d="m699.5 552.1c8.3 3.6 13.1 17.4 13.1 17.4-31.9 12.8-52.8-16.4-52.8-16.4s19.4-30.2 51.9-19c0 0-4.1 14-12.2 18z"/>
					<path d="m674.6 595.4c-0.4 9-11.7 18.3-11.7 18.3-23.2-25.4-3.2-55.2-3.2-55.2s35.1 7.6 36 42c0 0-14.5 1-21.1-5.1z"/>
					<path d="m623.2 581.7c-8.7 2.3-21-5.7-21-5.7 17.3-29.7 51.7-19.6 51.7-19.6s3.2 35.8-29.3 46.9c0 0.1-5.4-13.4-1.4-21.6z"/>
					<path d="m618.3 530c-5.1-7.5-1.7-21.7-1.7-21.7 33.8 6.3 35.8 42.2 35.8 42.2s-32.6 15-54-11.9c-0.1 0 10.9-9.6 19.9-8.6z"/>
					</g><path d="m654.8 544.5s-6.5-1.4-9.1 7.6 5 13 10.8 13c5.7-0.1 17.7-14.7-1.7-20.6z" fill="#3D2622"/>
				
				<g fill="#E93651">
					<path d="m595.2 549.6c4.3-14.7 26.5-25.6 26.5-25.6 28.2 51-16.6 92.3-16.6 92.3s-54.8-26.5-42.7-83.5c0 0 24.4 4 32.8 16.8z"/>
					<path d="m671.8 588c15.3-0.8 32.9 16.6 32.9 16.6-38.9 43.4-92.6 14.7-92.6 14.7s7-60.5 64.8-67.8c0 0 4.3 24.4-5.1 36.5z"/>
					<path d="m666.3 672.5c6.1 14.1-4 36.6-4 36.6-54.3-21.3-46.3-81.6-46.3-81.6s59.1-14.7 86.2 36.9c0 0-21.3 12.6-35.9 8.1z"/>
					<path d="m577.8 690.3c-11.6 10-36.2 7.1-36.2 7.1 4.1-58.1 64.1-68.5 64.1-68.5s31.7 52-9.5 93.3c0 0-18.3-16.6-18.4-31.9z"/>
					<path d="m531.6 615.2c-13.3-7.6-18.8-31.7-18.8-31.7 56.1-15.7 86 37.4 86 37.4s-38.4 47.3-91.1 22.4c0 0 9.5-22.9 23.9-28.1z"/>
					</g><path d="m598 609.9s-11 2.7-8.2 18.3 17.4 16.1 26.1 11.7 16-35.5-17.9-30z" fill="#3D2622"/>
				
				<g fill="#E93651">
					<path d="m951.3 480.6c1.9-6.6 11.8-11.4 11.8-11.4 12.6 22.8-7.4 41.3-7.4 41.3s-24.5-11.8-19.1-37.3c0-0.1 10.9 1.7 14.7 7.4z"/>
					<path d="m985.5 497.8c6.8-0.3 14.7 7.4 14.7 7.4-17.4 19.4-41.4 6.6-41.4 6.6s3.1-27 29-30.3c-0.1-0.1 1.9 10.8-2.3 16.3z"/>
					<path d="m983 535.5c2.7 6.3-1.8 16.4-1.8 16.4-24.3-9.5-20.7-36.5-20.7-36.5s26.4-6.5 38.5 16.5c0.1 0-9.5 5.6-16 3.6z"/>
					<path d="m943.5 543.5c-5.2 4.5-16.2 3.2-16.2 3.2 1.8-26 28.6-30.6 28.6-30.6s14.1 23.2-4.2 41.7c0-0.1-8.2-7.5-8.2-14.3z"/>
					<path d="m922.8 509.9c-6-3.4-8.4-14.2-8.4-14.2 25.1-7 38.4 16.7 38.4 16.7s-17.2 21.1-40.7 10c0 0.1 4.3-10.1 10.7-12.5z"/>
					</g><path d="m952.5 507.6s-4.9 1.2-3.6 8.2 7.8 7.2 11.7 5.2c3.8-2 7-15.9-8.1-13.4z" fill="#3D2622"/>
				
				<g fill="#E93651">
					<path d="m945.5 193.2c2.3-7.8 14-13.5 14-13.5 14.8 26.9-8.7 48.6-8.7 48.6s-28.9-13.9-22.5-44c-0.1 0 12.8 2.1 17.2 8.9z"/>
					<path d="m985.8 213.4c8.1-0.4 17.3 8.8 17.3 8.8-20.5 22.8-48.8 7.7-48.8 7.7s3.7-31.9 34.1-35.7c0.1 0 2.3 12.8-2.6 19.2z"/>
					<path d="m982.9 257.9c3.2 7.4-2.1 19.3-2.1 19.3-28.6-11.2-24.4-43-24.4-43s31.1-7.7 45.4 19.4c0 0-11.2 6.6-18.9 4.3z"/>
					<path d="m936.3 267.3c-6.1 5.3-19 3.7-19 3.7 2.1-30.6 33.7-36.1 33.7-36.1s16.7 27.4-5 49.2c0 0-9.7-8.8-9.7-16.8z"/>
					<path d="m912 227.7c-7-4-9.9-16.7-9.9-16.7 29.6-8.3 45.3 19.7 45.3 19.7s-20.2 24.9-48 11.8c0 0 5-12 12.6-14.8z"/>
					</g><path d="m947 224.9s-5.8 1.4-4.3 9.6 9.2 8.5 13.7 6.1 8.4-18.6-9.4-15.7z" fill="#3D2622"/>
				
				<g fill="#E93651">
					<path d="m1101.3 387.4c2.2-7.4 13.2-12.8 13.2-12.8 14.1 25.5-8.3 46.2-8.3 46.2s-27.4-13.2-21.4-41.7c0.1-0.1 12.3 1.9 16.5 8.3z"/>
					<path d="m1139.6 406.6c7.7-0.4 16.4 8.3 16.4 8.3-19.5 21.7-46.3 7.3-46.3 7.3s3.5-30.2 32.4-33.9c0 0 2.1 12.2-2.5 18.3z"/>
					<path d="m1136.8 448.8c3 7-2 18.3-2 18.3-27.1-10.6-23.1-40.8-23.1-40.8s29.5-7.3 43.1 18.5c0-0.1-10.7 6.2-18 4z"/>
					<path d="m1092.6 457.7c-5.8 5-18.1 3.5-18.1 3.5 2-29.1 32-34.3 32-34.3s15.8 26-4.7 46.6c0 0.1-9.2-8.2-9.2-15.8z"/>
					<path d="m1069.5 420.2c-6.7-3.8-9.4-15.8-9.4-15.8 28.1-7.8 43 18.7 43 18.7s-19.2 23.6-45.5 11.2c0-0.1 4.7-11.5 11.9-14.1z"/>
					</g><path d="m1102.7 417.5s-5.5 1.3-4.1 9.1 8.7 8 13 5.8 8-17.7-8.9-14.9z" fill="#3D2622"/>
				
				<g fill="#E93651">
					<path d="m1176.2 124.3c2.2-7.4 13.2-12.8 13.2-12.8 14.1 25.5-8.3 46.2-8.3 46.2s-27.4-13.2-21.4-41.7c0.1-0.1 12.3 1.9 16.5 8.3z"/>
					<path d="m1214.5 143.5c7.7-0.4 16.4 8.3 16.4 8.3-19.5 21.7-46.3 7.3-46.3 7.3s3.5-30.2 32.4-33.9c0 0 2.2 12.2-2.5 18.3z"/>
					<path d="m1211.7 185.7c3 7-2 18.3-2 18.3-27.1-10.6-23.1-40.8-23.1-40.8s29.5-7.3 43.1 18.5c0 0-10.7 6.2-18 4z"/>
					<path d="m1167.5 194.6c-5.8 5-18.1 3.5-18.1 3.5 2-29.1 32-34.3 32-34.3s15.8 26-4.7 46.6c0 0.1-9.2-8.2-9.2-15.8z"/>
					<path d="m1144.4 157.1c-6.7-3.8-9.4-15.8-9.4-15.8 28.1-7.8 43 18.7 43 18.7s-19.2 23.6-45.5 11.2c0-0.1 4.7-11.5 11.9-14.1z"/>
					</g><path d="m1177.6 154.4s-5.5 1.3-4.1 9.1 8.7 8 13 5.8c4.4-2.1 8-17.7-8.9-14.9z" fill="#3D2622"/>
				
				
					<path d="m821.6 706.7c-2.1 9.3-15.4 16.9-15.4 16.9-19.5-30.5 6.6-58 6.6-58s35.1 14.3 29.9 50.1c0 0.1-15.3-1.4-21.1-9z" fill="#EDE6DB"/>
					<path d="m771.4 696.6c-9.1 2.8-22.4-5-22.4-5 16.9-32.1 53.6-23 53.6-23s5 37.5-28.7 50.8c0-0.1-6.3-14.1-2.5-22.8z" fill="#EDE6DB"/><g fill="#fff">
					<path d="m799.3 693.5c-7.1 6.4-22.4 4.8-22.4 4.8 1.9-36.2 39.1-43.3 39.1-43.3s20.2 32-4.9 58.1c0 0.1-11.6-10-11.8-19.6z"/>
					<path d="m770.6 650.1c-8.3-4.6-11.9-19.6-11.9-19.6 34.8-10.1 53.7 22.7 53.7 22.7s-23.6 29.6-56.5 14.5c0 0 5.8-14.2 14.7-17.6z"/>
					<path d="m844.2 678.5c3.6 8.8-3 22.7-3 22.7-33.4-14-27.5-51.4-27.5-51.4s37-8.2 53.1 24.2c-0.1 0.1-13.5 7.6-22.6 4.5z"/>
				</g>
				
					<path d="m943.1 321.3c-5.9 3.9-16.9 1.2-16.9 1.2 5.2-26.3 33.2-27.6 33.2-27.6s11.5 25.6-9.7 42.1c0-0.1-7.4-8.7-6.6-15.7z" fill="#EDE6DB"/>
					<path d="m921.4 290.2c-6.3-3.2-9.4-14.2-9.4-14.2 25.5-8.5 40.5 15.2 40.5 15.2s-16.5 22.7-41.4 12.5c0-0.1 3.8-10.8 10.3-13.5z" fill="#EDE6DB"/><g fill="#fff">
					<path d="m937.9 302.8c-7.1-0.2-14.4-8.9-14.4-8.9 19.6-18.4 43.1-3.1 43.1-3.1s-5.6 27.5-32.4 28.6c-0.1 0-1.1-11.4 3.7-16.6z"/>
					<path d="m944.7 264.9c-2.1-6.7 3.7-16.6 3.7-16.6 23.8 12.4 17.1 39.7 17.1 39.7s-27.8 3.8-37.7-21.2c0.1 0 10.5-4.7 16.9-1.9z"/>
					<path d="m969.6 317.8c-2.6 6.6-13.3 10.6-13.3 10.6-10.7-24.6 11.6-41.6 11.6-41.6s24 14.5 16 40.1c0 0-11-2.9-14.3-9.1z"/>
				</g>
				
					<path d="m1181.4 336.4c5.4 4.6 5.8 16 5.8 16-26.8 2.2-35.7-24.4-35.7-24.4s21.5-18 43.2-2.2c0-0.1-6.3 9.4-13.3 10.6z" fill="#EDE6DB"/>
					<path d="m1157.4 365.7c-1.3 6.9-11 12.9-11 12.9-15.2-22.1 3.5-43.1 3.5-43.1s26.3 9.7 23.3 36.4c0 0.1-11.4-0.6-15.8-6.2z" fill="#EDE6DB"/><g fill="#fff">
					<path d="m1165.1 346.4c1.7 6.9-4.6 16.3-4.6 16.3-23-13.8-14.8-40.6-14.8-40.6s28-2.2 36.4 23.3c-0.1 0.1-10.7 4.2-17 1z"/>
					<path d="m1126.7 350.2c-5.9 3.9-16.9 1-16.9 1 5.4-26.3 33.5-27.3 33.5-27.3s11.2 25.7-10.1 42c0 0-7.4-8.7-6.5-15.7z"/>
					<path d="m1170.8 311.8c7 0.7 13.8 9.9 13.8 9.9-20.7 17-43.2 0.2-43.2 0.2s7.4-27.1 34.2-26.4c0 0.1 0.3 11.5-4.8 16.3z"/>
				</g>
				
					<path d="m791.8 403.4c-4.2-0.1-8.6-5.2-8.6-5.2 11.6-11 25.6-2 25.6-2s-3.2 16.3-19.1 17c0 0-0.7-6.7 2.1-9.8z" fill="#C62C44"/>
					<path d="m792 380.9c-2-3.7 0.3-10.1 0.3-10.1 15.2 4.6 14.4 21.2 14.4 21.2s-15.8 5.3-24.3-8.2c0 0 5.5-3.8 9.6-2.9z" fill="#C62C44"/><g fill="#E93651">
					<path d="m795.7 392.7c-3.3-2.5-3.9-9.3-3.9-9.3 15.8-2.2 21.9 13.3 21.9 13.3s-12.1 11.4-25.5 2.7c0 0 3.4-5.9 7.5-6.7z"/>
					<path d="m812 376.7c1.3-4 7.5-6.8 7.5-6.8 7.2 14.2-5.3 25.1-5.3 25.1s-14.7-7.7-10.9-23.2c-0.1 0 6.5 1.3 8.7 4.9z"/>
					<path d="m805.9 410.8c-3.5 2.3-10.1 0.6-10.1 0.6 3.3-15.6 19.9-16.2 19.9-16.2s6.6 15.3-6 24.9c0 0-4.4-5.2-3.8-9.3z"/>
				</g>
				
					<path d="m1262.5 277.7c2.1 3.6 0.1 10.1 0.1 10.1-15.4-4.1-15.1-20.7-15.1-20.7s15.6-5.8 24.6 7.3c-0.1 0-5.5 4.1-9.6 3.3z" fill="#C62C44"/>
					<path d="m1243.3 289.4c-2.1 3.6-8.7 5-8.7 5-4.2-15.4 10.4-23.4 10.4-23.4s12.8 10.6 5.8 25c0.1 0-6.2-2.7-7.5-6.6z" fill="#C62C44"/><g fill="#E93651">
					<path d="m1251.4 280.1c-0.4 4.2-5.8 8.2-5.8 8.2-10.1-12.3-0.2-25.6-0.2-25.6s16.1 4.3 15.7 20.3c-0.1-0.1-6.8 0.1-9.7-2.9z"/>
					<path d="m1229.2 274.6c-4.1 1-9.7-2.8-9.7-2.8 8.3-13.6 24.1-8.6 24.1-8.6s1.2 16.6-14 21.5c0.1 0-2.3-6.4-0.4-10.1z"/>
					<path d="m1261.4 261.9c3.8 1.8 5.8 8.3 5.8 8.3-15 5.4-24.2-8.4-24.2-8.4s9.5-13.7 24.4-8c0 0-2.1 6.4-6 8.1z"/>
				</g>
				
					<path d="m1074.5 288.4c1.6 5-2.6 12.3-2.6 12.3-17.7-9-13-29.2-13-29.2s20.5-3 28 15.3c0 0-7.6 3.6-12.4 1.6z" fill="#C62C44"/>
					<path d="m1048 297.6c-3.5 3.9-11.9 3.9-11.9 3.9-1-19.8 18.9-25.8 18.9-25.8s12.8 16.3 0.6 32c-0.1-0.1-7-5-7.6-10.1z" fill="#C62C44"/><g fill="#E93651">
					<path d="m1060.3 288.4c-1.6 5-9.2 8.5-9.2 8.5-9.2-17.6 6.4-31.3 6.4-31.3s18.5 9.5 13.9 28.8c-0.1-0.1-8.4-1.6-11.1-6z"/>
					<path d="m1034.7 275.9c-5.2 0.1-11.1-5.9-11.1-5.9 13.6-14.4 31.7-4.2 31.7-4.2s-2.9 20.5-22.6 22.6c-0.1-0.1-1.3-8.5 2-12.5z"/>
					<path d="m1077.3 268.8c4.1 3.2 4.9 11.6 4.9 11.6-19.7 2.7-27.3-16.6-27.3-16.6s15.1-14.2 31.8-3.3c0-0.1-4.3 7.2-9.4 8.3z"/>
				</g>
				<g fill="#fff">
					<path d="m1134.2 142.9c4.2-4.6 14.3-4.6 14.3-4.6 1.1 23.7-22.7 30.8-22.7 30.8s-15.3-19.6-0.6-38.3c0 0.1 8.3 5.9 9 12.1z"/>
					<path d="m1155.3 170.8c5.7 2.5 9 12 9 12-22.1 8.9-36.6-11.3-36.6-11.3s13.5-20.9 35.9-13.1c0.2-0.1-2.7 9.6-8.3 12.4z"/>
					<path d="m1138.1 200.7c-0.3 6.2-8.1 12.7-8.1 12.7-16-17.6-2.2-38.2-2.2-38.2s24.3 5.3 24.9 29c0 0-10.1 0.8-14.6-3.5z"/>
					<path d="m1102.5 191.2c-6.1 1.6-14.5-3.9-14.5-3.9 12-20.5 35.8-13.5 35.8-13.5s2.2 24.7-20.3 32.5c0-0.1-3.7-9.4-1-15.1z"/>
					<path d="m1099.1 155.5c-3.5-5.2-1.2-15-1.2-15 23.4 4.4 24.8 29.2 24.8 29.2s-22.6 10.4-37.4-8.2c0-0.1 7.6-6.7 13.8-6z"/>
					</g><path d="m1124.4 165.5s-4.5-1-6.3 5.2 3.5 9 7.4 9 12.3-10.1-1.1-14.2z" fill="#3D2622"/>
				<g fill="#E93651">
				<path d="m870.9 376.4c-1.2-4.2 2.5-10.1 2.5-10.1 14.5 8 10 24.6 10 24.6s-17.2 1.9-22.9-13.6c0 0.1 6.5-2.7 10.4-0.9z"/>
				<path d="m1275.8 167.2c-1.4-4.1 2-10.2 2-10.2 14.8 7.3 11.1 24.2 11.1 24.2s-17 2.7-23.5-12.5c0-0.1 6.3-3.1 10.4-1.5z"/>
				<path d="m1071 338.7c-0.3 2.5-3.6 4.7-3.6 4.7-5.8-7.4 0.3-15.1 0.3-15.1s9.4 2.9 8.9 12.3c0-0.1-4-0.1-5.6-1.9z"/>
				<path d="m727.3 597.2c-1.5 2-5.5 2.3-5.5 2.3-1.2-9.3 8-12.9 8-12.9s6.7 7.2 1.5 15.1c-0.1 0-3.5-2.1-4-4.5z"/></g><g fill="#fff">
				<path d="m860.7 436.5c-0.3 2.5-3.6 4.7-3.6 4.7-5.8-7.4 0.3-15.1 0.3-15.1s9.4 2.9 8.9 12.3c0.1 0-3.9-0.1-5.6-1.9z"/>
				<path d="m1071.4 215.3c-2.4 0.7-5.8-1.4-5.8-1.4 4.5-8.2 14-5.7 14-5.7s1.1 9.8-7.7 13c0 0-1.5-3.7-0.5-5.9z"/>
				<path d="m847.6 515.8c-3.7-2.4-4.8-9.3-4.8-9.3 16.1-3.5 23.8 11.9 23.8 11.9s-11.6 12.8-26.1 4.9c-0.1 0.1 2.9-6.2 7.1-7.5z"/>
			</g>
			
				<path d="m75.1 890.7c-0.1-0.1-0.2-0.2-0.3-0.2-5.4-12-11.3-28.4-10.9-41.6 0.8-23.7 2.5-52.5 2.5-52.5s-7.9 35.9-6.4 54.2c1.6 18.3-2.7 24.3-2.7 24.3l0.4 1c-48.5-41-101.7-80.2-101.7-80.2s122.8 95.5 131.5 131.1c1.8 7.4 3.2 15.2 4.4 23.2-11-9.4-28.1-23.7-33.5-26.8-8.3-4.6-109.9-39.2-109.9-39.2s102.4 42.4 107.3 46.3c3.3 2.6 24.7 24.2 38.6 38.2 3.3 25 6.9 51.2 18.5 75.2 3 6.1 5.7 11.8 8.5 17 3.2-1.6 6.3-3.3 9.5-4.9-24.5-43.3-13-127.4-55.8-165.1z" fill="#3D2622"/>
				
					<path d="m48.4 771.2c0.3-7.5 9.5-15.3 9.5-15.3 19.5 20.8 3.3 45.7 3.3 45.7s-29.2-5.9-30.3-34.4c-0.1 0 12-1.1 17.5 4z" fill="#EDE6DB"/>
					<path d="m88.7 771.7c6.6-3.5 18 0.6 18 0.6-8.4 27.2-38.1 25.6-38.1 25.6s-9.3-28.3 14.8-43.4c0 0 6.9 9.9 5.3 17.2z" fill="#EDE6DB"/><g fill="#fff">
					<path d="m67.5 778.1c4.6-5.9 16.6-7 16.6-7 3.8 28.2-23.9 39.1-23.9 39.1s-20.3-21.8-4.6-45.6c0 0.1 10.4 6.2 11.9 13.5z"/>
					<path d="m96 807.5c7.1 2.4 12 13.4 12 13.4-25.4 12.8-44.8-9.8-44.8-9.8s13.9-26.3 41.6-19.4c0 0-2.4 11.9-8.8 15.8z"/>
					<path d="m35 796.2c-4-6.3-0.9-18-0.9-18 27.9 6 28.7 35.7 28.7 35.7s-27.4 11.7-44.5-11c0 0 9.3-7.7 16.7-6.7z"/>
				</g>
				<path d="m28.6 864.3c-2-1.5-2.4-5.4-2.4-5.4 9.3-1.5 13.1 7.6 13.1 7.6s-7 6.9-15 1.9c0-0.1 1.9-3.5 4.3-4.1z" fill="#fff"/>
				<path d="m98.1 890.3c4.2-1.1 10.1 2.7 10.1 2.7-8.3 14.3-24.9 9.4-24.9 9.4s-1.5-17.2 14.1-22.5c0 0 2.6 6.5 0.7 10.4z" fill="#E93651"/>
			
		</g>
	
</g>
</svg>
