<svg class='duck-hamburger' width="400" height="400" version="1.1" aria-labelledby="title-hamburger-menu" viewBox="0 0 105.8 105.8" xmlns="http://www.w3.org/2000/svg">
  <title id="title-hamburger-menu" lang="en">Hamburger Menu Icon</title>
  <path d="M75.7 8.5a21.6 21.6 0 00-21.4 21.9 22 22 0 008.2 17.2 86.5 86.5 0 00-21.8.5 32.3 32.3 0 00-18.5-15.5c-9 10-10.9 20.6-10.8 30 .1 11 3.3 19.5 7.8 26a74.8 74.8 0 0067.4 2.6A40.7 40.7 0 0091 45.5c3.7-4 6-9.2 6-15.1 0-12.1-9.6-22-21.3-22z" fill="#fff" stroke="#000" stroke-linejoin="round" stroke-width="5.41314"/>
  <path d="m33.9 57.7h41.8v4.6h-41.8zm0 11.6h41.8v4.6h-41.8zm0 11.6h41.8v4.6h-41.8z"/>
  <path class='duck-hamburger__sunglasses' d="m82.343817 36.651813c0.02733-0.03343 0.582956-0.100285 1.238783-0.133713 0.646718-0.03343 1.202349-0.08357 1.229674-0.125357 0.02733-0.03343 0.546523-0.09193 1.156806-0.125358 0.619391-0.03343 1.156805-0.09193 1.211457-0.125357 0.04554-0.03343 0.464544-0.08357 0.910871-0.108642 0.810674-0.05014 0.847108-0.06686 2.45024-0.802283 1.748871-0.802284 1.812631-0.852426 1.931045-1.571139 0.02733-0.225643 0.09108-0.43457 0.127521-0.484713 0.04554-0.04178 0.100196-0.267428 0.136631-0.501427 0.03643-0.225643 0.100196-0.451285 0.136631-0.501428 0.04554-0.04179 0.100196-0.267427 0.145738-0.501426 0.08198-0.518142 0.191283-0.618428 0.737806-0.676928 0.236826-0.02507 0.528304-0.09193 0.646718-0.142071 0.191282-0.08357 0.245935-0.0585 0.510087 0.208929 13.191485-24.745292-4.078263 0.442294-24.275555-7.345914-0.07287-0.05014-0.337021-0.117-0.582956-0.150428-0.255044-0.03343-0.500979-0.09193-0.546523-0.125357-0.05465-0.04179-0.300587-0.09193-0.546522-0.125357-0.255044-0.03343-0.500978-0.09193-0.546522-0.125357-0.05465-0.04178-0.291478-0.09193-0.537413-0.125357-0.245936-0.03343-0.555631-0.116999-0.683153-0.175499-0.127522-0.06686-0.300587-0.117-0.382566-0.117-0.127521 0-0.510087-0.142071-0.901761-0.325927-0.08198-0.04178-0.28237-0.100286-0.455435-0.133714-0.173065-0.03343-0.373457-0.100286-0.437218-0.150428-0.163956-0.117001-1.348088-0.158786-2.38648-0.08357l-0.865326 0.06686-0.09109 0.417856c-0.05465 0.233999-0.118412 0.459641-0.154847 0.501427-0.02734 0.05014-0.08198 0.300857-0.118413 0.568284-0.03643 0.259071-0.100196 0.501428-0.14574 0.526499-0.109304 0.0585-0.100195 1.679782 0.0092 1.746638 0.04554 0.02507 0.28237 0.06686 0.519196 0.100285 0.346131 0.03343 0.528305 0 0.84711-0.150427 0.473652-0.217286 0.983739-0.543214 1.184131-0.752141 0.07287-0.07521 0.318804-0.158786 0.537413-0.192214l0.391674-0.0585 1.894611 1.303711 1.894609 1.303711 1.320762 1.604568c0.865327 1.052996 2.149654 2.440279 3.725459 4.028132 2.432024 2.456993 2.705284 2.69935 3.44309 3.058706 0.227717 0.108642 0.437218 0.233999 0.464543 0.267427 0.2095 0.267428 0.582958 0.309214 2.687068 0.309214 1.165913 0 2.140544-0.03343 2.167871-0.07521z"/>
</svg>
