<svg width="700" height="700" version="1.1" xmlns="http://www.w3.org/2000/svg">
  <g transform="matrix(6.0225 0 0 6.7012 -2224 -2056.5)" stroke="#000" stroke-linejoin="round">
    <path d="M470.2 326.7c-4.9 0-8.8 4-8.8 8.9V346c2.1 1 4.4 1.6 6.8 1.6 8.9 0 16-7.6 16-16.9 0-1.4-.2-2.7-.5-4h-13.6z" fill="#fff" stroke-width="4"/>
    <path d="M443.5 309.9a24 24 0 00-23.6 24.3c0 7.7 3.5 14.6 9 19.1a107.6 107.6 0 00-24.1.6 35.6 35.6 0 00-20.4-17.2 46.2 46.2 0 00-12 33.3 50.8 50.8 0 008.6 28.9 83 83 0 0074.7 2.9 45 45 0 004.9-50.7 24.5 24.5 0 006.6-16.8 24 24 0 00-23.6-24.3z" fill="#00c7eb" stroke-width="6"/>
    <circle transform="matrix(1.6225 0 0 1.5047 383.4 305.5)" cx="40.7" cy="14.6" r="2.5" fill="#050505" stroke-width="2"/>
  </g>
  <path d="m284.57 664.76c-47.218-3.2452-94.278-14.281-138.75-32.538-15.615-6.4103-42.056-19.411-54.599-26.847-7.9281-4.6998-8.3709-5.2337-15.133-18.249-26.453-50.912-39.007-106.54-39.03-172.93-0.014024-40.54 5.5992-75.373 17.915-111.18 6.0614-17.62 21.947-49.616 32.608-65.675l8.8089-13.27 4.5857 1.9052c5.8374 2.4252 20.05 10.747 28.042 16.42 25.827 18.331 50.554 47.046 64.567 74.982 2.9037 5.7884 6.952 11.687 9.6418 14.049 4.6261 4.0618 4.6592 4.0693 14.597 3.3326 5.478-0.40613 17.182-1.5803 26.009-2.6092 24.911-2.9036 65.811-3.7573 94.086-1.9639 22.092 1.4012 25.033 1.3597 28.44-0.40182 7.8315-4.0498 12.242-13.249 10.839-22.606-0.71103-4.7415-2.2356-7.0861-10.021-15.411-27.369-29.266-41.257-61.716-43.279-101.12-3.5216-68.659 35.697-128.71 95.243-145.83 8.2397-2.3698 12.639-2.8245 26.543-2.7436 19.39 0.11276 31.367 2.7089 47.678 10.335 31.467 14.713 56.301 42.699 68.816 77.549 11.043 30.752 11.595 70.53 1.4174 102.14-4.4815 13.919-14.193 32.99-22.204 43.601-8.9169 11.811-9.5626 13.142-9.6649 19.923-0.0659 4.3704 1.4655 9.2255 6.4376 20.409 12.241 27.534 19.845 54.15 24.341 85.203 2.597 17.936 2.9599 59.69 0.67071 77.16-6.3126 48.176-21.693 90.911-46.529 129.28l-7.3668 11.382-12.353 5.7472c-65.008 30.244-142.23 44.773-212.35 39.953zm212.64-494.21c16.571-8.6012 24.154-28.299 17.59-45.688-8.9976-23.835-38.923-30.138-56.601-11.922-17.641 18.177-10.557 50.011 13.091 58.831 6.0051 2.2399 20.576 1.5536 25.921-1.2208z" fill="none" stroke-width="0"/>
</svg>
