<svg width="400" height="600" aria-labelledby="title-duck-settings" version="1.1" viewBox="0 0 105.83333 158.75" xmlns="http://www.w3.org/2000/svg">
  <title id="title-duck-settings" lang="en">Settings</title>
  <g transform="translate(0,-138.24996)">
    <g transform="translate(120.13932 .4516971)">
      <g stroke="#000">
        <g transform="matrix(.90218677 0 0 .90218677 -453.03105 -75.170764)" stroke-linejoin="round">
          <path class="duck__beak" d="m470.19 326.66c-4.8905 0-8.791 3.9676-8.791 8.8582v10.402c2.0677 1.0216 4.4112 1.6106 6.8449 1.6106 8.8668 0 16.039-7.5726 16.039-16.911 0-1.3618-0.1808-2.6904-0.46975-3.9593h-13.623z" fill="#fff" stroke-width="4"/>
          <path class="duck__body" d="m443.48 309.89c-13.043 0-23.622 10.888-23.622 24.293 0 7.7316 3.5093 14.61 8.9924 19.058-3.2436-0.33783-6.5622-0.53686-9.9319-0.53686-4.8629 0-9.6052 0.45112-14.227 1.1408-3.8847-8.1268-12.934-15.106-20.41-17.24-10.119 11.161-12.098 22.857-12.002 33.284 0.11133 12.122 3.6185 21.56 8.5888 28.852 11.516 6.4736 25.352 10.267 40.197 10.267 12.481 0 24.223-2.6856 34.493-7.3818 6.567-7.8888 10.536-17.982 10.536-28.99 0-7.8577-2.0187-15.23-5.5699-21.676 4.0666-4.3627 6.5765-10.263 6.5765-16.777 0-13.405-10.579-24.293-23.622-24.293z" fill="#fff" stroke-width="5.99999"/>
          <ellipse transform="matrix(1.6225,0,0,1.5047,383.44,305.48)" cx="40.663132" cy="14.64191" rx="2.4668436" ry="2.5464191" fill="#050505" stroke-width="2"/>
        </g>
        <path class="duck__wing" d="m-92.275206 257.25539 7.228471 4.47074-7.336722 3.53354 7.414534 4.90628-6.854448 3.67636c21.734078 8.06733 33.8847 5.97652 32.720918-8.33217-2.347749-9.62604-17.000287-12.53855-33.172753-8.25475z" fill="#e70d0d" stroke-width="2.83885"/>
      </g>
    </g>
    <g transform="translate(-1.5875)">
      <g transform="matrix(.73677363 0 0 .73677363 -260.17461 164.79354)" fill="#f00">
        <path d="m435.25322 28.364682c-2.6687 0.620985-5.20414 1.505833-7.60769 2.604454l1.40231 6.026497c-3.18958 1.603502-6.05 3.650854-8.52157 6.089764l-5.25756-3.268489c-1.84489 1.955194-3.44638 4.118031-4.86742 6.394527-1.41139 2.27384-2.65125 4.667112-3.58439 7.18717l5.24783 3.270756c-1.09047 3.300009-1.66991 6.766532-1.70049 10.341485l-6.01919 1.400617c0.0696 2.637854-1.6533 8.598436 1.01443 7.977677l77.91835-18.130963c-0.62076-2.66773-1.49996-5.21064-2.60202-7.608259l-6.02894 1.402884c-1.6057-3.194203-3.64627-6.051073-6.09135-8.52839l3.2745-5.253829c-1.95958-1.846946-4.11891-3.449255-6.3989-4.864141-2.27034-1.417541-4.66217-2.651166-7.18071-3.591027l-3.27449 5.25383c-3.30413-1.094953-6.76483-1.67143-10.34441-1.699804l-1.40231-6.026497c-2.63192 0.07309-5.30728 0.400752-7.97598 1.021738z" fill="#f00" stroke="#2c2c2c" stroke-dashoffset="162" stroke-linecap="round" stroke-linejoin="round" stroke-width="2"/>
      </g>
      <g transform="matrix(.45149282 .13918832 -.13918832 .45149282 -85.123283 118.25203)" fill="#6c5353">
        <path d="m293.4-3.5158c-2.74 0-5.41 0.2872-8 0.8125v6.1875c-3.47 0.8389-6.72 2.1847-9.68 4l-4.38-4.375c-2.24 1.4862-4.29 3.2298-6.19 5.125-1.89 1.8948-3.64 3.9448-5.12 6.1878l4.37 4.375c-1.81 2.967-3.16 6.212-4 9.687h-6.18c-0.53 2.585-0.82 5.261-0.82 8s0.29 5.415 0.82 8h6.18c0.84 3.475 2.19 6.72 4 9.688l-4.37 4.375c1.48 2.242 3.23 4.292 5.12 6.187 1.9 1.895 3.95 3.639 6.19 5.125l4.38-4.375c2.96 1.816 6.21 3.161 9.68 4v6.188c2.59 0.525 5.26 0.812 8 0.812s5.42-0.287 8-0.812v-6.188c3.48-0.839 6.72-2.184 9.69-4l4.38 4.375c2.24-1.486 4.29-3.23 6.18-5.125 1.9-1.895 3.64-3.945 5.13-6.187l-4.38-4.375c1.82-2.968 3.16-6.213 4-9.688h6.19c0.53-2.585 0.81-5.261 0.81-8s-0.28-5.415-0.81-8h-6.19c-0.84-3.475-2.18-6.72-4-9.687l4.38-4.375c-1.49-2.243-3.23-4.293-5.13-6.1878-1.89-1.8952-3.94-3.6388-6.18-5.125l-4.38 4.375c-2.97-1.8153-6.21-3.1611-9.69-4v-6.1875c-2.58-0.5253-5.26-0.8125-8-0.8125zm0 20c11.04 0 20 8.96 20 20s-8.96 20-20 20-20-8.96-20-20 8.96-20 20-20z" fill="#6c5353" stroke="#2c2c2c" stroke-dashoffset="162" stroke-linecap="round" stroke-linejoin="round" stroke-width="2"/>
      </g>
      <path d="m36.649289 156.69343c-2.514787 0.86499-5.076409 2.07992-6.988763 3.94874-0.469364 1.29288 1.871894 2.54269 0.234222 3.53297-0.936341 0.88254-1.530727 2.90959-3.021786 1.84189-1.166288-0.65878-2.181703 0.26185-2.498442 1.36481-0.83875 2.07723-1.707131 4.37983-1.578911 6.61489 0.622316 0.84105 2.097419 0.60205 2.627146 1.40094-0.116662 1.23857 0.306124 2.52769 0.176644 3.72274-1.049254 0.54515-2.596858 1.43462-1.912864 2.86918 0.911383 2.25296 2.010249 4.53955 3.637737 6.35491 1.296475 0.24205 2.560205-1.97965 3.605279-0.41646 1.169289 0.94967 2.870661 1.73252 1.685803 3.38902-1.014092 1.72199 1.52378 2.08235 2.63537 2.60909 1.832648 0.54996 3.748773 1.38032 5.668277 1.1464 0.55595-1.53961 0.764826-3.35709 2.89165-2.87913 1.43015-0.48533 2.324185-0.0419 2.78911 1.32779 0.487165 1.42147 1.967323 0.86503 2.916668 0.31464 1.864225-1.03799 4.118846-1.80075 5.491978-3.47532 0.06638-1.25239-1.906274-2.41816-0.397795-3.40629 0.786653-0.83533 1.533718-2.60566 2.983258-1.86477 1.54785 0.96215 2.32976-0.32927 2.719326-1.71798 0.64191-1.98709 1.650428-4.08747 1.490254-6.1925-0.766204-1.15999-3.22337-0.45507-2.716398-2.29766 0.141975-0.96781-0.408482-2.12401-0.07016-2.99794 0.98201-0.45367 2.571847-1.17114 1.897415-2.52699-0.823124-2.40236-2.18959-4.60534-3.706329-6.62101-1.182449-0.25644-2.263787 1.87387-3.334409 0.58687-0.835862-0.89474-2.946866-1.52943-2.109671-2.92978 0.7162-1.10194 0.04557-2.37506-1.171571-2.67197-2.138594-0.69598-4.425815-1.95144-6.718484-1.50705-1.176032 0.65534-0.482323 2.98848-2.276386 2.57473-1.254648-0.0195-3.115018 0.88298-3.5023-0.91061-0.314498-0.53706-0.649355-1.43592-1.445866-1.18415zm-0.05978 1.89429c0.670485 1.17359 1.196784 3.04894 2.921564 2.09443 1.367506-0.46112 3.192056 0.11606 4.390389-0.84353 0.620728-0.68199 0.494777-2.55914 1.798185-1.96023 1.599163 0.35163 3.143899 0.84129 4.624759 1.56551-0.805841 1.56941-0.950204 3.17425 0.936071 3.96349 1.259372 0.98701 2.774604 2.8817 4.529321 1.69418 1.447006-0.77819 1.830669 1.44834 2.466717 2.23021 0.235319 0.79151 1.753345 2.34678 0.424543 2.8862-1.759431 0.23207-1.900365 1.60638-1.418224 3.0433 0.372577 1.30669-0.19816 3.06508 0.559902 4.15847 0.655146 0.40319 2.781687 0.0237 2.23897 1.2778-0.45182 1.66041-0.809812 3.40386-1.735657 4.87955-1.107386-0.30942-2.705667-1.03809-3.389915 0.36892-0.917981 1.29301-2.414207 2.37629-2.837157 3.88763 0.270367 0.93075 1.831313 2.15414 0.217073 2.6294-1.3557 0.80752-2.780757 1.87511-4.32782 2.10718-0.5321-0.92991-0.98105-2.41346-2.371412-2.01091-1.67666 0.19734-3.652214-0.1147-5.107774 0.62438-0.206395 1.83437-0.978382 2.70764-2.764141 1.80164-1.138533-0.33807-2.665858-0.64054-3.43698-1.40964 0.226387-1.22773 1.412659-2.84498-0.421949-3.39198-1.385965-0.70983-2.261877-2.35439-3.792657-2.69106-0.785456 0.0478-1.510656 0.85136-2.187347 0.86311-1.151062-1.49854-2.159528-3.24702-2.67463-5.00394 0.999835-0.7955 3.050521-1.0439 2.193799-2.77602-0.413258-1.4465-0.05342-3.02907-0.546071-4.42891-0.563678-0.78329-2.043286-0.48302-2.435135-1.29149 0.312596-1.84423 0.828782-3.67403 1.763611-5.30552 1.560414 0.85856 3.154718 0.98308 3.91421-0.92779 0.580866-1.21017 2.419357-2.04383 2.235125-3.51817-0.03623-0.66968-1.129541-1.33592-0.830225-1.96223 1.517183-1.1625 3.270873-1.9457 4.982347-2.69072z" stroke-linecap="round" stroke-linejoin="round" stroke-width="8.42571" style="paint-order:normal"/>
      <g transform="matrix(.33307869 .06172859 -.06172859 .33307869 -31.191371 123.16347)" fill="#6c5353">
        <path d="m293.4-3.5158c-2.74 0-5.41 0.2872-8 0.8125v6.1875c-3.47 0.8389-6.72 2.1847-9.68 4l-4.38-4.375c-2.24 1.4862-4.29 3.2298-6.19 5.125-1.89 1.8948-3.64 3.9448-5.12 6.1878l4.37 4.375c-1.81 2.967-3.16 6.212-4 9.687h-6.18c-0.53 2.585-0.82 5.261-0.82 8s0.29 5.415 0.82 8h6.18c0.84 3.475 2.19 6.72 4 9.688l-4.37 4.375c1.48 2.242 3.23 4.292 5.12 6.187 1.9 1.895 3.95 3.639 6.19 5.125l4.38-4.375c2.96 1.816 6.21 3.161 9.68 4v6.188c2.59 0.525 5.26 0.812 8 0.812s5.42-0.287 8-0.812v-6.188c3.48-0.839 6.72-2.184 9.69-4l4.38 4.375c2.24-1.486 4.29-3.23 6.18-5.125 1.9-1.895 3.64-3.945 5.13-6.187l-4.38-4.375c1.82-2.968 3.16-6.213 4-9.688h6.19c0.53-2.585 0.81-5.261 0.81-8s-0.28-5.415-0.81-8h-6.19c-0.84-3.475-2.18-6.72-4-9.687l4.38-4.375c-1.49-2.243-3.23-4.293-5.13-6.1878-1.89-1.8952-3.94-3.6388-6.18-5.125l-4.38 4.375c-2.97-1.8153-6.21-3.1611-9.69-4v-6.1875c-2.58-0.5253-5.26-0.8125-8-0.8125zm0 20c11.04 0 20 8.96 20 20s-8.96 20-20 20-20-8.96-20-20 8.96-20 20-20z" fill="#6c5353" stroke="#2c2c2c" stroke-dashoffset="162" stroke-linecap="round" stroke-linejoin="round" stroke-width="2"/>
      </g>
      <g stroke-linecap="round" stroke-linejoin="round">
        <path d="m58.718225 140.45388c-1.719353 0.82436-3.443077 1.90181-4.650231 3.39117-0.227178 0.95966 1.543774 1.65583 0.459469 2.49675-0.593745 0.70611-0.849149 2.19898-1.99951 1.56209-0.885191-0.37256-1.532107 0.36719-1.666311 1.17897-0.42528 1.54885-0.852995 3.26068-0.576533 4.84185 0.512877 0.54743 1.543634 0.25504 1.987077 0.78011 0.01952 0.89176 0.427407 1.77484 0.434181 2.63666-0.70211 0.47518-1.730619 1.23684-1.124651 2.20186 0.835705 1.52905 1.80772 3.0665 3.117179 4.22457 0.943389 0.065 1.659367-1.62197 2.533135-0.59528 0.911423 0.57949 2.187974 0.99609 1.481349 2.27398-0.579585 1.31038 1.257715 1.35681 2.09301 1.63987 1.350752 0.23987 2.78418 0.6725 4.131856 0.34691 0.268407-1.14255 0.266613-2.45424 1.820909-2.29003 0.978336-0.4641 1.651793-0.22234 2.096367 0.71461 0.464703 0.97199 1.472764 0.4531 2.103287-0.0176 1.241699-0.89368 2.784233-1.62367 3.623452-2.93003-0.05647-0.89744-1.557941-1.56428-0.565471-2.39297 0.491053-0.66008 0.876457-1.98278 1.970179-1.5752 1.182062 0.55702 1.631938-0.42756 1.794364-1.44878 0.292559-1.46837 0.836833-3.04778 0.548385-4.53369-0.641773-0.76266-2.333351-0.0571-2.124926-1.41137 0.02094-0.70101-0.46686-1.47885-0.298307-2.12928 0.661796-0.40444 1.734636-1.04712 1.141999-1.95687-0.785225-1.64276-1.940898-3.0985-3.188077-4.4084-0.863371-0.0847-1.457022 1.52208-2.326125 0.69415-0.669408-0.56798-2.225422-0.84513-1.745178-1.9118 0.418789-0.84411-0.16429-1.69527-1.055718-1.8059-1.58074-0.31852-3.313673-1.02318-4.909678-0.51677-0.783271 0.56415-0.09595 2.16832-1.407939 2.02227-0.895161 0.0901-2.145343 0.88687-2.569737-0.35843-0.268471-0.35643-0.581411-0.96885-1.127823-0.72356zm0.114343 1.35405c0.574729 0.78027 1.104901 2.07229 2.254205 1.24962 0.935725-0.44169 2.282965-0.18176 3.056917-0.96444 0.385582-0.53713 0.140386-1.86357 1.118271-1.54502 1.168038 0.11796 2.308742 0.33874 3.423389 0.73186-0.443908 1.18445-0.413784 2.33937 0.994984 2.74521 0.978673 0.59862 2.214754 1.82248 3.366076 0.83138 0.966083-0.67408 1.42376 0.87985 1.941516 1.38401 0.233158 0.54421 1.443115 1.52611 0.541428 2.02035-1.233829 0.31103-1.220355 1.30147-0.75795 2.2849 0.373587 0.89974 0.112773 2.19933 0.743226 2.91524 0.499989 0.23288 1.983053-0.21357 1.700424 0.72457-0.184242 1.21995-0.29478 2.49127-0.831917 3.61895-0.814302-0.12865-2.012942-0.5152-2.383705 0.54354-0.54667 0.99691-1.522534 1.89235-1.698559 3.00375 0.269651 0.64047 1.482684 1.38246 0.372408 1.85465-0.898625 0.68741-1.825103 1.56579-2.907682 1.85922-0.455986-0.61819-0.898617-1.63758-1.855475-1.23571-1.177745 0.27945-2.610571 0.22084-3.585983 0.86778 5e-3 1.32352-0.472505 2.0094-1.819356 1.51208-0.838856-0.14646-1.951656-0.23535-2.564553-0.71922 0.05953-0.89314 0.770414-2.14319-0.581486-2.38078-1.045871-0.39073-1.805916-1.48941-2.92401-1.60238-0.555444 0.0991-1.005352 0.73147-1.48631 0.79589-0.943909-0.9719-1.806967-2.13361-2.319356-3.3422 0.646178-0.64938 2.086081-0.99615 1.332449-2.15879-0.414142-0.99595-0.288963-2.15284-0.755781-3.10899-0.46633-0.51115-1.49522-0.17474-1.841263-0.71807 0.06986-1.33934 0.285906-2.68526 0.816538-3.92463 1.18243 0.4822 2.328194 0.43882 2.710806-0.985 0.313443-0.90998 1.55374-1.65601 1.300403-2.69076-0.08128-0.47393-0.915108-0.85785-0.753822-1.3287 0.984227-0.9536 2.168309-1.65666 3.325491-2.32903z" stroke-width="6.04116" style="paint-order:normal"/>
        <path d="m58.420728 141.51923c-0.915243 0.93401-2.851718 1.30866-3.053093 2.78642 0.0938 0.72914 0.962091 1.32929 0.243323 2.04287-0.70743 1.13797-1.442743 3.10517-3.167322 2.55129-1.278583 0.43232-1.023508 2.24142-1.277304 3.30965-0.845423 1.82182 2.035225 0.8999 1.954458 2.32709-0.02406 1.15558 1.334841 2.73641 0.133451 3.52983-1.156141 0.74227-0.518843 2.16943 0.25064 2.92898 0.499165 0.76388 1.334487 1.91861 2.354696 1.15366 1.371718-0.73695 2.532871 0.9689 3.708615 1.41713 0.699588 0.47561-0.428751 2.07168 0.782301 2.48474 1.147711 0.28023 2.507515 0.85113 3.644112 0.35897 0.493959-0.36244 0.533832-1.05168 0.692716-1.52532 1.248705-0.51087 2.721943-0.87489 4.033906-0.65614 0.427992 0.72119 1.283917 1.31105 2.067178 0.67103 0.893456-0.63338 2.230137-1.18225 2.572788-2.21015-0.423366-0.83966-0.995775-1.82607-0.114592-2.62394 0.653282-0.957 1.222609-2.42514 2.654594-2.15249 1.462073-0.28758 1.241503-2.23365 1.561375-3.35156 0.314615-1.05101-0.981951-1.4124-1.761832-1.43491-0.147214-1.4036-0.991109-2.88518-0.658199-4.28684 0.94604-0.24117 1.039305-1.30417 0.558783-2.03393-0.541517-0.8833-1.09093-2.17181-2.087668-2.45911-0.804053 0.50975-1.781422 0.83286-2.57155 0.11464-0.91289-0.61048-2.493445-1.01718-2.193035-2.44736-0.06952-1.6416-2.198336-1.40044-3.319161-1.74305-1.515935-0.42773-1.020324 1.90619-2.327457 2.01322-0.999308 0.16999-2.200582 0.79348-3.099152 0.54906-0.510212-0.38604-0.855756-1.49131-1.582571-1.31378zm4.03634 5.39776c4.003874-1.18387 8.703892 2.14203 8.555711 6.44949 0.148307 3.95574-3.716821 7.41841-7.632524 6.74879-4.164227-0.44057-7.11152-5.26228-5.387821-9.13702 0.788628-1.9207 2.439246-3.517 4.464634-4.06126z" fill="#ff0" stroke-width="6.99504" style="paint-order:normal"/>
        <path d="m35.948195 158.30142c-1.61235 0.70708-3.655557 1.30672-4.651658 2.82107 0.05339 1.21096 1.024222 2.54785-0.186878 3.59774-1.002282 0.95463-1.648118 3.1651-3.300942 2.94213-1.651545-1.14235-2.606476 0.13304-2.808362 1.80651-0.478028 1.34647-1.685957 3.79771 0.378693 4.45196 2.017085 0.25309 1.173739 2.67496 1.567597 4.11516 0.500053 1.40409-0.363477 2.31329-1.582223 2.73552-0.89351 1.46441 0.640282 3.18219 1.301482 4.47759 0.590952 1.35465 1.95614 1.72525 3.0934 0.79749 1.830104 0.24368 3.094694 2.06442 4.580635 3.04237 0.410179 0.83739-1.219271 2.55929 0.30632 3.15054 1.6317 0.61897 3.781085 2.09071 5.451409 0.89487 0.63142-0.66576 0.519797-1.99887 1.795482-1.77312 1.761295-0.0528 4.466245-1.29852 5.458547 0.86963 1.090606 1.76934 2.998954-0.32755 4.218371-0.87446 0.901255-0.54322 2.380758-1.40369 1.462285-2.61926-1.209432-1.37602 0.898125-2.54877 1.492181-3.65668 0.647235-1.20065 1.881866-1.87793 3.189007-1.26019 1.909511 0.5069 1.628385-2.3456 2.316948-3.53783 0.418755-1.01486 0.900665-2.64889-0.67622-2.88375-2.03777 8.6e-4 -1.354646-2.2621-1.673572-3.70289-0.145849-1.20664-0.427479-3.23108 1.350184-3.22067 1.21259-1.1406-0.336014-2.87044-0.783731-4.05521-0.514459-1.59214-2.249619-1.96592-3.69345-1.50846-1.676037-0.34475-3.191637-1.68726-4.227694-3.01116-0.191984-1.14544 0.683323-2.89735-0.981712-3.29193-1.542052-0.36943-3.844885-1.98981-5.141558-0.35231-0.297642 0.88646-0.78698 1.75938-1.853061 1.60575-1.60697 0.0343-4.309562 1.36056-5.075318-0.78806-0.20228-0.54173-0.739583-0.91876-1.326162-0.77235zm5.011105 7.96188c5.492241-0.96851 11.176856 4.01584 10.720058 9.67766-0.02636 5.45792-5.573382 9.92536-10.867035 8.89213-5.429012-0.62308-9.226018-6.60092-7.628828-11.79301 0.896835-3.58398 4.150536-6.28843 7.775805-6.77678z" fill="#0f0" stroke-width="9.7561" style="paint-order:normal"/>
        <path transform="matrix(.26458333 0 0 .26458333 0 138.24996)" d="m248.57092 172.37345c-9.52218 0.57991-19.04067 1.92836-28.20409 4.443-5.29634 2.80331-12.21207 3.43989-16.53408 7.69861-2.24367 5.79909 4.5843 11.45461 1.71117 17.06124-6.64861 3.7957-12.69431 8.49695-18.83305 13.04267-4.9665-2.28692-9.49867-8.18315-15.35511-7.19166-11.8599 10.76736-19.49802 25.46486-25.91692 39.96003-1.93789 4.88979 5.09661 6.67153 7.88968 9.13747 3.51641 1.6101 6.50265 3.4973 4.52309 7.59366-1.34822 6.25322-2.33506 12.88881-2.76888 19.09411-5.09844 2.36431-12.22494 1.31741-16.06417 5.84764-1.3988 7.65796-2.6332 15.87783-1.03581 23.57078 2.57222 6.64855 10.95836 4.15065 16.11359 2.91118 45.128-10.01768 90.24558-21.19168 135.41647-31.43123 24.72861-6.07877 49.7766-10.97352 74.27624-17.91919 5.38116-2.0253 1.41459-8.82242 0.59958-12.56772-2.35317-5.41659-2.91617-12.95767-8.38746-16.23429-5.18836-0.45918-10.70629 2.60313-15.49322 2.45392-3.96698-6.67831-8.5047-13.0117-13.50584-18.95431 2.35622-5.07384 7.67419-9.7671 7.3904-15.65491-9.77383-10.81701-23.00927-18.11356-36.11592-24.24117-2.93083-1.47446-7.51682-3.3747-9.26564 0.79333-2.5779 3.53835-5.01528 7.1849-7.23208 10.96096-7.73601-1.84287-15.55839-3.42639-23.5152-3.89899-1.94503-5.21106-1.31758-12.44304-5.73817-16.30334-1.29561-0.2622-2.63926-0.17996-3.95458-0.17179zm-1.35243 8.59968c2.23678 5.18984 1.25699 12.41524 6.00259 16.1147 9.42335 1.63789 19.12096 1.84415 28.33548 4.73942 5.86496 2.04633 7.79858-5.7711 10.56365-9.14656 1.22928-1.59003 2.09341-4.99076 4.54894-2.84347 9.93541 4.88972 19.78581 10.65966 28.0862 17.89326-2.29711 5.24173-9.28297 10.88138-6.32765 17.13197 7.19599 7.03397 11.88401 16.09825 17.81914 24.08785 5.37252 1.41917 10.94512-1.88226 16.4044-2.18781 1.65029 3.96179 2.95788 8.06985 4.00509 12.23087-70.19431 16.91493-140.63478 32.95238-210.95307 49.44055 0.35522-4.5004-0.39117-9.9141 2.00592-13.81574 4.85696-2.52038 11.81733-1.59329 15.47133-5.58154 0.76683-10.55752 2.97385-20.71162 4.93479-30.88202-0.45532-5.14074-7.12406-6.30445-10.3698-9.33231-2.92588-0.95995-2.89993-3.09488-1.26486-5.30532 5.02262-9.4731 10.27117-18.41121 17.50757-26.25545 5.22877 1.92175 9.67859 7.73045 15.56564 6.9306 7.53013-6.43342 15.50836-12.3126 24.08111-17.27345 4.53975-4.23912-0.31482-10.77342-0.39045-15.70031-1.34751-3.84967 4.85887-3.41824 7.46758-4.8894 8.85313-2.50526 17.48327-4.85613 26.5064-5.35584z" stroke-width="26.0735" style="paint-order:normal"/>
      </g>
    </g>
  </g>
</svg>
