<svg preserveAspectRatio="xMidYMid slice" enable-background="new 0 0 1400 980" version="1.1" viewBox="0 0 1400 980" xml:space="preserve" xmlns="http://www.w3.org/2000/svg">
<style type="text/css">
	.st0{fill:url(#SVGID_1_);}
	.st1{fill:url(#SVGID_2_);}
	.st2{fill:url(#SVGID_3_);}
	.st3{fill:#136268;}
	.st4{fill:#1E7772;}
	.st5{fill:#79C9C3;}
	.st6{fill:#248986;}
	.st7{fill:#86CEC7;}
	.st8{fill:#2C9999;}
	.st9{fill:#69BCB8;}
	.st10{fill:#3CA7AA;}
	.st11{fill:#62BCB3;}
	.st12{fill:#239FAF;}
	.st13{fill:#25A8C1;}
	.st14{fill:url(#SVGID_4_);}
	.st15{fill:url(#SVGID_5_);}
</style>
<g id="Background">
	<linearGradient id="SVGID_1_" x1="630.9304" x2="702.9304" y1="-150.8129" y2="517.1871" gradientUnits="userSpaceOnUse">
		<stop stop-color="#25A8C1" stop-opacity=".8" offset="0"/>
		<stop stop-color="#AAF2EB" offset="1"/>
	</linearGradient>
	<rect class="st0" width="1400" height="980"/>
</g>
<g id="Object">
	<linearGradient id="SVGID_2_" x1="305.8325" x2="311.8325" y1="192.9535" y2="110.9535" gradientUnits="userSpaceOnUse">
		<stop stop-color="#25A8C1" stop-opacity="0" offset="0"/>
		<stop stop-color="#38AFC5" stop-opacity=".04427457" offset=".04427457"/>
		<stop stop-color="#68C0D1" stop-opacity=".1722" offset=".1722"/>
		<stop stop-color="#92D0DB" stop-opacity=".3034" offset=".3034"/>
		<stop stop-color="#B5DCE3" stop-opacity=".4361" offset=".4361"/>
		<stop stop-color="#CFE6EA" stop-opacity=".5706" offset=".5706"/>
		<stop stop-color="#E2EDEE" stop-opacity=".7076" offset=".7076"/>
		<stop stop-color="#EDF1F1" stop-opacity=".8486" offset=".8486"/>
		<stop stop-color="#F1F2F2" offset="1"/>
	</linearGradient>
	<path class="st1" d="m241.7 104.7s-6.7-38 20.7-50.7 42.6 16 44.6 31.3c0 0 30-17.8 46.7-7.6s10.7 26.9 10.7 26.9 26-0.9 33.3 7.9 6 16.1 6 16.1 28.7 1.3 38 10 5.4 19.3 5.4 19.3 21.9 0 25.9 7.3 8 23.3-14.7 37.3-60 18-64.7 18-96.7 6.7-121.3 8.7c-24.7 2-92.7-22.7-95.3-23.3-2.7-0.7-38.7-22.7-38.7-36s20.1-25.3 20.1-25.3-10.1-13.3 5.9-24.7 36-7.5 36-7.5 6.7-16.4 18.7-17.7c12-1.4 22.7 10 22.7 10z"/>
	<linearGradient id="SVGID_3_" x1="828.4444" x2="835.2973" y1="228.0046" y2="134.3483" gradientUnits="userSpaceOnUse">
		<stop stop-color="#25A8C1" stop-opacity="0" offset="0"/>
		<stop stop-color="#38AFC5" stop-opacity=".04427457" offset=".04427457"/>
		<stop stop-color="#68C0D1" stop-opacity=".1722" offset=".1722"/>
		<stop stop-color="#92D0DB" stop-opacity=".3034" offset=".3034"/>
		<stop stop-color="#B5DCE3" stop-opacity=".4361" offset=".4361"/>
		<stop stop-color="#CFE6EA" stop-opacity=".5706" offset=".5706"/>
		<stop stop-color="#E2EDEE" stop-opacity=".7076" offset=".7076"/>
		<stop stop-color="#EDF1F1" stop-opacity=".8486" offset=".8486"/>
		<stop stop-color="#F1F2F2" offset="1"/>
	</linearGradient>
	<path class="st2" d="m733.8 126.4s-9.8-43.3 30.4-57.8c40.2-14.4 62.7 18.2 65.6 35.7 0 0 32.5-26 87.2-9.3 25.9 7.9 35.2 30.3 46 40.3s8.8 18.4 8.8 18.4 42.1 1.5 55.8 11.4 7.9 22 7.9 22 32.2 0 38.1 8.4 11.8 26.6-21.5 42.6-88.2 20.5-95 20.5-142 7.6-178.3 9.9c-36.2 2.3-136.1-25.8-140.1-26.6-3.9-0.8-56.8-25.8-56.8-41.1s29.6-28.9 29.6-28.9-14.9-15.2 8.6-28.1 52.9-8.5 52.9-8.5 9.8-18.9 27.4-20.4c17.7-1.5 33.4 11.5 33.4 11.5z"/>
	<path class="st3" d="m1400 560.7c-17.9-4.4-39.2-7.7-67.2-7.7-83.3 0-116.9 27.3-195.7 27.3s-84.6-24.3-147.3-24.3-126.6 24.3-176.3 24.3c-11.6 0-85.5-27.3-146-27.3-124.6 0-149.8 26.2-218.5 25.5-33.9-7.7-62.7-25.5-127.9-25.5-83.3 0-116.9 27.3-195.7 27.3-68.5 0-81.9-18.3-125.4-23.1v138.9c322.1 7.8 658.6 15.1 661.3 15.1 1.4 0 12.7-9.5 28.3-23.2 207.9 5.6 498.9 12.4 710.4 17.2v-144.5z"/>
	<path class="st4" d="m1400 588.7c-26.2 8.8-52.8 16.8-88.9 16.8-78.8 0-84.6-34.3-147.3-34.3s-126.6 34.3-176.3 34.3c-11.6 0-85.5-38.5-146-38.5-124.6 0-149.8 37-218.5 36-33.9-10.9-62.7-36-127.9-36-83.3 0-116.9 38.5-195.7 38.5s-84.6-34.3-147.3-34.3c-52.9 0-106.7 24.4-152.1 32v159.6c361.1 12.9 832.1 27.4 835.3 27.4 1.4 0 12.7-13.4 28.3-32.8 155.1 5.9 356.4 12.7 536.4 18.7v-187.4z"/>
	
		<path class="st5" d="m495.1 567c-26.6 0-48.1 3.9-67.6 9.3 14.7-1.9 29.2-3.6 43.6-4.2 7.2-0.3 14.4-0.4 21.7-0.3 3.6 0 7.2 0.2 10.8 0.3l5.4 0.3c1.8 0.1 3.6 0.2 5.4 0.4l5.4 0.5c1.8 0.2 3.6 0.5 5.3 0.6l2.7 0.3 2.7 0.4c1.8 0.3 3.5 0.5 5.3 0.8 7.1 1.2 14.1 2.8 21 4.6 7 1.8 13.9 4 20.9 6.2l10.5 3.5 5.3 1.7c1.8 0.5 3.5 1.1 5.3 1.6-25.8-11.6-54.3-26-103.7-26z"/>
		<path class="st5" d="m152.1 571.2c-16.1 0-32.3 2.3-48.3 5.6 13.7-0.7 27.2-1.7 40.5-1.5s26.5 1.4 39.1 4.5l4.7 1.3c1.6 0.4 3.1 1 4.7 1.5l2.3 0.7c0.8 0.3 1.6 0.6 2.3 0.8 1.5 0.6 3.1 1.1 4.7 1.7 6.2 2.3 12.5 5 18.9 7.4 12.8 5 26.5 8.5 40.3 9-45-8.6-58.5-31-109.2-31z"/>
		<path class="st5" d="m746.1 576.3 12.5-1.1 12.4-1c8.3-0.6 16.5-1.1 24.8-1.4s16.5-0.6 24.8-0.7l6.2-0.1h6.2c4.1 0 8.3-0.1 12.3 0.1 16.1 0.4 32.3 3 48.5 6.3s32.2 7.5 48.6 11.3c-29-10.6-67-22.7-100.8-22.7-40.9 0-71 4-95.5 9.3z"/>
		<path class="st5" d="m1254.8 597.6c-31.7-10.1-47.8-26.4-91-26.4-26.7 0-53.6 6.2-79.5 13.3 14.7-1.9 29.2-4.4 43.6-6.1s28.8-2.7 43-2.1c1.8 0.1 3.5 0.2 5.3 0.3s3.5 0.3 5.3 0.5 3.5 0.4 5.3 0.7l2.6 0.4c0.9 0.1 1.7 0.3 2.6 0.5 6.9 1.3 13.8 3.3 20.6 5.6s13.7 5 20.7 7.4c3.5 1.2 7.1 2.3 10.7 3.3 1.8 0.5 3.6 0.9 5.4 1.4s3.6 0.9 5.4 1.2z"/>
	
	<path class="st6" d="m1400 617.1c-13.3-3.8-28.6-6.3-46.6-6.3-83.3 0-116.9 49-195.7 49s-84.6-43.6-147.3-43.6-126.6 43.6-176.3 43.6c-11.6 0-85.5-49-146-49-124.6 0-149.8 47.1-218.5 45.9-33.9-13.9-62.7-45.9-127.9-45.9-83.3 0-116.9 49-195.7 49-78.3 0-84.5-43.1-146.1-43.6v250.9c328.2 14.3 679.1 28.1 681.9 28.1 1.4 0 12.7-17 28.3-41.8 201.2 9.7 480.3 21.5 689.8 30.1v-266.4z"/>
	
		<path class="st7" d="m716.9 619 3 0.7c2 0.4 4 0.8 5.9 1.3l5.9 1.5c7.8 2.1 15.7 4.5 23.4 7 15.6 5.1 31 11 46.8 16.4-29.9-14.5-74.6-35-113.8-35-31.6 0-56.9 3-78 7.6 16.6-1.4 33-2.4 49.4-2.7 8.2-0.2 16.4-0.2 24.6-0.1 4.2 0 8 0.2 12 0.5l6 0.6c2 0.3 4 0.6 5.9 0.9 2 0.2 4 0.7 5.9 1l3 0.3z"/>
		<path class="st7" d="m1353.4 610.8c-34.7 0-60.7 8.5-85 18.4 5-0.8 9.8-1.9 14.6-3l14.3-3.2c4.7-1 9.4-2 14.2-2.9 4.7-0.9 9.4-1.7 14.2-2.4 9.5-1.4 19-2.4 28.6-3.1s19.3-1 29.3-1.4c-9.2-1.5-19.1-2.4-30.2-2.4z"/>
		<path class="st7" d="m277.4 621.5c15.1-2.9 30-5.1 45-5.8 7.5-0.4 14.9-0.4 22.4-0.1 1.9 0.1 3.7 0.2 5.6 0.2 1.9 0.1 3.7 0.3 5.5 0.5l2.8 0.2c0.9 0.1 1.8 0.1 2.8 0.3l5.5 0.7c7.3 1.1 14.6 2.5 21.7 4.5s14.2 4.3 21.1 7.1 13.8 5.9 20.7 9.1c3.5 1.6 6.9 3.2 10.4 4.8l5.3 2.3c1.8 0.7 3.5 1.5 5.3 2.2-27.3-15.4-56.3-36.8-109.6-36.8-25.2 0.1-45.8 4.6-64.5 10.8z"/>
		<path class="st7" d="m41.8 629.3c6.6 3.8 13 7.9 19.8 11.8s13.9 7.5 21.5 10.1 15.6 4.3 23.6 4.2c-36.6-9.3-52.3-30.2-85.4-37 7.2 3.6 14 7 20.5 10.9z"/>
		<path class="st7" d="m972.9 620.7c14.7-1.1 29.1-1.9 43.2-0.5 7 0.7 13.9 1.9 20.6 3.8 3.3 1 6.6 2 9.8 3.4 1.6 0.6 3.2 1.3 4.8 2s3.2 1.4 4.8 2.2c3.2 1.5 6.3 3.2 9.5 4.9l9.6 5.2c6.4 3.5 13.1 6.9 20.1 9.6s14.2 4.8 21.6 6.1c1.8 0.3 3.7 0.6 5.5 0.8 1.9 0.2 3.7 0.4 5.5 0.5l5.5 0.2c1.9 0 3.7 0 5.5-0.1-61.4-6.3-71.2-42.7-128.5-42.7-12.5 0.1-25.1 1.8-37.5 4.6z"/>
	
	<path class="st8" d="m1400 731.4c-5.9 0.6-12.1 0.9-18.5 0.9-86.2 0-92.5-47.7-161-47.7s-138.4 47.7-192.8 47.7c-12.7 0-93.5-53.6-159.6-53.6-136.2 0-163.8 51.5-238.9 50.2-37-15.2-68.6-50.2-139.8-50.2-91.1 0-127.8 53.6-214 53.6s-92.5-47.7-161-47.7c-38.8-0.1-77.9 15.1-114.4 28.4v240.8c211.2 9.5 447.7 19.3 619.3 26.2h249.4c5.5-8.1 13.7-20.7 23.4-36.1 147.3 7.1 332.6 15.3 507.8 22.7v-235.2z"/>
	
		<path class="st9" d="m1134.4 702.8c16.2-3.4 32.1-7.3 48-9.9 15.9-2.7 31.9-4.1 47.7-2.9l5.9 0.5c1.9 0.3 3.9 0.6 5.8 0.9l1.5 0.2c0.5 0.1 1 0.2 1.4 0.3l2.9 0.6c1 0.2 1.9 0.4 2.9 0.6l2.8 0.8c7.6 2.1 14.9 5 22.2 8.4s14.6 7.2 22.1 10.7c3.8 1.7 7.6 3.4 11.5 4.8 2 0.7 3.9 1.4 5.9 2.1 2 0.6 4 1.2 6 1.7-35.2-14.1-52.8-37.1-100.3-37.1-29.1 0-58.2 8.5-86.3 18.3z"/>
		<path class="st9" d="m945.6 700.3c9.4 3.3 18.8 6.8 28.2 10.4l14.1 5.5c4.7 1.8 9.4 3.6 14.2 5.4-32-15.6-86.8-43-134-43-41.5 0-72.9 4.8-98.7 11.4 20-3 39.8-5 59.8-5.9 10-0.4 19.9-0.7 29.9-0.7h7.5c1.3 0 2.5 0 3.7 0.1l3.6 0.2c1.2 0.1 2.4 0 3.6 0.2l7.2 0.8c1.2 0.1 2.4 0.4 3.6 0.5 9.7 1.3 19.3 3.6 28.8 6.2 9.6 2.6 19.1 5.6 28.5 8.9z"/>
		<path class="st9" d="m14.3 707.8c17.9-4.3 35.5-9.3 53.2-12.9 8.8-1.8 17.7-3.3 26.6-4.3 4.4-0.5 8.9-0.8 13.3-1 2.2-0.1 4.4-0.1 6.6-0.1s4.4 0.2 6.6 0.2c8.8 0.4 17.5 1.6 25.9 3.9 2.1 0.6 4.2 1.2 6.3 1.9 2.1 0.8 4.1 1.5 6.2 2.3 2 0.9 4.1 1.7 6.1 2.6s4.1 1.8 6.1 2.8c8.1 3.9 16.2 8.3 24.6 12.1s17.2 7 26.2 8.9c-40.2-13.6-56.9-39.7-107.6-39.7-33.8 0-67.8 11.5-100.1 23.3z"/>
		<path class="st9" d="m395.3 699.2c9.3-2.6 18.5-5.4 27.8-7.7s18.6-4.2 27.9-5.5c9.4-1.3 18.8-2.1 28.2-2.4l3.5-0.1h3.5 3.5l10.5 0.3 7 0.6c18.7 1.6 36.9 6.1 54.5 13.1 8.8 3.5 17.4 7.6 26 11.8 4.3 2.1 8.6 4.3 13 6.3l6.6 3.1c2.2 1 4.4 1.9 6.7 2.9-31.4-16.9-63.3-43-124.8-43-38.3 0-67.1 9.6-93.9 20.6z"/>
	
	<path class="st10" d="m1400 746.6c-48.4 13.9-95.1 38.2-133.9 38.2-12.7 0-93.5-53.6-159.6-53.6-136.2 0-163.8 51.5-238.9 50.2-37-15.2-68.6-50.2-139.8-50.2-91.1 0-127.8 53.6-214 53.6s-92.5-47.7-161-47.7-138.4 47.7-192.8 47.7-129.3-53.6-159.6-53.6h-0.3v248.8h1400v-233.4z"/>
	
		<path class="st11" d="m31.8 744.4c3.6 2.4 7.4 4.4 11.3 6.2s7.9 3.3 12.2 4.4c4.2 1.1 8.6 2 13.4 1.9-17.5-8-33.8-16-47.3-20.8 3.2 3.3 6.7 5.9 10.4 8.3z"/>
		<path class="st11" d="m317.2 740.8c14.5-0.7 28.7-1.2 42.6 0.3 6.9 0.7 13.7 1.9 20.4 3.7 3.3 1 6.6 1.9 9.8 3.1 3.2 1.1 6.4 2.5 9.5 3.9 12.6 5.7 24.8 13.4 38.2 19.4s27.8 10 42.3 10.5c-55.6-10.3-69-44.8-127.2-44.8-11.9 0.1-23.8 1.5-35.6 3.9z"/>
		<path class="st11" d="m663.7 740.8c16.3-2.8 32.4-4.8 48.6-5.2 4-0.1 8.1-0.1 12.1 0 4 0 8 0.4 12 0.5 2 0.1 4 0.3 6 0.5l6 0.6 5.9 0.8c2 0.3 4 0.5 5.9 0.9l5.9 1.1c2 0.4 3.9 0.9 5.8 1.3 3.9 0.8 7.7 2.1 11.6 3.1 7.6 2.4 15.1 5.2 22.6 8.3 7.4 3.2 14.8 6.7 22.2 10.2 3.7 1.8 7.4 3.6 11.2 5.3l5.7 2.5 5.7 2.4c-30.8-16.9-62.7-42-123-42-24.8 0-45.5 4-64.2 9.7z"/>
		<path class="st11" d="m1109.4 736.2c1 0 2 0 3.1 0.1l3.1 0.2c2.1 0.1 4.1 0.3 6.2 0.5s4.1 0.5 6.2 0.7c8.2 1.1 16.4 2.7 24.6 4.5 16.4 3.8 32.6 8.8 49 13.7-29.1-12.7-63.7-24.7-95-24.7-44.7 0-77.7 5.5-104.5 12.9 17-2.5 33.8-4.7 50.6-5.9 16.8-1.3 33.7-1.9 50.5-2h3.2 3z"/>
	
	<path class="st12" d="m1400 835.9c-15.9 4.4-33.2 7.3-53.1 7.3-86.2 0-92.5-47.7-161-47.7s-138.4 47.7-192.8 47.7c-12.7 0-93.5-53.6-159.6-53.6-136.2 0-163.8 51.5-238.9 50.2-37-15.2-68.6-50.2-139.8-50.2-91.1 0-127.8 53.6-214 53.6s-92.5-47.7-161-47.7c-26.7 0-53.6 7.2-79.7 16.1v168.4h1400v-144.1z"/>
	
		<path class="st9" d="m34.2 801.4c16.5-1.8 32.8-3.2 48.8-2 8 0.6 15.9 1.7 23.5 3.7 7.6 1.9 15 4.8 22.2 8.2s14.2 7.4 21.5 11.4 14.8 7.8 22.6 10.9 16 5.5 24.3 6.9c8.3 1.5 16.6 2.1 24.9 1.8-68.7-6.4-79-46.9-142.2-46.9-15.3 0-30.5 2.4-45.6 6z"/>
		<path class="st9" d="m364.4 808.6c2.2-0.6 4.4-1.2 6.7-1.8 2.2-0.6 4.4-1.2 6.7-1.8 4.4-1.2 8.9-2.3 13.3-3.3 8.9-2.1 17.8-3.8 26.7-5 17.9-2.4 36-2.8 53.8-1.4s35.3 5.4 52.2 11.6c8.5 3.1 16.7 6.8 25 10.7l12.4 5.9 6.3 2.9c2.1 0.9 4.2 1.9 6.3 2.8-29.6-16.8-61.3-39.8-119-39.8-36.7 0.1-64.6 8.8-90.4 19.2z"/>
		<path class="st9" d="m1112.5 809.4c2-0.3 3.9-0.7 5.9-1.1s3.9-0.8 5.9-1.1l11.7-2.2c7.8-1.4 15.6-2.6 23.4-3.4s15.5-1.4 23.3-1.4h2.9c1 0 1.9 0.1 2.9 0.1l5.8 0.3c1.9 0.1 3.8 0.4 5.7 0.6l2.8 0.3 2.8 0.5c15.1 2.2 29.2 8.3 43.3 15.5 7.1 3.5 14.2 7.3 21.7 10.4 1.8 0.8 3.8 1.5 5.6 2.2 0.9 0.4 1.9 0.7 2.8 1.1l2.9 0.9c1.9 0.6 3.8 1.3 5.8 1.7 2 0.5 3.9 0.9 5.9 1.4-40.2-13.6-56.9-39.8-107.6-39.8-24.6 0-49.4 6.2-73.5 14z"/>
		<path class="st9" d="m826.1 794.6c2.8 0 5.6-0.1 8.3-0.1l4 0.1c1.3 0 2.7 0.1 4 0.2 5.4 0.3 10.8 1 16.2 1.8 10.8 1.7 21.5 4.3 32.1 7.3 21.2 6.1 42.1 14.1 63.1 21.9-32.6-15.7-79.3-36.3-120.3-36.3-65.6 0-105.9 11.9-138.6 24.2 10.9-2.9 21.6-5.8 32.5-8.2 10.8-2.4 21.7-4.5 32.7-6 10.9-1.6 21.9-2.7 33-3.5 10.9-0.8 22-1.3 33-1.4z"/>
	
	<path class="st13" d="m1400 861.1c-45.9 21.3-95.2 54.8-149 54.8-79 0-116-73.3-245-73.3s-181 68.8-303 68.8-131-61.2-228-61.2-196 61.2-273 61.2c-65.1 0-151.1-49.2-202-64.4v133h1400v-118.9z"/>
	
		<linearGradient id="SVGID_4_" x1="1121.0203" x2="1058.173" y1="410.5391" y2="185.0868" gradientTransform="matrix(.9575 .2886 -.2886 .9575 124.5602 -303.9846)" gradientUnits="userSpaceOnUse">
		<stop stop-color="#25A8C1" stop-opacity="0" offset="0"/>
		<stop stop-color="#38AFC5" stop-opacity=".04427457" offset=".04427457"/>
		<stop stop-color="#68C0D1" stop-opacity=".1722" offset=".1722"/>
		<stop stop-color="#92D0DB" stop-opacity=".3034" offset=".3034"/>
		<stop stop-color="#B5DCE3" stop-opacity=".4361" offset=".4361"/>
		<stop stop-color="#CFE6EA" stop-opacity=".5706" offset=".5706"/>
		<stop stop-color="#E2EDEE" stop-opacity=".7076" offset=".7076"/>
		<stop stop-color="#EDF1F1" stop-opacity=".8486" offset=".8486"/>
		<stop stop-color="#F1F2F2" offset="1"/>
	</linearGradient>
	<path class="st14" d="m773.6 380.8s-25-41.7-12.2-70.5 51.4-45.8 67-37.6c0 0 34.4-65.5 92.6-73.8 58.2-8.2 88.7 26.7 88.7 26.7s16.9-28.3 49.5-9.5c0 0 12.1-63.2 48.9-81.4s90.5-29.8 123.8 21.3c0 0 28.4-13.4 43.4-7.6s28.8 31.5 28.8 31.5 7.8-51 51.9-56.5 43.5 38 43.5 38l0.5 389.6s-580.6-123.7-626.4-170.2z"/>
	<linearGradient id="SVGID_5_" x1="234.5608" x2="234.5608" y1="325" y2="227" gradientUnits="userSpaceOnUse">
		<stop stop-color="#25A8C1" stop-opacity="0" offset="0"/>
		<stop stop-color="#38AFC5" stop-opacity=".04427457" offset=".04427457"/>
		<stop stop-color="#68C0D1" stop-opacity=".1722" offset=".1722"/>
		<stop stop-color="#92D0DB" stop-opacity=".3034" offset=".3034"/>
		<stop stop-color="#B5DCE3" stop-opacity=".4361" offset=".4361"/>
		<stop stop-color="#CFE6EA" stop-opacity=".5706" offset=".5706"/>
		<stop stop-color="#E2EDEE" stop-opacity=".7076" offset=".7076"/>
		<stop stop-color="#EDF1F1" stop-opacity=".8486" offset=".8486"/>
		<stop stop-color="#F1F2F2" offset="1"/>
	</linearGradient>
	<path class="st15" d="m453.7 262.1c-12.6-6.2-41.7 3.7-41.7 3.7s0-37.3-39.8-51.4-71.2 16.1-71.2 16.1 5.5-18.7-18.7-39.4-45.2-0.5-45.2-0.5 0.5-7.9-9.2-19.4-25.5-7.3-25.5-7.3-7.3-29.6-55.6-29.5-59 23.8-59 23.8-5.3-11.1-24.8-11.1-29.9 10.9-29.9 10.9-7.3-23-33.1-26.5v242.1l53.7 112.8 406.2-166.2s24.4-43-6.2-58.1z"/>
</g>

</svg>
