<svg width="400" height="600" aria-labelledby="title-duck-hobby" version="1.1" viewBox="0 0 105.83333 158.75" xmlns="http://www.w3.org/2000/svg">0
  <title id="title-duck-hobby" lang="en">Hobby</title>
  <g transform="translate(-4.3586723e-6,-138.25008)">
    <g transform="translate(120.13932 .4516971)">
      <g stroke="#000">
        <g transform="matrix(.90218677 0 0 .90218677 -453.03105 -75.170764)" stroke-linejoin="round">
          <path class="duck__beak" d="m470.19 326.66c-4.8905 0-8.791 3.9676-8.791 8.8582v10.402c2.0677 1.0216 4.4112 1.6106 6.8449 1.6106 8.8668 0 16.039-7.5726 16.039-16.911 0-1.3618-0.1808-2.6904-0.46975-3.9593h-13.623z" fill="#fff" stroke-width="4"/>
          <path class="duck__body" d="m443.48 309.89c-13.043 0-23.622 10.888-23.622 24.293 0 7.7316 3.5093 14.61 8.9924 19.058-3.2436-0.33783-6.5622-0.53686-9.9319-0.53686-4.8629 0-9.6052 0.45112-14.227 1.1408-3.8847-8.1268-12.934-15.106-20.41-17.24-10.119 11.161-12.098 22.857-12.002 33.284 0.11133 12.122 3.6185 21.56 8.5888 28.852 11.516 6.4736 25.352 10.267 40.197 10.267 12.481 0 24.223-2.6856 34.493-7.3818 6.567-7.8888 10.536-17.982 10.536-28.99 0-7.8577-2.0187-15.23-5.5699-21.676 4.0666-4.3627 6.5765-10.263 6.5765-16.777 0-13.405-10.579-24.293-23.622-24.293z" fill="#fff" stroke-width="5.99999"/>
          <ellipse transform="matrix(1.6225,0,0,1.5047,383.44,305.48)" cx="40.663132" cy="14.64191" rx="2.4668436" ry="2.5464191" fill="#050505" stroke-width="2"/>
        </g>
        <path class="duck__wing" d="m-92.275206 257.25539 7.228471 4.47074-7.336722 3.53354 7.414534 4.90628-6.854448 3.67636c21.734078 8.06733 33.8847 5.97652 32.720918-8.33217-2.347749-9.62604-17.000287-12.53855-33.172753-8.25475z" fill="#e70d0d" stroke-width="2.83885"/>
      </g>
    </g>
  </g>
  <g transform="translate(1.5875,-137.72079)">
    <g stroke="#3e3e3e" stroke-width="2.11667">
      <path d="m47.469234 159.37895c-6.622533 0.41927-11.064166-2.5927-13.593599-8.61493l3.479559-3.20027c1.717121 5.02873 3.910553 9.6737 10.724462 10.5998z" fill="#93ffac"/>
      <path d="m47.605913 157.93216c-5.640419-3.74763-7.390685-8.93754-5.728822-15.39248l4.803307-0.45268c-1.709573 5.14679-2.794646 10.27549 2.171602 15.2343z" fill="#feff93"/>
      <path d="m50.43274 156.90924c3.02003-5.5935 7.721176-7.6743 13.896971-6.67348l0.83462 4.45098c-4.956595-1.15664-9.843844-1.73169-14.05417 3.33456z" fill="#feff93"/>
      <path d="m51.340254 158.10207c5.187443-1.74807 9.369618-0.29645 12.671104 3.96179l-2.089271 3.293c-2.442317-3.64055-5.181293-6.87367-10.809008-6.157z" fill="#93ffac"/>
      <path d="m48.560423 160.49548c-3.889515 4.11832-8.416511 4.82516-13.501789 2.53916l0.308204-4.02387c4.000245 2.13899 8.074591 3.76118 12.867329 0.37094z" fill="#feff93"/>
      <path d="m40.537306 211.60007 7.740014-58.19009 31.08326 49.66671c-6.013857 12.01349-29.650146 17.03582-38.823274 8.52338z" fill="#93ffac"/>
      <path d="m53.677272 162.03795c-2.640664 5.44987-5.535034 10.79051-8.680014 16.02432l-1.546575 11.64042c4.955241-7.32344 9.313819-15.01243 13.120028-23.03657l-2.893286-4.62741zm6.793443 10.85292c-4.988202 10.48261-11.065165 20.55035-18.776131 29.99911l-1.087494 8.17401c9.974604-10.24873 17.627947-21.24051 23.152647-32.91451zm6.782513 10.83858c-5.716194 10.79348-12.559774 21.19879-21.168821 30.99691 1.698416 0.55235 3.552482 0.8944 5.492337 1.03875 7.96306-8.44044 13.890311-17.58664 18.765281-27.0961l-3.089536-4.93931zm5.798567 9.26495c-4.351059 7.69195-9.074492 15.25664-14.663093 22.52823 2.509665-0.34641 5.025795-0.96519 7.419136-1.82953 5.11e-4 -4e-4 0.0024-2e-4 0.0024-4.7e-4 3.760208-5.13524 7.083368-10.51151 10.172843-16.01508l-2.932081-4.68327z" fill="#feff93" stroke-linejoin="round"/>
    </g>
    <g stroke-width="2.11667">
      <path d="m61.22494 174.19711c4.925761 20.53151-6.576573 34.32127-20.283655 37.76015 9.444537 8.0094 32.491291 2.95882 38.418868-8.88267z" fill="#00b02d" fill-opacity=".11947"/>
      <path d="m40.537306 211.60007 7.740014-58.19009 31.08326 49.66671c-6.013857 12.01349-29.650146 17.03582-38.823274 8.52338z" fill="none" stroke="#3e3e3e"/>
      <path d="m48.158435 156.77317c-1.766622-6.5375 0.961799-11.55152 6.469841-15.30605l3.908491 2.82848c-4.679536 2.74045-8.878561 5.87923-8.417826 12.88206z" fill="#93ffac" stroke="#3e3e3e"/>
    </g>
    <g stroke-linecap="round" stroke-linejoin="round">
      <path transform="matrix(.26458333 0 0 .26458333 0 138.24996)" d="m182.02733 295.22271c-8.9449-1.94264-24.22475-9.0606-29.40008-13.69572l-3.49404-3.12933 2.51104-18.44884c2.44608-17.97157 5.29663-39.23081 11.94348-89.07382 1.7878-13.40625 4.71554-35.21744 6.50609-48.46929 1.79055-13.25186 3.0302-24.319631 2.75479-24.595043-0.27541-0.275411-3.87048 0.644208-7.98904 2.043597-8.75824 2.975846-18.86914 2.568086-28.80208-1.161558l-6.18621-2.322806 0.32891-11.097194c0.1809-6.103456 0.57876-11.347041 0.88413-11.65241 0.30537-0.30537 2.44864 0.561931 4.76283 1.927335 7.3937 4.36239 18.31338 7.82994 24.38352 7.743001l5.89061-0.08437-5.625-1.548569c-14.20397-3.910367-25.61266-13.388948-32.47305-26.979301l-3.96192-7.848527 3.52998-3.719329c1.9415-2.045631 6.1494-5.925177 9.3509-8.621214l5.8209-4.901885 3.84985 10.08172c3.89848 10.209097 8.93974 18.64337 13.70914 22.936104 2.02345 1.821214 1.59573 0.365139-1.88632-6.42161-3.49997-6.821675-4.64289-10.730334-5.13055-17.545972-0.76874-10.744223 0.54324-22.186276 2.80306-24.446103 1.52789-1.527883 22.78928-4.081976 23.98944-2.881809 0.26293 0.262929-0.94608 5.959249-2.68669 12.658488-3.27224 12.594175-3.74156 17.460155-2.35343 24.400792 0.76239 3.811935 0.97171 3.501008 3.47126-5.15625 3.753-12.998611 12.86239-25.064317 24.85629-32.923019 3.2794-2.1487453 3.35023-2.1237335 12.3922 4.375846 5.00166 3.595319 9.55222 6.949648 10.11235 7.454066 0.56012 0.504416-3.75913 4.095984-9.59834 7.981259-11.01616 7.329898-17.0067 13.635245-20.18779 21.248655-3.03268 7.258226-2.16572 7.847642 3.45522 2.349093 9.7656-9.552961 24.82367-14.187982 39.95248-12.297762l6.74653 0.842922 1.44976 8.378072c0.79738 4.607938 1.80929 10.145891 2.2487 12.30656l0.79893 3.928487-7.31695-1.817395c-10.56654-2.624532-26.08583-2.5491-32.62945 0.158599-2.92188 1.209047-5.30774 2.559069-5.30193 3.000045 6e-3 0.440976 3.16458 0.93093 7.01948 1.088786 9.37999 0.384106 18.92557 4.924566 26.70219 12.701178 3.44727 3.44727 6.26776 6.851296 6.26776 7.564501 0 0.713206-2.57308 5.311-5.71795 10.217319l-5.71795 8.920581-4.16849-6.18986c-5.89156-8.748465-15.80994-17.296061-21.84834-18.828773-2.776-0.704622-5.04727-1.144865-5.04727-0.978317 0 0.166549 12.46735 20.21611 27.70521 44.55459 15.23787 24.33847 38.03418 60.77042 50.65845 80.95987l22.95324 36.7081-3.3897 5.7919c-4.15097 7.09267-15.32585 19.12707-16.87305 18.17085-0.62091-0.38374-5.47148 1.84696-10.77904 4.95711-20.29667 11.89355-37.96929 17.4876-62.15011 19.67285-8.25 0.74558-15.97674 1.86419-17.17054 2.48584-2.57249 1.33956-2.04256 1.37387-11.92341-0.77204zm40.12176-10.81647c5.68822-6.7015 32.07008-46.65345 41.23906-62.45132l8.44188-14.54507-2.66535-4.51743c-1.46594-2.48458-2.83955-4.51742-3.05249-4.51742-0.21292 0-3.59269 5.76562-7.51057 12.8125-10.75618 19.34649-28.90584 45.98748-43.13114 63.31005l-12.72659 15.49756 7.93869-0.71632c7.03721-0.63497 8.33931-1.18828 11.46651-4.87255zm-22.4354-1.84868c18.58596-20.96382 39.76869-51.10832 54.423-77.44772l7.72799-13.89015-3.4967-5.75784c-1.92319-3.1668-3.77795-5.7531-4.1217-5.74731-0.34375 6e-3 -4.28125 6.59575-8.75 14.64437-11.63525 20.95615-35.04027 55.60265-51.01089 75.51153-14.64514 18.25654-14.59546 18.0654-4.7717 18.35956 4.26957 0.12785 5.45253-0.54319 10-5.67244zm40.52125 1.40425c6.04708-1.79579 6.93448-2.62037 14.46116-13.4375 7.10938-10.21739 22.88314-35.47891 26.89052-43.06489 1.25385-2.37352 0.97748-3.54108-1.8492-7.8125-1.82785-2.76206-3.49704-5.02192-3.70933-5.02192s-3.60066 5.48437-7.52971 12.1875c-8.72568 14.88632-23.6663 38.00421-31.89771 49.35586-3.35741 4.63009-6.10439 8.70821-6.10439 9.0625 0 1.11129 3.07056 0.71116 9.73866-1.26905zm-55.11097-13.39931c15.01742-18.74294 23.26475-30.08851 35.84259-49.30746 12.04141-18.39928 28.27972-46.33219 28.27972-48.64638 0-0.86215-1.76645-4.40916-3.92544-7.88225l-3.92544-6.31471-8.67542 15.91915c-16.37536 30.04831-38.12991 60.64959-62.27656 87.60201-6.98852 7.80058-12.2262 14.6443-11.63928 15.20828 1.38231 1.32825 13.04849 7.48386 14.1835 7.48386 0.47796 0 5.93931-6.32813 12.13633-14.0625zm92.74835-5.74005c7.19116-5.77129 13.86235-13.03555 16.53136-18.00104 0.8839-1.64442 0.11838-3.74172-3.12233-8.55383l-4.29333-6.37526-3.5051 6.05384c-1.92781 3.32961-7.88845 12.9905-13.24588 21.46865-5.35742 8.47815-9.74076 15.66145-9.74076 15.9629 0 1.35615 10.42474-4.97647 17.37604-10.55526zm-95.06904-28.32245c15.97112-19.80379 30.4424-41.36503 43.3834-64.63838 5.80778-10.44481 10.5596-19.40492 10.5596-19.91135 0-1.52571-6.80432-12.24323-7.79996-12.28576-0.50872-0.0217-3.4284 4.94514-6.48816 11.0375-12.88403 25.65364-33.29767 58.17395-51.11081 81.42299-10.1679 13.27076-11.91754 17.38157-11.97054 28.125l-0.0185 3.75 5.67397-6.25c3.12069-3.4375 11.11764-13 17.771-21.25zm-10.06772-17.8125c17.82051-24.89035 34.83228-52.99804 47.18226-77.95693l4.58619-9.26851-4.81637-7.77977c-2.649-4.27887-5.11489-7.78596-5.47975-7.79353-0.36487-8e-3 -2.815 4.33455-5.44474 9.64916-6.76318 13.66815-19.36734 35.77882-31.02793 54.4303l-9.98307 15.96823-1.71701 13.40677c-0.94435 7.37373-2.03991 15.2349-2.43458 17.46928-0.39466 2.23437-0.46404 4.0625-0.15417 4.0625 0.30986 0 4.48999-5.48438 9.28917-12.1875zm6.91164-55c9.98092-16.63905 26.66661-47.44887 28.41837-52.47397 1.07977-3.09741 0.84296-4.51807-1.38155-8.28834-1.47657-2.5026-3.07444-4.55019-3.55081-4.55019-0.47638 0-2.43659 3.23437-4.35603 7.1875-1.91944 3.95312-8.44819 16.1875-14.50834 27.1875-8.78875 15.95279-11.17621 21.39122-11.79804 26.875-0.42876 3.78125-1.11231 9.26562-1.51898 12.1875-0.40667 2.92187-0.43018 5.3125-0.0522 5.3125 0.37794 0 4.31437-6.04688 8.74763-13.4375zm10.08499-55.53566c4.54525-8.591088 8.26409-16.341205 8.26409-17.222485s-2.00948-4.910284-4.46551-8.953341c-4.79274-7.889708-8.71606-9.695282-9.86169-4.538514-0.79043 3.557934-6.92441 49.92926-6.91813 52.29934 6e-3 2.28931 2.86694-2.4677 12.98124-21.585zm47.01409-17.906888c0-4.064628-13.76519-12.746905-22.05483-13.910895l-4.82017-0.676823 6.39945 3.791047c3.5197 2.085076 8.86345 6.592444 11.875 10.016373 4.834 5.495923 5.65862 5.988483 7.03805 4.203923 0.85937-1.111771 1.5625-2.652402 1.5625-3.423625zm-71.83485 2.568832c2.38417-0.99617 4.33333-1.980545 4.33148-2.1875-2e-3 -0.206957-4.07997-0.43646-9.0625-0.510009-6.11254-0.09023-11.20871-1.005028-15.66791-2.8125-3.63482-1.473326-6.8692-2.678775-7.1875-2.678775-0.31829 0-0.57872 1.671417-0.57872 3.71426 0 3.116497 0.65381 3.90304 4.0625 4.887265 6.29317 1.817086 19.29895 1.594371 24.10265-0.412741zm1.83485-17.353265c0-0.227965-2.80846-2.234299-6.24101-4.45852-6.87455-4.454554-14.99426-14.856779-18.2488-23.37867-1.15491-3.024082-2.48786-5.498329-2.96212-5.498329s-2.20998 1.434555-3.85716 3.187901l-2.99488 3.1879 2.9916 5.639219c3.97048 7.484432 13.65929 16.01936 21.68986 19.106735 6.11551 2.35112 9.62251 3.157944 9.62251 2.213764zm19.91313-17.085519c0.24974-8.784386 11.54558-24.617969 23.03796-32.292723l4.82609-3.222921-3.3333-2.867177c-1.83331-1.576949-4.06005-2.867179-4.94831-2.867179-2.44094 0-15.06524 13.766036-18.12565 19.764929-1.48107 2.903145-3.22659 8.092815-3.87893 11.532601-1.34666 7.100906-0.23453 19.642882 1.37653 15.523735 0.52622-1.345445 0.99675-3.852515 1.04561-5.571265zm-15.67387-0.196338c-3.10616-5.913023-3.80858-23.293326-1.32411-32.763082l1.92425-7.33442-5.18527 0.829159c-2.8519 0.456037-5.47961 1.123495-5.83935 1.483238-0.35975 0.359744-0.65742 5.255862-0.66149 10.880262-9e-3 12.012868 2.57596 20.633342 8.25055 27.517601 4.58225 5.559074 5.92508 5.268877 2.83542-0.612758zm56.76586-1.665061c13.54939 0.01304 14.10237-0.0897 13.45457-2.5-0.37155-1.382481-0.68323-3.216726-0.69262-4.076101-0.0275-2.521831-16.35104-1.995368-23.60611 0.761342-6.25298 2.375945-15.16096 8.400927-15.16096 10.25423 0 0.567244 2.67187-0.202643 5.9375-1.71086 5.01175-2.314656 8.14062-2.740091 20.06762-2.728611z" stroke-width="10" style="paint-order:normal"/>
    </g>
    <g transform="matrix(.10122672 0 0 .10122672 55.360838 144.66257)">
      <g stroke="#000">
        <path d="m-263.40623 753.73303c3.65373 12.20825 11.91292 39.02956 14.05109 47.62045 4.4029 17.72107 7.72599 30.95428 17.03141 48.09154 5.16531 9.52054 12.15575 20.2394 22.25824 33.63479 2.11982 2.80773 4.10164 5.55046 6.00014 8.25733 30.9922 44.14242 33.64342 75.21493 27.54507 110.10656l6.01061 1.1479c6.72959-38.51492 3.31361-72.49838-34.23698-122.56441-0.17546-0.22838-0.31978-0.44111-0.48759-0.67215-13.83914-18.35085-21.67578-31.32957-26.92564-43.22033-5.19228-11.75998-7.86011-22.4575-11.28134-36.22723-2.17065-8.72339-10.47286-35.70731-14.19911-48.14676zm86.87015 247.71417c-0.83123 4.7495-2.27641 10.713-3.95067 17.5279-7.1123 30.3044-15.67962 83.2281-1.60049 114.4187 12.75582 22.8902 27.30407 34.199 39.48667 40.7454 5.51273 2.9635 10.54303 4.9517 14.7027 6.595 2.60441 1.029 4.90232 1.9333 6.79584 2.8779l2.65138-5.5427c-2.02752-1.0168-4.49312-1.9954-7.29151-3.1021-6.31601-2.4917-14.16438-5.626-22.5175-11.4913-9.3387-6.5637-19.31705-16.5534-28.52891-33.0801-3.36467-6.0995-7.56785-33.4495-7.10545-47.6976 1.44941-24.6555 4.04266-39.6409 7.90466-60.1621 1.92722-7.7864 4.50875-14.5118 5.45575-19.9367z" fill="#abb7b7" stroke-width="20.9102"/>
        <path d="m-222.92917 771.58056s-11.36844-3.21993-29.13778-9.67476c-2.37085-0.86369-4.84881-1.7796-7.43635-2.75775-0.98522 1.72467-1.94141 3.37271-2.8811 4.9708-7.90372 13.53834-14.0077 22.9647-16.41571 26.59689l22.30881-7.64069 9.93259-3.40188 23.6295-8.09303z" fill="#ff8b63"/>
        <path d="m-259.52517 759.16875c-1.69499-0.64023-3.407-1.29683-5.18576-1.98596-61.2227-23.71086-171.28866-77.05634-200.6124-162.67391-40.82317-119.1929 14.32032-201.20495 73.07068-224.09616 72.15817-28.12094 165.95471 18.76907 196.35505 131.81874 22.52592 83.78535-27.32624 191.93925-59.49945 249.64731-1.41006 2.5249-2.78471 4.95999-4.11685 7.29172" fill="#ff8b63" stroke-width="20.9102"/>
        <path d="m-401.43503 397.60404c-19.86517 6.80375-73.67939 57.60637-41.07821 152.79324 25.8982 75.61592 126.96781 130.38415 148.14302 149.01828 0 0-97.23078-81.37553-119.62699-146.76654-23.52735-68.69367-2.48158-134.16399 12.56218-155.04498" fill="#ffe09b"/>
        <path d="m-57.400718 834.22585c-0.24866 0.44028-0.2879 0.94202-0.39657 1.43427 0.15491-0.68561 0.41072-1.32813 0.83434-1.90597-0.13135 0.17817-0.32425 0.27727-0.43688 0.47121" fill="#9a62a8"/>
      </g>
    </g>
  </g>
</svg>
