<svg width="400" height="600" aria-labelledby="title-duck-resume" version="1.1" viewBox="0 0 105.83333 158.75" xmlns="http://www.w3.org/2000/svg">
  <title id="title-duck-resume" lang="en">Resume</title>
  <defs>
    <clipPath id="presentation_clip_path">
      <rect x="2575" width="2694" height="20402"/>
    </clipPath>
    <clipPath id="clip_path_1">
      <path d="m2575 4528 2694-4528v15873l-2694 4528z"/>
    </clipPath>
    <clipPath id="clipPath1788">
      <rect x="-8482.3447" y="4272.5073" width="6893.9404" height="13925.374" fill="#fff" stroke="#000" stroke-linecap="round" stroke-linejoin="round" stroke-width="149.48199" style="paint-order:normal"/>
    </clipPath>
    <clipPath id="clip_path_1-3">
      <path d="m6096 10693h11965v13837h-11965z"/>
    </clipPath>
    <linearGradient id="linearGradient4066" x1="-481.64001" x2="-727.92999" y1="1498.8" y2="1498.8" gradientTransform="matrix(.04627992 0 0 .07102513 69.95597 -31.487382)" gradientUnits="userSpaceOnUse">
      <stop stop-color="#b8b8b8" offset="0"/>
      <stop stop-color="#b8b8b8" stop-opacity="0" offset="1"/>
    </linearGradient>
    <clipPath id="clipPath1887">
      <rect x="6471.8135" y="20994.283" width="12055.003" height="3690.3071" fill="#fff" stroke="#000" stroke-linecap="round" stroke-linejoin="round" stroke-width="307.52557" style="paint-order:normal"/>
    </clipPath>
  </defs>
  <rect transform="rotate(-7.3942456)" x="38.970165" y="32.063599" width="6.1711798" height="85.807129" fill="url(#linearGradient4066)" stroke="#000" stroke-width=".716673"/>
  <g transform="translate(-4.3586723e-6,-138.25008)">
    <g transform="translate(120.13932 .4516971)">
      <g stroke="#000">
        <g transform="matrix(.90218677 0 0 .90218677 -453.03105 -75.170764)" stroke-linejoin="round">
          <path class="duck__beak" d="m470.19 326.66c-4.8905 0-8.791 3.9676-8.791 8.8582v10.402c2.0677 1.0216 4.4112 1.6106 6.8449 1.6106 8.8668 0 16.039-7.5726 16.039-16.911 0-1.3618-0.1808-2.6904-0.46975-3.9593h-13.623z" fill="#fff" stroke-width="4"/>
          <path class="duck__body" d="m443.48 309.89c-13.043 0-23.622 10.888-23.622 24.293 0 7.7316 3.5093 14.61 8.9924 19.058-3.2436-0.33783-6.5622-0.53686-9.9319-0.53686-4.8629 0-9.6052 0.45112-14.227 1.1408-3.8847-8.1268-12.934-15.106-20.41-17.24-10.119 11.161-12.098 22.857-12.002 33.284 0.11133 12.122 3.6185 21.56 8.5888 28.852 11.516 6.4736 25.352 10.267 40.197 10.267 12.481 0 24.223-2.6856 34.493-7.3818 6.567-7.8888 10.536-17.982 10.536-28.99 0-7.8577-2.0187-15.23-5.5699-21.676 4.0666-4.3627 6.5765-10.263 6.5765-16.777 0-13.405-10.579-24.293-23.622-24.293z" fill="#fff" stroke-width="5.99999"/>
          <ellipse transform="matrix(1.6225,0,0,1.5047,383.44,305.48)" cx="40.663132" cy="14.64191" rx="2.4668436" ry="2.5464191" fill="#050505" stroke-width="2"/>
        </g>
        <path class="duck__wing" d="m-92.275206 257.25539 7.228471 4.47074-7.336722 3.53354 7.414534 4.90628-6.854448 3.67636c21.734078 8.06733 33.8847 5.97652 32.720918-8.33217-2.347749-9.62604-17.000287-12.53855-33.172753-8.25475z" fill="#e70d0d" stroke-width="2.83885"/>
      </g>
    </g>
  </g>
  <g class="SlideGroup" transform="matrix(.00351801 0 0 .00279799 104.03503 99.38591)" clip-path="url(#clipPath1788)">
    <g class="Slide" transform="translate(-8901.0371,2527.9943)" clip-path="url(#presentation_clip_path)">
      <g class="Page">
        <g class="Graphic">
          <title>Necktie</title>
          <rect class="BoundingBox" x="2575" y="-1" width="2696" height="20404" fill="none"/>
          <g clip-path="url(#clip_path_1)">
            <path d="m2684.8333 14414.667c50-1862 33.1667-183.667 110.1667-2082.667 63-1375 106-2727 248-4214 57-704 482-2164 265-2301-158-305-295-663-515-788-210-178 224-1245 444-1561 310-513 199.6667-339.25 513.6667-820.25 224-287 753-1208.4167 738-542.4167-136 969 4.3333 992.6667-119.6667 1949.6667-52 758 316 570 353 1167 105 1211 189 2469 257 3755 78 755 68 1679 155 2414 36 817 98 1588 135 2405 6026.403-1939.23-615.6146 1036.372-1562.6667 1648.417-3563.4952-3321.391-1033.5482-480.803-1021.5-1029.75z"/>
          </g>
        </g>
      </g>
    </g>
  </g>
  <g transform="matrix(.0421989 .00695159 -.00695159 .0421989 41.251478 38.30121)">
    <path d="m767.251 31.203c10.244-3.059 20.304-6.826 30.656-9.526 7.156 2 14.022 4.972 21.081 7.322 211.171 75.644 422.342 151.297 633.503 226.941 14.07 5.137 28.267 9.924 42.24 15.294-229.184 84.063-458.329 168.242-687.483 252.391-2.136 0.816-4.224 1.748-6.351 2.583-1.932 0.301-3.923 0.252-5.778-0.34-51.717-17.401-103.619-34.219-155.356-51.562-62.321-20.634-124.526-41.599-186.915-62.02 67.264-39.395 139.217-70.167 212.385-96.735 39.754-14.206 79.897-27.441 120.641-38.511 8.671 2.68 18.139 2.36 26.733-0.505 4.855-1.719 9.788-4.438 12.371-9.089 2.146-3.777 1.563-8.798-1.311-12.031-4.758-5.477-12.002-8.108-19.032-9.021-9.002-1.058-18.576-0.252-26.626 4.205-2.35 1.233-4.107 3.272-5.642 5.389-70.857 21.091-140.8 45.406-208.802 74.449-49.057 20.984-97.103 44.512-142.674 72.323-4.496-3.263-10.002-4.37-15.158-6.127-40.541-13.517-81.091-26.985-121.642-40.492-80.256-26.402-160.386-53.213-240.564-79.868-7.215-2.515-14.585-4.583-21.722-7.302 17.605-6.205 35.55-11.419 53.281-17.236 230.72-73.508 461.447-147.006 692.165-220.532m331.764 126.797c5.253 7.234 11.555 13.653 16.653 21.033 21.926 29.607 37.385 65.03 38.715 102.221 1.612 34.637-8.797 69.429-28.15 98.094 20.664-6.923 41.104-14.546 61.68-21.771 81.887-29.112 163.746-58.34 245.652-87.403 0.029-0.311 0.097-0.913 0.126-1.214-111.59-36.86-223.104-74.012-334.676-110.96z" stroke="#000"/>
    <path d="m1099.015 158c111.572 36.948 223.086 74.1 334.677 110.96-0.029 0.301-0.097 0.903-0.126 1.214-81.907 29.063-163.765 58.291-245.652 87.403-20.576 7.225-41.017 14.847-61.68 21.771 19.353-28.665 29.762-63.457 28.15-98.094-1.33-37.191-16.789-72.614-38.715-102.221-5.099-7.38-11.401-13.798-16.654-21.033z" fill="#2d2d2d" stroke="#2d2d2d"/>
    <path d="m778.01 250.598c8.05-4.457 17.624-5.263 26.626-4.205 7.03 0.913 14.274 3.544 19.032 9.021 2.874 3.234 3.457 8.254 1.311 12.031-2.583 4.651-7.516 7.37-12.371 9.089-8.594 2.865-18.061 3.185-26.733 0.505 6.749-2.398 14.779-2.787 20.032-8.196 5.486-5.613 3.399-15.896-3.399-19.479-1.913-1.253-4.195-0.418-6.195 0.039-7.982 2.204-15.944 4.486-23.946 6.584 1.536-2.116 3.293-4.155 5.643-5.389z" fill="#333" stroke="#333"/>
    <path d="m796.314 249.404c2-0.456 4.282-1.291 6.195-0.039 6.797 3.583 8.885 13.866 3.399 19.479-5.253 5.409-13.284 5.797-20.032 8.196-40.745 11.07-80.887 24.305-120.641 38.511-73.167 26.568-145.121 57.34-212.385 96.735-4.37 2.525-8.691 5.117-12.944 7.817-2.641 1.602-5.321 3.146-7.875 4.884-32.093 20.198-62.826 42.871-89.86 69.555-17.809 17.819-34.044 37.453-46.28 59.554-2.233 3.952-4.059 8.128-6.516 11.953-10.623 16.906-15.498 37.113-14.896 56.99 0.34 3.738 0.184 7.623 1.301 11.245 8.157 6.088 16.605 13.556 18.459 24.111 1.923 10.613-4.127 20.654-11.487 27.772 17.721 57.243 35.414 114.485 53.057 171.747-8.924 12.157-20.168 23.402-34.52 28.84-13.031 5.117-28.053 3.438-40.24-3.166-0.049-8.283 0.117-16.585-0.689-24.829-0.787-9.303-0.136-18.634-0.466-27.946-1.758-20.324-0.34-40.754-1.146-61.117-1.029-9.691-0.553-19.44-0.67-29.16 0-16.197-0.146-32.394 0.01-48.591-0.078-1.777 0-3.622-0.621-5.302-1.991-3.107-5.059-5.331-7.089-8.409-3.428-4.875-4.127-11.002-4.574-16.78-0.35-3.806 0.796-7.623 3.02-10.691 3.564-5.409 9.419-8.526 14.109-12.798-2.486-0.32-4.981-0.612-7.467-0.884 2.107-20.625 7.428-40.871 14.585-60.292 8.866-24.645 21.732-47.678 36.705-69.109 4.379-6.788 10.497-12.167 15.614-18.362 12.196-12.4 24.616-24.587 36.851-36.958 4.496-4.583 9.71-8.39 14.129-13.06 2.884-2.865 6.195-5.535 7.729-9.438 0.476-0.893 1.389-1.418 2.156-2.03 8.089-5.787 16.304-11.4 24.655-16.799 4.35-2.738 8.681-5.496 13.002-8.273 45.571-27.81 93.618-51.339 142.674-72.323 68.002-29.044 137.945-53.358 208.802-74.449 8.002-2.098 15.964-4.38 23.946-6.584m-520.523 406.825c-2.806 1.01-5.079 3.612-5.409 6.622 0.243 3.564 3.554 6.215 7.04 6.215 4.049 0.728 8.011-2.505 9.05-6.234 0.379-5.467-6.078-8.565-10.681-6.603z" fill="#d4af37" stroke="#d4af37"/>
    <path d="m21.001 268.669 0.806 0.301c7.137 2.719 14.507 4.787 21.722 7.302 80.178 26.655 160.308 53.465 240.564 79.868 40.55 13.507 81.101 26.975 121.642 40.492 5.156 1.758 10.662 2.865 15.158 6.127-4.321 2.777-8.652 5.535-13.002 8.273-1.495-0.816-3.03-1.554-4.612-2.136-123.156-42.9-246.293-85.869-369.44-128.788-4.331-1.515-8.7-2.923-12.944-4.661-0.03-2.262-0.011-4.525 0.106-6.778z" fill="#1a1a1a" stroke="#1a1a1a"/>
    <path d="m807.248 523.624c229.155-84.15 458.299-168.329 687.483-252.391-0.427 1.612 0.252 4.253-1.593 5.059-113.679 44.668-227.436 89.141-341.095 133.867-11.682 4.515-23.412 8.933-35.006 13.662-15.304 6.263-30.889 11.847-46.182 18.139-23.926 9.584-48.105 18.547-71.954 28.306-22.295 8.71-44.648 17.275-66.865 26.15-18.178 7.176-36.433 14.167-54.582 21.411-10.293 4.039-20.596 8.021-30.869 12.089-5.273 2.097-10.701 3.836-15.711 6.516-10.157 3.175-19.741 7.933-29.898 11.099-0.243-7.108-0.01-14.216-0.078-21.324 2.126-0.835 4.214-1.767 6.35-2.583z" fill="#4d4d4d" stroke="#4d4d4d"/>
    <path d="m371.516 436.493c3.146-2.272 6.03-4.962 9.565-6.632-1.534 3.904-4.845 6.574-7.729 9.438-4.418 4.671-9.633 8.477-14.129 13.06-12.235 12.371-24.655 24.558-36.851 36.958-5.117 6.195-11.235 11.575-15.614 18.362-14.973 21.431-27.84 44.464-36.705 69.109-7.157 19.421-12.478 39.667-14.585 60.292 2.486 0.272 4.981 0.563 7.467 0.884-4.69 4.273-10.545 7.39-14.109 12.798-2.224 3.068-3.369 6.885-3.02 10.691 0.447 5.778 1.146 11.905 4.574 16.78 2.029 3.078 5.098 5.302 7.089 8.409 0.621 1.68 0.544 3.525 0.621 5.302-0.155 16.197-0.01 32.394-0.01 48.591 0.117 9.72-0.359 19.469 0.67 29.16 0.806 20.363-0.612 40.793 1.146 61.117 0.33 9.312-0.32 18.644 0.466 27.946 0.806 8.244 0.641 16.546 0.689 24.829-7.914-4.098-15.061-9.71-20.838-16.498-1.029-1.447-2.612-2.903-2.282-4.836 4.486-52.698 8.992-105.396 13.653-158.075 0.252-4.68 1.194-9.351 0.971-14.031-6.283-4.836-12.585-10.244-15.808-17.682-3.36-7.438-2.34-16.343 1.796-23.256 2.36-4.593 6.186-8.098 9.633-11.827 0.311-8.322 0.486-16.692 2.165-24.888 3.496-21.091 12.031-40.871 21.732-59.767 13.925-28.014 32.501-53.562 53.999-76.236 14.011-14.557 29.383-27.763 45.444-39.998z" fill="#c7a434" stroke="#c7a434"/>
    <path d="m833.039 700.081c-22.674 1.01-45.415 0.524-68.108 0.262-9.613-0.253-19.236-0.311-28.83-0.99-9.497-0.01-18.974-0.835-28.471-1.107-1.117-0.165-2.389 0.019-3.311-0.709-13.818 0.136-27.587-1.612-41.366-2.554-8.05-0.767-16.129-1.262-24.13-2.379-11.924-1.088-23.839-2.36-35.666-4.127-16.304-1.816-32.53-4.292-48.688-7.069-60.398-9.652-119.933-24.383-178.243-42.774-1.379-40.987 6.525-81.742 18.43-120.797 9.788-31.957 22.829-62.797 37.375-92.85 2.554-1.738 5.234-3.282 7.875-4.884 4.253-2.699 8.574-5.292 12.944-7.817 62.389 20.421 124.594 41.386 186.915 62.02 51.737 17.343 103.639 34.161 155.356 51.562 1.855 0.592 3.845 0.641 5.778 0.34 0.068 7.108-0.165 14.216 0.078 21.324 10.157-3.166 19.741-7.924 29.898-11.099-3.243 3.777-8.244 4.884-12.478 7.127-0.34 7.39-0.078 14.789-0.126 22.188 0.01 6.341-0.32 12.701 0.437 19.013 0.699 5.612 0.612 11.274 0.476 16.915-0.233 7.147 1.311 14.216 1.068 21.363-0.126 5.37-0.253 10.759 0.398 16.1 1.476 14.061-0.524 28.247 1.214 42.298 0.651 6.04 0.262 12.138-0.107 18.197 3.756-0.039 7.524 0.126 11.282 0.447z" fill="#171717" stroke="#171717"/>
    <path d="m1152.043 410.159c-11.682 4.515-23.412 8.933-35.006 13.663-15.304 6.263-30.889 11.847-46.182 18.139-23.926 9.584-48.105 18.547-71.954 28.306-22.295 8.71-44.648 17.275-66.865 26.15-18.178 7.176-36.433 14.167-54.582 21.411-10.293 4.04-20.596 8.021-30.869 12.089-5.273 2.097-10.701 3.836-15.711 6.516-3.243 3.777-8.244 4.884-12.478 7.127-0.34 7.39-0.078 14.789-0.126 22.188 0.01 6.341-0.32 12.701 0.437 19.013 0.699 5.612 0.612 11.274 0.476 16.915-0.233 7.147 1.311 14.216 1.068 21.363-0.126 5.37-0.253 10.759 0.398 16.1 1.476 14.061-0.524 28.247 1.214 42.298 0.651 6.04 0.262 12.138-0.107 18.197 3.758-0.039 7.526 0.126 11.283 0.447 5.749 0.223 11.516-0.087 17.265-0.398-0.126-36.326 15.003-70.895 35.462-100.259 6.924-8.71 13.42-17.818 21.363-25.655 6.953-7.37 14.041-14.643 21.674-21.314 14.128-12.177 29.063-23.421 44.901-33.297 5.554-3.321 10.914-7.069 16.906-9.584 6.574-4.088 13.517-7.506 20.44-10.953 18.508-8.098 37.2-16.022 56.738-21.314 1.049-0.291 2.107-0.563 3.185-0.835 15.168-4.176 30.549-7.681 46.144-9.827 2.486-0.359 4.962-0.816 7.477-1.126 7.526-0.33 15.002-1.67 22.567-1.486 11.128-0.787 22.285-0.291 33.442-0.33-8.09-18.558-17.665-36.493-28.56-53.544z" fill="#222" stroke="#222"/>
    <path d="m1209.898 583.294c-2.146-41.23-12.565-81.897-29.296-119.593-11.157 0.039-22.314-0.456-33.442 0.33-7.564-0.184-15.041 1.155-22.567 1.486-2.515 0.311-4.991 0.767-7.477 1.126-15.595 2.146-30.976 5.651-46.144 9.827-1.078 0.272-2.136 0.544-3.185 0.835-19.537 5.292-38.23 13.216-56.738 21.314-6.924 3.447-13.866 6.865-20.44 10.953-5.991 2.515-11.351 6.263-16.906 9.584-15.838 9.875-30.772 21.12-44.901 33.297-7.632 6.671-14.721 13.944-21.674 21.314-7.943 7.836-14.439 16.945-21.363 25.655-20.46 29.364-35.588 63.933-35.462 100.259 22.13-0.835 44.299-1.971 66.322-4.272 29.655-2 59.136-6.292 88.597-10.206l-0.029-0.369c23.858-3.088 47.445-7.943 71.099-12.313l0.088-0.408c11.866-1.874 23.499-4.962 35.258-7.428 1.33-0.505 3.117-0.35 4.185-1.398 7.05-0.884 13.847-3.146 20.761-4.739 12.653-3.166 25.179-6.826 37.783-10.186l-0.068-0.505c7.458-1.398 14.566-4.195 21.819-6.37 3.505-1.282 7.322-1.961 10.555-3.884 3.72-17.807 3.972-36.189 3.225-54.309z" fill="#4b4b4b" stroke="#4b4b4b"/>
    <path d="m275.791 656.229c4.603-1.961 11.06 1.136 10.681 6.603-1.039 3.729-5.001 6.962-9.05 6.234-3.486 0-6.797-2.651-7.04-6.215 0.33-3.01 2.603-5.612 5.409-6.622z" fill="#ddc061" stroke="#ddc061"/>
  </g>
  <g transform="matrix(.02231237 0 0 .02231237 21.007178 90.41082)">
    <path d="m1034.723 838.123c15.663-7.487 35.161-6.943 50.348 1.661 15.119 8.157 25.703 22.586 33.141 37.725 5.651 11.575 8.079 25.276 4.117 37.734-2.165 3.797-3.777 7.856-5.554 11.847-0.272-7.72-0.641-15.643-3.904-22.771-2.418-6.147-6.38-11.536-11.206-15.983-4.7-13.06-12.245-25.393-23.014-34.307-8.584-6.758-19.158-11.371-30.189-11.633-7.496-0.505-14.886 0.913-22.256 2.01 2.992-1.874 5.866-3.933 8.517-6.283z" fill="#ac2c33" stroke="#ac2c33"/>
    <path d="m1022.507 843.736c3.865-2.263 7.778-4.671 12.216-5.613-2.651 2.35-5.525 4.409-8.516 6.283 7.37-1.097 14.76-2.515 22.256-2.01 11.031 0.262 21.606 4.875 30.189 11.633 10.769 8.914 18.314 21.246 23.014 34.307-4.117-2.534-8.341-5.078-13.031-6.36-7.885-1.864-16.42-0.612-23.402 3.515-8.536 4.253-13.264 12.963-18.168 20.693-9.487 16.479-16.741 34.093-24.227 51.533-5.38 12.779-16.139 21.984-25.606 31.675-20.635 19.294-42.376 37.356-64.467 54.961-4.71 3.709-9.176 7.768-14.342 10.856-1.855-3.69-1.777-8.652-5.244-11.283-4.923-9.332-9.846-18.916-17.401-26.441-4.098-4.418-9.244-7.671-13.323-12.08 1.301 0.534 2.593 1.117 3.904 1.719 13.497-10.827 26.257-22.557 38.599-34.666 11.701-12.002 23.295-24.324 32.355-38.502 10.079-18.372 18.887-37.492 30.558-54.941 9.195-13.761 20.342-26.647 34.636-35.279z" fill="#a61d24" stroke="#a61d24"/>
    <path d="m1388.083 878.013c22.295-4.496 45.522-8.205 68.089-3.292 32.18 6.496 60.117 29.898 72.954 59.991 17.838 38.783 31.898 80.314 33.064 123.351 0.476 26.985-5.7 55.495-23.781 76.352-0.99-2.34-1.66-4.826-1.544-7.36 0.252-10.555-1.612-21.11-4.845-31.131-3.253-9.215-7.273-18.518-14.274-25.538-4.671-5.253-11.041-9.021-17.993-10.177-8.118-1.088-16.158 2.34-22.528 7.147-5.195 4.438-10.71 8.934-14.245 14.867-6.283 13.313-16.304 24.324-25.936 35.268-13.303 14.07-28.073 26.917-44.803 36.783-14.818 9.322-30.743 16.634-46.348 24.509-16.779 7.836-33.967 14.77-51.144 21.674-65.069 25.295-131.906 45.804-199.315 63.836-9.283 2.593-18.692 4.758-27.704 8.215-28.209 9.419-56.369 18.964-84.723 27.937-8.759 3.088-17.799 5.428-26.218 9.419 7.924-12.012 14.294-25.101 18.139-38.987 6.545-23.043 6.477-47.513 2.486-70.992-2.845-17.11-7.71-33.802-12.866-50.339-7.428-21.712-19.45-41.492-32.18-60.466 9.497-1.253 19.11-1.01 28.675-1.058 38.968-0.311 78.382 8.895 111.989 28.947 23.917 14.022 44.522 33.083 62.36 54.174 3.816 4.273 6.972 9.099 10.953 13.255 16.216-11.332 32.209-22.994 48.319-34.482 6.331-4.554 12.915-8.788 18.819-13.895-4.923-3.447-10.157-6.419-15.614-8.885 6.312-4.671 12.682-9.283 18.974-13.993-9.856-11.507-20.499-22.324-31.122-33.112-4.049-4.02-8.04-8.108-12.371-11.808-0.388-0.359-0.767-0.709-1.117-1.058-7.467-7.409-15.498-14.294-23.994-20.499-15.575-10.536-31.87-20.013-48.727-28.345 15.944-8.681 31.462-18.1 47.28-27.004 26.655-15.109 53.349-30.131 80.033-45.173 14.905-8.108 28.626-18.149 42.745-27.49-0.408-0.379-1.243-1.117-1.651-1.486 38.975-16.025 78.875-30.338 120.164-39.155z" fill="#fcf7da" stroke="#fcf7da"/>
    <path d="m1065.233 885.49c6.982-4.127 15.517-5.38 23.402-3.515 4.69 1.282 8.914 3.826 13.031 6.36 4.826 4.447 8.788 9.837 11.206 15.983 3.263 7.127 3.632 15.051 3.904 22.771 1.777-3.991 3.389-8.05 5.554-11.847 0.087 3.942-0.087 8.118-1.893 11.72-1.777 2.437-3.603 5.03-6.457 6.302 0.456-7.409 1.194-14.993-1.107-22.188-2.709-10.322-9.604-19.644-19.062-24.693-14.76-8.04-35.19 0.592-40.803 16.158-4.603 4.166-7.03 9.953-9.914 15.304-5.972 11.759-11.293 23.839-16.284 36.035-2.593 6.943-5.943 13.653-10.924 19.197-16.993 19.188-36.754 35.608-56.106 52.319-8.361 6.623-16.449 13.565-24.858 20.139-5.224 4.506-11.555 7.885-15.789 13.439-1.117 1.088 0.058 2.36 0.456 3.505 0.087 0.942 0.155 1.893 0.262 2.874 8.526 0.175 17.042-0.816 25.587-0.311 11.351 0.621 22.751 0.175 34.064 1.437 18.042 1.787 35.831 5.583 53.349 10.176 18.1 6.36 36.356 12.798 52.844 22.8 11.594 7.215 22.664 15.333 32.85 24.451 4.583 4.797 10.206 8.545 14.391 13.76 3.311 4.107 7.38 7.545 10.516 11.818 2.34 3.185 4.7 6.38 7.224 9.438 8.089-5.253 15.818-11.031 23.431-16.954 5.312-3.709 10.536-7.545 15.672-11.497 8.302-5.613 16.372-11.584 24.072-17.984-2.855-3.729-6.477-6.758-9.487-10.332-7.205-8.924-15.76-16.605-23.742-24.8-2.583-2.884-6.506-5.059-7.273-9.137 4.331 3.7 8.322 7.788 12.371 11.808 10.623 10.788 21.266 21.606 31.122 33.112-6.292 4.709-12.662 9.322-18.974 13.993-15.838 11.633-31.665 23.285-47.513 34.909-7.555-11.575-17.304-21.508-27.189-31.093-12.779-12.109-26.616-23.237-41.988-31.899-32.161-17.653-68.303-27.306-104.707-30.801-4.069-0.359-8.137-0.553-12.206-0.456-15.274-0.757-30.588-0.757-45.862-0.165-0.048 0.437-0.146 1.292-0.194 1.719 4.632 6.642 9.662 13.002 14.158 19.731 12.73 18.974 24.752 38.754 32.18 60.466 5.156 16.537 10.021 33.229 12.866 50.339 3.991 23.48 4.059 47.95-2.486 70.992-3.845 13.886-10.215 26.975-18.139 38.987-3.078 4.107-6.011 8.341-9.429 12.177-31.102 11.808-62.496 22.936-93.676 34.579-2.136 0.854-4.389 1.505-6.71 1.34 3.166-5.234 7.322-9.788 10.526-15.002 10.856-16.857 19.333-35.278 25.043-54.495 10.468-37.375 9.273-78.858-7.526-114.233-6.273-13.662-12.323-27.451-19.634-40.609-6.69-12.002-14.672-23.247-23.353-33.889-5.729 8.458-11.225 17.061-16.692 25.684-4.04 6.147-7.846 12.439-11.885 18.576-0.427-2.185 0.165-4.302 1.515-6.03 5.409-7.953 10.196-16.294 15.595-24.237 4.428-7.089 9.37-13.896 13.08-21.411-4.622-3.496-9.429-6.749-13.808-10.545-1.816-1.486-3.544-3.146-5.681-4.137-2.855-0.427-5.719 0.272-8.526 0.67-17.333 2.699-34.85 3.972-52.358 4.797-3.748 0.184-7.594-0.35-11.254 0.621-3.535 2.709-5.496 6.894-7.914 10.536-10.031 16.449-17.139 34.433-24.538 52.154-5.214 12.332-9.536 25.043-13.866 37.705-2.039 5.817-3.971 11.672-5.865 17.537-5.671 19.527-10.448 39.337-15.08 59.136 25.907 6.292 52.077 11.439 78.062 17.42 1.369-21.382 6.894-42.298 14.187-62.36 1.418-4.525 3.195-8.924 4.981-13.293 0.253 0.388 0.767 1.175 1.02 1.563-9.031 24.587-17.265 49.999-18.275 76.372-3.787-0.757-7.555-1.612-11.303-2.486-23.674-5.011-47.251-10.439-70.924-15.42 1.359-8.205 3.777-16.177 5.642-24.276 3.671-14.498 7.147-29.083 12.002-43.24 10.575-30.646 21.198-61.437 35.909-90.394 3.748-7.516 8.283-14.604 13.031-21.508-9.021-0.35-18.032-1.039-27.014-1.864-8.196-1.845-16.818-2.515-24.47-6.186 4.078-1.942 8.215 0.573 12.225 1.427 7.273 1.748 14.76 2.389 22.149 3.467 12.954 2.136 25.995-0.126 38.997-0.466 14.964-0.136 29.772-2.476 44.609-4.176 1.33-0.427 3.437-0.33 4.03-1.845-1.612-4.069-5.069-6.923-8.254-9.73-7.069-6.933-9.924-17.42-9.312-27.121 0.049-5.069 2.865-9.458 4.127-14.235-7.856 0.359-15.634 1.874-23.509 1.699-11.342-0.204-22.732 0.573-34.015-0.923-7.797-0.728-15.391-2.709-23.043-4.263-18.77-4.243-36.637-13.653-49.474-28.17-4.933-5.797-9.904-12.05-11.419-19.702-2.758-9.506-3.059-19.537-2.127-29.325 2.758-14.837 15.197-26.373 29.238-30.811 7.661-2.612 15.857-2.835 23.878-2.437 4.7 0.214 9.293 1.758 14.031 1.34-11.283-10.575-26.577-15.498-41.706-17.032 0.049-0.515 0.155-1.534 0.204-2.039 7.691 0.971 15.401 2.301 22.713 4.972 8.254 3.03 15.371 8.351 22.188 13.779 2.486 1.991 5.146 3.845 7.137 6.389-3.243-0.272-6.419-1-9.448-2.136-16.381-5.583-35.676-4.778-50.164 5.35-7.768 4.884-13.798 12.818-15.206 22.013-3.224 9.108-1.33 19.061 0.952 28.17 1.884 8.768 7.603 16.042 13.624 22.421 15.041 15.886 36.307 24.121 57.514 27.665 20.508 3.195 41.415 3.67 62.039 1.272 4.836-0.767 10.963-0.097 13.954-4.836 5.807-3.641 11.167-8.506 18.003-10.099-3.884 3.962-9.147 6.001-13.439 9.438-5.35 4.457-10.041 10.167-11.72 17.061-1.826 6.749-0.913 14.08 2.088 20.363 4.777 10.662 13.002 19.324 21.761 26.849 5.914 4.544 11.507 9.837 18.595 12.497 6.555 2.437 13.352 4.389 20.353 4.972 8.788 0.456 17.75 0.524 26.325-1.748 7.361-1.932 14.906-4.302 20.858-9.244 4.981-4.049 8.594-9.739 10.099-15.983 1.428-8.817-0.233-17.721-3.272-26.014 3.467 2.632 3.389 7.594 5.244 11.283 5.166-3.088 9.633-7.147 14.342-10.856 22.091-17.605 43.833-35.666 64.467-54.961 9.468-9.691 20.227-18.896 25.606-31.675 7.487-17.44 14.74-35.054 24.227-51.533 4.899-7.725 9.628-16.436 18.164-20.689m-147.52 187.128c-2.641 5.545-5.467 11.332-10.458 15.148-8.03 6.36-18.265 8.856-28.15 10.623-13.09 1.379-26.655 1.01-39.074-3.787-2.437-1.398-5.438-0.408-6.195 2.398 0.67 3.758 3.942 6.351 6.04 9.39 6.467 8.895 12.74 17.964 17.945 27.675 7.992 15.002 15.07 30.471 21.945 46.017 3.962 9.827 6.972 20.062 8.807 30.5 1.884 13.459 3.302 27.102 2.02 40.686-0.253 9.137-2.127 18.11-3.564 27.102-2.253 7.71-3.845 15.624-6.817 23.13-6.71 18.809-16.449 36.433-27.869 52.766 4.826-0.903 9.273-3.039 13.896-4.603 26.034-9.604 52.115-19.091 78.159-28.665 4.952-2.67 7.458-8.147 10.798-12.449 10.73-15.634 17.818-33.637 21.392-52.222 3.573-25.354 1.476-51.368-5.205-76.042-3.69-13.886-7.351-27.849-12.827-41.152-10.624-23.828-24.665-46.094-40.843-66.515z" fill="#961123" stroke="#961123"/>
    <path d="m1053.007 902.542c5.613-15.566 26.043-24.198 40.803-16.158 9.458 5.049 16.352 14.371 19.062 24.693 2.301 7.195 1.563 14.779 1.107 22.188 2.855-1.272 4.68-3.865 6.457-6.302-1.292 6.283-4.875 11.779-8.39 17.042-6.758 9.565-15.236 17.75-23.858 25.606-2.359 1.806-4.263 4.554-7.166 5.467-1.505 0.34-3.117 0.476-4.379 1.427-13.604 10.788-29.034 18.974-44.493 26.742-6.836 0.214-12.895 3.632-19.314 5.554-11.011 3.535-22.013 7.137-32.986 10.808-6.632 2.127-13.138 4.777-20.071 5.787 19.353-16.711 39.113-33.132 56.106-52.319 4.981-5.545 8.332-12.254 10.924-19.197 4.972-1.058 8.691-4.845 12.75-7.661 7.972-6.205 15.255-13.497 20.567-22.149 2.466-4.166 4.709-8.681 5.001-13.594 0.223-3.049-1.321-6.487-4.37-7.487-2.535-0.661-5.186-0.37-7.75-0.447z" enable-background="new    " fill="#7d1b1b" opacity=".97" stroke="#7d1b1b"/>
    <path d="m659.02 891.617c6.331-1.185 12.798-1.35 19.207-0.845-0.049 0.505-0.155 1.525-0.204 2.039 15.129 1.534 30.423 6.457 41.706 17.032-4.739 0.418-9.332-1.126-14.031-1.34-8.021-0.398-16.216-0.175-23.878 2.437-14.041 4.438-26.48 15.974-29.238 30.811-0.932 9.788-0.631 19.819 2.127 29.325 1.515 7.652 6.487 13.905 11.419 19.702 12.837 14.517 30.704 23.926 49.474 28.17 7.652 1.554 15.245 3.535 23.043 4.263 11.284 1.495 22.674 0.719 34.015 0.923 7.875 0.175 15.653-1.34 23.509-1.699-1.262 4.777-4.078 9.167-4.127 14.235-0.612 9.701 2.243 20.188 9.312 27.121-11.847 3.564-24.188 5.088-36.297 7.467-5.778-2.884-12.4-2.428-18.615-3.476-20.304-2.787-40.512-6.991-59.787-14.041-17.78-6.467-34.666-16.11-47.979-29.675-11.361-11.449-19.45-26.014-23.441-41.619-2-7.943-3.447-16.158-2.68-24.373 0.699-7.691 2.709-15.265 5.768-22.353 7.137-14.886 18.304-27.529 31.151-37.764 2.894-2.253 6.428-3.35 9.905-4.35-0.088-0.494-0.262-1.494-0.359-1.99z" enable-background="new    " fill="#a11922" opacity=".97" stroke="#a11922"/>
    <path d="m614.197 918.068c11.691-13.167 27.315-23.334 44.823-26.451 0.097 0.495 0.272 1.495 0.359 1.991-3.476 1-7.011 2.097-9.905 4.35-12.847 10.235-24.014 22.878-31.151 37.764-3.059 7.089-5.069 14.663-5.768 22.353-0.767 8.215 0.68 16.43 2.68 24.373 3.991 15.604 12.08 30.17 23.441 41.619 13.313 13.565 30.199 23.208 47.979 29.675 19.275 7.05 39.482 11.254 59.787 14.041 6.215 1.049 12.837 0.592 18.615 3.476-14.323 3.117-28.976 4.719-43.085 8.749-7.39-1.078-14.876-1.719-22.149-3.467-4.01-0.854-8.147-3.369-12.225-1.427-3.069 0.136-5.904-1.787-8.798-2.68-29.102-11.584-54.601-32.743-70.245-60-10.147-17.828-15.954-39.007-12.138-59.486 2.321-13.06 8.72-25.237 17.78-34.88z" enable-background="new    " fill="#991820" opacity=".97" stroke="#991820"/>
    <path d="m670.653 919.127c14.488-10.128 33.782-10.934 50.164-5.35 3.03 1.136 6.205 1.864 9.448 2.136 4.039 2.515 6.875 6.846 9.914 10.526 9.264 13.43 17.653 27.51 24.888 42.143 6.273 14.41 13.332 29.112 25.101 39.89 3.738 3.603 8.662 5.399 13.361 7.36-2.991 4.739-9.118 4.069-13.954 4.836-20.625 2.398-41.531 1.923-62.039-1.272-1.214-4.913-4.506-8.924-6.516-13.497-6.826-13.022-11.798-27.043-20.139-39.23-5.389-8.011-11.662-15.575-19.46-21.343-4.816-3.515-10.458-6.496-16.566-6.428-3.282-0.019-6.331 1.301-9.409 2.243 1.408-9.196 7.438-17.13 15.207-22.014z" enable-background="new    " fill="#7d1b1b" opacity=".97" stroke="#7d1b1b"/>
    <path d="m1234.601 931.576c11.099-4.807 22.072-9.914 33.316-14.41 0.408 0.369 1.243 1.107 1.651 1.486-14.119 9.341-27.84 19.382-42.745 27.49-26.684 15.041-53.378 30.063-80.033 45.173-15.818 8.904-31.335 18.323-47.28 27.004-14.993-7.312-30.481-13.837-46.687-17.906-2.165-0.563-4.311-1.156-6.409-1.864 1.806-1.068 3.68-2.01 5.593-2.894 61.127-20.577 121.894-42.251 182.594-64.079z" fill="#ebe7cb" stroke="#ebe7cb"/>
    <path d="m1076.642 976.505c1.262-0.952 2.874-1.088 4.379-1.427-7.924 9.021-19.226 13.954-29.015 20.576-1.913 0.884-3.787 1.826-5.593 2.894-1.039 0.573-2.068 1.175-3.078 1.767-40.628 21.936-82.13 42.211-123.749 62.166-0.398-1.146-1.573-2.418-0.456-3.505 8.351-2.845 15.77-7.729 23.878-11.138 8.506-3.593 16.488-8.292 24.965-11.953 7.118-3.088 13.944-6.778 20.906-10.176 14.517-7.292 29.18-14.333 43.269-22.46 15.46-7.77 30.89-15.955 44.494-26.744z" fill="#78101e" stroke="#78101e"/>
    <path d="m840.156 1000.072c5.389-2.03 11.293-1.971 16.983-2.068 8.846-0.165 18.246 1.855 25.315 7.399 4.078 4.409 9.225 7.661 13.323 12.08 7.555 7.526 12.478 17.11 17.401 26.441 3.039 8.293 4.7 17.197 3.272 26.014-4.807 0.884-9.71 0.913-14.565 0.476-0.961-7.788-0.058-15.818-2.573-23.392-3.981-16.003-15.925-29.451-30.821-36.239-8.147-3.641-16.964-5.807-25.888-6.069-4.244-0.117-8.487-0.068-12.721-0.233 3.506-1.272 6.963-2.69 10.274-4.409z" fill="#af3339" stroke="#af3339"/>
    <path d="m1043.336 1000.315c1.01-0.592 2.039-1.194 3.078-1.767 2.097 0.709 4.243 1.301 6.409 1.864 16.207 4.069 31.695 10.594 46.687 17.906 16.857 8.332 33.151 17.809 48.727 28.345 8.497 6.205 16.527 13.09 23.994 20.499-3.069 0.039-5.263-2.272-7.341-4.175-13.721-13.769-30.762-23.45-47.445-33.122-14.74-7.904-29.646-15.711-45.474-21.246-9.36-3.342-18.886-6.333-28.635-8.304z" fill="#961123" stroke="#961123"/>
    <path d="m827.426 1003.189c4.214-1.126 8.322-2.826 12.73-3.117-3.311 1.719-6.768 3.136-10.274 4.408 4.234 0.165 8.477 0.117 12.721 0.233 8.924 0.262 17.741 2.428 25.888 6.069 14.896 6.788 26.839 20.236 30.821 36.239 2.515 7.574 1.612 15.604 2.573 23.392 4.855 0.437 9.759 0.408 14.565-0.476-1.505 6.244-5.117 11.934-10.099 15.983-5.952 4.943-13.497 7.312-20.858 9.244-8.574 2.272-17.537 2.204-26.325 1.748-3.389-1.418-5.914-4.36-6.69-7.953-1.777-6.234-2.331-12.711-3.321-19.091-1.136-7.205-0.66-14.789-3.612-21.615-2.544-5.826-5.826-11.371-10.099-16.09-3.68-4.117-7.564-8.409-12.818-10.497-4.37-1.728-9.031-2.534-13.507-3.865-0.262-0.66-0.767-1.971-1.029-2.632 4.292-3.437 9.555-5.477 13.439-9.438 1.661-1.425 3.875-1.872 5.895-2.542z" fill="#a92329" stroke="#a92329"/>
    <path d="m919.587 1062.481c41.619-19.955 83.121-40.23 123.749-62.166 9.749 1.971 19.275 4.962 28.636 8.302-14.546 7.875-29.51 14.993-44.328 22.363-7.322 2.913-14.197 6.817-21.295 10.244-5.923 3.282-12.118 6.156-17.576 10.215 7.768 2.709 16.216 3.068 23.732 6.622 8.846 3.525 14.109 11.885 20.343 18.595-17.517-4.593-35.307-8.39-53.349-10.176-11.313-1.262-22.713-0.816-34.064-1.437-8.545-0.505-17.061 0.485-25.587 0.311-0.106-0.98-0.173-1.931-0.261-2.873z" fill="#9e1c22" stroke="#9e1c22"/>
    <path d="m1012.836 1008.802c6.419-1.923 12.478-5.341 19.314-5.554-14.09 8.128-28.752 15.168-43.269 22.46-6.962 3.399-13.789 7.089-20.906 10.176-8.477 3.661-16.459 8.361-24.965 11.953-8.108 3.408-15.527 8.293-23.878 11.138 4.234-5.554 10.565-8.933 15.789-13.439 8.409-6.574 16.498-13.517 24.858-20.139 6.933-1.01 13.439-3.661 20.071-5.787 10.972-3.671 21.974-7.273 32.986-10.808z" fill="#842222" stroke="#842222"/>
    <path d="m1071.972 1008.617c15.828 5.535 30.733 13.342 45.474 21.246 16.682 9.672 33.724 19.353 47.445 33.122 1.709 2.399 3.214 4.952 4.768 7.477-6.049 5.03-12.449 9.604-18.595 14.507-1.864 1.699-3.816-0.874-5.37-1.787-12.206-10.283-25.849-18.683-40.016-25.965-16.741-7.982-34.307-14.138-52.271-18.702-8.574-2.563-17.537-3.933-25.762-7.535 14.817-7.37 29.781-14.488 44.327-22.363z" fill="#ab292e" stroke="#ab292e"/>
    <path d="m796.372 1032.233c1.68-6.894 6.37-12.604 11.72-17.061 0.262 0.66 0.767 1.971 1.029 2.632 4.476 1.33 9.137 2.136 13.507 3.865 5.253 2.088 9.137 6.38 12.818 10.497 4.273 4.719 7.555 10.264 10.099 16.09 2.952 6.826 2.476 14.41 3.612 21.615 0.99 6.38 1.544 12.857 3.321 19.091 0.777 3.593 3.302 6.535 6.69 7.953-7.001-0.583-13.798-2.534-20.353-4.972-7.089-2.661-12.682-7.953-18.595-12.497-8.759-7.526-16.983-16.187-21.761-26.849-2.999-6.284-3.912-13.615-2.087-20.364z" fill="#a22127" stroke="#a22127"/>
    <path d="m1006.349 1041.225c7.098-3.428 13.973-7.331 21.295-10.244 8.225 3.602 17.187 4.972 25.762 7.535 17.964 4.564 35.53 10.72 52.271 18.702 14.167 7.283 27.81 15.682 40.016 25.965 1.554 0.913 3.505 3.486 5.37 1.787 6.147-4.904 12.546-9.477 18.595-14.507-1.554-2.525-3.059-5.078-4.768-7.477 2.078 1.903 4.272 4.214 7.341 4.175 0.349 0.35 0.728 0.699 1.117 1.058 0.767 4.078 4.69 6.254 7.273 9.137 7.982 8.196 16.537 15.876 23.742 24.8 3.01 3.573 6.632 6.603 9.487 10.332-7.7 6.399-15.77 12.371-24.072 17.984-5.137 3.952-10.361 7.788-15.672 11.497-7.613 5.923-15.342 11.701-23.431 16.954-2.525-3.059-4.884-6.253-7.224-9.438-3.136-4.273-7.205-7.71-10.516-11.818-4.185-5.214-9.807-8.963-14.391-13.76-10.186-9.118-21.256-17.236-32.85-24.451-16.488-10.002-34.744-16.44-52.844-22.8-6.234-6.71-11.497-15.071-20.343-18.595-7.516-3.554-15.964-3.913-23.732-6.622 5.456-4.058 11.651-6.932 17.574-10.214z" fill="#a61d24" stroke="#a61d24"/>
    <path d="m1477.223 1067.355c6.37-4.807 14.41-8.234 22.528-7.147 6.953 1.156 13.323 4.923 17.993 10.177 7.001 7.021 11.021 16.323 14.274 25.538 3.233 10.021 5.098 20.576 4.845 31.131-0.117 2.534 0.553 5.02 1.544 7.36-11.555 13.828-27.461 23.567-44.347 29.5-16.702 5.671-33.666 10.526-50.581 15.498-103.707 29.83-207.957 57.738-312.13 85.839-22.285 5.807-44.425 12.216-66.846 17.469-39.502 11.701-78.217 25.878-117.146 39.317 3.418-3.836 6.35-8.069 9.429-12.177 8.419-3.991 17.459-6.331 26.218-9.419 28.354-8.972 56.514-18.518 84.723-27.937 9.011-3.457 18.421-5.622 27.704-8.215 67.409-18.032 134.246-38.54 199.315-63.836 17.178-6.904 34.365-13.837 51.144-21.674 15.605-7.875 31.53-15.187 46.348-24.509 16.731-9.866 31.5-22.713 44.803-36.783 9.633-10.943 19.654-21.955 25.936-35.268 3.536-5.93 9.051-10.426 14.246-14.864z" fill="#f4efd3" stroke="#f4efd3"/>
    <path d="m801.354 1063.792c3.185 2.806 6.642 5.661 8.254 9.73-0.592 1.515-2.699 1.418-4.03 1.845-14.837 1.699-29.646 4.04-44.609 4.176-13.002 0.34-26.043 2.602-38.997 0.466 14.109-4.03 28.762-5.632 43.085-8.749 12.108-2.38 24.45-3.905 36.297-7.468z" fill="#9f1e27" stroke="#9f1e27"/>
    <path d="m918.402 1067.627c15.274-0.592 30.588-0.592 45.862 0.165-6.788 1.767-13.808 0.651-20.702 0.874-8.448 0.204-16.954-0.544-25.354 0.68 0.049-0.427 0.146-1.282 0.194-1.719z" fill="#f6fee0" stroke="#f6fee0"/>
    <path d="m964.264 1067.792c4.069-0.097 8.137 0.097 12.206 0.456 36.404 3.496 72.546 13.148 104.707 30.801 15.372 8.662 29.209 19.79 41.988 31.899 9.885 9.584 19.635 19.518 27.189 31.093 15.847-11.623 31.675-23.276 47.513-34.909 5.457 2.466 10.691 5.438 15.614 8.885-5.904 5.108-12.488 9.341-18.819 13.895-16.109 11.487-32.102 23.15-48.319 34.482-3.981-4.156-7.137-8.982-10.953-13.255-17.838-21.091-38.443-40.152-62.36-54.174-33.608-20.052-73.022-29.257-111.989-28.947-9.565 0.049-19.178-0.194-28.675 1.058-4.496-6.729-9.526-13.089-14.158-19.731 8.399-1.224 16.906-0.476 25.354-0.68 6.894-0.222 13.915 0.895 20.702-0.873z" fill="#ebe7cb" stroke="#ebe7cb"/>
    <path d="m917.713 1072.618c16.177 20.421 30.219 42.687 40.842 66.516 5.477 13.303 9.138 27.267 12.827 41.152-7.788 2.175-15.168 5.516-22.81 8.098-20.042 7.283-39.91 15.041-60 22.198-1.835-10.439-4.845-20.673-8.807-30.5-6.875-15.546-13.954-31.015-21.945-46.017-5.205-9.71-11.478-18.78-17.945-27.675-2.097-3.039-5.37-5.632-6.04-9.39 0.757-2.806 3.758-3.797 6.195-2.398 12.42 4.797 25.985 5.166 39.074 3.787 9.885-1.767 20.12-4.263 28.15-10.623 4.992-3.816 7.818-9.603 10.459-15.148z" fill="#a82229" stroke="#a82229"/>
    <path d="m805.626 1078.299c2.806-0.398 5.671-1.097 8.526-0.67 2.136 0.99 3.865 2.651 5.681 4.137 4.379 3.797 9.186 7.05 13.808 10.545-3.709 7.516-8.652 14.323-13.08 21.411-5.399 7.943-10.186 16.284-15.595 24.237-1.35 1.729-1.942 3.845-1.515 6.03-7.36 12.575-15.333 24.858-21.246 38.22-3.272 7.205-6.185 14.585-9.205 21.907-0.252-0.388-0.767-1.175-1.02-1.563 0.544-1.825 1.126-3.622 1.826-5.38 3.641-8.807 7.496-17.547 11.808-26.043 4.904-9.759 11.167-18.76 16.177-28.451-4.991-0.349-10.002-0.165-14.964 0.379-7.215 0.806-14.478 0.107-21.693 0.835-4.923 0.495-9.866 0.68-14.799 0.592-7.156-0.165-14.235 1.146-21.372 0.981-6.486-0.175-12.944 0.495-19.401 0.942 7.399-17.721 14.507-35.705 24.538-52.154 2.418-3.641 4.379-7.827 7.914-10.536 3.661-0.971 7.506-0.437 11.254-0.621 17.508-0.826 35.025-2.099 52.358-4.798z" fill="#a82229" stroke="#a82229"/>
    <path d="m712.067 1081.3c8.982 0.825 17.993 1.515 27.014 1.864-4.748 6.904-9.283 13.993-13.031 21.508-14.711 28.956-25.334 59.748-35.909 90.394-4.855 14.158-8.331 28.743-12.002 43.24-1.864 8.098-4.282 16.071-5.642 24.276 23.674 4.981 47.251 10.409 70.924 15.42-3.729 2.962-4.263 7.992-6.05 12.128-9.516-0.884-18.692-3.787-28.063-5.515-10.963-2.272-21.916-4.593-32.85-6.982-5.477-1.194-11.109-1.845-16.343-3.952 8.05-41.046 20.246-81.208 35.054-120.302 1.262-3.311 2.418-6.661 3.622-9.982 1.903-5.545 4.933-10.681 6.03-16.479-7.516 1.612-14.459 5.059-21.635 7.71-26.325 10.031-52.329 20.945-77.858 32.85-9.497 4.768-19.401 8.7-28.548 14.129-38.521 19.557-75.148 43.357-106.746 72.954-26.043 24.82-47.755 54.038-64.904 85.636-12.157 22.11-22.14 45.347-31.335 68.827-20.761-6.05-40.881-14.051-61.408-20.8-11.575-3.748-22.858-8.322-34.491-11.847 0.029 1.418 0.068 2.855 0.165 4.311-7.419-18.527-13.993-37.385-21.819-55.737-7.671-18.09-14.653-36.521-23.858-53.902-8.312-14.313-16.935-28.558-27.694-41.201-9.468-10.361-19.78-20.236-32.17-27.034-6.477-3.942-13.711-6.302-20.945-8.39-0.816-1.427-2.331-2.127-3.738-2.767 0.117-0.767 0.233-1.515 0.359-2.243 141.451-28.218 282.901-56.446 424.439-84.237 46.63-7.011 93.104-15.09 139.432-23.877z" fill="#ebe7cb" stroke="#ebe7cb"/>
    <path d="m832.029 1099.73c8.681 10.642 16.663 21.887 23.353 33.889 7.312 13.157 13.361 26.946 19.634 40.609 16.799 35.375 17.993 76.857 7.526 114.233-5.71 19.217-14.187 37.637-25.043 54.495-3.204 5.214-7.36 9.769-10.526 15.002-0.767 0.398-1.544 0.767-2.321 1.117-0.903-0.456-1.787-0.893-2.651-1.311 7.759-13.4 13.565-27.82 19.081-42.26 6.943-19.1 12.08-38.958 13.866-59.233 1.981-21.819-0.66-44.017-7.467-64.817-4.438-12.75-9.623-25.296-16.469-36.948-6.147-10.827-12.536-21.615-20.304-31.355-5.098 0.903-10.128 2.719-15.372 2.262 5.468-8.622 10.964-17.226 16.693-25.683z" fill="#ebe7cb" stroke="#ebe7cb"/>
    <path d="m815.337 1125.414c5.244 0.456 10.274-1.359 15.372-2.262 7.768 9.74 14.158 20.528 20.304 31.355 6.846 11.652 12.031 24.198 16.469 36.948 6.807 20.8 9.448 42.997 7.467 64.817-1.787 20.275-6.923 40.133-13.866 59.233-5.516 14.439-11.322 28.859-19.081 42.26 0.864 0.417 1.748 0.854 2.651 1.311-20.149 7.292-40.463 14.226-60.185 22.625-51.708 21.392-103.406 42.803-155.123 64.166-38.259 15.129-75.615 32.433-113.291 48.95-38.948 17.304-77.838 34.714-116.718 52.183-35.579 16.508-71.148 33.044-106.658 49.707-15.546 7.234-31.015 14.692-46.998 20.945-6.108 2.602-12.847 2.767-19.353 3.399-3.185-2.544-7.021-3.952-10.866-5.088 0.952-0.408 1.894-0.816 2.865-1.146 15.148-1.194 29.587-7.555 41.123-17.372 20.965-17.479 32.811-43.512 38.589-69.711 2.088 3.253 3.146 7.001 3.836 10.788 1.185 6.506 3.933 12.575 5.234 19.061 1.457 6.273 2.68 12.633 4.574 18.809 1 3.758 5.593 4.059 8.817 3.836 3.991-17.081 10.108-33.549 15.051-50.358 3.282-11.264 6.448-22.557 10.089-33.714 1.224-3.593 1.952-7.322 2.534-11.05 3.166-8.681 5.399-17.663 8.535-26.344 2.398-7.691 5.71-15.1 7.166-23.052 3.777-8.71 6.652-17.78 9.924-26.684 9.196-23.48 19.178-46.717 31.335-68.827 17.148-31.598 38.861-60.816 64.904-85.636 31.598-29.597 68.225-53.397 106.746-72.954 9.147-5.428 19.052-9.361 28.548-14.129 25.528-11.905 51.533-22.819 77.858-32.85 7.176-2.651 14.119-6.098 21.635-7.71-1.097 5.797-4.127 10.934-6.03 16.479-1.204 3.321-2.36 6.671-3.622 9.982-14.808 39.094-27.004 79.256-35.054 120.302 5.234 2.107 10.866 2.758 16.343 3.952 10.934 2.389 21.887 4.709 32.85 6.982 9.37 1.728 18.547 4.632 28.063 5.515 1.787-4.137 2.321-9.167 6.05-12.128 3.748 0.874 7.516 1.728 11.303 2.486 1.01-26.373 9.244-51.785 18.275-76.372 3.02-7.322 5.933-14.701 9.205-21.907 5.914-13.361 13.886-25.645 21.246-38.22 4.038-6.138 7.844-12.431 11.884-18.577z" fill="#fcf7da" stroke="#fcf7da"/>
    <path d="m786.827 1143.057c4.962-0.544 9.973-0.728 14.964-0.379-5.01 9.691-11.274 18.692-16.177 28.451-4.311 8.497-8.166 17.236-11.808 26.043-1.563 1.447-3.399 3.117-5.7 2.379-23.897-4.078-47.891-7.613-71.808-11.614-0.223-1.282-0.427-2.564-0.602-3.826 4.331-12.662 8.652-25.373 13.866-37.705 6.457-0.447 12.915-1.117 19.401-0.942 7.137 0.165 14.216-1.146 21.372-0.981 4.933 0.087 9.875-0.097 14.799-0.592 7.215-0.727 14.478-0.028 21.693-0.834z" fill="#ad3036" stroke="#ad3036"/>
    <path d="m948.573 1188.385c7.642-2.583 15.022-5.923 22.81-8.098 6.681 24.674 8.778 50.688 5.205 76.042-2.088 1.631-4.389 3.02-6.962 3.7-7.302 2.136-14.701 3.884-21.945 6.195-5.554 1.777-11.487 1.622-17.08 3.243-14.371 3.962-28.597 8.487-43.085 11.992-0.117-0.777-0.359-2.311-0.486-3.088 1.437-8.992 3.311-17.964 3.564-27.102 1.282-13.585-0.136-27.228-2.02-40.686 20.089-7.156 39.956-14.915 59.999-22.198z" fill="#ad2e35" stroke="#ad2e35"/>
    <path d="m689.831 1201.65c1.894-5.865 3.826-11.72 5.865-17.537 0.175 1.262 0.379 2.544 0.602 3.826 23.917 4.001 47.911 7.535 71.808 11.614 2.301 0.738 4.137-0.932 5.7-2.379-0.699 1.758-1.282 3.554-1.826 5.38-1.787 4.37-3.564 8.768-4.981 13.293-2 0.903-4.166 1.495-6.36 1.058-21.305-3.204-42.512-7.059-63.836-10.176-2.029-0.408-4.02-0.99-5.991-1.583-0.331-1.185-0.661-2.351-0.981-3.496z" fill="#ab2a31" stroke="#ab2a31"/>
    <path d="m127.582 1193.774c6.758-1.932 13.75-2.894 20.615-4.36-0.126 0.728-0.243 1.476-0.359 2.243 1.408 0.641 2.923 1.34 3.738 2.767-11.39-1.544-22.557 2.952-32.277 8.448-12.099 8.108-21.79 19.43-29.49 31.704-9.477 14.808-13.944 32.277-15.265 49.678-2.554 34.695 4.816 69.264 15.313 102.163 6.885 21.46 15.168 42.454 24.363 63.03 5.71 12.468 10.953 25.256 18.634 36.705 10.176 15.886 22.839 30.481 38.599 41.036 11.759 7.943 25.635 13.099 39.91 13.381 11.905 0.146 23.732-2.962 34.355-8.283 5.35-2.758 11.138-5.564 14.546-10.759 4.972-7.516 6.758-16.634 7.428-25.47 1.68-27.548-3.457-54.922-9.672-81.625-2.253-10.361-6.166-20.236-9.652-30.209-5.807-16.158-12.041-32.18-19.197-47.785-8.011-16.886-16.566-33.705-28.277-48.377-7.38-9.477-16.372-18.168-27.49-23.062-10.72-4.729-23.596-3.933-33.675 2.01-7.36 4.573-11.711 12.565-14.391 20.566-4.36 14.099-4.826 29.112-3.738 43.735 1.68 22.295 6.826 44.25 14.527 65.224 8.477 22.217 19.625 44.318 37.579 60.437 8.429 7.545 19.353 13.565 30.957 13.089 4.991 0.146 7.904-4.748 8.73-9.07 1.728-8.506-0.097-17.197-1.622-25.587-6.312-29.18-18.061-56.757-29.325-84.286 11.497 7.457 22.314 15.915 33.666 23.606 4.719 2.855 6.215 8.429 8.205 13.206 7.875 20.159 14.439 41.065 16.867 62.651 0.99 11.818 1.408 24.159-2.845 35.453-1.835 5.088-5.04 9.642-9.118 13.206-6.428 5.642-15.245 7.914-23.664 7.7-10.371-0.146-19.994-4.962-28.345-10.759-11.672-8.215-21.353-18.945-29.937-30.267-19.188-25.82-32.889-55.446-41.949-86.238-5.622-19.634-9.167-39.958-9.4-60.408 0.097-19.955 3.515-40.531 13.954-57.844 6.593-11.06 16.634-20.683 29.296-24.13 18.673-5.253 38.783 0.126 55.048 9.837 5.418 3.088 10.206 7.186 14.138 12.031 11.157 12.604 20.256 26.888 28.247 41.667 18.731 35.132 31.695 73.129 40.609 111.863 6.564 29.752 10.963 60.33 8.603 90.85-0.855 8.293-2.068 16.731-5.632 24.363-6.506 14.498-19.615 25.577-34.647 30.452-30.986 10.099-67.137 0.971-90.297-21.79-1.117-1.175-2.573-1.777-4.03-0.796-9.769 4.312-19.615 8.468-29.345 12.895 1.719 4.04 3.933 7.846 6.312 11.546-1.117 0.029-2.243 0.058-3.35 0.136-2.466-4.583-4.845-9.215-7.127-13.876 10.594-5.04 21.266-9.904 31.898-14.837-12.138-10.982-20.877-25.033-28.704-39.249-10.419-19.227-19.052-39.356-26.966-59.709-6.419-16.867-12.585-33.841-17.818-51.106-5.739-24.227-9.38-49.037-9.555-73.954 0.117-22.79 3.302-46.017 12.944-66.865 9.499-20.788 26.307-39.024 48.078-46.977z" fill="#fcf7da" stroke="#fcf7da"/>
    <path d="m119.299 1202.873c9.72-5.496 20.887-9.992 32.277-8.448 7.234 2.088 14.468 4.447 20.945 8.39 12.39 6.797 22.703 16.673 32.17 27.034 10.759 12.643 19.382 26.888 27.694 41.201 9.205 17.381 16.187 35.812 23.858 53.902 7.827 18.353 14.4 37.21 21.819 55.737 2.855 8.788 5.797 17.556 8.681 26.344 3.525 10.827 5.836 21.984 8.836 32.957 2.505 11.079 4.137 22.353 5.098 33.676 0.223 2.233 0.612 4.476 1.058 6.7-0.272 9.089 0.291 18.217-0.806 27.276-0.573 6.749-1.835 13.41-2.894 20.091-5.778 26.198-17.624 52.232-38.589 69.711-11.536 9.817-25.975 16.177-41.123 17.372-15.575 1.214-31.432-2.127-45.153-9.604-19.159-9.982-33.85-26.781-44.988-44.998-2.379-3.7-4.593-7.506-6.312-11.546 9.73-4.428 19.576-8.584 29.345-12.895 1.457-0.981 2.913-0.379 4.03 0.796 23.159 22.761 59.311 31.889 90.297 21.79 15.032-4.875 28.141-15.954 34.647-30.452 3.564-7.632 4.777-16.071 5.632-24.363 2.36-30.52-2.039-61.098-8.603-90.85-8.914-38.735-21.877-76.731-40.609-111.863-7.992-14.779-17.09-29.063-28.247-41.667-3.933-4.845-8.72-8.943-14.138-12.031-16.265-9.71-36.375-15.09-55.048-9.837-12.662 3.447-22.703 13.07-29.296 24.13-10.439 17.313-13.857 37.89-13.954 57.844 0.233 20.45 3.777 40.774 9.4 60.408 9.06 30.792 22.761 60.418 41.949 86.238 8.584 11.322 18.265 22.052 29.937 30.267 8.351 5.797 17.974 10.614 28.345 10.759 8.419 0.214 17.236-2.059 23.664-7.7 4.078-3.564 7.283-8.118 9.118-13.206 4.253-11.293 3.836-23.635 2.845-35.453-2.428-21.586-8.992-42.493-16.867-62.651-1.991-4.777-3.486-10.351-8.205-13.206-11.351-7.691-22.169-16.148-33.666-23.606 11.264 27.529 23.014 55.106 29.325 84.286 1.525 8.39 3.35 17.08 1.622 25.587-0.825 4.321-3.738 9.215-8.73 9.07-11.604 0.476-22.528-5.545-30.957-13.089-17.954-16.119-29.102-38.22-37.579-60.437-7.7-20.974-12.847-42.929-14.527-65.224-1.088-14.624-0.621-29.636 3.738-43.735 2.68-8.001 7.03-15.993 14.391-20.566 10.079-5.943 22.955-6.739 33.675-2.01 11.118 4.894 20.11 13.585 27.49 23.062 11.711 14.672 20.266 31.491 28.277 48.377 7.157 15.604 13.391 31.627 19.197 47.785 3.486 9.973 7.399 19.848 9.652 30.209 6.215 26.703 11.351 54.077 9.672 81.625-0.67 8.836-2.457 17.954-7.428 25.47-3.408 5.195-9.196 8.001-14.546 10.759-10.623 5.321-22.45 8.429-34.355 8.283-14.274-0.282-28.15-5.438-39.91-13.381-15.76-10.555-28.422-25.15-38.599-41.036-7.681-11.448-12.924-24.237-18.634-36.705-9.196-20.576-17.479-41.57-24.363-63.03-10.497-32.899-17.867-67.467-15.313-102.163 1.321-17.401 5.787-34.87 15.265-49.678 7.7-12.276 17.391-23.598 29.49-31.706z" fill="#d7d6b9" stroke="#d7d6b9"/>
    <path d="m674.75 1260.786c4.632-19.799 9.409-39.609 15.08-59.136 0.32 1.146 0.651 2.311 0.981 3.496 1.971 0.592 3.962 1.175 5.991 1.583 21.324 3.117 42.531 6.972 63.836 10.176 2.195 0.437 4.36-0.155 6.36-1.058-7.292 20.062-12.818 40.978-14.187 62.36-25.984-5.983-52.153-11.129-78.061-17.421z" fill="#a82229" stroke="#a82229"/>
    <path d="m969.625 1260.028c2.573-0.68 4.875-2.068 6.962-3.7-3.573 18.585-10.662 36.589-21.392 52.222-3.34 4.302-5.846 9.778-10.798 12.449-26.043 9.574-52.125 19.061-78.159 28.665-4.622 1.563-9.069 3.7-13.896 4.603 11.419-16.333 21.159-33.957 27.869-52.766 2.971-7.506 4.564-15.42 6.817-23.13 0.126 0.777 0.369 2.311 0.486 3.088 14.488-3.505 28.713-8.031 43.085-11.992 5.593-1.621 11.526-1.466 17.08-3.243 7.244-2.312 14.643-4.06 21.946-6.196z" fill="#a92329" stroke="#a92329"/>
    <path d="m277.898 1376.378c11.633 3.525 22.916 8.098 34.491 11.847 20.528 6.749 40.648 14.75 61.408 20.8-3.272 8.904-6.147 17.974-9.924 26.684-4.35 7.953-6.72 16.779-10.021 25.189-8.283-2.243-16.236-5.545-24.402-8.176-11.215-4.447-23.13-7.147-33.87-12.73-3-10.973-5.312-22.13-8.836-32.957-2.884-8.788-5.826-17.556-8.681-26.344-0.097-1.459-0.136-2.896-0.165-4.313z" fill="#eee9ce" stroke="#eee9ce"/>
    <path d="m353.852 1460.896c3.301-8.409 5.671-17.236 10.021-25.189-1.457 7.953-4.768 15.362-7.166 23.052-3.136 8.681-5.37 17.663-8.535 26.344-4.438 9.312-6.487 19.566-10.419 29.112-11.235-3.845-22.402-7.904-33.559-11.963-1.641-7.224-0.253-14.769-2.457-21.887-0.447-2.224-0.835-4.467-1.058-6.7-0.961-11.322-2.593-22.596-5.098-33.676 10.74 5.583 22.654 8.283 33.87 12.73 8.166 2.633 16.118 5.934 24.401 8.177z" fill="#f2edd1" stroke="#f2edd1"/>
    <path d="m301.737 1480.366c2.204 7.118 0.816 14.663 2.457 21.887 11.157 4.059 22.324 8.118 33.559 11.963 3.933-9.545 5.982-19.799 10.419-29.112-0.583 3.729-1.311 7.457-2.534 11.05-3.641 11.157-6.807 22.45-10.089 33.714-4.943 16.809-11.06 33.277-15.051 50.358-3.224 0.223-7.817-0.078-8.817-3.836-1.893-6.176-3.117-12.536-4.574-18.809-1.301-6.487-4.049-12.556-5.234-19.061-0.689-3.787-1.748-7.535-3.836-10.788 1.058-6.681 2.321-13.342 2.894-20.091 1.097-9.059 0.534-18.186 0.806-27.275z" fill="#f6f1d5" stroke="#f6f1d5"/>
    <path d="m124.834 1560.35c1.107-0.078 2.233-0.107 3.35-0.136 11.138 18.217 25.83 35.016 44.988 44.998 13.721 7.477 29.578 10.817 45.153 9.604-0.971 0.33-1.913 0.738-2.865 1.146 3.845 1.136 7.681 2.544 10.866 5.088-17.187 1.631-35.249 0.388-50.921-7.399-8.613-4.263-16.323-10.099-23.761-16.119-11.41-10.372-19.362-23.85-26.81-37.182z" enable-background="new    " fill="#f4efd3" opacity=".97" stroke="#f4efd3"/>
  </g>
  <g transform="translate(0,-138.24996)" fill="#f00" stroke="#000" stroke-width="2.11667">
    <path d="m52.821815 248.15175c-2.658925 0.41976-5.852795 1.32851-7.716324 2.85977 0.96256 0.71094 4.316582 2.38727 1.725991 3.3538-1.298818-0.86208-3.433159-2.67768-4.92683-1.65261 0.539933 1.45653 0.432541 3.49592 1.497584 4.64674 3.772051-0.21907 7.596126-1.51923 11.118699-2.91765 2.801985-1.16467 1.269611-6.7186-1.69912-6.29005z" style="paint-order:normal"/>
    <path d="m36.161334 252.99693c-3.585657 0.61506-7.54788 0.69857-10.828279 2.21072 0.175656 1.93208 2.232966 3.66978 1.262972 5.82807-0.125309 1.42606 1.486263-0.50601 0.769977 1.14515-1.321591 4.21065 3.554656 0.27071 5.401223-0.0775 2.434595-1.44643 6.026616-1.75803 7.751463-4.14962 0.351902-1.17649 0.549008-4.53026-1.26814-4.12481-0.887415 0.80958-1.42187 3.77133-2.952792 3.01687-0.626697-1.08756 1.824683-3.77275-0.136424-3.84886z" style="paint-order:normal"/>
    <path d="m23.59466 255.37611c-2.605077 1.36699-0.673978 4.96134-0.04341 7.01766-0.441606 1.22575 1.377177 3.71496 2.420525 2.18592 0.03461-1.89065-0.22165-3.77012-0.39274-5.65134-0.514067-1.0612-0.630121-3.21485-1.984375-3.55224z" style="paint-order:normal"/>
  </g>
  <g class="Slide" transform="matrix(.00773235 -.00124362 .00124362 .00773235 -76.72071 -137.19512)" clip-path="url(#clipPath1887)">
    <g class="Page">
      <g class="Graphic" transform="translate(-1107.0921,369.0307)">
        <g transform="translate(1476.1228,-492.04094)">
          <rect class="BoundingBox" x="6096" y="10693" width="11966" height="13838" fill="none"/>
          <g clip-path="url(#clip_path_1-3)">
            <path d="m17352 24116c0 169-233 306-523 306h-9539c-289 0-522-137-522-306v-2228c0-169 233-305 522-305h9539c290 0 523 136 523 305z" fill="#fb0"/>
            <path d="m17352 21888v2228c0 169-233 306-523 306h-9539c-289 0-522-137-522-306v-2228c0-169 233-305 522-305h9539c290 0 523 136 523 305z" fill="none" stroke="#000" stroke-linejoin="round" stroke-width="216"/>
            <path d="m9901 23997c-132 30-267 45-407 45-316 0-566-88-750-264-185-177-277-417-277-719 0-306 94-546 282-721 188-176 445-263 772-263 126 0 247 12 362 35 116 24 225 59 327 106v392c-105-60-211-105-316-134-104-30-208-45-313-45-195 0-345 55-451 164-105 108-158 264-158 466 0 201 51 356 153 465 101 109 246 164 433 164 51 0 98-3 141-9 44-7 83-17 118-31v-368h-299v-328h762v912c-122 59-248 104-379 133z"/>
            <path d="m11912 22109v370h-830v353h781v369h-781v435h858v369h-1347v-1896z"/>
            <path d="m13558 22109v370h-831v353h781v369h-781v435h859v369h-1347v-1896z"/>
            <path d="m14373 22109v692l705-692h568l-913 898 1007 998h-612l-755-747v747h-489v-1896z"/>
          </g>
        </g>
      </g>
    </g>
  </g>
  <path d="m44.448166 108.78868c-2.036557 1.25951-4.630838 5.84165-7.054866 2.37091-1.301975-0.94489-0.991836 0.9502-1.111044 1.29398-0.668938-0.60008-2.123765-1.55505-1.845881 0.16846 0.713644 2.32133 3.944866 1.15361 5.523177 2.52285 1.193824 0.30548 1.111358-0.99653 1.238168-1.55649 1.549204 0.24903 2.579528-2.0914 3.385838-2.06396 1.843405 1.14186 1.311587-2.87134-0.135392-2.73575z" fill="#f00" stroke="#000" stroke-width="2.11667" style="paint-order:normal"/>
</svg>
