<?xml version="1.0" encoding="UTF-8" standalone="no"?>
<svg
   xmlns:dc="http://purl.org/dc/elements/1.1/"
   xmlns:cc="http://creativecommons.org/ns#"
   xmlns:rdf="http://www.w3.org/1999/02/22-rdf-syntax-ns#"
   xmlns:svg="http://www.w3.org/2000/svg"
   xmlns="http://www.w3.org/2000/svg"
   xmlns:sodipodi="http://sodipodi.sourceforge.net/DTD/sodipodi-0.dtd"
   xmlns:inkscape="http://www.inkscape.org/namespaces/inkscape"
   width="700"
   height="700"
   version="1.1"
   id="svg10"
   sodipodi:docname="duck.svg"
   inkscape:version="1.0.2 (e86c870879, 2021-01-15)">
  <metadata
     id="metadata16">
    <rdf:RDF>
      <cc:Work
         rdf:about="">
        <dc:format>image/svg+xml</dc:format>
        <dc:type
           rdf:resource="http://purl.org/dc/dcmitype/StillImage" />
      </cc:Work>
    </rdf:RDF>
  </metadata>
  <defs
     id="defs14" />
  <sodipodi:namedview
     pagecolor="#ffffff"
     bordercolor="#666666"
     borderopacity="1"
     objecttolerance="10"
     gridtolerance="10"
     guidetolerance="10"
     inkscape:pageopacity="0"
     inkscape:pageshadow="2"
     inkscape:window-width="1278"
     inkscape:window-height="779"
     id="namedview12"
     showgrid="false"
     inkscape:zoom="0.81"
     inkscape:cx="350"
     inkscape:cy="350"
     inkscape:window-x="0"
     inkscape:window-y="19"
     inkscape:window-maximized="0"
     inkscape:current-layer="g8"
     inkscape:document-rotation="0" />
  <g
     transform="matrix(6.0225 0 0 6.70121 -2224 -2056.5)"
     stroke-linejoin="round"
     stroke="#000"
     id="g8">
    <path
       d="M470.2 326.7c-4.9 0-8.8 4-8.8 8.9V346c2.1 1 4.4 1.6 6.8 1.6 8.9 0 16-7.6 16-16.9 0-1.4-.2-2.7-.5-4h-13.6z"
       fill="#fff"
       stroke-width="4"
       id="path2" />
    <path
       d="M443.5 309.9a24 24 0 00-23.6 24.3c0 7.7 3.5 14.6 9 19.1a107.6 107.6 0 00-24.1.6 35.6 35.6 0 00-20.4-17.2 46.2 46.2 0 00-12 33.3 50.8 50.8 0 008.6 28.9 83 83 0 0074.7 2.9 45 45 0 004.9-50.7 24.5 24.5 0 006.6-16.8 24 24 0 00-23.6-24.3z"
       fill="#00c7eb"
       stroke-width="6"
       id="path4"
       style="stroke-width:6.00000022;stroke-miterlimit:4;stroke-dasharray:none" />
    <circle
       transform="matrix(1.6225 0 0 1.5047 383.4 305.5)"
       cx="40.7"
       cy="14.6"
       fill="#050505"
       stroke-width="2"
       r="2.5"
       id="circle6" />
  </g>
  <path
     style="fill:none;stroke-width:0"
     d="M 284.5679,664.76048 C 237.35021,661.51526 190.28962,650.47923 145.81498,632.22201 130.19953,625.81173 103.75938,612.8108 91.215688,605.3749 83.287631,600.67515 82.844826,600.14117 76.08247,587.12594 49.629865,536.21365 37.075061,480.58821 37.052094,414.19753 37.03807,373.65786 42.651249,338.82496 54.967565,303.02206 61.02892,285.40201 76.914994,253.40611 87.575223,237.34747 l 8.808921,-13.26983 4.585706,1.9052 c 5.83735,2.42522 20.05009,10.74746 28.0425,16.42021 25.82687,18.33109 50.55355,47.04642 64.56697,74.98223 2.90366,5.78844 6.95198,11.68716 9.6418,14.04887 4.62611,4.06176 4.65915,4.06931 14.59663,3.33255 5.47802,-0.40613 17.18225,-1.58026 26.00941,-2.60917 24.91051,-2.90362 65.81059,-3.75733 94.08603,-1.96388 22.09187,1.40124 25.03345,1.35967 28.43982,-0.40182 7.8315,-4.04983 12.24199,-13.24879 10.83874,-22.60634 -0.71103,-4.74151 -2.23556,-7.08608 -10.0207,-15.41074 -27.36948,-29.26624 -41.25735,-61.7159 -43.27853,-101.12234 -3.52157,-68.65864 35.69684,-128.709217 95.24328,-145.834969 8.23972,-2.36977 12.63869,-2.824463 26.54321,-2.743604 19.39048,0.112763 31.36672,2.708875 47.67757,10.335168 31.46662,14.712509 56.30085,42.6986 68.81562,77.549425 11.04271,30.7515 11.59474,70.5299 1.41743,102.14034 -4.48153,13.91948 -14.19311,32.9899 -22.20353,43.60053 -8.91694,11.81143 -9.56262,13.14242 -9.66491,19.92297 -0.0659,4.37038 1.46549,9.22551 6.43759,20.40929 12.24091,27.53363 19.84489,54.15038 24.34113,85.20301 2.59699,17.93563 2.95992,59.68973 0.67071,77.16049 -6.31262,48.17629 -21.69287,90.91103 -46.52899,129.28296 l -7.36679,11.38175 -12.35347,5.74722 c -65.00763,30.24363 -142.2311,44.77292 -212.35347,39.95349 z M 497.20556,170.54636 c 16.57055,-8.60116 24.15425,-28.29909 17.58993,-45.68809 -8.99764,-23.8349 -38.9234,-30.138374 -56.60144,-11.92236 -17.64052,18.17735 -10.55726,50.01077 13.09054,58.83129 6.00513,2.23987 20.57584,1.55361 25.92097,-1.22084 z"
     id="path24" />
</svg>
