<svg width="607.3904" height="706.2912" version="1.1" xmlns="http://www.w3.org/2000/svg">
  <g transform="matrix(6.0225 0 0 6.7012 -2224.401 -2056.598)" stroke="#000" stroke-linejoin="round">
    <path class="duck__body" d="m443.5 309.9a24 24 0 0 0-23.6 24.3c0 7.7 3.5 14.6 9 19.1a107.6 107.6 0 0 0-24.1 0.6 35.6 35.6 0 0 0-20.4-17.2 46.2 46.2 0 0 0-12 33.3 50.8 50.8 0 0 0 8.6 28.9 83 83 0 0 0 74.7 2.9 45 45 0 0 0 4.9-50.7 24.5 24.5 0 0 0 6.6-16.8 24 24 0 0 0-23.6-24.3z" fill="#00c7eb" stroke-width="6"/>
  </g>
  <g transform="matrix(6.667149 0 0 7.447053 -746.0243 -1506.621)">
    <g stroke="#000">
      <path class="duck__wing" d="m135.5048 257.7786 7.22847 4.47074-7.33672 3.53354 7.41453 4.90628-6.85445 3.67636c21.73408 8.06733 33.8847 5.97652 32.72092-8.33217-2.34775-9.62604-17.00029-12.53855-33.17275-8.25475z" fill="#e70d0d" stroke-width="2.83885"/>
    </g>
  </g>
</svg>
