<svg preserveAspectRatio="xMidYMid slice" width="1750px" height="980px" enable-background="new 0 0 1750 980" version="1.1" viewBox="0 0 1750 980" xml:space="preserve" xmlns="http://www.w3.org/2000/svg">
<g clip-rule="evenodd" fill-rule="evenodd">
	<rect width="1750" height="980" fill="#ffc"/>
	<path d="M0,500.9c228.2-42.6,421.5,83.9,632.7,69.8   c177.1-11.9,353.6-62.1,531-60.9c200.6,1.4,390.9,71.2,586.4,68.6V0H0V500.9z" fill="#FFFFBA"/>
	<path d="M0,356.1c228.2-30.3,421.5,142.6,632.7,132.5   c177.1-8.4,341.3-113.1,518.6-112.2c200.7,1,403.3,115.4,598.7,113.6V0H0V356.1z" fill="#FFFFAD"/>
	<path d="M0,225.1c289.9-93.2,421.5,37.7,632.7,31.3   c177.1-5.3,346.3-66.7,523.5-66.1c200.7,0.6,398.3,70.8,593.8,69.6V0H0V225.1z" fill="#ff9"/>
</g>
<g clip-rule="evenodd" fill-rule="evenodd">
	<linearGradient id="SVGID_1_" x1="875" x2="875" y1="980" y2="321.405" gradientUnits="userSpaceOnUse">
		<stop stop-color="#FFFFBA" offset="0"/>
		<stop stop-color="#DCAB71" offset="1"/>
	</linearGradient>
	<polygon points="0 565.4 67.8 561 131.9 506.1 161.9 495.5 182.7 466.7 251.5 440.8 268.5 483.1 455.4 516 491.7 562.3 562.4 570.6 578.2 610.4 678.3 650.1 816.5 659.6 932.4 646.4 946 627.9 974 590.1 998.7 590.1 999.9 520.7 1023.4 493.8 1028.3 449.4 1070.3 446.9 1107.3 483.9 1122.2 486.4 1128.5 535.4 1176.3 582.3 1188.8 679 1267.8 703.4 1416 698.8 1492.6 619.7 1529.6 600 1550 561.2 1601.2 538.3 1613.6 437 1643.2 402.4 1650.6 323.4 1717.3 321.4 1731.4 333.3 1727.2 404.9 1750 432.1 1750 980 0 980" fill="url(#SVGID_1_)"/>
	<linearGradient id="SVGID_2_" x1="853.0901" x2="853.0901" y1="950.4191" y2="308.6054" gradientUnits="userSpaceOnUse">
		<stop stop-color="#ff9" offset="0"/>
		<stop stop-color="#B58061" offset="1"/>
	</linearGradient>
	<path d="m0 565.4 67.8-4.4 64.2-54.9 30-10.7 20.8-28.8 68.8-25.9 4.5 11.3-35.2 92.3-83.9 181.3-137-6.6v-153.6zm484.2-12.6 7.5 9.6-52.3 8 44.8-17.6zm248.8 101.1 83.5 5.7 115.9-13.2 13.6-18.5 28-37.8h24.7l1.2-69.4 23.5-26.9 4.9-44.5 39.4-2.3-15.9 15.9 1.2 11.1-12.4 22.2 13.6 81.5 17.3 22.2 9.9 35.8 16.1-16-6.2-39.5 7.4-27.2 2.6-41.7 6.4-0.3-0.3 46.9-12.4 22.2 6.2 44.5 7.4 9.9-13.6-1.2-19.7 14.8-17.3 63-12.4 1.3 8.6-45.7-2.4-75.3-7.4-2.5-4.9-58-24.7 19.7v35.8l-2.4 18.5 21 21 3.7 39.5-11.1-34.6-15-9.8-6.2 8.6 2.5 33.4 22.2 16-4.9 52.8-22-1.2-4 4-3.7-53.1v-76.5l-8.6-1.3-11.1 11.1 7.8 72-123.9 95.9-126.1-128.8zm647.4 46 35.6-1.1 76.5-79 37-19.8 20.4-38.7 25.6-11.5-9 51.5 7.4 18.5-6.2 3.7 48.2 51.8 45.7-50.6 13.6-6.2 11.1-34.6 11.3-6.4-5.1 47.2 9.9 33.3-16.1 74.1 19.8 58-325.7-90.2zm195.2-150.2 25.6-11.5 12.4-101.3 29.6-34.6 7.4-79 24.7-0.7-11.2 23-4.9 60.5 9.9 7.4-5 16.1-21 2.5-8.6 72.8 3.7 28.4 17.3 21 13.6-39.5-1.3-64.2 21-27.2 8.6 9.9-14.8 14.8v72.9l4.9 19.7-16.1-17.3-11.1 34.6-6.2 50.6-35.8 21-2.4-65.5-6.2-9.9-34.1-4.5z" fill="url(#SVGID_2_)"/>
</g>
<g clip-rule="evenodd" fill-rule="evenodd">
	<path d="M0,586.5c139.5,0,279.9-15.2,418.6,0   c268,29.4,528.3,121.3,797.6,133.3c106.5,4.8,202.8-71.2,308.7-83.9c74.8-9,150,13.2,225,19.7V980H0V586.5z" fill="#D08F4D"/>
	<path d="m1533.7 635c71.9-6.4 144.2 14.3 216.3 20.6v324.4h-425.8c-63.5-7.1-87.6-22-85.2-42.2 125.8 6.5 228.7 2.9 324.7-3.7-340.9-18.6-761.7-29.4-690.2-87.7 182.2 11 343.3 8.8 477.9-9.9-146.8-0.1-243.5-6.9-227.2-28.4 138.9 13.2 298.6-7.8 465.5-40.7-98.4-9.9-190.6-20.1-139.5-38.3 39.4-13.2 74.6-28.8 97.5-51.9-29.3-9.6-39.2-22.7-14-42.2zm-1197.8-49.3c-21.1 15.7 9 26.4 47.4 32.3-32.6 14.6-73.6 19.2-116.1 22.2-50.1 30.5 109.5 29 267.9 27.8 56.3-11.1 105.7-27 134-39.7-100.5-18.2-230.4-52.1-333.2-42.6zm40.3 298.4c78.1 0 91.4 24.2 290.8 21.6-137.1 14.7-225 15.4-303.1 15.4-59.7-1.1-28.5-23.6 12.3-37zm276.6-231.8c-97.9 61 188.9 92.2 458.1 124.7h-4.9c-123.8-7.9-251.8-12.4-413.6 11.1 35.1 16.9 192.5 21 542 4.9-34.6-4.5-69.2-9-103.7-13.6 79.8-1.3 140.8-6.9 180.3-17.3-530.4-36.6-589.9-128.2-658.2-109.8zm-512.4 155.5c57.4-7.8 164.8 43 459.3 52.5-144.1 14.4-287.8 18.5-419.2-14.2-18-4.5-54.6-20.6-40.1-38.3z" fill="#F0CD59"/>
	<path d="m0 586.5h15.3c-19.2 27.5 37.1 39.5 117.3 40.2 78.4 8.6-30.1 17.3-59.3 25.9-85.2 25.4 129.5 71.1 317.4 49.4-157.3 33.6-286.6 28.2-390.7 8v-123.5zm627.1 67.9c-49.4 49.8 2.5 79.9 307.4 112.4-379.1-3.7-398.8 71.6-692.7 29.6-172.7-47.8 69.6-40.2 385.3-142zm527.3 325.6h-1154.4v-10.7c140 4.8 218.2-1.4 283.9-9.9 81.9-14.8 70.6 13.6 216.1 11.1 135-7.6 241-67.7 330.9-80.3 43-5.2 123 54.3 323.5 89.8zm-1154.4-58.9v-104.9c34.1 4.4 76.5-1.9 122.2-12.4 33.1-7.4-122.2 64.8 249.4 70.4-92.3 7.8-185.5 12.3-280.3 11.1 32.3 17.5 48.3 18.7 65.5 21-46.7 7.6-94.5 14.7-156.8 14.8z" fill="#B37055"/>
</g>
<g clip-rule="evenodd" fill-rule="evenodd">
	<path d="m825 139.5 88.9 0.6 7.4 144.4-33.3 40.9-1.2 16-76.5 2.5 8.6 125.9 13.6 9.9 18.5 90.2 56.8 7.4 2.5 56.8 22.2 12.4 13.6-18.5 48.2 12.3 1.2 63 19.8 7.4 9.6 21.2c-142.2-5-287.7-71.3-346.4-81.7l-2.7-68 25.1-21.7 0.8-58.6v-4.9l8.6-6.2-13.6-123.5-14.8-11.1-4.9-14.8-271.6 3.7-17.3-17.3-34.6-2.4v17.3l21 8.6 2.4 161.8 14.8 9.9 8.6 96.3h16l17.3 61.7-217.3 2.5-19.7 8.6-97.6-17.3-11.1-65.4 36.4-11.1 1.2-44.4 58-17.9-2.4-201.3 11.7-3.1v-34l-20.4-2.5-15.4-85.8h-5.6l-8.6-93.2 298.8-15.4 0.6 8.6 46.3 17.3-1.9 9.2 337.7 16.1 0.7-12.4z" fill="#D08F4D"/>
	<path d="m849.5 139.7 49.5 0.3 15.4 9 0.6 12-211.6 26.4 202.5 52.5-40.1 30.2 25.9 37 3.8 9.1-7.5 9.2-1.2 16-76.5 2.5 0.4 6.3-15.3-2.9-17.9-17.9-46.9-9.9-41.3 25.3-10.7 1.7-1.7-5.1-203.2 2.8-30.8-9.2 59.9-51.9 174.8 7.9-72.4-48.6-109.3-18.8-64.8-76.6-106.8-8-37.1-28.7 4.2-1.9 150.2-7.8 0.6 8.6 46.3 17.3-1.9 9.2 309.8 14.7 33.3 3.5 19.8-14.2zm-570.5 201.1 1.2 127.2 17 77.8-10.2 69.1-8.6 35.8-23.1 19.1-9.5-69.8-14.9 83.2 123.5-1.4 8.7-56.3-16.4-1.1-21.4-77.4 27.4-34.3-17-38.5-20.3-68.6 1.9-59.9-13.1-32-38.1 1.1 12.9 26z" fill="#DBA553"/>
	<path d="m845.7 139.7 68.2 0.5 5.4 104.8-52.6 1.4-88.6-4.3-193-11.9 34-6 138.3 9.9 140.1 1.2 0.7-14.8 12.8-15.5-7.4-42.6-52.5-5.6 53.1-6.2-58.5-10.9zm-548.6 406.1-2.5 11.4 1.9 27.5 8.6-39.2-1.9-34.6-6.1 34.9zm-49.3 0.6-12.3 8.5 10.7 34.1-2.5 50.3 11.4 30.6v-34l-7.3-89.5zm-64.3-10.5-15.7 16.7-3.4 20.4 7.4 67.3 25.9 29-1.2 22.9 19.7-8.6-12.6-36.7-11.4-9.6 4.3-77.2-13-24.2zm190.8 145.7v-55.3l-27.8-1.9 36.8-6.5-7.7-80.1-22.9-25.2 17.9-1.9-3.1-119.8-18.5-10.3-0.6 53.1-10.5 14.8-3.1 35.2-1.9-39.5 7.3-22.9-11-54.3-41.4-28.4-6.8 25.3-21.6 17.3-2.5 32.7-0.6-79.7-21.6-2.4 21.6-0.9 96.9 11.7 21 8.6 2.4 161.8 14.8 9.9 8.6 96.3h16l17.3 61.7-59 0.7zm546.1-414.8 0.9 17.8-33.3 40.8-1.2 16-43.5 1.4 33.9-10.6 1.9-22.2-166.1-11.1-139.5 4.9-50-13.6h-1.9l-211.8-9.2-74.4 10 57.7-13.4 275.3 1.5 54.9 9.2 161.1 8 120.4-5.5 3.7-9.9 11.9-14.1zm-109.5 87.4 7.9 115.6 13.6 9.9 18.5 90.2 56.8 7.4 2.5 56.8 22.2 12.4-2.7 4.9-26-7.4-13 18.5 9.9-25.3-1.9-50.6-43.6-10.6-11.9 3.2-4.1-8.9-15-82.5-36.4-29.6-12.4-71.6 18.5 69.1 19.1 8.6-5.6-68.5-4.9-41.2 8.5-0.4zm135.1 273.7 48.2 12.3 1.2 63 19.8 7.4 9.6 21.2-42.6-17.5 1.9-55-21.6-9.9-16.5-21.5zm-148.5 58.1c-10.8-3.4-21.2-6.7-31.1-9.9l2.1-68.6-13.6-26.5 14.2 3.7 3.4-57.7 10.8 84.8-0.6 23.5 14.8 50.7zm-585.5-573.5 229.6-11.9 0.6 8.6 46.3 17.3-1.9 9.2 337.7 16.1 10.8 4.3-122.9-4.9-49.4 14.2 84 4.3-63.6 10.5-66.7 0.6-49.4-12.4-115.5-3.1 98.4-2.3-30.3-15.4-109.3-0.6-191.4-7.5 253.8-1.2 3.7-9.3-37.1-12.3-94.4 2.5 85.2-6.8v-6.2l-218.2 6.3z" fill="#FAC86C"/>
	<path d="m353.3 325.4v11.7l-95.1-14.8-1.9 8.6-57.4 2.5 46.3 2.5 6.2 105 16 8.6 1.9 67.3-15.9 18.7 1.7 100.4-7.4-89.5-16.1 11.1-7.4 85.2-32.1-5.6 4.3-77.2-13-24.1-2.4-201.3 11.7-3.1v-34l-20.4-2.5-15.3-85.6h-5.6l-8.6-93.2 61.3-3.2 3.9 26.3-49.4 5 96.3 3.7 5.5 46.6-83.3 12.7 164.2 0.1 96.4 12.3-24.7 30.9-100 5-19.8 22.2-69.1 16-19.2 4.9 50.1 3.7 98.3 23.1zm107.8-104.4 117.9 21 135.8 1.9 26.6 7.4 125.3-4.9-177.2-8.6-228.4-16.8zm349.1 122.9 0.7 10.4-71.4 2-1.2 42-11.1 21 3.7 69.1 43.8 14.2 11.8 71.6-18.5-63-35.2-11.7-13.6 14.8 8 51.2 27.8 15.4-29.6-7.4-7.4 10.5-4.1 75.3c-13.9-4.2-25.9-7.4-35.5-9.1l-2.7-68 25.1-21.7 0.8-58.6v-4.9l8.6-6.2-13.6-123.5-14.8-11.1-4.9-14.8-271.6 3.7-17.3-17.3 87.4-0.6 25.9 11.1 188.3-1.2 23.5 5.5 97.1 1.3zm122.2 302.5 13.6-18.5 16.4 21.6-4.9 75.9c-14.1-2.2-28.1-4.7-42-7.6l4.9-49.1 12-22.3zm-31 68.2c-6.2-1.4-12.3-2.8-18.3-4.3l7.7-47.9 13-18.5-2.4 70.7zm-34.7-8.5c-21.3-5.6-41.7-11.6-61-17.6l-5.7-60.7 36.4-46.3-16-51.9 22.8 49.4 7.7-9.2 15.1 21.6-10.5 39.5 11.1 49.4v25.8zm-697.9-18.9-69.8-12.4-11.1-65.4 36.4-11.1 1.2-44.4 38.9 19.1 7.4 67.3-3 46.9z" fill="#A15D49"/>
</g>
<g clip-rule="evenodd" fill-rule="evenodd">
	<polygon points="1412.3 898.1 1263.9 904.9 1299.1 915.4 1462.6 922.1" fill="#D08F4D"/>
	
		<path d="m1399.4 912.3 35.2-38.9 122.3 2.5 16.7-4.9 100.6 38.9c3.5 5.8-25.7 9-86.4 9.9l-11.1 4.9c-72.7 0.2-141.1-1-177.3-12.4z" fill="#D08F4D"/>
		<path d="m1399.4 912.3 35.2-38.9 63.9 32.1-24.1 12.7 95.4 1.9 12-14.2 67.8 11.3c-14.4 1.3-35.1 2.2-62 2.6l-11.1 4.9c-72.5 0.2-140.9-1-177.1-12.4zm157.4-36.4-11.4 10.2 32.4 13-10.8-13.9 6.5-14.2-16.7 4.9z" fill="#A15D49"/>
		<path d="m1573.5 870.9-4.4 9.7 31.9 10.7-20.4-2.1 53.7 14.8-9.6 2.5-12 0.3 42 6.2 19.5-3.1-100.7-39zm-123.5 2.8 71 15.1 15.9 9-26.7 6.5 71.6 1.5-36.7-7.1-19.1-13.6 15.1-9.6-91.1-1.8z" fill="#FAC86C"/>
	
</g>
<g clip-rule="evenodd" fill-rule="evenodd">
	
		<polygon points="1646.3 958.6 1677.8 930.2 1691.4 927.7 1696.9 910.5 1705 916 1735.9 952.5 1698.8 959.2" fill="#D08F4D"/>
		<path d="m1677.8 930.2 10.2 8 10.8 21-52.5-0.6 31.5-28.4zm13.6-2.5 13.7 3.3-2-11.9-6.2-8.6-5.5 17.2z" fill="#A15D49"/>
		<polygon points="1696.9 910.5 1703.1 919.1 1709.8 927.4 1715.6 942 1705.1 931 1699 937.2 1720.7 949.7 1735.9 952.5 1705 916" fill="#FAC86C"/>
	
	<polygon points="1667.5 939.6 1630.6 950.6 1579 956.8 1612.4 958.9 1646.3 958.6" fill="#D08F4D"/>
</g>
<g clip-rule="evenodd" fill-rule="evenodd">
	
		<polygon points="495.8 958.6 527.2 930.2 540.8 927.7 546.4 910.5 554.4 916 585.3 952.5 548.2 959.2" fill="#B37055"/>
		<path d="m527.2 930.2 10.2 8 10.8 21-52.5-0.6 31.5-28.4zm13.6-2.5 13.8 3.3-2-11.9-6.2-8.6-5.6 17.2z" fill="#A15D49"/>
		<polygon points="546.4 910.5 552.5 919.1 559.2 927.4 565.1 942 554.6 931 548.4 937.2 570.2 949.7 585.3 952.5 554.4 916" fill="#FAC86C"/>
	
	<polygon points="516.9 939.6 480 950.6 428.5 956.8 461.8 958.9 495.8 958.6" fill="#B37055"/>
</g>
<g transform="matrix(3.1384069,0,0,3.1384069,-2595.9735,-1452.1888)" clip-rule="evenodd" fill-rule="evenodd">
	
		
			<path d="m1298.2 628.9c87.3-0.2 68.4-63.9 72.1-86.9 5.8-35.9-25.4-29.4-27.1-10.5-2.3 26.4 15.9 83.7-40.1 73z" fill="#a6b362"/>
			<path d="m1298.2 628.9c5.3 0 10.2-0.3 14.8-0.7l1.5-0.7c-3.2-8.5 23.6-18.2 28-33.4 8.1-27.6-0.7-62.8 6.4-67.2-1.3 9.9 3.3 58.8-4.7 73 12.8-15.1 1.6-75.6 14.4-83.7-7 0.1-14.5 6.3-15.3 15.3-2.3 26.4 15.9 83.7-40.1 73z" fill="#968d4b"/>
			<path d="m1337.7 622.4c41.3-16.8 29.5-61.8 32.6-80.4 2.5-15.1-1.6-22.7-7.4-25.1 8.8 11.3 6.9 67.9-5.5 82.7 7.7-19.7 8.4-51.9 4.9-67.4-4.3 51.3-0.4 74.9-24.6 90.2z" fill="#e2f294"/>
			<path d="m1322.9 609.4-7.7-17.7 12.2 14.3c0 1.4-1.7 3.1-4.5 3.4z" fill="#968d4b"/>
			<path d="m1344.7 540.2-19.3 1.5 18.4 4.1c1.3-0.7 2-3 0.9-5.6z" fill="#968d4b"/>
			<path d="m1367.4 526.2 19.3-0.5-17.9 5.9c-1.2-0.5-2.2-2.7-1.4-5.4z" fill="#e2f294"/>
			<path d="m1350.4 603.4 10.8 16-14.6-11.9c-0.3-1.4 1.1-3.3 3.8-4.1z" fill="#968d4b"/>
			<path d="m1367.7 575.8 18 7-18.8-1.5c-1-0.9-1-3.2 0.8-5.5z" fill="#e2f294"/>
		
		
			<path d="m1270.4 733c-2-51.2-18-104.9-26.6-157.4-13.4-82 58.1-67.1 61.7-24.1 5.1 60.3-4.9 103 15.4 180.9z" fill="#a6b362"/>
			<path d="m1270.7 516.6c16 0.3 33.1 14.4 34.9 34.9 5 58.6-4.4 100.6 13.8 174.4-31.4-81.9-2.3-191.6-36.9-200.4 21 9.9 6.4 102.7 24.1 184.1-20.2-70.3-6.9-174.7-35.9-193z" fill="#e2f294"/><g fill="#968d4b">
			<path d="m1270.4 733c-2-51.2-18-104.9-26.6-157.4-5.6-34.5 3.8-51.9 16.8-57.2-25.5 32.8 11.1 138 17.6 198.3 3.7 2.9 3.5 5.6 7.2 8.5-6.6-48.2-31.4-136.3-23.5-171.8 1.6 52.3 21 122.9 32.9 179.3z"/>
			<path d="m1294.7 540.6 19.3-0.5-17.9 5.9c-1.2-0.5-2.1-2.6-1.4-5.4z"/>
			<path d="m1288.8 590.6 19.3 1.4-18.4 4.1c-1.2-0.6-1.9-2.9-0.9-5.5z"/>
			<path d="m1249.1 545.9-19.3 1.5 18.4 4.1c1.3-0.7 2-2.9 0.9-5.6z"/>
			<path d="m1254.9 620.7-17.9 7.2 18.8-1.8c0.8-0.9 0.8-3.2-0.9-5.4z"/>
			<path d="m1268.9 685.2-17.9 7.2 18.8-1.8c0.9-0.9 0.9-3.2-0.9-5.4z"/>
			<path d="m1304 647.4 19.3 1.5-18.4 4.1c-1.2-0.7-1.9-2.9-0.9-5.6z"/>
			<path d="m1300.9 690.8 19.3-0.5-17.9 5.9c-1.2-0.5-2.2-2.6-1.4-5.4z"/>
			</g><path d="m1305 568.4 19.3-0.5-17.9 5.8c-1.2-0.4-2.1-2.5-1.4-5.3z" fill="#e2f294"/>
			<path d="m1304.1 621.2 19.3-0.5-17.9 5.8c-1.2-0.4-2.1-2.6-1.4-5.3z" fill="#e2f294"/>
		
		
			<path d="m1265.4 672.2c-87.3-0.2-68.4-63.9-72.1-86.9-5.8-35.9 25.4-29.4 27.1-10.5 2.3 26.4 6.1 76.4 36.7 56.4z" fill="#a6b362"/>
			<path d="m1265.4 672.2c-87.3-0.2-68.4-63.9-72.1-86.9-2.4-15.1 1.7-22.7 7.4-25-8.8 11.2-3.6 73.9 11.3 81.5-10.3-17.5-14.2-50.6-10.7-66.2 0.3 9.5 4.3 77.5 30.3 52 5.3 8.4 13.2 11.6 25.5 3.6z" fill="#968d4b"/>
			<path d="m1228.8 622.3c-10.1-10.9-7.7-52-18.6-58.9 6.9 7.1 4.2 40.1 12.1 54.3-12.8-15.1-4.5-50.2-17.3-58.2 7 0.1 14.5 6.3 15.3 15.3 1.2 13.8 2.8 34.2 8.5 47.5z" fill="#e2f294"/>
			<path d="m1209.6 646.4-17.9 7.3 18.8-1.8c0.9-1 0.9-3.3-0.9-5.5z" fill="#968d4b"/>
			<path d="m1194.2 575-17.9 7.3 18.8-1.8c0.9-1 0.9-3.3-0.9-5.5z" fill="#968d4b"/>
			<path d="m1216 565.3 19.3-0.5-17.9 5.9c-1.3-0.5-2.2-2.7-1.4-5.4z" fill="#e2f294"/>
			<path d="m1215.1 612.4 19.3-0.5-17.9 5.9c-1.3-0.5-2.2-2.7-1.4-5.4z" fill="#968d4b"/>
			<path d="m1234.9 659.5-5.3 18.5 10.2-15.9c-0.2-1.2-2.1-2.7-4.9-2.6z" fill="#968d4b"/>
		
	
	<path d="m1270.2 728.7c-128.3 20-275-18-224.6-1.8 39.7 12.8 165.1 23.3 275.5 5.4-17.1-1.2-52 2.1-50.9-3.6z" fill="#b37055"/>
</g>
<g clip-rule="evenodd" fill-rule="evenodd">
	
		
			<path d="m121.1 624.7c68.1-0.2 53.4-49.8 56.3-67.8 4.6-28-19.8-23-21.1-8.2-1.8 20.6 12.4 65.3-31.3 56.9l-3.9 19.1z" fill="#A6B362"/>
			<path d="m121.1 624.7c4.1 0 8-0.2 11.5-0.6l1.2-0.6c-2.5-6.6 18.4-14.2 21.9-26 6.3-21.5-0.5-49 5-52.5-1.1 7.7 2.6 45.9-3.6 57 10-11.8 1.3-59 11.2-65.3-5.5 0.1-11.3 4.9-11.9 11.9-1.8 20.6 12.4 65.3-31.3 56.9l-4 19.2z" fill="#968D4B"/>
			<path d="m152 619.6c32.2-13.1 23.1-48.3 25.4-62.8 1.9-11.8-1.3-17.7-5.7-19.5 6.9 8.8 5.4 53-4.3 64.5 6-15.4 6.5-40.5 3.8-52.6-3.4 40-0.4 58.5-19.2 70.4z" fill="#E2F294"/>
			<path d="m140.4 609.5-6.1-13.8 9.6 11.2c0 1-1.3 2.3-3.5 2.6z" fill="#968D4B"/>
			<path d="m157.4 555.5-15 1.2 14.4 3.1c0.9-0.6 1.4-2.3 0.6-4.3z" fill="#968D4B"/>
			<path d="m175.1 544.5 15-0.4-14 4.6c-0.9-0.4-1.6-2.1-1-4.2z" fill="#E2F294"/>
			<path d="m161.8 604.7 8.4 12.5-11.4-9.3c-0.1-1 0.9-2.5 3-3.2z" fill="#968D4B"/>
			<path d="m175.4 583.3 14 5.5-14.7-1.2c-0.7-0.8-0.7-2.6 0.7-4.3z" fill="#E2F294"/>
		
		
			<path d="m99.4 705.9c-1.5-40-14-81.9-20.7-122.9-10.4-64 45.3-52.4 48.2-18.8 4 47.1-3.8 80.4 12 141.2l-39.5 0.5z" fill="#A6B362"/>
			<path d="m99.6 537c12.5 0.2 25.9 11.3 27.2 27.3 3.9 45.7-3.4 78.5 10.8 136.2-24.5-63.9-1.9-149.6-28.8-156.4 16.4 7.7 5 80.1 18.8 143.7-15.7-55-5.3-136.5-28-150.8z" fill="#E2F294"/><g fill="#968D4B">
			<path d="m99.4 705.9c-1.5-40-14-81.9-20.7-122.9-4.4-26.9 2.9-40.5 13.1-44.6-20 25.6 8.6 107.7 13.8 154.7 2.9 2.2 2.8 4.4 5.6 6.6-5.1-37.6-24.5-106.4-18.3-134.1 1.3 40.8 16.3 96 25.7 140l-19.2 0.3z"/>
			<path d="m118.4 555.8 15-0.3-14 4.6c-0.9-0.5-1.6-2.2-1-4.3z"/>
			<path d="m113.8 594.8 15 1.2-14.4 3.2c-0.9-0.6-1.4-2.4-0.6-4.4z"/>
			<path d="m82.8 559.9-15 1.1 14.4 3.2c0.9-0.5 1.4-2.2 0.6-4.3z"/>
			<path d="m87.3 618.3-13.9 5.7 14.6-1.4c0.7-0.8 0.7-2.6-0.7-4.3z"/>
			<path d="m98.2 668.6-13.9 5.7 14.6-1.4c0.8-0.8 0.7-2.6-0.7-4.3z"/>
			<path d="m125.7 639.1 15 1.1-14.4 3.2c-0.9-0.5-1.5-2.2-0.6-4.3z"/>
			<path d="m123.2 673 15.1-0.4-14 4.6c-1-0.4-1.7-2-1.1-4.2z"/>
			</g><path d="m126.5 577.5 15.1-0.4-14 4.6c-1-0.4-1.7-2.1-1.1-4.2z" fill="#E2F294"/>
			<path d="m125.7 618.7 15.1-0.4-14 4.6c-0.9-0.4-1.7-2.1-1.1-4.2z" fill="#E2F294"/>
		
		
			<path d="m95.5 658.5c-68.1-0.2-53.4-49.9-56.3-67.8-4.6-28 19.8-23 21.1-8.2 1.8 20.6 4.7 59.7 28.7 44l6.5 32z" fill="#A6B362"/>
			<path d="m95.5 658.5c-68.1-0.2-53.4-49.9-56.3-67.8-1.9-11.8 1.3-17.7 5.7-19.6-6.9 8.8-2.8 57.7 8.9 63.6-8.1-13.6-11.1-39.5-8.4-51.7 0.2 7.4 3.3 60.5 23.6 40.6 4.1 6.5 10.4 9 19.9 2.8l6.6 32.1z" fill="#968D4B"/>
			<path d="m67 619.5c-7.9-8.5-6-40.6-14.5-46 5.4 5.6 3.3 31.3 9.5 42.4-10-11.8-3.5-39.2-13.5-45.4 5.5 0.1 11.3 4.9 11.9 11.9 0.9 10.9 2.1 26.7 6.6 37.1z" fill="#E2F294"/>
			<path d="m52 638.3-14 5.7 14.6-1.4c0.8-0.7 0.8-2.6-0.6-4.3z" fill="#968D4B"/>
			<path d="m39.9 582.6-14 5.7 14.6-1.4c0.8-0.8 0.8-2.6-0.6-4.3z" fill="#968D4B"/>
			<path d="m56.9 575 15.1-0.4-14 4.6c-0.9-0.4-1.7-2.1-1.1-4.2z" fill="#E2F294"/>
			<path d="m56.2 611.8 15-0.3-14 4.6c-0.9-0.5-1.6-2.2-1-4.3z" fill="#968D4B"/>
			<path d="m71.7 648.6-4.1 14.4 7.9-12.4c-0.1-1-1.6-2.1-3.8-2z" fill="#968D4B"/>
		
	
	<path d="m99.2 702.1c-35.6 5.5-70.1 2.5-99.2-2.4v8.2c44.7 3.8 99.1 4 138.9-2.4-12.3-1-40.5 0.7-39.7-3.4z" fill="#A15D49"/>
</g>
</svg>
