<svg preserveAspectRatio="xMidYMid slice" width="2663.2268" height="2666.6667" version="1.1" viewBox="0 0 2663.2268 2666.6667" xml:space="preserve" xmlns="http://www.w3.org/2000/svg"><g transform="matrix(1.3333333,0,0,-1.3333333,0,2666.6667)"><g transform="scale(.1)"><g transform="scale(1.22699)"><path d="m0 16300h16279v-16026.322h-16279v16026.322" fill="#74d2f2" fill-rule="evenodd"/></g><g transform="scale(1.2254)"><path d="m11442.5 10393.9 1377.7 1034.6 268.6-92 1050.8 827.7 280.4-115 256.8 57.5 1249.4-770.2 374 222.9v-3261.77l-4857.7 2096.27" fill="#5abae3" fill-rule="evenodd"/></g><g transform="scale(1.07352)"><path d="m13079.4 11878 1554.6 1167.3 306.5-104.9 1199.6 944.7-160.1-524.9 320-288.6-533.1-708.6 146.5-328-626.6-1131-2210.6 954 3.2 20" fill="#8ed9f4" fill-rule="evenodd"/></g><path d="m0 12342.5 1072.78 633.7 772.65 56.3 1430.79 817 1001.57-394.4 1402.21 56.4 3662.88-1408.6-9342.88-3127.2v3366.8" fill="#5abae3" fill-rule="evenodd"/><path d="m0 12342.5 1072.78 633.7 772.65 56.3 1430.79 817-357.72-591.6 300.48-140.9-286.17-450.7-429.24-197.2-414.94-619.8-28.62-352.2-14.3-42.2-744.03-253.5-157.4-394.5-330.717-305-813.563-492.2v2332.8" fill="#8ed9f4" fill-rule="evenodd"/><g transform="scale(1.2254)"><path d="m0 8402.41 1990.58 502.94 1517.92 988.58 1377.8 45.98 1798.15 2436.99 2311.89 1839.2 2055.06-2253.1 1868.2-965.5 1471.2-1264.51 1074.2-183.92 835.2-575.49v-4919.14l-16300.2 298.84v4049.13" fill="#4aa7d5" fill-rule="evenodd"/></g><g transform="scale(1.13017)"><path d="m15522.3 8985.61c3.9-155.27-24.4-269.77-82.6-345.95 30.5 3.27 58 11.59 82.6 24.78-19.5-179.8-84.8-285.45-153.6-385.52 47.5-3.81 88 3.8 123.3 19.73-5.9-253.41-92.5-435.33-195.1-602.92 65.1 18.41 123.1 50.79 175.5 93.97-71.5-226.87-207.7-371.36-357.1-499.13h1184.7c-196.4 113.17-346 287.04-466.2 499.13 59.2-46.63 124.9-76.89 196.1-93.97-142.3 182.01-254.2 381.45-327.1 602.92 38.8-14.07 80.7-22.03 127.7-19.73-107.2 97.68-181.5 231.82-237.9 385.52 27.2-12.04 56.6-20.27 88-24.78-73.3 73.26-120.4 200.15-158.3 345.95" fill="#439ccb" fill-rule="evenodd"/></g><g transform="scale(1.15426)"><path d="m15538.5 8747c3.7-152-23.8-264.1-81-338.7 30 3.21 57 11.35 81 24.17-19.3-175.95-83.2-279.39-150.5-377.38 46.6-3.73 86.2 3.73 120.8 19.32-5.8-248.21-90.6-426.25-191-590.33 63.8 18.02 120.4 49.81 171.7 92-69.9-222.21-203.2-363.69-349.5-488.79h1160c-192.3 110.89-338.9 281.13-456.6 488.79 58.1-45.74 122.4-75.37 191.9-92-139.3 178.21-248.6 373.48-320.1 590.33 38-13.86 78.9-21.57 124.9-19.32-104.9 95.65-177.6 226.9-232.8 377.38 26.6-11.69 55.3-19.75 86.2-24.17-71.9 71.74-118 195.97-155 338.7" fill="#3c92c3" fill-rule="evenodd"/></g><g transform="scale(1.05166)"><path d="m15464.3 9639.09c4.2-166.89-26.2-289.93-88.8-371.71 32.9 3.42 62.3 12.36 88.8 26.53-21.1-193.22-91.3-306.66-165.1-414.3 51.1-4.09 94.5 4.09 132.5 21.3-6.4-272.43-99.4-467.83-209.7-647.93 70 19.68 132.3 54.58 188.6 100.89-76.8-243.81-223.2-399.09-383.7-536.39h1273.1c-211 121.71-371.9 308.46-501 536.39 63.6-50.11 134.2-82.63 210.6-100.89-152.9 195.5-273 409.83-351.3 647.93 41.6-15.21 86.7-23.77 137.2-21.3-115.3 104.98-195.1 249.04-255.7 414.3 29.3-12.84 60.8-21.68 94.6-26.53-78.9 78.64-129.4 215.09-170.1 371.71" fill="#439ccb" fill-rule="evenodd"/></g><g transform="scale(1.06873)"><path d="m10315.1 16300-415.06-883 227.66-13.2-535.59-1001.7-401.62-145-334.7-962.2 535.52 13.2-455.15-1054.4 281.14-171.3-200.81-448.2 334.65-672.2-749.67-1001.64-374.89-303.13-13.38-579.94-656.02-1133.49-187.44-1476.23-3119.38 158.22 1044.26 935.78-468.58 698.59 267.76 487.58-763.12 553.65 1071.03 1093.91-107.09 316.3-508.75 276.8 816.71 408.6 2061.75 2794.2 2650.77 2108.8" fill="#91dbf7" fill-rule="evenodd"/></g><path d="m14088.3 10249.7c4.3-175.5-27.6-304.9-93.5-391 34.6 3.7 65.8 13.1 93.4 27.9-22.1-203.1-95.9-322.5-173.6-435.6 53.7-4.3 99.5 4.3 139.4 22.3-6.8-286.4-104.5-492-220.5-681.3 73.6 20.7 139.1 57.4 198.3 106.1-80.7-256.4-234.7-419.7-403.5-564.2h1338.9c-222 128.1-391.1 324.5-526.9 564.2 66.9-52.7 141.2-86.9 221.5-106.1-160.8 205.6-287 431-369.5 681.3 43.8-16 91.1-24.9 144.3-22.3-121.2 110.4-205.1 261.9-268.9 435.6 30.8-13.4 63.9-22.8 99.4-27.9-82.9 82.8-136.1 226.2-178.8 391" fill="#3c92c3" fill-rule="evenodd"/><path d="m14964.2 10415.7c4.3-175.5-27.6-304.9-93.5-391 34.7 3.7 65.8 13.1 93.4 27.9-22.1-203.1-95.9-322.4-173.6-435.6 53.7-4.3 99.5 4.3 139.4 22.3-6.8-286.4-104.5-492-220.5-681.4 73.6 20.8 139.1 57.5 198.3 106.2-80.7-256.4-234.7-419.8-403.5-564.1h1338.9c-222 127.9-391.1 324.4-526.9 564.1 66.9-52.8 141.2-86.9 221.5-106.2-160.8 205.7-287 431.1-369.5 681.4 43.8-16 91.1-24.9 144.3-22.3-121.2 110.4-205.1 261.9-268.9 435.6 30.8-13.4 63.9-22.8 99.5-27.9-83 82.8-136.2 226.2-178.9 391" fill="#3c92c3" fill-rule="evenodd"/><g transform="scale(1.01764)"><path d="m15436.2 10107.2c4.4-172.43-27-299.59-91.7-384.2 34 3.64 64.5 12.88 91.7 27.52-21.7-199.68-94.3-316.91-170.6-428.15 52.8-4.22 97.8 4.23 137 22.01-6.7-281.53-102.8-483.57-216.7-669.59 72.4 20.34 136.7 56.41 194.9 104.27-79.4-251.96-230.6-412.43-396.5-554.33h1315.7c-218.2 125.68-384.3 318.78-517.8 554.33 65.8-51.79 138.8-85.5 217.7-104.27-158.1 202.04-282.1 423.53-363.1 669.59 42.9-15.82 89.5-24.56 141.8-22.01-119.1 108.49-201.6 257.36-264.3 428.15 30.2-13.27 62.8-22.5 97.7-27.52-81.5 81.37-133.7 222.34-175.8 384.2" fill="#3c92c3" fill-rule="evenodd"/></g><g fill="#3c92c3" fill-rule="evenodd"><path d="m10512.6 9984.1c4.4-175.5-27.5-304.8-93.4-390.9 34.6 3.6 65.7 13 93.4 27.9-22.2-203.2-96-322.5-173.6-435.7 53.7-4.3 99.4 4.3 139.3 22.4-6.7-286.5-104.5-492-220.4-681.4 73.6 20.8 139 57.4 198.3 106.1-80.8-256.4-234.8-419.7-403.5-564.1h1338.8c-221.9 128-391 324.4-526.9 564.1 67-52.7 141.3-86.9 221.6-106.1-160.8 205.6-287.1 431.1-369.6 681.4 43.8-16 91.2-25 144.3-22.4-121.2 110.4-205.1 262-268.9 435.7 30.8-13.5 64-22.8 99.5-27.9-83 82.7-136.2 226.1-178.9 390.9"/><path d="m11199 9885.8c4.4-175.5-27.5-304.8-93.4-391 34.6 3.7 65.7 13.1 93.4 28-22.1-203.2-96-322.5-173.6-435.7 53.7-4.3 99.4 4.3 139.4 22.3-6.8-286.4-104.6-491.9-220.5-681.3 73.6 20.7 139 57.4 198.3 106.1-80.8-256.4-234.7-419.7-403.5-564.1h1338.8c-221.9 128-391 324.4-526.9 564.1 67-52.7 141.3-86.9 221.5-106.1-160.8 205.6-287 431-369.4 681.3 43.7-16 91.1-24.9 144.2-22.3-121.2 110.4-205.1 261.9-268.9 435.7 30.8-13.5 63.9-22.9 99.5-28-83 82.8-136.2 226.2-178.9 391"/><path d="m12137.7 9912.8c4.4-175.5-27.5-304.9-93.5-391 34.7 3.7 65.7 13.1 93.5 27.9-22.2-203.1-96-322.5-173.7-435.6 53.8-4.3 99.5 4.3 139.4 22.3-6.7-286.4-104.5-492-220.5-681.4 73.7 20.8 139.1 57.4 198.3 106.1-80.7-256.3-234.7-419.7-403.5-564h1338.9c-222 127.9-391.1 324.4-526.9 564 66.9-52.7 141.3-86.9 221.5-106.1-160.8 205.7-287 431.1-369.5 681.4 43.8-16 91.2-24.9 144.3-22.3-121.2 110.4-205.1 261.9-268.9 435.6 30.8-13.5 63.9-22.8 99.5-27.9-83 82.7-136.2 226.2-178.9 391"/><path d="m7073.98 9333.2c-4.4-175.5 27.49-304.9 93.4-391-34.61 3.7-65.7 13.1-93.39 27.9 22.14-203.1 95.95-322.4 173.62-435.6-53.73-4.3-99.46 4.3-139.38 22.4 6.76-286.5 104.52-492 220.47-681.4-73.61 20.7-139.06 57.4-198.29 106.1 80.76-256.4 234.72-419.7 403.5-564.1h-1338.87c221.96 127.9 391.07 324.4 526.89 564.1-66.92-52.7-141.21-87-221.52-106.1 160.8 205.6 287.05 431 369.54 681.4-43.8-16.1-91.15-25-144.27-22.4 121.2 110.4 205.07 261.9 268.89 435.6-30.79-13.4-63.95-22.7-99.52-27.9 83 82.8 136.16 226.2 178.93 391"/><path d="m7619.24 9418.8c-4.4-175.4 27.48-304.8 93.38-390.9-34.6 3.7-65.67 13-93.38 27.9 22.14-203.1 95.95-322.5 173.61-435.7-53.72-4.3-99.47 4.3-139.38 22.4 6.75-286.4 104.54-492 220.49-681.3-73.64 20.7-139.06 57.4-198.3 106 80.74-256.4 234.73-419.7 403.51-564h-1338.87c221.94 127.9 391.05 324.3 526.9 564-66.94-52.7-141.25-86.9-221.51-106 160.8 205.5 287.04 431 369.49 681.3-43.8-16-91.15-24.9-144.25-22.4 121.18 110.5 205.06 262 268.89 435.7-30.78-13.4-63.95-22.8-99.5-27.9 82.97 82.7 136.17 226.2 178.92 390.9"/><path d="m5935.13 9125.1c-4.39-175.5 27.49-304.9 93.4-390.9-34.61 3.6-65.69 12.9-93.39 27.8 22.13-203.1 95.95-322.5 173.61-435.6-53.72-4.4-99.45 4.3-139.37 22.3 6.75-286.4 104.53-492 220.49-681.4-73.63 20.8-139.05 57.4-198.3 106.1 80.74-256.3 234.7-419.6 403.52-564.1h-1338.88c221.93 128 391.06 324.5 526.89 564.1-66.93-52.7-141.24-86.9-221.51-106.1 160.8 205.7 287.04 431.1 369.51 681.4-43.81-16-91.15-24.9-144.27-22.3 121.19 110.4 205.08 261.9 268.88 435.6-30.78-13.5-63.92-22.8-99.49-27.8 82.97 82.7 136.17 226.1 178.91 390.9"/><path d="m5088.16 9326.2c-4.4-175.5 27.47-304.8 93.38-390.9-34.6 3.6-65.67 13-93.38 27.9 22.13-203.2 95.95-322.5 173.61-435.7-53.72-4.3-99.46 4.3-139.38 22.3 6.76-286.4 104.54-492 220.5-681.3-73.64 20.8-139.05 57.4-198.31 106.1 80.75-256.4 234.71-419.7 403.53-564.1h-1338.89c221.94 128 391.05 324.4 526.89 564.1-66.93-52.7-141.23-86.9-221.51-106.1 160.81 205.6 287.05 431.1 369.52 681.3-43.81-16-91.15-24.9-144.27-22.3 121.19 110.4 205.08 261.9 268.88 435.7-30.79-13.5-63.95-22.8-99.49-27.9 82.97 82.7 136.17 226.1 178.92 390.9"/><path d="m4055.34 9107.4c-4.4-175.6 27.48-304.9 93.39-391-34.61 3.7-65.67 13.1-93.39 27.9 22.13-203.1 95.95-322.4 173.62-435.6-53.73-4.3-99.46 4.3-139.38 22.4 6.75-286.5 104.53-492.1 220.48-681.5-73.62 20.8-139.04 57.5-198.29 106.2 80.74-256.5 234.7-419.7 403.5-564.2h-1338.86c221.93 128 391.05 324.5 526.89 564.2-66.93-52.8-141.24-87-221.51-106.2 160.8 205.7 287.04 431.1 369.51 681.5-43.8-16.1-91.15-25-144.27-22.4 121.19 110.4 205.06 261.9 268.88 435.6-30.77-13.5-63.95-22.8-99.49-27.9 82.97 82.8 136.17 226.2 178.92 391"/><path d="m2303.28 9459.3c-4.4-175.4 27.49-304.8 93.39-390.9-34.6 3.7-65.69 13-93.38 27.9 22.13-203.1 95.95-322.5 173.62-435.6-53.73-4.3-99.46 4.3-139.4 22.3 6.77-286.4 104.54-492 220.49-681.4-73.62 20.8-139.06 57.4-198.3 106.2 80.76-256.4 234.72-419.8 403.51-564.1h-1338.87c221.95 127.9 391.07 324.3 526.91 564.1-66.94-52.8-141.24-86.9-221.54-106.2 160.8 205.7 287.06 431.1 369.54 681.4-43.81-16-91.15-24.9-144.27-22.3 121.19 110.4 205.08 261.9 268.88 435.6-30.78-13.5-63.95-22.8-99.5-27.9 82.97 82.7 136.15 226.3 178.92 390.9"/><path d="m1494.41 9550.2c-4.4-175.5 27.48-304.8 93.41-390.9-34.63 3.7-65.69 13-93.41 27.9 22.13-203.2 95.95-322.5 173.62-435.6-53.73-4.4-99.47 4.3-139.39 22.3 6.76-286.4 104.54-492 220.49-681.4-73.63 20.8-139.04 57.4-198.3 106.1 80.75-256.4 234.71-419.7 403.52-564.1h-1338.877c221.968 128 391.047 324.4 526.887 564.1-66.93-52.7-141.23-86.9-221.505-106.1 160.805 205.7 287.045 431.1 369.515 681.4-43.81-16-91.15-25-144.27-22.3 121.19 110.4 205.06 261.9 268.88 435.6-30.77-13.5-63.94-22.8-99.49-27.9 82.97 82.7 136.17 226.2 178.92 390.9"/><path d="m678.848 9768.6c-4.399-175.5 27.496-304.9 93.398-391-34.605 3.7-65.68 13-93.398 27.9 22.148-203.1 95.949-322.4 173.629-435.6-53.727-4.3-99.457 4.3-139.395 22.3 6.766-286.4 104.539-492 220.488-681.4-73.609 20.8-139.058 57.5-198.297 106.2 80.735-256.4 234.723-419.7 403.507-564.2h-1138.78v145.5c128.137 114.6 235.059 256.8 326.801 418.7-66.93-52.8-141.242-87-221.524-106.2 160.801 205.7 287.063 431.1 369.512 681.4-43.805-16-91.144-24.9-144.269-22.3 121.195 110.4 205.109 261.9 268.914 435.6-30.782-13.5-63.95-22.8-99.508-27.9 82.972 82.8 136.152 226.2 178.922 391"/></g><g transform="scale(1.14843)"><path d="m15534.7 8517.28c3.8-152.81-24-265.49-81.3-340.46 30.1 3.22 57.2 11.32 81.3 24.29-19.3-176.85-83.5-280.82-151.2-379.38 46.8-3.75 86.6 3.83 121.4 19.5-5.9-249.38-91.1-428.41-192-593.24 64 18.02 121.1 49.98 172.7 92.3-70.4-223.27-204.5-365.37-351.4-491.11h1165.8c-193.3 111.37-340.5 282.39-458.8 491.11 58.3-45.89 123-75.67 193-92.3-140.1 179.02-250 375.29-321.9 593.24 38.2-13.93 79.4-21.68 125.7-19.5-105.6 96.21-178.6 228.13-234.2 379.38 26.9-11.75 55.8-19.85 86.7-24.29-72.2 72.1-118.5 196.96-155.8 340.46" fill="#347da7" fill-rule="evenodd"/></g><g transform="scale(1.18288)"><path d="m15557 8352.51c3.7-148.28-23.2-257.67-79-330.46 29.4 3.13 55.6 10.99 79 23.59-18.7-171.7-81.1-272.65-146.8-368.26 45.5-3.72 84.1 3.64 117.9 18.85-5.7-242.12-88.4-415.93-186.4-576.05 62.3 17.59 117.5 48.52 167.6 89.7-68.3-216.76-198.3-354.82-341.1-476.81h1131.8c-187.5 108.13-330.5 274.25-445.4 476.81 56.7-44.56 119.4-73.47 187.3-89.7-135.9 173.9-242.6 364.37-312.4 576.05 37.1-13.52 77-21.05 121.9-18.85-102.3 93.33-173.4 221.41-227.3 368.26 26.1-11.33 54.1-19.28 84.2-23.59-70.2 69.91-115.1 191.23-151.3 330.46" fill="#347da7" fill-rule="evenodd"/></g><g transform="scale(1.07749)"><path d="m15484.4 9139.47c4-162.88-25.5-282.97-86.8-362.88 32.2 3.44 61.1 12.16 86.8 25.9-20.6-188.5-89.1-299.22-161.2-404.18 49.9-4.09 92.3 3.9 129.3 20.6-6.2-265.8-97-456.61-204.6-632.3 68.3 19.21 129 53.27 184.1 98.47-75-237.96-217.9-389.52-374.5-523.53h1242.5c-205.9 118.7-362.9 301.07-488.9 523.53 62.1-48.91 131-80.65 205.6-98.47-149.3 190.9-266.4 400-343.1 632.3 40.8-14.75 84.7-23.11 134-20.6-112.5 102.36-190.4 243.06-249.6 404.18 28.6-12.44 59.4-21.16 92.4-25.9-77 76.85-126.4 210.03-166 362.88" fill="#347da7" fill-rule="evenodd"/></g><g transform="scale(1.0985)"><path d="m15499.9 9070.3c3.9-159.67-25-277.46-85-355.85 31.5 3.37 59.8 11.93 85 25.4-20.1-184.89-87.4-293.58-158.1-396.54 49-3.91 90.6 3.91 127 20.3-6.2-260.72-95.2-447.88-200.8-620.21 67 18.84 126.6 52.25 180.5 96.58-73.4-233.4-213.6-382.15-367.3-513.61h1218.8c-202 116.53-356 295.32-479.7 513.61 61-48.06 128.7-79.19 201.7-96.58-146.4 187.16-261.3 392.35-336.3 620.21 39.9-14.56 82.9-22.67 131.3-20.3-110.4 100.5-186.7 238.42-244.8 396.54 28-12.29 58.2-20.75 90.6-25.4-75.6 75.29-124 205.92-162.9 355.85" fill="#347da7" fill-rule="evenodd"/></g><g fill="#347da7" fill-rule="evenodd"><path d="m14575.2 9804.7c4.4-175.4-27.5-304.8-93.4-390.9 34.6 3.7 65.7 13 93.4 27.9-22.1-203.1-95.9-322.5-173.6-435.7 53.7-4.3 99.5 4.4 139.4 22.4-6.8-286.5-104.5-492-220.5-681.4 73.6 20.8 139.1 57.4 198.3 106.1-80.8-256.4-234.7-419.7-403.5-564.1h1338.8c-221.9 128-391 324.4-526.8 564.1 66.9-52.7 141.2-86.9 221.5-106.1-160.8 205.6-287.1 431.1-369.5 681.4 43.7-16 91.1-25 144.2-22.4-121.1 110.4-205.1 262-268.9 435.7 30.8-13.5 64-22.8 99.6-27.9-83.1 82.7-136.2 226.2-179 390.9"/><path d="m13894.3 9725.4c4.4-175.4-27.5-304.8-93.4-390.9 34.6 3.6 65.7 13.1 93.4 27.9-22.1-203.1-96-322.5-173.6-435.6 53.7-4.4 99.4 4.2 139.3 22.3-6.7-286.4-104.5-492-220.4-681.4 73.6 20.7 139 57.4 198.3 106.1-80.8-256.4-234.7-419.7-403.6-564.1h1338.9c-221.9 128-391 324.4-526.8 564.1 66.9-52.7 141.2-86.9 221.4-106.1-160.8 205.7-287 431-369.5 681.4 43.8-16 91.2-25 144.3-22.3-121.2 110.3-205.1 261.9-268.9 435.6 30.8-13.5 63.9-22.8 99.5-27.9-83 82.7-136.2 226.2-178.9 390.9"/><path d="m2969.17 9066.4c-4.38-175.5 27.53-304.8 93.41-391-34.59 3.7-65.7 13.1-93.39 28 22.12-203.2 95.97-322.5 173.62-435.7-53.7-4.3-99.45 4.3-139.39 22.3 6.76-286.4 104.54-492 220.49-681.3-73.64 20.7-139.06 57.4-198.29 106.1 80.73-256.4 234.69-419.7 403.51-564.1h-1338.88c221.96 128 391.09 324.4 526.9 564.1-66.93-52.7-141.25-86.9-221.51-106.1 160.8 205.6 287.05 431 369.5 681.3-43.78-16-91.13-24.9-144.26-22.3 121.19 110.4 205.09 261.9 268.9 435.7-30.82-13.5-63.95-22.8-99.51-28 82.97 82.8 136.17 226.2 178.9 391"/><path d="m559.512 9132.2c-4.375-175.5 27.535-304.8 93.414-390.9-34.574 3.7-65.668 13-93.383 27.9 22.141-203.2 95.977-322.5 173.609-435.6-53.699-4.4-99.441 4.3-139.379 22.3 6.754-286.4 104.543-492 220.512-681.4-73.664 20.8-139.07 57.4-198.324 106.1 80.754-256.3 234.699-419.7 403.539-564.1h-1019.5v266.7c77.2695 88.7 145.813 188.6 207.496 297.4-63.019-49.6-132.5858-82.8-207.496-102.5v14.5c154.148 200.8 275.43 420.3 355.512 663.3-43.801-16-91.149-25-144.274-22.3 121.18 110.4 205.086 261.9 268.883 435.6-30.781-13.5-63.949-22.8-99.5-27.9 82.996 82.7 136.164 226.2 178.891 390.9"/><path d="m1713.75 9210.1c-4.37-175.4 27.54-304.8 93.42-390.9-34.59 3.7-65.7 13.1-93.39 27.9 22.12-203.1 95.95-322.5 173.62-435.6-53.7-4.4-99.44 4.3-139.38 22.3 6.75-286.4 104.54-492 220.49-681.4-73.64 20.7-139.06 57.4-198.3 106.1 80.74-256.4 234.69-419.7 403.51-564.1h-1338.872c221.952 128 391.082 324.4 526.892 564.1-66.93-52.7-141.25-86.9-221.51-106.1 160.81 205.7 287.05 431 369.51 681.4-43.79-16-91.16-25-144.25-22.3 121.17 110.3 205.08 261.9 268.88 435.6-30.81-13.5-63.95-22.8-99.5-27.9 82.97 82.7 136.17 226.2 178.88 390.9"/><path d="m5463.48 9013c-4.39-175.5 27.52-304.8 93.4-390.9-34.58 3.6-65.69 13-93.39 27.9 22.13-203.2 95.98-322.5 173.61-435.6-53.69-4.4-99.44 4.2-139.38 22.3 6.76-286.5 104.55-492 220.5-681.4-73.64 20.8-139.05 57.4-198.3 106.1 80.74-256.4 234.7-419.7 403.52-564.1h-1338.88c221.96 128 391.07 324.4 526.89 564.1-66.93-52.7-141.24-86.9-221.51-106.1 160.8 205.6 287.04 431.1 369.51 681.4-43.81-16-91.15-25-144.25-22.3 121.17 110.4 205.07 261.8 268.89 435.6-30.81-13.5-63.95-22.8-99.52-27.9 82.97 82.7 136.17 226.2 178.91 390.9"/><path d="m8063.04 9082.3c-4.38-175.6 27.52-304.9 93.4-391-34.58 3.7-65.68 13-93.38 27.9 22.13-203.1 95.97-322.5 173.61-435.6-53.7-4.4-99.44 4.3-139.38 22.2 6.75-286.3 104.54-491.9 220.51-681.3-73.65 20.8-139.06 57.4-198.31 106.1 80.74-256.4 234.69-419.6 403.51-564.1h-1338.88c221.96 128 391.08 324.5 526.89 564.1-66.93-52.7-141.21-86.9-221.51-106.1 160.8 205.7 287.04 431.1 369.54 681.3-43.8-15.9-91.17-24.9-144.27-22.2 121.16 110.3 205.07 261.9 268.88 435.6-30.81-13.5-63.95-22.9-99.51-27.9 82.97 82.7 136.16 226.2 178.9 391"/><path d="m7001.27 9150.2c-4.38-175.5 27.5-304.9 93.4-391-34.6 3.7-65.7 13.1-93.38 27.9 22.13-203.1 95.95-322.4 173.62-435.6-53.73-4.3-99.46 4.3-139.4 22.3 6.77-286.4 104.55-492 220.5-681.4-73.62 20.8-139.04 57.5-198.3 106.1 80.75-256.4 234.71-419.6 403.51-564h-1338.87c221.94 127.9 391.05 324.4 526.88 564-66.91-52.7-141.22-86.9-221.5-106.1 160.81 205.8 287.02 431.1 369.52 681.4-43.81-15.9-91.15-24.9-144.27-22.3 121.19 110.4 205.06 261.9 268.88 435.6-30.79-13.4-63.95-22.8-99.49-27.9 82.97 82.8 136.17 226.2 178.9 391"/><path d="m8759.98 9361.9c-4.37-175.4 27.52-304.8 93.42-390.9-34.56 3.7-65.67 13.1-93.38 27.9 22.13-203.1 95.95-322.4 173.58-435.6-53.69-4.3-99.38 4.3-139.35 22.4 6.76-286.5 104.52-492 220.5-681.5-73.63 20.8-139.08 57.5-198.32 106.2 80.76-256.4 234.74-419.8 403.54-564.1h-1338.89c221.97 127.9 391.08 324.4 526.89 564.1-66.93-52.7-141.23-87-221.51-106.2 160.81 205.7 287.04 431.1 369.52 681.5-43.79-16.1-91.15-25-144.27-22.4 121.16 110.4 205.09 261.9 268.91 435.6-30.84-13.5-63.95-22.8-99.49-27.9 82.94 82.7 136.14 226.2 178.85 390.9"/><path d="m12670.5 9875.4c4.4-175.5-27.5-304.9-93.4-391 34.6 3.7 65.7 13.1 93.3 27.9-22.1-203.1-95.9-322.5-173.5-435.6 53.6-4.4 99.4 4.3 139.3 22.3-6.7-286.4-104.5-492-220.5-681.4 73.6 20.8 139.1 57.4 198.3 106.2-80.7-256.4-234.7-419.8-403.5-564.2h1338.9c-222 128-391.1 324.4-526.9 564.2 66.9-52.8 141.2-87 221.5-106.2-160.8 205.7-287 431.1-369.5 681.4 43.8-16 91.1-24.9 144.3-22.3-121.2 110.4-205.1 261.9-268.9 435.6 30.8-13.5 63.9-22.8 99.5-27.9-83 82.7-136.2 226.2-178.9 391"/><path d="m12430.8 9614.8c4.4-175.5-27.5-304.9-93.4-391 34.6 3.7 65.7 13.1 93.4 27.9-22.1-203.1-95.9-322.5-173.6-435.6 53.7-4.3 99.4 4.3 139.4 22.3-6.8-286.4-104.6-492-220.5-681.4 73.6 20.8 139 57.4 198.3 106.1-80.7-256.3-234.8-419.6-403.5-564h1338.8c-221.9 127.9-391.1 324.4-526.9 564 67-52.7 141.3-86.9 221.5-106.1-160.7 205.7-287 431.1-369.4 681.4 43.7-16 91.1-24.9 144.2-22.3-121.2 110.4-205.1 261.9-268.9 435.6 30.8-13.5 64-22.8 99.5-27.9-82.9 82.8-136.1 226.2-178.9 391"/><path d="m12005.1 9488c4.4-175.5-27.5-304.9-93.4-391 34.6 3.7 65.7 13.1 93.4 28-22.1-203.2-95.9-322.5-173.6-435.7 53.7-4.3 99.5 4.3 139.4 22.4-6.8-286.5-104.5-492-220.5-681.4 73.6 20.7 139.1 57.4 198.3 106.1-80.8-256.4-234.7-419.8-403.5-564.1h1338.8c-221.9 128-391 324.4-526.8 564.1 66.9-52.7 141.2-87 221.5-106.1-160.8 205.6-287.1 431-369.5 681.4 43.8-16.1 91.1-25 144.2-22.4-121.1 110.4-205 261.9-268.9 435.7 30.9-13.5 64-22.9 99.6-28-83.1 82.8-136.2 226.2-179 391"/><path d="m9987.16 9279.4c-4.38-175.4 27.44-304.8 93.34-390.9-34.6 3.7-65.7 13-93.34 27.9 22.14-203.1 95.94-322.5 173.64-435.7-53.7-4.2-99.5 4.4-139.4 22.4 6.8-286.4 104.6-492 220.5-681.3-73.6 20.7-139.1 57.4-198.3 106 80.7-256.4 234.7-419.7 403.5-564h-1338.87c221.94 127.9 391.09 324.3 526.9 564-66.97-52.7-141.26-86.9-221.51-106 160.77 205.6 287 431 369.49 681.3-43.82-16-91.15-24.9-144.24-22.4 121.18 110.5 205.06 262 268.88 435.7-30.79-13.4-63.95-22.8-99.54-27.9 83.01 82.7 136.18 226.2 178.95 390.9"/><path d="m10731.2 9427.4c-4.4-175.5 27.4-304.9 93.4-391-34.7 3.6-65.7 13.1-93.4 27.9 22.1-203.1 95.9-322.5 173.6-435.6-53.8-4.3-99.5 4.3-139.4 22.3 6.7-286.4 104.6-491.9 220.5-681.4-73.6 20.8-139 57.5-198.3 106.2 80.7-256.4 234.7-419.8 403.5-564.1h-1338.83c221.93 127.9 391.03 324.4 526.93 564.1-67-52.8-141.3-87-221.6-106.2 160.8 205.7 287 431.1 369.6 681.4-43.9-16-91.2-24.9-144.3-22.3 121.2 110.4 205 261.9 268.8 435.6-30.7-13.5-63.9-22.8-99.4-27.9 82.9 82.8 136.1 226.2 178.9 391"/></g><g transform="scale(1.2254)" fill-rule="evenodd"><path d="m0 6274.53c5947.14-1126.57 11123.6 1218.46 16300.2 0v-6000.496h-16300.2v6000.496" fill="#a0e0f4"/><path d="m16300.2 4826.75c-5947.2-906.15-11123.71 980.09-16300.178 0v-4826.75h16300.178v4826.75" fill="#c3ebf8"/></g><g transform="scale(1.17757)"><path d="m768.413 16084.7c60.231 0 109.352 48.3 109.352 107.6s-49.121 107.7-109.352 107.7c-60.221 0-109.345-48.4-109.345-107.7s49.124-107.6 109.345-107.6" fill="#fff" fill-rule="evenodd"/></g><g transform="scale(1.07387)"><path d="m3214.27 16116.4c51.38 0 93.27 41.2 93.27 91.8s-41.89 91.8-93.27 91.8-93.25-41.2-93.25-91.8 41.87-91.8 93.25-91.8" fill="#fff" fill-rule="evenodd"/></g><g transform="scale(1.13609)"><path d="m4889.58 16151.2c41.61 0 75.56 33.4 75.56 74.4s-33.95 74.4-75.56 74.4-75.56-33.4-75.56-74.4 33.95-74.4 75.56-74.4" fill="#fff" fill-rule="evenodd"/></g><g transform="scale(1.13955)"><path d="m6745.58 16028.1c76.09 0 138.1 61 138.1 135.9s-62.01 136-138.1 136c-76.06 0-138.11-61.1-138.11-136s62.05-135.9 138.11-135.9" fill="#fff" fill-rule="evenodd"/></g><g transform="scale(1.10671)"><path d="m10733.8 16198.2c28.5 0 51.7 22.8 51.7 50.9 0 28-23.2 50.9-51.7 50.9s-51.8-22.9-51.8-50.9c0-28.1 23.3-50.9 51.8-50.9" fill="#fff" fill-rule="evenodd"/></g><g transform="scale(1.09807)"><path d="m13515.5 16120.4c50.3 0 91.3 40.3 91.3 89.8 0 49.4-41 89.8-91.3 89.8-50.2 0-91.2-40.4-91.2-89.8 0-49.5 41-89.8 91.2-89.8" fill="#fff" fill-rule="evenodd"/></g><g transform="scale(1.13436)"><path d="m15139.1 16101.3c55.6 0 101 44.6 101 99.4 0 54.7-45.4 99.3-101 99.3s-100.9-44.6-100.9-99.3c0-54.8 45.3-99.4 100.9-99.4" fill="#fff" fill-rule="evenodd"/></g><g fill="#fff" fill-rule="evenodd"><path d="m12809.2 14827.7c70.9 0 128.8 56.9 128.8 126.7 0 69.9-57.9 126.8-128.8 126.8s-128.8-56.9-128.8-126.8c0-69.8 57.9-126.7 128.8-126.7"/><path d="m10849 13954.4c31.5 0 57.2 25.3 57.2 56.3s-25.7 56.4-57.2 56.4-57.2-25.4-57.2-56.4 25.7-56.3 57.2-56.3"/><path d="m6799.81 14715c23.63 0 42.91 19 42.91 42.3 0 23.2-19.28 42.2-42.91 42.2-23.67 0-42.93-19-42.93-42.2 0-23.3 19.26-42.3 42.93-42.3"/><path d="m4996.97 15898.2c70.94 0 128.79 57 128.79 126.8s-57.85 126.8-128.79 126.8c-70.92 0-128.76-57-128.76-126.8s57.84-126.8 128.76-126.8"/><path d="m2807.83 14292.4c47.27 0 85.86 38 85.86 84.5 0 46.6-38.59 84.5-85.86 84.5s-85.83-37.9-85.83-84.5c0-46.5 38.56-84.5 85.83-84.5"/><path d="m2121.04 15729.2c78.81 0 143.09 63.3 143.09 140.9s-64.28 140.8-143.09 140.8-143.07-63.2-143.07-140.8 64.26-140.9 143.07-140.9"/><path d="m6299.02 13785.3c47.27 0 85.85 38 85.85 84.5 0 46.6-38.58 84.6-85.85 84.6-47.3 0-85.86-38-85.86-84.6 0-46.5 38.56-84.5 85.86-84.5"/><path d="m7783.94 12588.7c39.5 0 71.74 31.7 71.74 70.6s-32.24 70.7-71.74 70.7c-39.56 0-71.77-31.8-71.77-70.7s32.21-70.6 71.77-70.6"/><path d="m14018.3 10249.7c137.9 0 250.4 110.7 250.4 246.5s-112.5 246.6-250.4 246.6c-138 0-250.4-110.8-250.4-246.6s112.4-246.5 250.4-246.5"/><path d="m15651.4 7981.9c144.9 0 263.1 116.3 263.1 259s-118.2 259.1-263.1 259.1-263.1-116.4-263.1-259.1 118.2-259 263.1-259"/><path d="m12586 5390c101.7 0 184.6 81.6 184.6 181.7 0 100-82.9 181.6-184.6 181.6-101.6 0-184.4-81.6-184.4-181.6 0-100.1 82.8-181.7 184.4-181.7"/><path d="m10118.5 4892.7c72.3 0 131.4 58.1 131.4 129.3 0 71.3-59.1 129.4-131.4 129.4-72.4 0-131.38-58.1-131.38-129.4 0-71.2 58.98-129.3 131.38-129.3"/><path d="m7915.83 3812.4c70.92 0 128.78 57 128.78 126.8 0 69.7-57.86 126.7-128.78 126.7-70.93 0-128.78-57-128.78-126.7 0-69.8 57.85-126.8 128.78-126.8"/><path d="m4711.18 5903.6c102.23 0 185.65 82.1 185.65 182.8 0 100.6-83.42 182.8-185.65 182.8-102.25 0-185.66-82.2-185.66-182.8 0-100.7 83.41-182.8 185.66-182.8"/><path d="m3686.25 7034.6c43.95 0 79.77 35.3 79.77 78.5 0 43.3-35.82 78.6-79.77 78.6-43.92 0-79.76-35.3-79.76-78.6 0-43.2 35.84-78.5 79.76-78.5"/><path d="m8058.92 10122.9c86.68 0 157.38 69.6 157.38 155 0 85.3-70.7 155-157.38 155-86.7 0-157.41-69.7-157.41-155 0-85.4 70.71-155 157.41-155"/><path d="m10920.6 10883.6c39.4 0 71.5 31.6 71.5 70.4s-32.1 70.4-71.5 70.4c-39.5 0-71.6-31.6-71.6-70.4s32.1-70.4 71.6-70.4"/><path d="m14669.8 12883.8c68.8 0 124.9 55.2 124.9 123 0 67.7-56.1 122.9-124.9 122.9s-124.9-55.2-124.9-122.9c0-67.8 56.1-123 124.9-123"/><path d="m15828.3 14771.3c47.2 0 85.8 38 85.8 84.6 0 46.5-38.6 84.5-85.8 84.5-47.4 0-86-38-86-84.5 0-46.6 38.6-84.6 86-84.6"/></g><g transform="scale(1.08868)"><path d="m16234.3 12015.5c36.2 0 65.7 29 65.7 64.7 0 35.6-29.5 64.7-65.7 64.7s-65.7-29.1-65.7-64.7c0-35.7 29.5-64.7 65.7-64.7" fill="#fff" fill-rule="evenodd"/></g><g transform="scale(1.10624)"><path d="m16235.3 14346c35.7 0 64.7 28.6 64.7 63.6 0 35.1-29 63.7-64.7 63.7-35.6 0-64.7-28.6-64.7-63.7 0-35 29.1-63.6 64.7-63.6" fill="#fff" fill-rule="evenodd"/></g><g transform="scale(1.14662)"><path d="m16212.6 14921.8c48.1 0 87.4 38.6 87.4 86 0 47.3-39.3 86-87.4 86s-87.4-38.7-87.4-86c0-47.4 39.3-86 87.4-86" fill="#fff" fill-rule="evenodd"/></g><g transform="scale(1.17757)"><path d="m15592.1 16132.5c46.8 0 85 37.6 85 83.8 0 46.1-38.2 83.7-85 83.7-46.9 0-85-37.6-85-83.7 0-46.2 38.1-83.8 85-83.8" fill="#fff" fill-rule="evenodd"/></g><g transform="scale(1.16201)"><path d="m12747.1 16178.8c33.9 0 61.6 27.2 61.6 60.6s-27.7 60.6-61.6 60.6-61.5-27.2-61.5-60.6 27.6-60.6 61.5-60.6" fill="#fff" fill-rule="evenodd"/></g><g fill="#fff" fill-rule="evenodd"><path d="m14812.3 15898.2c39.4 0 71.6 31.7 71.6 70.5 0 38.7-32.2 70.4-71.6 70.4s-71.5-31.7-71.5-70.4c0-38.8 32.1-70.5 71.5-70.5"/><path d="m15670.8 10714.6c23.7 0 43 18.9 43 42.2s-19.3 42.3-43 42.3c-23.6 0-42.9-19-42.9-42.3s19.3-42.2 42.9-42.2"/><path d="m15799.6 4122.3c63 0 114.5 50.6 114.5 112.7 0 62-51.5 112.6-114.5 112.6-63.1 0-114.5-50.6-114.5-112.6 0-62.1 51.4-112.7 114.5-112.7"/></g><g transform="scale(1.06937)"><path d="m16259.8 4250.06c22.2 0 40.2 17.67 40.2 39.46s-18 39.55-40.2 39.55-40.1-17.76-40.1-39.55 17.9-39.46 40.1-39.46" fill="#fff" fill-rule="evenodd"/></g></g></g></svg>
